<svg id="Layer_1" data-name="Layer 1" xmlns="http://www.w3.org/2000/svg" viewBox="0 0 228 252"><defs><style>.cls-1{fill:none;}</style></defs><path class="cls-1" d="M411.64,498.44h-228v-252h228ZM210.58,357.5h-.41a15,15,0,0,1-2-2.41c-1.69-3.19-3.17-6.46-3.18-10.22,0-5.09,1-9.86,4-14.05.39-.54.89-1.13.16-1.59a1.61,1.61,0,0,0-1.54.18c-1.49,1.3-2.85,2.75-4.29,4.11a5.9,5.9,0,0,0-2.09,3.56,7.52,7.52,0,0,1-.5,1.8,23,23,0,0,0-1.45,12.29c.79,5.66,4.3,9.76,8.16,13.51,2.07,2,5.05,2.61,7.83,3.31a15,15,0,0,0,6.35-.2,15.85,15.85,0,0,0,9.47-5.54c.45-.51.71-.55,1.14-.17a5.4,5.4,0,0,1,.93.92c1.48,2.06,3.79,2.91,5.93,3.9a14.6,14.6,0,0,0,9.55,1.27,16.3,16.3,0,0,0,9.7-6.14,5.16,5.16,0,0,1,.82-.72c.18.32.38.64.53,1a10.62,10.62,0,0,0,1.07,2.31,37.92,37.92,0,0,0,3.15,3.19,2.09,2.09,0,0,0,2.89.29q2-1.32,4-2.71c1-.73,2-1.49,3-2.3.73-.6,1.46-1.4.65-2.31s-1.66-.1-2.34.47a2.82,2.82,0,0,1-3.29.53,5.81,5.81,0,0,1-3.09-4.47,60.63,60.63,0,0,1-.31-8.1c0-4.91,0-9.83,0-14.74,0-2.11.13-4.21.25-6.31a1.65,1.65,0,0,1,.5-1c.58-.54,1.24-1,1.86-1.47a23.56,23.56,0,0,0,2.4-1.93,1.46,1.46,0,0,0,.2-2.12c-.62-.66-1.36-.44-2,.1-.27.23-.56.45-.82.69-1.17,1.08-1.55,1.12-2.79,0-1.55-1.41-3.05-2.86-4.56-4.32a1.73,1.73,0,0,0-2.53-.21c-.56.43-1.12.87-1.69,1.28-2,1.44-4,2.85-6,4.31-3.12,2.28-6.2,4.6-9.31,6.88a12.77,12.77,0,0,0-1.61,1,3,3,0,0,0-.63,1.44c0,.18.38.66.56.64,1.72-.14,1.33,1.09,1.29,2-.12,3-.32,6.1-.45,9.15,0,.81.15,1.64.06,2.45a54.51,54.51,0,0,1-.82,5.69c-.36,1.61-1,3.15-1.62,5a15.24,15.24,0,0,1-1.31-1.47A19.38,19.38,0,0,1,232.8,345a48.21,48.21,0,0,1,.46-5.21,16,16,0,0,1,4.32-9.6,6.47,6.47,0,0,0,.85-1.75L238,328a8.38,8.38,0,0,0-2.23,1,43,43,0,0,0-3.78,3.74A19.37,19.37,0,0,0,226.85,344a24.5,24.5,0,0,0,3.07,15.18c.41.69.39,1-.34,1.46a12.39,12.39,0,0,1-5.4,1.85c-1.37.16-1.47.07-1.47-1.28s0-2.9,0-4.35c-.07-4.58-.18-9.17-.22-13.75,0-1.7.16-3.4.22-5.11,0-.66-.09-1.33-.08-2,0-2,0-3.93.08-5.9,0-.12,0-.24,0-.36v-4.67l.38.3c.74-.45,1.5-.89,2.23-1.38a13.45,13.45,0,0,1,1.86-1.32c1.81-.76,3.62-.3,5.37.33,2.09.77,4.1,1.81,6.24,2.37,2.52.65,5.08.55,7.25-1.28.85-.72,1.71-1.42,2.5-2.2,2.82-2.79,5.61-5.6,8.41-8.41a16.65,16.65,0,0,0,4.11-7,33.58,33.58,0,0,0,.49-17c-.8-3.8-2.69-6.89-6.26-8.71a1.9,1.9,0,0,0-1.41-.16,19.79,19.79,0,0,0-2.77,1.55c-1.86,1.18-3.68,2.41-5.53,3.6a12.22,12.22,0,0,1-1.36.57c-.14-2.9-.34-5.55-.37-8.2a34,34,0,0,1,.44-3.87,1,1,0,0,0-.07-.7c-.95-1.17-.4-2.52-.33-3.75a3.06,3.06,0,0,1,1.18-2.27c1.84-.87,4.37.57,5,2.61.39,1.14,1.67,2.11,2.48,1.77a12.56,12.56,0,0,0,5.08-4.12,17.47,17.47,0,0,1-2.54-1.89c-3.17-3.41-7.74-3-11.37-1.31a22.48,22.48,0,0,0-4.75,3.11c-1.82,1.51-3.53,3.18-3.92,5.73-.16,1-.49,2.07-.62,3.11a52.76,52.76,0,0,0-.43,5.31c0,2.37.19,4.74.19,7.11,0,2.59-.13,5.17-.23,7.75a15,15,0,0,1-1.19,6.33,1.09,1.09,0,0,0,.1,1,1.13,1.13,0,0,0,1,.2,13.24,13.24,0,0,0,3.4-2.48,13.76,13.76,0,0,0,3.36-9.12c0-.89.4-1.39,1.46-1.46,0,.4,0,.74,0,1.09-.07,2.06-.21,4.13-.21,6.19,0,2.3.16,4.6.23,6.9,0,.55.08,1.23-.79,1.16a42.42,42.42,0,0,1-4.93-.49,11.58,11.58,0,0,0-6.54,1,50.11,50.11,0,0,0-7.51,4.15c-.39.25-.37,1.16-.54,1.77a5.8,5.8,0,0,0,1.72,0c1.37-.46,2.66-1.16,4-1.59,2.44-.76,4.94-.41,7.43-.29a8.8,8.8,0,0,1,5.55,2,1.7,1.7,0,0,0,2.41,0c2-1.44,3.94-2.87,5.87-4.36.3-.24.38-.79.56-1.19-.43,0-.85-.05-1.27,0-.15,0-.28.14-.43.2-1.17.49-1.73.15-1.76-1.12a17.18,17.18,0,0,1,0-2.87,2.27,2.27,0,0,1,.76-1.44c2.53-1.87,5.26-1.6,8-.55A2,2,0,0,1,256,304c-.19,1.6-.53,3.18-.69,4.78a11.66,11.66,0,0,1-3,6.54c-1.23,1.4-3,2.35-4.4,3.57a6,6,0,0,1-5.67.8c-2.81-1.08-5.56-2.22-8.75-2.13a11.92,11.92,0,0,0-7.72,3.05c-1.11.94-2.3,1.79-3.45,2.67a7.53,7.53,0,0,0,.39-2.54,1.83,1.83,0,0,0-.35-1.23c-.2-.19-.8,0-1.17.08a3.84,3.84,0,0,0-1,.66,4.38,4.38,0,0,1-5.6.05,13.65,13.65,0,0,0-6.63-2.76,11.47,11.47,0,0,0-7.55,1.66c-1.28.85-2.75,1.75-2.94,3.54a2,2,0,0,0,.4,1.58c.28.23,1.06,0,1.56-.21.65-.25,1.22-.88,1.85-.93a8.83,8.83,0,0,1,5.74,1,11,11,0,0,0,6.61,1.81,39,39,0,0,0,5.19-.93c1.53-.31,1.67-.24,1.64,1.28-.05,3.27-.17,6.53-.22,9.79,0,2.23,0,4.47,0,6.7,0,3.62.16,7.23.23,10.84,0,.82,0,1.63,0,2.45-.06,1.89-.11,3.79-.21,5.68,0,.64-.36.87-1.13.77a13.91,13.91,0,0,1-6.27-2.53c-1-.72-1-.9,0-1.65a27.72,27.72,0,0,0,3.93-3.2,8,8,0,0,0,1.84-5.69c0-3.46.3-6.92.41-10.38,0-1.14-.21-2.29-.2-3.43,0-1.75.21-3.5.18-5.24,0-.64-.33-1.63-.77-1.81a2.65,2.65,0,0,0-2,.45c-1.73,1.08-3.4,2.29-5.06,3.48a2.8,2.8,0,0,0-.94,1,1.68,1.68,0,0,0-.05,1.3c.11.2.82.26,1.17.13,1.06-.4,1.29.07,1.27,1,0,1.19.05,2.39,0,3.58-.12,2.13-.37,4.26-.45,6.4a61.27,61.27,0,0,0,0,6.5C212.35,354.48,210.82,355.73,210.58,357.5Zm99.75-74.11c-.27-.74-.43-1.21-.61-1.68-.7-1.91-3.12-3.13-4.65-2.16a50,50,0,0,0-5.2,3.86c-.33.26-.21,1.06-.3,1.62a5.61,5.61,0,0,0,1.49-.1,9,9,0,0,0,1.26-.85,1.47,1.47,0,0,1,2.13.74,26.33,26.33,0,0,1,.72,4.29c.11,2.89.06,5.78,0,8.66,0,2.15-.05,4.3-.27,6.42-.12,1.13-.32,2.65-1.07,3.23-3,2.3-2.28,8.22,2.22,9.63a15.54,15.54,0,0,0,7.81.07c2.4-.45,4.79-1.09,7.11.41.78.51,1.85-.41,1.66-1.35a3.25,3.25,0,0,0-.62-1.39,8.19,8.19,0,0,0-8-3.08c-2.31.41-4.59,1-6.91,1.32a3.71,3.71,0,0,1-2.35-1,2,2,0,0,1-.5-1.74,3.17,3.17,0,0,1,2.92-2,15,15,0,0,0,9.28-2.9,10.89,10.89,0,0,0,4.52-5.62,29.8,29.8,0,0,0,1.24-12.17,13.55,13.55,0,0,0-2.84-7.73c-1.07-1.26-1.84-1.39-3.2-.45C314.3,280.74,312.38,282,310.33,283.39ZM274,339a18.57,18.57,0,0,0-1,1.61c-.64,1.38-1.18,2.81-1.86,4.18a8.3,8.3,0,0,0,.28,8.66c1.53,2.33,2.85,3.58,5.45,1.59a19,19,0,0,1,2.54-1.49c1.65-.87,1.55-.75,2.83.6,1.54,1.63,2.58,2.6,4.66,1.15a3.89,3.89,0,0,1,1.24-.29,1.79,1.79,0,0,0,.75-.23,39.08,39.08,0,0,0,2.9-2.7c.3-.32.56-1,.41-1.3a1.59,1.59,0,0,0-1.28-.53,4.65,4.65,0,0,0-1.66.52c-1.5.69-1.88.42-2.08-1.25a11.23,11.23,0,0,0-.81-2.39,5.45,5.45,0,0,1-.57-1.59c0-1.62.17-3.25.17-4.87,0-1.39-.12-2.77-.24-4.15-.17-1.91.1-3.62,1.85-4.78a10.54,10.54,0,0,0,1.37-1.13c1-.93.85-1.56-.32-2.19a2,2,0,0,1-.71-.56,1.2,1.2,0,0,0-1.83-.42,13,13,0,0,0-1.56,1.41c-1.66-1.63-2.89-2.42-4.34-1.36a2.38,2.38,0,0,1-2.81.31c-.64-.34-1.32-.19-1.23.91a2.07,2.07,0,0,1-3,2.27,1.41,1.41,0,0,0-1.78.44,2.35,2.35,0,0,0,.52,3.34,5.29,5.29,0,0,1,1.36,1.69A15,15,0,0,1,274,339Zm5-58.44a14.71,14.71,0,0,0-1.59.82c-2.84,1.92-5.64,3.89-8.5,5.78a3.45,3.45,0,0,0-1.76,3.13c0,4,0,8.07,0,12.1a2.46,2.46,0,0,1-1.27,2.33,6.1,6.1,0,0,0-1.62,1.5,1.26,1.26,0,0,0,.07,1.22,1.4,1.4,0,0,0,1.28.3c1.26-.8,2.24-.34,3.22.44.56.45,1.09.93,1.64,1.39a1.76,1.76,0,0,0,2.72-.07c.8-.71,1.66-1.34,2.48-2,1.54-1.27,3.68-1.61,5-3.28a3.74,3.74,0,0,1,1.2-.95,2,2,0,0,0,1.09-2c0-3.54.1-7.09,0-10.63-.11-2.56,0-4.82,2.73-6.08.3-.15.27-1,.4-1.5-.49-.07-1.17-.38-1.44-.17-1.21.93-2.1.66-3-.41a7.63,7.63,0,0,0-1.36-1.17A9.92,9.92,0,0,0,278.92,280.59Zm62.69,53.91-.24-.14a5.51,5.51,0,0,1,1-1.68c.73-.57,1.4.05,2,.51l.08.08a5,5,0,0,0,6.7-.85,5.51,5.51,0,0,1,3-2.49c1-.24.74-1.19.55-1.79a1.51,1.51,0,0,0-1.19-.83,8.53,8.53,0,0,0-3.06.73,2.2,2.2,0,0,1-3-.6,1.39,1.39,0,0,0-2.25,0c-.88.79-1.85,1.48-2.72,2.28s-1.23.41-1.82-.32a8.88,8.88,0,0,0-2.39-2.23,3.22,3.22,0,0,0-2.29,0,8.63,8.63,0,0,0-2.15,1.4,35.62,35.62,0,0,0-3.26,2.59,1.74,1.74,0,0,0-.11,1.54c.29.66,1,.76,1.62.34.26-.17.54-.31.81-.48a2.28,2.28,0,0,1,3.6,1.34,52.5,52.5,0,0,1,.26,6.52c0,1.75-.08,3.5-.11,5.25,0,1.49,0,3-.06,4.47,0,.24-.5.49-.81.66-.78.41-1.61.73-2.35,1.2-.57.35-1,1-.38,1.58a2,2,0,0,0,1.62.5,2,2,0,0,1,2.7,1.05,3.3,3.3,0,0,0,4.31,1c2-1.4,4-2.8,5.9-4.27a2,2,0,0,0,.7-1.39c0-.3-.61-.69-1-.89a2,2,0,0,0-2.49.72,1.15,1.15,0,0,1-.93.38,3,3,0,0,1-2.19-3.08c.05-2.62.2-5.25.21-7.87C341.85,338,341.7,336.22,341.61,334.5ZM224.89,307.8a1.66,1.66,0,0,0,.61-.28,22.48,22.48,0,0,0,3.21-3c1.85-2.45,3.46-5,3.36-8.33s0-6.31,0-9.46c0-1.36.2-2.7.21-4a25.4,25.4,0,0,1-.18-3.46c.3-2.08.89-4.11,1.27-6.18a2.42,2.42,0,0,0-.3-1.61c-.13-.2-1-.18-1.34,0-3.13,2.26-5.71,4.89-5.68,9.14,0,.29-.51.78-.83.82-2.09.26-5.63,3.23-6,5.31a2.47,2.47,0,0,0,.57,1.8c.19.22,1,0,1.53-.18.92-.39,1.75-1.06,2.7-1.36.52-.16,1.2.22,1.81.35-.44.42-.82,1.12-1.31,1.22-2.61.48-3.8,2.2-4.21,4.6a1.73,1.73,0,0,0,.45,1.41c.26.24.93.18,1.37.05.67-.19,1.27-.61,1.93-.82,1.3-.4,1.83,0,1.8,1.32-.05,1.86-.09,3.73-.26,5.58a23.63,23.63,0,0,1-.73,3.91,15.51,15.51,0,0,1-1,2C223.5,307.37,223.73,307.84,224.89,307.8Zm146.8,114c2.05-.11,4.16-.17,6.25-.37a1.78,1.78,0,0,0,1.26-.92,1.05,1.05,0,0,0-1-1.4c-2-.14-3.95-.31-5.93-.28-3.42.05-6.85.29-10.27.36-5,.09-9.89.12-14.83.14-5.91,0-11.83-.07-17.73,0-3.05.05-6.08.53-9.13.66-4.06.17-8.12.18-12.18.26l-11.35.24q-7.26.14-14.53.24c-1.68,0-3.36,0-5,0-.32,0-.92.3-.91.44a1.39,1.39,0,0,0,.48,1.07,4.79,4.79,0,0,0,2,.57c1.5,0,3-.17,4.51-.2q6.66-.14,13.33-.21c3.2,0,6.41,0,9.61,0,5.18-.06,10.36-.15,15.54-.23l13.48-.24c3.66-.07,7.32-.18,11-.24,6.41-.09,12.82-.19,19.23-.22C367.5,421.47,369.56,421.68,371.69,421.79Zm-73.64-90.44c1.08,0,1.39.31,1.4,1.71,0,5.58,0,11.16,0,16.75a2.11,2.11,0,0,1-1.16,2,5.66,5.66,0,0,0-1.5,1.47c-.17.24,0,.71-.05,1.07.36,0,.82.09,1.06-.09a2.16,2.16,0,0,1,2.82.1,20.63,20.63,0,0,0,2.42,1.69,2.12,2.12,0,0,0,1.78.1,52.14,52.14,0,0,0,4.83-3.64c.33-.27.31-1,.44-1.46a3.74,3.74,0,0,0-1.39-.12,3.26,3.26,0,0,1-4.24-2.67c-.13-1.66-.22-3.32-.24-5,0-3.4,0-6.79,0-10.19,0-.62-.06-1.34.91-1.31,1.92,0,3-1.18,3.94-2.61a1.19,1.19,0,0,0-.88-1.93,17,17,0,0,0-2.9-.45c-.87,0-1.12-.37-1.09-1.16.08-2.16-.22-4.35.64-6.47.15-.39-.33-1.11-.66-1.57a2.08,2.08,0,0,0-1.22.5c-.68.7-1.2,1.56-1.89,2.26-.28.29-1,.58-1.18.44-.59-.53-1.39-.82-1.78-.31a2.74,2.74,0,0,0-.11,2.07,32.94,32.94,0,0,0,1.25,3.25c.48,1.24,0,2-1.29,1.9-1.72-.15-2.73.88-3.69,2a1.36,1.36,0,0,0-.26,1.18,1.62,1.62,0,0,0,1.16.62A25.11,25.11,0,0,0,298.05,331.35Zm-5.36-60.7a7.26,7.26,0,0,0-.81-.72c-.38-.25-.79-.45-1.18-.67a4.16,4.16,0,0,0-.57,1.43c0,1.73.26,3.46.3,5.19.08,3.19.1,6.38.1,9.57,0,2.66,0,5.33-.09,8,0,1.79-.09,3.59-.07,5.38,0,1.38.19,2.76.17,4.14a2.1,2.1,0,0,1-.68,1.33c-.75.68-1.65,1.2-2.41,1.88a4.32,4.32,0,0,0-.67,1.26L288,308a3.81,3.81,0,0,1,1,.51c.62.62,1.14.78,1.52-.15s.72-.71,1.25-.23,1,.87,1.54,1.31a1.3,1.3,0,0,0,2.05-.06,23.32,23.32,0,0,1,2.55-2.1c.84-.65,1.77-1.2,2.55-1.91.27-.25.21-.85.31-1.29-.43-.07-.86-.15-1.29-.19a1.52,1.52,0,0,0-.59.09c-2,.64-3.57-1-3.49-3,.09-2.36.16-4.73.18-7.09,0-4.26,0-8.52,0-12.78,0-.9.11-1.8.13-2.7s-.07-1.82-.06-2.73c0-1.95.16-3.9.11-5.85a1.6,1.6,0,0,0-.89-1.22c-.32-.09-.87.44-1.24.79A9.19,9.19,0,0,0,292.69,270.65Zm-8.14,97.48c-.62-.71-1.11-1.33-1.66-1.9a1.74,1.74,0,0,0-2.15-.46,14.23,14.23,0,0,0-2.5,1.54c-.85.68-1.33.56-1.83-.39-.69-1.35-1.5-1.55-2.75-.77a29.62,29.62,0,0,0-3,2.06c-.37.31-.46,1-.68,1.45.54,0,1.07,0,1.6-.09s1.12-.43,1.38-.24a1.92,1.92,0,0,1,.58,1.4c.05,2.52.06,5,0,7.55,0,.58-.45,1.13-.56,1.72a3,3,0,0,0,0,1.8,3.26,3.26,0,0,0,1.66,1.27,3.36,3.36,0,0,0,1.84-.16c.38-.12.68-.53,1-.82a1.47,1.47,0,0,0,.28-2.1,3.91,3.91,0,0,1-.59-1.82c-.07-2.08.06-4.16,0-6.23a2.73,2.73,0,0,1,1.76-2.77c.82-.43,1.25-.08,1.38.64a15.76,15.76,0,0,1,.27,3.06,56.48,56.48,0,0,1-.35,6.76c-.26,1.75,0,2.92,1.56,3.75s2-.73,2.89-1.3c.37-.24.44-1,.59-1.51a.65.65,0,0,0-.28-.5c-1-.68-.85-1.7-.84-2.69,0-1.92.07-3.84,0-5.75-.06-1.09.65-1.6,1.31-2.1a1,1,0,0,1,1.6.82c0,2.15,0,4.31,0,6.46a36.11,36.11,0,0,0,.31,4.66c.19,1.17,1.94,2.43,2.67,2a22.43,22.43,0,0,0,3.2-2.2c.28-.23.29-.81.43-1.23-.44-.07-.95-.32-1.3-.18a1.11,1.11,0,0,1-1.56-.65,4.06,4.06,0,0,1-.38-1.83c0-1.58.16-3.16.21-4.75s-.28-3,1.15-4.14c.67-.54.32-1-.55-1.24a4.46,4.46,0,0,1-1.75-.81,1.76,1.76,0,0,0-2.61-.07ZM315,347.19c-.34,2.58.41,3.05-2.42,4.72a1.52,1.52,0,0,0-.57,1.35,1,1,0,0,0,1.61.3c1.08-.78,1.84-.22,2.61.45a11,11,0,0,1,1.18,1.19,1.55,1.55,0,0,0,2.38.2c1-.72,2-1.4,3-2.08a30.4,30.4,0,0,0,3-2.09,1.81,1.81,0,0,0,.53-1.59c-.31-.79-1.12-.48-1.72-.2-.42.2-.74.61-1.16.79a2.26,2.26,0,0,1-1.35.21,3.33,3.33,0,0,1-2.12-3.83,5.78,5.78,0,0,0-.09-1.16c-.13-1.68-.56-3.44,1.14-4.67.64-.46,1.29-.89,1.93-1.36,1.67-1.23,3.35-2.46,5-3.71a2,2,0,0,0,.51-2.81c-.86-1.67-1.63-3.4-2.45-5.1-.71-1.46-1.59-1.62-2.88-.69-2.23,1.61-4.51,3.14-6.76,4.72a2.72,2.72,0,0,0-1.4,2.44c.08,1.85,0,3.69,0,5.54Zm-18,45.53v.94c0,5.27,0,10.54,0,15.81,0,1.68.2,3.36-1.45,4.51-.18.13-.21.68-.1.95a.89.89,0,0,0,.81.24c.91-.44,1.44.11,2.12.55a2.39,2.39,0,0,0,1.78.2,5.51,5.51,0,0,0,1.85-1.22,2.11,2.11,0,0,0,.65-1.16c0-.17-.56-.41-.83-.65-.51-.48-1.41-1-1.44-1.48a81.28,81.28,0,0,1,0-8.26c0-.55.86-1.06,1.32-1.59.58.51,1.55.95,1.67,1.55a21.53,21.53,0,0,1,.52,5.42c-.17,3,.11,6.09-.95,9a1.08,1.08,0,0,0,.2.79.59.59,0,0,0,.58.06c1.36-1,2.94-2,3.24-3.77a40.06,40.06,0,0,0,.28-6.3c0-1.3-.11-2.61-.22-3.91a3.33,3.33,0,0,1,1.24-3.28c.18-.14.24-.46.35-.69l-.83-.32a7.23,7.23,0,0,1-2.1-.81c-1.28-1-1.68-1.16-3-.16-.44.33-.79.79-1.21,1.15a5,5,0,0,1-.9.48c0-3-.8-5.8.16-8.58.1-.28-.24-.8-.5-1.08-.1-.1-.6.14-.89.28C298.73,391.78,298.06,392.16,297.05,392.72Zm-23.67,9a6.3,6.3,0,0,0,1.27.29,1.62,1.62,0,0,1,1.74,1.71,73.54,73.54,0,0,1-.23,7.86c-.05.55-1.07,1.09-1.74,1.43-.15.07-1.05-.7-1.08-1.11a61.76,61.76,0,0,1-.19-8.7,6.09,6.09,0,0,0-.87-3.65c-.69-1.23-1.64-1.31-2.69-.39-.74.65-1.58,1.19-2.3,1.87a4,4,0,0,0-.58,1.21c.42,0,1,.12,1.25-.09.82-.62,1.22-.18,1.54.48a2.56,2.56,0,0,1,.21,1.13c-.06,2.31-.19,4.61-.22,6.91,0,1.21.12,2.39-1.1,3.19-.22.14-.18.69-.26,1.05l1,.2a4.77,4.77,0,0,1,1.71.41c1.74,1.25,2.69,1.23,4.26-.27,1.13-1.07,1.52-1,2.52.24.61.79,1.34,1.47,2.38.75a39.24,39.24,0,0,0,3.45-2.68,1.43,1.43,0,0,0,.4-1.27c-.33-.75-.93-.29-1.39,0-1.2.67-2.29.31-2.58-1a8.49,8.49,0,0,1,.05-2,18.93,18.93,0,0,0,.05-2.13c-.14-2.09-.89-4.28,1.23-5.92a1,1,0,0,0,.21-.85c0-.14-.48-.36-.67-.29-.91.31-1.38-.28-1.95-.79-.39-.35-1.07-.87-1.37-.74A7.91,7.91,0,0,0,273.38,401.73Zm69.86-42.17c-.29.09-.48.12-.66.2-1.66.75-1.92,2.1-.64,3.38,2.14,2.15,2.1,2.1-.26,4.05a4.07,4.07,0,0,0-1.4,2.23,14.4,14.4,0,0,0,.25,3.44,7.78,7.78,0,0,1,.14,1.17c-.05,1.22-.08,2.45-.25,3.66a6.39,6.39,0,0,1-.71,2.16c-.34.61-.23.8.37,1a7.79,7.79,0,0,1,1.83,1,2.25,2.25,0,0,0,3.09.1c1.48-1.05,2.94-2.11,4.41-3.16a2.81,2.81,0,0,0,1.43-2.31c0-2.42.14-4.84.11-7.26a2.91,2.91,0,0,1,1.1-2.7c.29-.21.36-.7.53-1.06-.4-.09-.89-.37-1.19-.24-.88.39-1.41,0-2-.57-1.58-1.44-3.17-2.88-4.79-4.29A8.64,8.64,0,0,0,343.24,359.56Zm28,40.66a9.4,9.4,0,0,1-1.88-.83c-2-1.55-1.94-1.58-4-.2-.22.16-.42.36-.64.52-.92.69-1.29.58-1.76-.51a1.86,1.86,0,0,0-2.92-.88,24.94,24.94,0,0,0-2.36,2,1,1,0,0,0-.21.74c0,.17.36.45.48.41.6-.16,1.19-.38,1.46.44a6,6,0,0,1,.44,1.69c.05,2.37.05,4.73,0,7.1a3,3,0,0,1-.48,1.52c-.44.66-.7,1.34-.13,1.94.73.77,1.25,1.94,2.63,1.77a.77.77,0,0,0,.42-.16c.56-.46,1.12-.89,1.63-1.39a1.23,1.23,0,0,0,.2-1.7,3,3,0,0,1-.64-1.38c-.06-2.64-.11-5.29,0-7.93a2.22,2.22,0,0,1,1.49-1.49c.91-.17,1.3.68,1.34,1.57,0,.24,0,.48,0,.72,0,2.47,0,4.95,0,7.42a6,6,0,0,0,1.52,4.1,1.24,1.24,0,0,0,1.8.24c1.13-.85,2.23-1.75,3.29-2.69.19-.18.31-.77.18-.91a1.17,1.17,0,0,0-1-.32c-1.76.43-2.23.08-2.24-1.79,0-2.19,0-4.39,0-6.58a2.89,2.89,0,0,1,.85-2.36C371,401,371.08,400.51,371.2,400.22Zm14.29,6.41h.24c0-.08,0-.16,0-.24-.17-2.19-1-4.49,1-6.34.15-.14.1-.6,0-.86s-.4-.17-.62-.22c-.52-.12-1.17-.07-1.55-.37-1.81-1.47-3.56-3-5.32-4.56a1.67,1.67,0,0,0-2.67.11c-.82.91-.75,1.59.24,2.5l.87.83c1.55,1.48,1.58,1.52-.21,2.67s-2.63,2.46-2.31,4.55a19.74,19.74,0,0,1,.23,3.07,12.43,12.43,0,0,1-.3,4.25c-.82,2.14.66,2.63,1.89,3.47a2,2,0,0,0,2.51.06c1.65-1.15,3.32-2.28,4.91-3.5a2.6,2.6,0,0,0,1-1.52A33.78,33.78,0,0,0,385.49,406.63Zm-25.38-42c-1.35.22-2.31.35-3.26.56a.91.91,0,0,0-.54.59c-.22,1.12-1,1.28-1.95,1.27a1.17,1.17,0,0,0-1.13,1.83c.19.38.61.66.76,1.05a4.43,4.43,0,0,1,.59,2.22,15.74,15.74,0,0,1-1.44,3.46,5.78,5.78,0,0,0-.46,4c.59,2.55,2.44,3.44,4.66,2.22a4.57,4.57,0,0,0,.71-.42,1.37,1.37,0,0,1,2.22.26,2,2,0,0,0,2.92.45,20.37,20.37,0,0,0,2.26-1.47,4.87,4.87,0,0,0,.79-1.54c-.55-.06-1.1-.1-1.64-.18-.38-.06-1-.1-1.08-.27-.36-1.47-1.36-2.77-1.07-4.43a9.74,9.74,0,0,0,0-2.75,4.41,4.41,0,0,1,1.71-4.41c.27-.2.28-.74.4-1.12-.42,0-1-.19-1.25,0-.81.58-1.22.21-1.79-.37A6.3,6.3,0,0,0,360.11,364.65Zm-66,13.76c.14.71.19,1.31.36,1.87.75,2.44,2.56,3.15,4.7,1.89.23-.14.5-.22.73-.38a1.37,1.37,0,0,1,2.05.28c1.13,1.21,1.71,1.22,3.17.35a14.83,14.83,0,0,0,2.17-1.39,1.86,1.86,0,0,0,.66-1.43c-.2-.76-.94-.46-1.5-.29-1.72.51-2.19.18-2.21-1.63s.08-3.6,0-5.39,0-3.64,1.82-4.78c0,0,.08-.05.08-.08l.21-1.1c-.37,0-.84-.26-1.07-.1-.91.6-1.49.28-2.16-.41-1-1.06-2.07-1.14-3-.25a5.53,5.53,0,0,1-4,1.74,1.31,1.31,0,0,0-1.18,2.06c.2.38.64.64.78,1a4.62,4.62,0,0,1,.56,2.34,26.78,26.78,0,0,1-1.55,3.54A20.85,20.85,0,0,0,294.09,378.41ZM343,411.64l.31.14c0,.16,0,.32,0,.48a4.76,4.76,0,0,0,2.2,3.77c1,.66,2-.17,2.91-.74.23-.15.51-.23.72-.4.71-.62,1.27-.35,1.85.22,1.49,1.43,1.82,1.44,3.54.27a13,13,0,0,0,1.78-1.34,3.6,3.6,0,0,0,.54-1.15,4.61,4.61,0,0,0-1.28,0c-1.48.4-2.13,0-2.21-1.6-.1-2.17-.11-4.35-.26-6.52a3.68,3.68,0,0,1,1.48-3.55,1.23,1.23,0,0,0,.48-.51,5,5,0,0,0,.15-1.1c-.33,0-.72-.09-1,.06-.81.47-1.32.19-2-.41-1.37-1.29-2.07-1.16-3.34-.14a15.69,15.69,0,0,1-3.59,1.55c-.51.22-1.18.42-1.4.83s.17,1,.38,1.46.58.66.76,1.05a7.1,7.1,0,0,1,.78,2.31c0,.39-.71.8-.95,1.27C344.25,408.89,343.64,410.27,343,411.64Zm-80.3-6.85c.56-.78,1-1.41,1.47-2.07a16.46,16.46,0,0,0,1.16-2,3.75,3.75,0,0,0,.16-1.22,3.34,3.34,0,0,0-1.28.11,1.54,1.54,0,0,1-2.14-.2,1.14,1.14,0,0,0-1.7-.09c-1,.78-2.1,1.53-3.13,2.31-1.23.92-2.35,1.89-2.16,3.67.13,1.18.2,2.37.23,3.56,0,.92.28,1.6,1.27,1.88.61.17,1,.61.55,1.24-.31.47-.8.83-1.08,1.32a4.21,4.21,0,0,0-.8,1.94c0,.94.95.66,1.58.77s1.06.44,1.61.56a2.55,2.55,0,0,0,1.56.06c1.37-.77,2.66-1.68,4-2.56a2.72,2.72,0,0,0,1.43-2.68c-.09-.91,0-1.83,0-2.75,0-1.52-.32-2.83-2-3.37A3.26,3.26,0,0,1,262.71,404.79Zm46.81-23.48c.15.12.29.31.39.3,1.38-.2,2.4.53,3.47,1.22a1.31,1.31,0,0,0,1.18.08,27.08,27.08,0,0,0,2.91-2.2,1,1,0,0,0,.19-1,1.26,1.26,0,0,0-1-.37c-1.24.12-2-.44-2.11-1.69-.12-2.46-.15-4.93-.26-7.39-.06-1.28,0-2.25,1.6-2.67a2.51,2.51,0,0,0,1.42-1.9c0-1.1-1.15-.8-1.89-.79s-1.21-.23-1.13-1.09c.11-1,.22-2,.25-3.06a9.6,9.6,0,0,0-.2-1.59c-.52.21-1.06.38-1.55.63s-1.14.92-1.75,1c-1.09.08-1.17.6-.94,1.41.09.34.26.66.38,1,.58,1.55.57,1.54-.94,2.08a2.06,2.06,0,0,0-.93.48,9.65,9.65,0,0,0-.75,1.51,5.24,5.24,0,0,0,1.42.5c1.43.06,1.88.46,1.85,1.86-.06,2.31-.12,4.61-.16,6.92,0,1.49.3,3.07-1.18,4.15C309.62,380.79,309.6,381.09,309.52,381.31Zm-16.17,32.42-.16-.39a5.19,5.19,0,0,0-.83-.24c-1.82-.16-2.51-.88-2.52-2.71,0-2.55,0-5.11,0-7.66a1.25,1.25,0,0,1,1-1.47,3.67,3.67,0,0,0,1.56-1,1.19,1.19,0,0,0-.59-2c-.64-.11-1.54,0-1.83-.4s-.17-1.29-.14-2,.21-1.08.2-1.61a8.42,8.42,0,0,0-.29-1.48,17.21,17.21,0,0,0-1.58.7c-.46.26-.82.78-1.29.88-1.11.25-1.37.58-1,1.68a6.93,6.93,0,0,0,.37,1c.56,1,0,1.38-.89,1.69a5.36,5.36,0,0,0-1.65,1,1.1,1.1,0,0,0-.24,1c.12.28.58.46.93.57a2.33,2.33,0,0,0,.95,0c.72-.07,1.18.14,1.17.95s0,1.54-.05,2.31c0,2.35,0,4.71,0,7.06a4.84,4.84,0,0,1-.58,1.7c-.21.5-.49,1-.63,1.25,1.2.52,2.17,1,3.16,1.36.46.18,1.11.56,1.39.38C291.05,415.55,292.18,414.61,293.35,413.73Zm38.22-45.13c0,2.36,0,4.71,0,7.07,0,1.62.29,3.31-1.58,4.25-.2.1-.3.64-.23.93a.89.89,0,0,0,.79.3c1.18-.44,1.88.33,2.74.86a2,2,0,0,0,1.7.07,12.81,12.81,0,0,0,2.44-1.86,5.34,5.34,0,0,0,.78-1.21,5.51,5.51,0,0,0-1.34-.43c-1.26-.08-1.72-.48-1.73-1.73s0-2.67,0-4c.06-4.27.14-8.53.21-12.79a13.89,13.89,0,0,0,0-2c-.14-1.07-.75-1.26-1.65-.69a2,2,0,0,1-1.13.14c-.85-.08-1.17.35-1.16,1.1,0,.47.14.94.15,1.41C331.58,362.85,331.57,365.73,331.57,368.6ZM224.82,263.17a15.21,15.21,0,0,1-2.13.29c-2.58,0-4.31,1.59-5.92,3.28-.28.29-.15,1.1,0,1.59.05.16.85.14,1.28.07,1-.16,2-.74,2.93-.55a31.82,31.82,0,0,1,5.77,1.86c2.3,1,4.51,1.28,6.81.13.56-.28,1.2-.42,1.75-.71a7.06,7.06,0,0,0,3.55-3.78,1.09,1.09,0,0,0-.11-1,1.19,1.19,0,0,0-1-.18c-.42.15-.72.6-1.13.81a5.92,5.92,0,0,1-2.52,1,9.3,9.3,0,0,1-3.51-1.08A14.48,14.48,0,0,0,224.82,263.17ZM330.33,413.24l-.23-.37a4.6,4.6,0,0,0-.91,0c-1.56.34-2.43-.3-2.43-1.86,0-2.47,0-4.95,0-7.42,0-1.76.21-1.89,1.83-1.12a3.4,3.4,0,0,0,4.4-1.86c.24-.66.09-.94-.64-1a3.27,3.27,0,0,1-1.68-.32c-1.52-1.12-1.51-1.18-2.82.11-.8.79-1.47.92-2.23-.06-.54-.69-1.39-1.28-2.18-.85a26.3,26.3,0,0,0-3.58,2.6.87.87,0,0,0-.09.83,1.07,1.07,0,0,0,.8.29,3,3,0,0,0,.87-.3,1.18,1.18,0,0,1,1.68.82,15.59,15.59,0,0,1,.27,3.42,30.22,30.22,0,0,0-.16,3.67c.2,1.51.22,2.78-1.27,3.68-.26.15-.35.68-.39,1,0,.1.39.29.63.39a18.83,18.83,0,0,1,2.55,1,1.65,1.65,0,0,0,2.05,0c.41-.3.87-.53,1.26-.85C328.83,414.56,329.57,413.89,330.33,413.24Zm11.93-.23-1.24-.16a1.8,1.8,0,0,1-1.81-1.79q0-8.08,0-16.18c0-.75.23-1.51.21-2.25,0-1.34-.68-1.68-1.83-1.09a1.52,1.52,0,0,1-1,.14c-1.07-.32-1.15.43-1.13,1.09.11,4.24.3,8.49.39,12.74,0,1.54-.22,3.08-.2,4.63s.07,3.12-1.64,4c-.15.07-.21.31-.38.59.36.15.74.47.94.38a2.15,2.15,0,0,1,2.44.62c.39.32,1.14.73,1.43.57A8.38,8.38,0,0,0,342.26,413Zm-24.48.22-.19-.53a4.47,4.47,0,0,0-1.44.14,1.25,1.25,0,0,1-1.57-.31c-1.05-.94-1.22-4.25-.11-5.22s2.59-1.92,3.89-2.87c.72-.53,1.23-1.2.81-2.13a26.93,26.93,0,0,0-1.45-2.83c-.49-.81-1.12-1.29-2.11-.57a39.81,39.81,0,0,1-3.78,2.56,2.28,2.28,0,0,0-1.26,2.1c0,2.47-.06,4.94.07,7.41a3.07,3.07,0,0,1-.93,2.77,1,1,0,0,0-.37.78c.07.2.47.32.74.45.59.27,1.18.54,1.77.78s1.27.72,1.57.53C314.94,415.38,316.34,414.27,317.78,413.23ZM326,367c-1.16-.58-2.1-1.1-3.08-1.5-.57-.23-1.38-.55-1.81-.32a18.76,18.76,0,0,0-3.18,2.23c-.23.19-.22.67-.33,1a3.08,3.08,0,0,0,1.08.21c1.85-.39,2.73.49,2.6,2.36a79.47,79.47,0,0,0-.21,8.45c.11,2.4,1.8,3.61,2.91,3.09a32.39,32.39,0,0,0,4.72-3c.16-.11.14-.78,0-1a1.14,1.14,0,0,0-1-.25,5.18,5.18,0,0,0-1.21.71c-.64.41-1.19.36-1.49-.39a4.25,4.25,0,0,1-.37-1.46c0-2.27,0-4.55,0-6.82a2.94,2.94,0,0,1,1-2.43A2.38,2.38,0,0,0,326,367Zm-2.62-7.63a17.43,17.43,0,0,0-2.15,1.85,1.45,1.45,0,0,0-.06,1.4,1.55,1.55,0,0,0,1.4.44,6.1,6.1,0,0,0,1.94-1.67C325.06,360.66,324.46,359.65,323.38,359.39Z" transform="translate(-183.64 -246.44)"/><path d="M210.58,357.5c.24-1.77,1.77-3,1.63-5a61.27,61.27,0,0,1,0-6.5c.08-2.14.33-4.27.45-6.4.06-1.19,0-2.39,0-3.58,0-.92-.21-1.39-1.27-1-.35.13-1.06.07-1.17-.13a1.68,1.68,0,0,1,.05-1.3,2.8,2.8,0,0,1,.94-1c1.66-1.19,3.33-2.4,5.06-3.48a2.65,2.65,0,0,1,2-.45c.44.18.76,1.17.77,1.81,0,1.74-.17,3.49-.18,5.24,0,1.14.24,2.29.2,3.43-.11,3.46-.44,6.92-.41,10.38a8,8,0,0,1-1.84,5.69,27.72,27.72,0,0,1-3.93,3.2c-1,.75-1,.93,0,1.65a13.91,13.91,0,0,0,6.27,2.53c.77.1,1.09-.13,1.13-.77.1-1.89.15-3.79.21-5.68,0-.82.05-1.63,0-2.45-.07-3.61-.18-7.22-.23-10.84,0-2.23,0-4.47,0-6.7,0-3.26.17-6.52.22-9.79,0-1.52-.11-1.59-1.64-1.28a39,39,0,0,1-5.19.93,11,11,0,0,1-6.61-1.81,8.83,8.83,0,0,0-5.74-1c-.63.05-1.2.68-1.85.93-.5.19-1.28.44-1.56.21a2,2,0,0,1-.4-1.58c.19-1.79,1.66-2.69,2.94-3.54a11.47,11.47,0,0,1,7.55-1.66,13.65,13.65,0,0,1,6.63,2.76,4.38,4.38,0,0,0,5.6-.05,3.84,3.84,0,0,1,1-.66c.37-.13,1-.27,1.17-.08a1.83,1.83,0,0,1,.35,1.23,7.53,7.53,0,0,1-.39,2.54c1.15-.88,2.34-1.73,3.45-2.67a11.92,11.92,0,0,1,7.72-3.05c3.19-.09,5.94,1.05,8.75,2.13a6,6,0,0,0,5.67-.8c1.44-1.22,3.17-2.17,4.4-3.57a11.66,11.66,0,0,0,3-6.54c.16-1.6.5-3.18.69-4.78a2,2,0,0,0-1.29-2.2c-2.73-1.05-5.46-1.32-8,.55a2.27,2.27,0,0,0-.76,1.44,17.18,17.18,0,0,0,0,2.87c0,1.27.59,1.61,1.76,1.12.15-.06.28-.2.43-.2.42,0,.84,0,1.27,0-.18.4-.26.95-.56,1.19-1.93,1.49-3.9,2.92-5.87,4.36a1.7,1.7,0,0,1-2.41,0,8.8,8.8,0,0,0-5.55-2c-2.49-.12-5-.47-7.43.29-1.37.43-2.66,1.13-4,1.59a5.8,5.8,0,0,1-1.72,0c.17-.61.15-1.52.54-1.77a50.11,50.11,0,0,1,7.51-4.15,11.58,11.58,0,0,1,6.54-1,42.42,42.42,0,0,0,4.93.49c.87.07.8-.61.79-1.16-.07-2.3-.22-4.6-.23-6.9,0-2.06.14-4.13.21-6.19,0-.35,0-.69,0-1.09-1.06.07-1.49.57-1.46,1.46a13.76,13.76,0,0,1-3.36,9.12,13.24,13.24,0,0,1-3.4,2.48,1.13,1.13,0,0,1-1-.2,1.09,1.09,0,0,1-.1-1A15,15,0,0,0,234,296.8c.1-2.58.22-5.16.23-7.75,0-2.37-.22-4.74-.19-7.11a52.76,52.76,0,0,1,.43-5.31c.13-1,.46-2.07.62-3.11.39-2.55,2.1-4.22,3.92-5.73a22.48,22.48,0,0,1,4.75-3.11c3.63-1.66,8.2-2.1,11.37,1.31a17.47,17.47,0,0,0,2.54,1.89,12.56,12.56,0,0,1-5.08,4.12c-.81.34-2.09-.63-2.48-1.77-.68-2-3.21-3.48-5-2.61a3.06,3.06,0,0,0-1.18,2.27c-.07,1.23-.62,2.58.33,3.75a1,1,0,0,1,.07.7,34,34,0,0,0-.44,3.87c0,2.65.23,5.3.37,8.2a12.22,12.22,0,0,0,1.36-.57c1.85-1.19,3.67-2.42,5.53-3.6a19.79,19.79,0,0,1,2.77-1.55,1.9,1.9,0,0,1,1.41.16c3.57,1.82,5.46,4.91,6.26,8.71a33.58,33.58,0,0,1-.49,17,16.65,16.65,0,0,1-4.11,7c-2.8,2.81-5.59,5.62-8.41,8.41-.79.78-1.65,1.48-2.5,2.2-2.17,1.83-4.73,1.93-7.25,1.28-2.14-.56-4.15-1.6-6.24-2.37-1.75-.63-3.56-1.09-5.37-.33A13.45,13.45,0,0,0,225.3,324c-.73.49-1.49.93-2.23,1.38l-.38-.3v4.67c0,.12,0,.24,0,.36,0,2-.07,3.93-.08,5.9,0,.66.1,1.33.08,2-.06,1.71-.23,3.41-.22,5.11,0,4.58.15,9.17.22,13.75,0,1.45,0,2.9,0,4.35s.1,1.44,1.47,1.28a12.39,12.39,0,0,0,5.4-1.85c.73-.48.75-.77.34-1.46A24.5,24.5,0,0,1,226.85,344,19.37,19.37,0,0,1,232,332.74a43,43,0,0,1,3.78-3.74,8.38,8.38,0,0,1,2.23-1l.42.43a6.47,6.47,0,0,1-.85,1.75,16,16,0,0,0-4.32,9.6,48.21,48.21,0,0,0-.46,5.21,19.38,19.38,0,0,0,3.51,11.2,15.24,15.24,0,0,0,1.31,1.47c.6-1.81,1.26-3.35,1.62-5a54.51,54.51,0,0,0,.82-5.69c.09-.81-.1-1.64-.06-2.45.13-3.05.33-6.1.45-9.15,0-.92.43-2.15-1.29-2-.18,0-.59-.46-.56-.64a3,3,0,0,1,.63-1.44,12.77,12.77,0,0,1,1.61-1c3.11-2.28,6.19-4.6,9.31-6.88,2-1.46,4-2.87,6-4.31.57-.41,1.13-.85,1.69-1.28a1.73,1.73,0,0,1,2.53.21c1.51,1.46,3,2.91,4.56,4.32,1.24,1.11,1.62,1.07,2.79,0,.26-.24.55-.46.82-.69.65-.54,1.39-.76,2-.1a1.46,1.46,0,0,1-.2,2.12,23.56,23.56,0,0,1-2.4,1.93c-.62.49-1.28.93-1.86,1.47a1.65,1.65,0,0,0-.5,1c-.12,2.1-.23,4.2-.25,6.31,0,4.91,0,9.83,0,14.74a60.63,60.63,0,0,0,.31,8.1,5.81,5.81,0,0,0,3.09,4.47,2.82,2.82,0,0,0,3.29-.53c.68-.57,1.48-1.43,2.34-.47s.08,1.71-.65,2.31c-1,.81-2,1.57-3,2.3q-2,1.39-4,2.71a2.09,2.09,0,0,1-2.89-.29,37.92,37.92,0,0,1-3.15-3.19,10.62,10.62,0,0,1-1.07-2.31c-.15-.34-.35-.66-.53-1a5.16,5.16,0,0,0-.82.72,16.3,16.3,0,0,1-9.7,6.14,14.6,14.6,0,0,1-9.55-1.27c-2.14-1-4.45-1.84-5.93-3.9a5.4,5.4,0,0,0-.93-.92c-.43-.38-.69-.34-1.14.17a15.85,15.85,0,0,1-9.47,5.54,15,15,0,0,1-6.35.2c-2.78-.7-5.76-1.31-7.83-3.31-3.86-3.75-7.37-7.85-8.16-13.51a23,23,0,0,1,1.45-12.29,7.52,7.52,0,0,0,.5-1.8,5.9,5.9,0,0,1,2.09-3.56c1.44-1.36,2.8-2.81,4.29-4.11a1.61,1.61,0,0,1,1.54-.18c.73.46.23,1-.16,1.59-3,4.19-4,9-4,14.05,0,3.76,1.49,7,3.18,10.22a15,15,0,0,0,2,2.41Zm41.13-25.73c0,1.79,0,3.58,0,5.37a2.17,2.17,0,0,0,1.57,2.26,6.13,6.13,0,0,0,4.38-.13,1.68,1.68,0,0,0,1.32-1.7q0-3.45.29-6.9a4.44,4.44,0,0,0-1.89-4.18,19.38,19.38,0,0,1-2.29-2.05c-1.34-1.36-2.05-.95-3.1.7a2.67,2.67,0,0,0-.25,1.37C251.7,328.26,251.71,330,251.71,331.77Zm-3.12-4.39c-1.26.27-1.65.7-1.66,1.77,0,1.77,0,3.54,0,5.31q-.1,7.46-.24,14.92a11.52,11.52,0,0,1-.18,2.12c-.45,2.19-2.35,3.18-3.86,4.46-1.25,1.05-2.58,2-3.92,3a18.74,18.74,0,0,0,8.18,4c.77.17,1.21-.25,1.24-1.05.08-1.94.24-3.89.23-5.83,0-3.69-.21-7.39-.21-11.09,0-4,.13-8,.23-11.93,0-.7.17-1.41.2-2.12C248.62,329.76,248.59,328.59,248.59,327.38Zm3.12,29.44v3.23c0,2.53.36,2.74,2.68,1.6a3.29,3.29,0,0,0,.42-.21c1-.64,1.89-1.59,3-1.86,1.35-.33,1.18-1.13,1.15-2-.07-2-.19-4-.23-5.94s-.49-2.42-2.41-2.57a8,8,0,0,0-1.2,0c-2.43.18-3.35,1.15-3.37,3.58C251.7,354,251.71,355.42,251.71,356.82Zm-1.48-63.14a5.82,5.82,0,0,0,4-1.13c1.23-.93,1.49-1.2.64-2.49a51.32,51.32,0,0,0-3.38-4.17,1.41,1.41,0,0,0-2-.41c-1.59.93-3.74,1.46-3.12,4.09,0,.17-.11.37-.15.56-.51,2.18.55,3.52,2.81,3.55ZM252,340.94c-.1,2.15-.18,4-.28,5.78,0,.65.29,1.13.9.87,1.84-.76,3.66-.28,5.5-.19.26,0,.78-.37.78-.59.07-1.86,0-3.72,0-5.86C256.57,341.61,254.33,342,252,340.94Zm4.06-43.44c0-.48,0-1,0-1.44-.06-1.42-.59-1.65-1.93-1.21-2.15.71-4.28,2-6.65.57a1.19,1.19,0,0,0-1.08.21c-.16.17,0,.69,0,1.05a10,10,0,0,1,0,1.81c-.13,1,.09,1.05,1,1a22.09,22.09,0,0,1,5.86,0C256.57,300.19,256.05,300,256.05,297.5Z" transform="translate(-183.64 -246.44)"/><path d="M310.33,283.39c2.05-1.38,4-2.65,5.86-4,1.36-.94,2.13-.81,3.2.45a13.55,13.55,0,0,1,2.84,7.73A29.8,29.8,0,0,1,321,299.78a10.89,10.89,0,0,1-4.52,5.62,15,15,0,0,1-9.28,2.9,3.17,3.17,0,0,0-2.92,2,2,2,0,0,0,.5,1.74,3.71,3.71,0,0,0,2.35,1c2.32-.29,4.6-.91,6.91-1.32a8.19,8.19,0,0,1,8,3.08,3.25,3.25,0,0,1,.62,1.39c.19.94-.88,1.86-1.66,1.35-2.32-1.5-4.71-.86-7.11-.41a15.54,15.54,0,0,1-7.81-.07c-4.5-1.41-5.2-7.33-2.22-9.63.75-.58.95-2.1,1.07-3.23.22-2.12.24-4.27.27-6.42,0-2.88.09-5.77,0-8.66a26.33,26.33,0,0,0-.72-4.29,1.47,1.47,0,0,0-2.13-.74,9,9,0,0,1-1.26.85,5.61,5.61,0,0,1-1.49.1c.09-.56,0-1.36.3-1.62a50,50,0,0,1,5.2-3.86c1.53-1,3.95.25,4.65,2.16C309.9,282.18,310.06,282.65,310.33,283.39Zm6.51,9.12a38.42,38.42,0,0,0-.43-5,6.93,6.93,0,0,0-1.44-2.73c-.69-.88-1.59-.32-2.37,0-1.27.57-2.37,1.28-2.39,2.9-.07,5.1-.17,10.2-.23,15.29,0,2.87,0,2.74,2.72,2.1a4.23,4.23,0,0,0,3.22-3.78C316.46,298.28,316.58,295.18,316.84,292.51Z" transform="translate(-183.64 -246.44)"/><path d="M274,339a15,15,0,0,0-.71-2.55,5.29,5.29,0,0,0-1.36-1.69,2.35,2.35,0,0,1-.52-3.34,1.41,1.41,0,0,1,1.78-.44,2.07,2.07,0,0,0,3-2.27c-.09-1.1.59-1.25,1.23-.91a2.38,2.38,0,0,0,2.81-.31c1.45-1.06,2.68-.27,4.34,1.36a13,13,0,0,1,1.56-1.41,1.2,1.2,0,0,1,1.83.42,2,2,0,0,0,.71.56c1.17.63,1.28,1.26.32,2.19a10.54,10.54,0,0,1-1.37,1.13c-1.75,1.16-2,2.87-1.85,4.78.12,1.38.24,2.76.24,4.15,0,1.62-.18,3.25-.17,4.87a5.45,5.45,0,0,0,.57,1.59,11.23,11.23,0,0,1,.81,2.39c.2,1.67.58,1.94,2.08,1.25a4.65,4.65,0,0,1,1.66-.52,1.59,1.59,0,0,1,1.28.53c.15.29-.11,1-.41,1.3a39.08,39.08,0,0,1-2.9,2.7,1.79,1.79,0,0,1-.75.23,3.89,3.89,0,0,0-1.24.29c-2.08,1.45-3.12.48-4.66-1.15-1.28-1.35-1.18-1.47-2.83-.6a19,19,0,0,0-2.54,1.49c-2.6,2-3.92.74-5.45-1.59a8.3,8.3,0,0,1-.28-8.66c.68-1.37,1.22-2.8,1.86-4.18A18.57,18.57,0,0,1,274,339Zm7.36.54h-.09a30.89,30.89,0,0,1,0-3.47,3.44,3.44,0,0,0-1.8-3.64c-.82-.51-1.45-.67-2.19-.13a9.55,9.55,0,0,0-1.79,1.55,1.91,1.91,0,0,0-.41,1.46c.65,2.32,1.5,4.57,3.47,6.17a2.36,2.36,0,0,1,.77,1,1.34,1.34,0,0,1-.09,1.14,1.16,1.16,0,0,1-1.12.18c-1-.78-1.81-.3-2.38.51a6.25,6.25,0,0,0-.91,2.12,3.69,3.69,0,0,0,4.08,4.72,2.57,2.57,0,0,0,1.79-1.16,11.09,11.09,0,0,0,.31-3.18C281.11,344.42,281.21,342,281.32,339.57Z" transform="translate(-183.64 -246.44)"/><path d="M278.92,280.59a9.92,9.92,0,0,1,1.27.7,7.63,7.63,0,0,1,1.36,1.17c.89,1.07,1.78,1.34,3,.41.27-.21.95.1,1.44.17-.13.52-.1,1.35-.4,1.5-2.7,1.26-2.84,3.52-2.73,6.08.14,3.54,0,7.09,0,10.63a2,2,0,0,1-1.09,2,3.74,3.74,0,0,0-1.2.95c-1.29,1.67-3.43,2-5,3.28-.82.67-1.68,1.3-2.48,2a1.76,1.76,0,0,1-2.72.07c-.55-.46-1.08-.94-1.64-1.39-1-.78-2-1.24-3.22-.44a1.4,1.4,0,0,1-1.28-.3,1.26,1.26,0,0,1-.07-1.22,6.1,6.1,0,0,1,1.62-1.5,2.46,2.46,0,0,0,1.27-2.33c-.07-4,0-8.07,0-12.1a3.45,3.45,0,0,1,1.76-3.13c2.86-1.89,5.66-3.86,8.5-5.78A14.71,14.71,0,0,1,278.92,280.59Zm-1.05,11.27c0-1.24,0-2.47,0-3.7a3.85,3.85,0,0,0-2.59-2.65,3.34,3.34,0,0,0-2.67,2.63c-.12,3-.21,6.05-.24,9.08,0,1.62.2,3.25.2,4.88a2.81,2.81,0,0,0,1.35,2.43,2.24,2.24,0,0,0,2.73-.16,2.44,2.44,0,0,0,1.25-2.35C277.85,298.63,277.87,295.24,277.87,291.86Z" transform="translate(-183.64 -246.44)"/><path d="M341.61,334.5c.09,1.72.24,3.45.23,5.17,0,2.62-.16,5.25-.21,7.87a3,3,0,0,0,2.19,3.08,1.15,1.15,0,0,0,.93-.38,2,2,0,0,1,2.49-.72c.41.2,1,.59,1,.89a2,2,0,0,1-.7,1.39c-1.93,1.47-3.92,2.87-5.9,4.27a3.3,3.3,0,0,1-4.31-1,2,2,0,0,0-2.7-1.05,2,2,0,0,1-1.62-.5c-.62-.58-.19-1.23.38-1.58.74-.47,1.57-.79,2.35-1.2.31-.17.79-.42.81-.66.08-1.48,0-3,.06-4.47,0-1.75.13-3.5.11-5.25a52.5,52.5,0,0,0-.26-6.52,2.28,2.28,0,0,0-3.6-1.34c-.27.17-.55.31-.81.48-.66.42-1.33.32-1.62-.34a1.74,1.74,0,0,1,.11-1.54,35.62,35.62,0,0,1,3.26-2.59,8.63,8.63,0,0,1,2.15-1.4,3.22,3.22,0,0,1,2.29,0,8.88,8.88,0,0,1,2.39,2.23c.59.73,1,1.06,1.82.32s1.84-1.49,2.72-2.28a1.39,1.39,0,0,1,2.25,0,2.2,2.2,0,0,0,3,.6,8.53,8.53,0,0,1,3.06-.73,1.51,1.51,0,0,1,1.19.83c.19.6.44,1.55-.55,1.79a5.51,5.51,0,0,0-3,2.49,5,5,0,0,1-6.7.85l-.08-.08c-.61-.46-1.28-1.08-2-.51a5.51,5.51,0,0,0-1,1.68Z" transform="translate(-183.64 -246.44)"/><path d="M224.89,307.8c-1.16,0-1.39-.43-1-1.2a15.51,15.51,0,0,0,1-2,23.63,23.63,0,0,0,.73-3.91c.17-1.85.21-3.72.26-5.58,0-1.33-.5-1.72-1.8-1.32-.66.21-1.26.63-1.93.82-.44.13-1.11.19-1.37-.05a1.73,1.73,0,0,1-.45-1.41c.41-2.4,1.6-4.12,4.21-4.6.49-.1.87-.8,1.31-1.22-.61-.13-1.29-.51-1.81-.35-.95.3-1.78,1-2.7,1.36-.48.21-1.34.4-1.53.18a2.47,2.47,0,0,1-.57-1.8c.39-2.08,3.93-5.05,6-5.31.32,0,.83-.53.83-.82,0-4.25,2.55-6.88,5.68-9.14.32-.23,1.21-.25,1.34,0a2.42,2.42,0,0,1,.3,1.61c-.38,2.07-1,4.1-1.27,6.18a25.4,25.4,0,0,0,.18,3.46c0,1.35-.2,2.69-.21,4,0,3.15-.09,6.31,0,9.46s-1.51,5.88-3.36,8.33a22.48,22.48,0,0,1-3.21,3A1.66,1.66,0,0,1,224.89,307.8Z" transform="translate(-183.64 -246.44)"/><path d="M371.69,421.79c-2.13-.11-4.19-.32-6.25-.31-6.41,0-12.82.13-19.23.22-3.66.06-7.32.17-11,.24l-13.48.24c-5.18.08-10.36.17-15.54.23-3.2,0-6.41,0-9.61,0q-6.68.07-13.33.21c-1.51,0-3,.22-4.51.2a4.79,4.79,0,0,1-2-.57,1.39,1.39,0,0,1-.48-1.07c0-.14.59-.44.91-.44,1.68-.05,3.36,0,5,0q7.26-.11,14.53-.24l11.35-.24c4.06-.08,8.12-.09,12.18-.26,3.05-.13,6.08-.61,9.13-.66,5.9-.11,11.82,0,17.73,0,4.94,0,9.88-.05,14.83-.14,3.42-.07,6.85-.31,10.27-.36,2,0,4,.14,5.93.28a1.05,1.05,0,0,1,1,1.4,1.78,1.78,0,0,1-1.26.92C375.85,421.62,373.74,421.68,371.69,421.79Z" transform="translate(-183.64 -246.44)"/><path d="M298.05,331.35a25.11,25.11,0,0,1-2.87.16,1.62,1.62,0,0,1-1.16-.62,1.36,1.36,0,0,1,.26-1.18c1-1.12,2-2.15,3.69-2,1.3.11,1.77-.66,1.29-1.9a32.94,32.94,0,0,1-1.25-3.25,2.74,2.74,0,0,1,.11-2.07c.39-.51,1.19-.22,1.78.31.15.14.9-.15,1.18-.44.69-.7,1.21-1.56,1.89-2.26a2.08,2.08,0,0,1,1.22-.5c.33.46.81,1.18.66,1.57-.86,2.12-.56,4.31-.64,6.47,0,.79.22,1.14,1.09,1.16a17,17,0,0,1,2.9.45,1.19,1.19,0,0,1,.88,1.93c-.92,1.43-2,2.66-3.94,2.61-1,0-.91.69-.91,1.31,0,3.4,0,6.79,0,10.19,0,1.67.11,3.33.24,5a3.26,3.26,0,0,0,4.24,2.67,3.74,3.74,0,0,1,1.39.12c-.13.5-.11,1.19-.44,1.46a52.14,52.14,0,0,1-4.83,3.64,2.12,2.12,0,0,1-1.78-.1,20.63,20.63,0,0,1-2.42-1.69,2.16,2.16,0,0,0-2.82-.1c-.24.18-.7.07-1.06.09,0-.36-.12-.83.05-1.07a5.66,5.66,0,0,1,1.5-1.47,2.11,2.11,0,0,0,1.16-2c0-5.59,0-11.17,0-16.75C299.44,331.66,299.13,331.37,298.05,331.35Z" transform="translate(-183.64 -246.44)"/><path d="M292.69,270.65a9.19,9.19,0,0,1,1-1.26c.37-.35.92-.88,1.24-.79a1.6,1.6,0,0,1,.89,1.22c.05,1.95-.08,3.9-.11,5.85,0,.91.07,1.82.06,2.73s-.13,1.8-.13,2.7c0,4.26,0,8.52,0,12.78,0,2.36-.09,4.73-.18,7.09-.08,2,1.49,3.68,3.49,3a1.52,1.52,0,0,1,.59-.09c.43,0,.86.12,1.29.19-.1.44,0,1-.31,1.29-.78.71-1.71,1.26-2.55,1.91a23.32,23.32,0,0,0-2.55,2.1,1.3,1.3,0,0,1-2.05.06c-.51-.44-1-.86-1.54-1.31s-.92-.56-1.25.23-.9.77-1.52.15a3.81,3.81,0,0,0-1-.51l-1.19-.59a4.32,4.32,0,0,1,.67-1.26c.76-.68,1.66-1.2,2.41-1.88a2.1,2.1,0,0,0,.68-1.33c0-1.38-.16-2.76-.17-4.14,0-1.79.05-3.59.07-5.38,0-2.67.1-5.34.09-8,0-3.19,0-6.38-.1-9.57,0-1.73-.27-3.46-.3-5.19a4.16,4.16,0,0,1,.57-1.43c.39.22.8.42,1.18.67A7.26,7.26,0,0,1,292.69,270.65Z" transform="translate(-183.64 -246.44)"/><path d="M284.55,368.13l2.24-1.74a1.76,1.76,0,0,1,2.61.07,4.46,4.46,0,0,0,1.75.81c.87.2,1.22.7.55,1.24-1.43,1.17-1.1,2.67-1.15,4.14s-.2,3.17-.21,4.75a4.06,4.06,0,0,0,.38,1.83,1.11,1.11,0,0,0,1.56.65c.35-.14.86.11,1.3.18-.14.42-.15,1-.43,1.23a22.43,22.43,0,0,1-3.2,2.2c-.73.41-2.48-.85-2.67-2a36.11,36.11,0,0,1-.31-4.66c0-2.15,0-4.31,0-6.46a1,1,0,0,0-1.6-.82c-.66.5-1.37,1-1.31,2.1.1,1.91,0,3.83,0,5.75,0,1-.15,2,.84,2.69a.65.65,0,0,1,.28.5c-.15.53-.22,1.27-.59,1.51-.89.57-1.45,2.06-2.89,1.3s-1.82-2-1.56-3.75a56.48,56.48,0,0,0,.35-6.76,15.76,15.76,0,0,0-.27-3.06c-.13-.72-.56-1.07-1.38-.64a2.73,2.73,0,0,0-1.76,2.77c.09,2.07,0,4.15,0,6.23a3.91,3.91,0,0,0,.59,1.82,1.47,1.47,0,0,1-.28,2.1c-.32.29-.62.7-1,.82a3.36,3.36,0,0,1-1.84.16,3.26,3.26,0,0,1-1.66-1.27,3,3,0,0,1,0-1.8c.11-.59.54-1.14.56-1.72.06-2.52.05-5,0-7.55a1.92,1.92,0,0,0-.58-1.4c-.26-.19-.9.18-1.38.24s-1.06.06-1.6.09c.22-.49.31-1.14.68-1.45a29.62,29.62,0,0,1,3-2.06c1.25-.78,2.06-.58,2.75.77.5.95,1,1.07,1.83.39a14.23,14.23,0,0,1,2.5-1.54,1.74,1.74,0,0,1,2.15.46C283.44,366.8,283.93,367.42,284.55,368.13Z" transform="translate(-183.64 -246.44)"/><path d="M315,347.19v-7.38c0-1.85.06-3.69,0-5.54a2.72,2.72,0,0,1,1.4-2.44c2.25-1.58,4.53-3.11,6.76-4.72,1.29-.93,2.17-.77,2.88.69.82,1.7,1.59,3.43,2.45,5.1a2,2,0,0,1-.51,2.81c-1.66,1.25-3.34,2.48-5,3.71-.64.47-1.29.9-1.93,1.36-1.7,1.23-1.27,3-1.14,4.67a5.78,5.78,0,0,1,.09,1.16,3.33,3.33,0,0,0,2.12,3.83,2.26,2.26,0,0,0,1.35-.21c.42-.18.74-.59,1.16-.79.6-.28,1.41-.59,1.72.2a1.81,1.81,0,0,1-.53,1.59,30.4,30.4,0,0,1-3,2.09c-1,.68-2,1.36-3,2.08a1.55,1.55,0,0,1-2.38-.2,11,11,0,0,0-1.18-1.19c-.77-.67-1.53-1.23-2.61-.45a1,1,0,0,1-1.61-.3,1.52,1.52,0,0,1,.57-1.35C315.44,350.24,314.69,349.77,315,347.19Zm4.77-11.93c0,.8,0,1.6,0,2.39.07,1.19.52,1.4,1.47.73a14.54,14.54,0,0,0,2-1.52,1.28,1.28,0,0,0,.24-1.1,27.83,27.83,0,0,0-1.59-3.41c-.23-.43-.75-.69-1.14-1a5.79,5.79,0,0,0-.9,1.54A12.68,12.68,0,0,0,319.8,335.26Z" transform="translate(-183.64 -246.44)"/><path d="M297.05,392.72c1-.56,1.68-.94,2.37-1.3.29-.14.79-.38.89-.28.26.28.6.8.5,1.08-1,2.78-.2,5.56-.16,8.58a5,5,0,0,0,.9-.48c.42-.36.77-.82,1.21-1.15,1.31-1,1.71-.88,3,.16a7.23,7.23,0,0,0,2.1.81l.83.32c-.11.23-.17.55-.35.69a3.33,3.33,0,0,0-1.24,3.28c.11,1.3.24,2.61.22,3.91a40.06,40.06,0,0,1-.28,6.3c-.3,1.75-1.88,2.75-3.24,3.77a.59.59,0,0,1-.58-.06,1.08,1.08,0,0,1-.2-.79c1.06-2.94.78-6,.95-9a21.53,21.53,0,0,0-.52-5.42c-.12-.6-1.09-1-1.67-1.55-.46.53-1.29,1-1.32,1.59a81.28,81.28,0,0,0,0,8.26c0,.51.93,1,1.44,1.48.27.24.85.48.83.65a2.11,2.11,0,0,1-.65,1.16,5.51,5.51,0,0,1-1.85,1.22,2.39,2.39,0,0,1-1.78-.2c-.68-.44-1.21-1-2.12-.55a.89.89,0,0,1-.81-.24c-.11-.27-.08-.82.1-.95,1.65-1.15,1.46-2.83,1.45-4.51,0-5.27,0-10.54,0-15.81Z" transform="translate(-183.64 -246.44)"/><path d="M273.38,401.73a7.91,7.91,0,0,1,4-3.19c.3-.13,1,.39,1.37.74.57.51,1,1.1,1.95.79.19-.07.65.15.67.29a1,1,0,0,1-.21.85c-2.12,1.64-1.37,3.83-1.23,5.92a18.93,18.93,0,0,1-.05,2.13,8.49,8.49,0,0,0-.05,2c.29,1.31,1.38,1.67,2.58,1,.46-.26,1.06-.72,1.39,0a1.43,1.43,0,0,1-.4,1.27,39.24,39.24,0,0,1-3.45,2.68c-1,.72-1.77,0-2.38-.75-1-1.26-1.39-1.31-2.52-.24-1.57,1.5-2.52,1.52-4.26.27a4.77,4.77,0,0,0-1.71-.41l-1-.2c.08-.36,0-.91.26-1.05,1.22-.8,1.09-2,1.1-3.19,0-2.3.16-4.6.22-6.91a2.56,2.56,0,0,0-.21-1.13c-.32-.66-.72-1.1-1.54-.48-.28.21-.83.07-1.25.09a4,4,0,0,1,.58-1.21c.72-.68,1.56-1.22,2.3-1.87,1.05-.92,2-.84,2.69.39a6.09,6.09,0,0,1,.87,3.65,61.76,61.76,0,0,0,.19,8.7c0,.41.93,1.18,1.08,1.11.67-.34,1.69-.88,1.74-1.43a73.54,73.54,0,0,0,.23-7.86,1.62,1.62,0,0,0-1.74-1.71A6.3,6.3,0,0,1,273.38,401.73Z" transform="translate(-183.64 -246.44)"/><path d="M343.24,359.56a8.64,8.64,0,0,1,1.37.79c1.62,1.41,3.21,2.85,4.79,4.29.58.54,1.11,1,2,.57.3-.13.79.15,1.19.24-.17.36-.24.85-.53,1.06a2.91,2.91,0,0,0-1.1,2.7c0,2.42-.08,4.84-.11,7.26a2.81,2.81,0,0,1-1.43,2.31c-1.47,1.05-2.93,2.11-4.41,3.16a2.25,2.25,0,0,1-3.09-.1,7.79,7.79,0,0,0-1.83-1c-.6-.23-.71-.42-.37-1a6.39,6.39,0,0,0,.71-2.16c.17-1.21.2-2.44.25-3.66a7.78,7.78,0,0,0-.14-1.17,14.4,14.4,0,0,1-.25-3.44,4.07,4.07,0,0,1,1.4-2.23c2.36-1.95,2.4-1.9.26-4.05-1.28-1.28-1-2.63.64-3.38C342.76,359.68,343,359.65,343.24,359.56Zm.78,13.37h0c0,1.47,0,2.95,0,4.42a1.77,1.77,0,0,0,.55,1.3,2.19,2.19,0,0,0,1.75.25,2.14,2.14,0,0,0,.8-1.57c.16-2.75.21-5.5.27-8.25a2.1,2.1,0,0,0-.24-1.24,13.69,13.69,0,0,0-1.61-1.52c-.51.61-1,1.2-1.5,1.84-.11.16,0,.46,0,.7Z" transform="translate(-183.64 -246.44)"/><path d="M371.2,400.22c-.12.29-.17.79-.45,1.06a2.89,2.89,0,0,0-.85,2.36c0,2.19,0,4.39,0,6.58,0,1.87.48,2.22,2.24,1.79a1.17,1.17,0,0,1,1,.32c.13.14,0,.73-.18.91-1.06.94-2.16,1.84-3.29,2.69a1.24,1.24,0,0,1-1.8-.24,6,6,0,0,1-1.52-4.1c0-2.47,0-4.95,0-7.42,0-.24,0-.48,0-.72,0-.89-.43-1.74-1.34-1.57a2.22,2.22,0,0,0-1.49,1.49c-.15,2.64-.1,5.29,0,7.93a3,3,0,0,0,.64,1.38,1.23,1.23,0,0,1-.2,1.7c-.51.5-1.07.93-1.63,1.39a.77.77,0,0,1-.42.16c-1.38.17-1.9-1-2.63-1.77-.57-.6-.31-1.28.13-1.94a3,3,0,0,0,.48-1.52c.05-2.37.05-4.73,0-7.1a6,6,0,0,0-.44-1.69c-.27-.82-.86-.6-1.46-.44-.12,0-.46-.24-.48-.41a1,1,0,0,1,.21-.74,24.94,24.94,0,0,1,2.36-2,1.86,1.86,0,0,1,2.92.88c.47,1.09.84,1.2,1.76.51.22-.16.42-.36.64-.52,2-1.38,2-1.35,4,.2A9.4,9.4,0,0,0,371.2,400.22Z" transform="translate(-183.64 -246.44)"/><path d="M385.49,406.63a33.78,33.78,0,0,1-.05,3.9,2.6,2.6,0,0,1-1,1.52c-1.59,1.22-3.26,2.35-4.91,3.5a2,2,0,0,1-2.51-.06c-1.23-.84-2.71-1.33-1.89-3.47a12.43,12.43,0,0,0,.3-4.25,19.74,19.74,0,0,0-.23-3.07c-.32-2.09.62-3.46,2.31-4.55s1.76-1.19.21-2.67l-.87-.83c-1-.91-1.06-1.59-.24-2.5a1.67,1.67,0,0,1,2.67-.11c1.76,1.54,3.51,3.09,5.32,4.56.38.3,1,.25,1.55.37.22,0,.57.09.62.22s.14.72,0,.86c-2.05,1.85-1.21,4.15-1,6.34,0,.08,0,.16,0,.24Zm-3.57-3.84h.24v-.6c0-1.12-.88-2.28-1.81-2.29-1.17,0-1.15,1.09-1.5,1.83a1.43,1.43,0,0,0-.07.59c0,2.94,0,5.89,0,8.84a1.81,1.81,0,0,0,1.8,1.68c1,0,1.3-.81,1.32-1.63C381.94,408.4,381.92,405.59,381.92,402.79Z" transform="translate(-183.64 -246.44)"/><path d="M360.11,364.65a6.3,6.3,0,0,1,1.42,1c.57.58,1,.95,1.79.37.28-.2.83,0,1.25,0-.12.38-.13.92-.4,1.12a4.41,4.41,0,0,0-1.71,4.41,9.74,9.74,0,0,1,0,2.75c-.29,1.66.71,3,1.07,4.43,0,.17.7.21,1.08.27.54.08,1.09.12,1.64.18a4.87,4.87,0,0,1-.79,1.54,20.37,20.37,0,0,1-2.26,1.47,2,2,0,0,1-2.92-.45,1.37,1.37,0,0,0-2.22-.26,4.57,4.57,0,0,1-.71.42c-2.22,1.22-4.07.33-4.66-2.22a5.78,5.78,0,0,1,.46-4,15.74,15.74,0,0,0,1.44-3.46A4.43,4.43,0,0,0,354,370c-.15-.39-.57-.67-.76-1.05a1.17,1.17,0,0,1,1.13-1.83c1,0,1.73-.15,1.95-1.27a.91.91,0,0,1,.54-.59C357.8,365,358.76,364.87,360.11,364.65Zm-.69,7.54h0a8.1,8.1,0,0,0,0-2.26,4.29,4.29,0,0,0-1.29-1.81c-.16-.15-.91.21-1.29.48-.62.42-1,1-.54,1.8.61,1,1.18,2,1.74,3.05.21.38.58.89.46,1.18s-.74.37-1.13.55-1,.28-1.18.6a2.35,2.35,0,0,0,.29,3,2.24,2.24,0,0,0,1.81.45c.38-.07.85-.81.9-1.29C359.29,376,359.33,374.09,359.42,372.19Z" transform="translate(-183.64 -246.44)"/><path d="M294.09,378.41a20.85,20.85,0,0,1,.63-2.13,26.78,26.78,0,0,0,1.55-3.54,4.62,4.62,0,0,0-.56-2.34c-.14-.39-.58-.65-.78-1a1.31,1.31,0,0,1,1.18-2.06,5.53,5.53,0,0,0,4-1.74c.9-.89,1.95-.81,3,.25.67.69,1.25,1,2.16.41.23-.16.7.06,1.07.1l-.21,1.1s0,.06-.08.08c-1.82,1.14-1.93,2.88-1.82,4.78s0,3.59,0,5.39.49,2.14,2.21,1.63c.56-.17,1.3-.47,1.5.29a1.86,1.86,0,0,1-.66,1.43,14.83,14.83,0,0,1-2.17,1.39c-1.46.87-2,.86-3.17-.35a1.37,1.37,0,0,0-2.05-.28c-.23.16-.5.24-.73.38-2.14,1.26-3.95.55-4.7-1.89C294.28,379.72,294.23,379.12,294.09,378.41Zm7.17-5.61h-.14a10.89,10.89,0,0,0-.05-2.62,2.39,2.39,0,0,0-1.21-1.53,2.05,2.05,0,0,0-1.7.6,1.85,1.85,0,0,0-.16,1.55,11.55,11.55,0,0,0,1.12,2.29c.25.44.71.77.93,1.22.4.84,0,1.33-.95,1.27a1.35,1.35,0,0,0-.85.17,2.36,2.36,0,0,0,.16,3.6c.84.53,2.14.23,2.23-.54C300.86,376.8,301.06,374.8,301.26,372.8Z" transform="translate(-183.64 -246.44)"/><path d="M343,411.64c.63-1.37,1.24-2.75,1.92-4.09.24-.47,1-.88.95-1.27a7.1,7.1,0,0,0-.78-2.31c-.18-.39-.58-.67-.76-1.05s-.55-1.13-.38-1.46.89-.61,1.4-.83a15.69,15.69,0,0,0,3.59-1.55c1.27-1,2-1.15,3.34.14.64.6,1.15.88,2,.41.25-.15.64-.05,1-.06a5,5,0,0,1-.15,1.1,1.23,1.23,0,0,1-.48.51,3.68,3.68,0,0,0-1.48,3.55c.15,2.17.16,4.35.26,6.52.08,1.58.73,2,2.21,1.6a4.61,4.61,0,0,1,1.28,0,3.6,3.6,0,0,1-.54,1.15,13,13,0,0,1-1.78,1.34c-1.72,1.17-2.05,1.16-3.54-.27-.58-.57-1.14-.84-1.85-.22-.21.17-.49.25-.72.4-.9.57-1.87,1.4-2.91.74a4.76,4.76,0,0,1-2.2-3.77c0-.16,0-.32,0-.48Zm7-4.37h0c0-1.31,0-2.63,0-3.94a1.79,1.79,0,0,0-.3-1c-.43-.55-1-1-1.71-.52s-1.53,1.21-1,2.25,1.22,1.9,1.78,2.88a3,3,0,0,1,.42,1.4c0,.11-.74.2-1.09.39s-1.11.51-1.19.87A5.53,5.53,0,0,0,347,412a1.36,1.36,0,0,0,1.8,1.08,1.56,1.56,0,0,0,1.27-1.74C350,410,350,408.63,350,407.27Z" transform="translate(-183.64 -246.44)"/><path d="M262.71,404.79a3.26,3.26,0,0,0,.68.44c1.67.54,2,1.85,2,3.37,0,.92-.07,1.84,0,2.75A2.72,2.72,0,0,1,264,414c-1.3.88-2.59,1.79-4,2.56a2.55,2.55,0,0,1-1.56-.06c-.55-.12-1.06-.47-1.61-.56s-1.56.17-1.58-.77a4.21,4.21,0,0,1,.8-1.94c.28-.49.77-.85,1.08-1.32.42-.63.06-1.07-.55-1.24-1-.28-1.24-1-1.27-1.88,0-1.19-.1-2.38-.23-3.56-.19-1.78.93-2.75,2.16-3.67,1-.78,2.09-1.53,3.13-2.31a1.14,1.14,0,0,1,1.7.09,1.54,1.54,0,0,0,2.14.2,3.34,3.34,0,0,1,1.28-.11,3.75,3.75,0,0,1-.16,1.22,16.46,16.46,0,0,1-1.16,2C263.75,403.38,263.27,404,262.71,404.79Zm-5.21,8.31a13.51,13.51,0,0,1,1.91.16c2.66.62,2.77.55,2.84-2.24a3.31,3.31,0,0,0,0-1.18c-.14-.4-.49-1-.74-1a2,2,0,0,0-1.34.65C259.22,410.6,258.42,411.82,257.5,413.1Zm1.17-8.33h0a13.33,13.33,0,0,0,0,1.55,4.33,4.33,0,0,0,.32,1,3.48,3.48,0,0,0,1.08-.58c.4-.47.61-1.1,1-1.59,1.24-1.66,1.25-1.65-.55-2.32s-1.85-.61-1.85,1.26Z" transform="translate(-183.64 -246.44)"/><path d="M309.52,381.31c.08-.22.1-.52.26-.64,1.48-1.08,1.15-2.66,1.18-4.15,0-2.31.1-4.61.16-6.92,0-1.4-.42-1.8-1.85-1.86a5.24,5.24,0,0,1-1.42-.5,9.65,9.65,0,0,1,.75-1.51,2.06,2.06,0,0,1,.93-.48c1.51-.54,1.52-.53.94-2.08-.12-.33-.29-.65-.38-1-.23-.81-.15-1.33.94-1.41.61,0,1.15-.67,1.75-1s1-.42,1.55-.63a9.6,9.6,0,0,1,.2,1.59c0,1-.14,2-.25,3.06-.08.86.32,1.11,1.13,1.09s1.9-.31,1.89.79a2.51,2.51,0,0,1-1.42,1.9c-1.57.42-1.66,1.39-1.6,2.67.11,2.46.14,4.93.26,7.39.06,1.25.87,1.81,2.11,1.69a1.26,1.26,0,0,1,1,.37,1,1,0,0,1-.19,1,27.08,27.08,0,0,1-2.91,2.2,1.31,1.31,0,0,1-1.18-.08c-1.07-.69-2.09-1.42-3.47-1.22C309.81,381.62,309.67,381.43,309.52,381.31Z" transform="translate(-183.64 -246.44)"/><path d="M293.35,413.73c-1.17.88-2.3,1.82-3.54,2.59-.28.18-.93-.2-1.39-.38-1-.4-2-.84-3.16-1.36.14-.28.42-.75.63-1.25a4.84,4.84,0,0,0,.58-1.7c.07-2.35,0-4.71,0-7.06,0-.77,0-1.54.05-2.31s-.45-1-1.17-.95a2.33,2.33,0,0,1-.95,0c-.35-.11-.81-.29-.93-.57a1.1,1.1,0,0,1,.24-1,5.36,5.36,0,0,1,1.65-1c.87-.31,1.45-.66.89-1.69a6.93,6.93,0,0,1-.37-1c-.39-1.1-.13-1.43,1-1.68.47-.1.83-.62,1.29-.88a17.21,17.21,0,0,1,1.58-.7,8.42,8.42,0,0,1,.29,1.48c0,.53-.18,1.07-.2,1.61s-.2,1.53.14,2,1.19.29,1.83.4a1.19,1.19,0,0,1,.59,2,3.67,3.67,0,0,1-1.56,1,1.25,1.25,0,0,0-1,1.47c0,2.55,0,5.11,0,7.66,0,1.83.7,2.55,2.52,2.71a5.19,5.19,0,0,1,.83.24Z" transform="translate(-183.64 -246.44)"/><path d="M331.57,368.6c0-2.87,0-5.75,0-8.62,0-.47-.14-.94-.15-1.41,0-.75.31-1.18,1.16-1.1a2,2,0,0,0,1.13-.14c.9-.57,1.51-.38,1.65.69a13.89,13.89,0,0,1,0,2c-.07,4.26-.15,8.52-.21,12.79,0,1.33,0,2.67,0,4s.47,1.65,1.73,1.73a5.51,5.51,0,0,1,1.34.43,5.34,5.34,0,0,1-.78,1.21,12.81,12.81,0,0,1-2.44,1.86,2,2,0,0,1-1.7-.07c-.86-.53-1.56-1.3-2.74-.86a.89.89,0,0,1-.79-.3c-.07-.29,0-.83.23-.93,1.87-.94,1.59-2.63,1.58-4.25C331.56,373.31,331.57,371,331.57,368.6Z" transform="translate(-183.64 -246.44)"/><path d="M224.82,263.17a14.48,14.48,0,0,1,5.76,1.78,9.3,9.3,0,0,0,3.51,1.08,5.92,5.92,0,0,0,2.52-1c.41-.21.71-.66,1.13-.81a1.19,1.19,0,0,1,1,.18,1.09,1.09,0,0,1,.11,1,7.06,7.06,0,0,1-3.55,3.78c-.55.29-1.19.43-1.75.71-2.3,1.15-4.51.83-6.81-.13a31.82,31.82,0,0,0-5.77-1.86c-.89-.19-1.94.39-2.93.55-.43.07-1.23.09-1.28-.07-.17-.49-.3-1.3,0-1.59,1.61-1.69,3.34-3.25,5.92-3.28A15.21,15.21,0,0,0,224.82,263.17Z" transform="translate(-183.64 -246.44)"/><path d="M330.33,413.24c-.76.65-1.5,1.32-2.27,1.94-.39.32-.85.55-1.26.85a1.65,1.65,0,0,1-2.05,0,18.83,18.83,0,0,0-2.55-1c-.24-.1-.65-.29-.63-.39,0-.37.13-.9.39-1,1.49-.9,1.47-2.17,1.27-3.68a30.22,30.22,0,0,1,.16-3.67,15.59,15.59,0,0,0-.27-3.42,1.18,1.18,0,0,0-1.68-.82,3,3,0,0,1-.87.3,1.07,1.07,0,0,1-.8-.29.87.87,0,0,1,.09-.83,26.3,26.3,0,0,1,3.58-2.6c.79-.43,1.64.16,2.18.85.76,1,1.43.85,2.23.06,1.31-1.29,1.3-1.23,2.82-.11a3.27,3.27,0,0,0,1.68.32c.73,0,.88.31.64,1a3.4,3.4,0,0,1-4.4,1.86c-1.62-.77-1.83-.64-1.83,1.12,0,2.47,0,4.95,0,7.42,0,1.56.87,2.2,2.43,1.86a4.6,4.6,0,0,1,.91,0Z" transform="translate(-183.64 -246.44)"/><path d="M342.26,413a8.38,8.38,0,0,1-3.8,3.28c-.29.16-1-.25-1.43-.57a2.15,2.15,0,0,0-2.44-.62c-.2.09-.58-.23-.94-.38.17-.28.23-.52.38-.59,1.71-.87,1.66-2.39,1.64-4s.23-3.09.2-4.63c-.09-4.25-.28-8.5-.39-12.74,0-.66.06-1.41,1.13-1.09a1.52,1.52,0,0,0,1-.14c1.15-.59,1.81-.25,1.83,1.09,0,.74-.2,1.5-.21,2.25q0,8.08,0,16.18a1.8,1.8,0,0,0,1.81,1.79Z" transform="translate(-183.64 -246.44)"/><path d="M317.78,413.23c-1.44,1-2.84,2.15-4.36,3.06-.3.19-1-.31-1.57-.53s-1.18-.51-1.77-.78c-.27-.13-.67-.25-.74-.45a1,1,0,0,1,.37-.78,3.07,3.07,0,0,0,.93-2.77c-.13-2.47-.11-4.94-.07-7.41a2.28,2.28,0,0,1,1.26-2.1,39.81,39.81,0,0,0,3.78-2.56c1-.72,1.62-.24,2.11.57a26.93,26.93,0,0,1,1.45,2.83c.42.93-.09,1.6-.81,2.13-1.3.95-2.68,1.81-3.89,2.87s-.94,4.28.11,5.22a1.25,1.25,0,0,0,1.57.31,4.47,4.47,0,0,1,1.44-.14Zm-4.19-9.55.22.09a2.4,2.4,0,0,0,0,.71,11.92,11.92,0,0,0,.5,1.16,4.35,4.35,0,0,0,1.27-.88,1.41,1.41,0,0,0,0-1.22,12.09,12.09,0,0,0-1.23-1.73Z" transform="translate(-183.64 -246.44)"/><path d="M326,367a2.38,2.38,0,0,1-.46.84,2.94,2.94,0,0,0-1,2.43c.06,2.27,0,4.55,0,6.82a4.25,4.25,0,0,0,.37,1.46c.3.75.85.8,1.49.39a5.18,5.18,0,0,1,1.21-.71,1.14,1.14,0,0,1,1,.25c.17.24.19.91,0,1a32.39,32.39,0,0,1-4.72,3c-1.11.52-2.8-.69-2.91-3.09a79.47,79.47,0,0,1,.21-8.45c.13-1.87-.75-2.75-2.6-2.36a3.08,3.08,0,0,1-1.08-.21c.11-.35.1-.83.33-1a18.76,18.76,0,0,1,3.18-2.23c.43-.23,1.24.09,1.81.32C323.9,365.92,324.84,366.44,326,367Z" transform="translate(-183.64 -246.44)"/><path d="M323.38,359.39c1.08.26,1.68,1.27,1.13,2a6.1,6.1,0,0,1-1.94,1.67,1.55,1.55,0,0,1-1.4-.44,1.45,1.45,0,0,1,.06-1.4A17.43,17.43,0,0,1,323.38,359.39Z" transform="translate(-183.64 -246.44)"/><path class="cls-1" d="M251.71,331.77c0-1.76,0-3.51,0-5.26a2.67,2.67,0,0,1,.25-1.37c1.05-1.65,1.76-2.06,3.1-.7a19.38,19.38,0,0,0,2.29,2.05,4.44,4.44,0,0,1,1.89,4.18q-.24,3.45-.29,6.9a1.68,1.68,0,0,1-1.32,1.7,6.13,6.13,0,0,1-4.38.13,2.17,2.17,0,0,1-1.57-2.26C251.76,335.35,251.71,333.56,251.71,331.77Z" transform="translate(-183.64 -246.44)"/><path class="cls-1" d="M248.59,327.38c0,1.21,0,2.38,0,3.55,0,.71-.18,1.42-.2,2.12-.1,4-.23,8-.23,11.93,0,3.7.18,7.4.21,11.09,0,1.94-.15,3.89-.23,5.83,0,.8-.47,1.22-1.24,1.05a18.74,18.74,0,0,1-8.18-4c1.34-1,2.67-2,3.92-3,1.51-1.28,3.41-2.27,3.86-4.46a11.52,11.52,0,0,0,.18-2.12q.13-7.45.24-14.92c0-1.77,0-3.54,0-5.31C246.94,328.08,247.33,327.65,248.59,327.38Z" transform="translate(-183.64 -246.44)"/><path class="cls-1" d="M251.71,356.82c0-1.4,0-2.79,0-4.19,0-2.43.94-3.4,3.37-3.58a8,8,0,0,1,1.2,0c1.92.15,2.37.68,2.41,2.57s.16,4,.23,5.94c0,.89.2,1.69-1.15,2-1.08.27-2,1.22-3,1.86a3.29,3.29,0,0,1-.42.21c-2.32,1.14-2.68.93-2.68-1.6Z" transform="translate(-183.64 -246.44)"/><path class="cls-1" d="M250.23,293.68h-1.15c-2.26,0-3.32-1.37-2.81-3.55,0-.19.19-.39.15-.56-.62-2.63,1.53-3.16,3.12-4.09a1.41,1.41,0,0,1,2,.41,51.32,51.32,0,0,1,3.38,4.17c.85,1.29.59,1.56-.64,2.49A5.82,5.82,0,0,1,250.23,293.68Z" transform="translate(-183.64 -246.44)"/><path class="cls-1" d="M252,340.94c2.34,1.08,4.58.67,6.94,0,0,2.14,0,4,0,5.86,0,.22-.52.61-.78.59-1.84-.09-3.66-.57-5.5.19-.61.26-.93-.22-.9-.87C251.81,344.9,251.89,343.09,252,340.94Z" transform="translate(-183.64 -246.44)"/><path class="cls-1" d="M256.05,297.5c0,2.53.52,2.69-2.68,2a22.09,22.09,0,0,0-5.86,0c-.94.06-1.16,0-1-1a10,10,0,0,0,0-1.81c0-.36-.2-.88,0-1.05a1.19,1.19,0,0,1,1.08-.21c2.37,1.4,4.5.14,6.65-.57,1.34-.44,1.87-.21,1.93,1.21C256.07,296.54,256.05,297,256.05,297.5Z" transform="translate(-183.64 -246.44)"/><path class="cls-1" d="M316.84,292.51c-.26,2.67-.38,5.77-.92,8.79a4.23,4.23,0,0,1-3.22,3.78c-2.76.64-2.75.77-2.72-2.1.06-5.09.16-10.19.23-15.29,0-1.62,1.12-2.33,2.39-2.9.78-.35,1.68-.91,2.37,0a6.93,6.93,0,0,1,1.44,2.73A38.42,38.42,0,0,1,316.84,292.51Z" transform="translate(-183.64 -246.44)"/><path class="cls-1" d="M281.32,339.57c-.11,2.42-.21,4.85-.34,7.27a11.09,11.09,0,0,1-.31,3.18,2.57,2.57,0,0,1-1.79,1.16,3.69,3.69,0,0,1-4.08-4.72,6.25,6.25,0,0,1,.91-2.12c.57-.81,1.34-1.29,2.38-.51a1.16,1.16,0,0,0,1.12-.18,1.34,1.34,0,0,0,.09-1.14,2.36,2.36,0,0,0-.77-1c-2-1.6-2.82-3.85-3.47-6.17a1.91,1.91,0,0,1,.41-1.46,9.55,9.55,0,0,1,1.79-1.55c.74-.54,1.37-.38,2.19.13a3.44,3.44,0,0,1,1.8,3.64,30.89,30.89,0,0,0,0,3.47Z" transform="translate(-183.64 -246.44)"/><path class="cls-1" d="M277.87,291.86c0,3.38,0,6.77,0,10.16a2.44,2.44,0,0,1-1.25,2.35,2.24,2.24,0,0,1-2.73.16,2.81,2.81,0,0,1-1.35-2.43c0-1.63-.21-3.26-.2-4.88,0-3,.12-6.05.24-9.08a3.34,3.34,0,0,1,2.67-2.63,3.85,3.85,0,0,1,2.59,2.65C277.91,289.39,277.87,290.62,277.87,291.86Z" transform="translate(-183.64 -246.44)"/><path class="cls-1" d="M319.8,335.26a12.68,12.68,0,0,1,0-2.39,5.79,5.79,0,0,1,.9-1.54c.39.33.91.59,1.14,1a27.83,27.83,0,0,1,1.59,3.41,1.28,1.28,0,0,1-.24,1.1,14.54,14.54,0,0,1-2,1.52c-.95.67-1.4.46-1.47-.73C319.77,336.86,319.8,336.06,319.8,335.26Z" transform="translate(-183.64 -246.44)"/><path class="cls-1" d="M344,372.93v-4.07c0-.24-.09-.54,0-.7.46-.64,1-1.23,1.5-1.84a13.69,13.69,0,0,1,1.61,1.52,2.1,2.1,0,0,1,.24,1.24c-.06,2.75-.11,5.5-.27,8.25a2.14,2.14,0,0,1-.8,1.57,2.19,2.19,0,0,1-1.75-.25,1.77,1.77,0,0,1-.55-1.3c-.07-1.47,0-3,0-4.42Z" transform="translate(-183.64 -246.44)"/><path class="cls-1" d="M381.92,402.79c0,2.8,0,5.61,0,8.42,0,.82-.28,1.61-1.32,1.63a1.81,1.81,0,0,1-1.8-1.68c0-3,0-5.9,0-8.84a1.43,1.43,0,0,1,.07-.59c.35-.74.33-1.83,1.5-1.83.93,0,1.79,1.17,1.81,2.29v.6Z" transform="translate(-183.64 -246.44)"/><path class="cls-1" d="M359.42,372.19c-.09,1.9-.13,3.81-.31,5.7-.05.48-.52,1.22-.9,1.29a2.24,2.24,0,0,1-1.81-.45,2.35,2.35,0,0,1-.29-3c.2-.32.77-.41,1.18-.6s1-.26,1.13-.55-.25-.8-.46-1.18c-.56-1-1.13-2.05-1.74-3.05-.5-.83-.08-1.38.54-1.8.38-.27,1.13-.63,1.29-.48a4.29,4.29,0,0,1,1.29,1.81,8.1,8.1,0,0,1,0,2.26Z" transform="translate(-183.64 -246.44)"/><path class="cls-1" d="M301.26,372.8c-.2,2-.4,4-.62,6-.09.77-1.39,1.07-2.23.54a2.36,2.36,0,0,1-.16-3.6,1.35,1.35,0,0,1,.85-.17c.93.06,1.35-.43.95-1.27-.22-.45-.68-.78-.93-1.22a11.55,11.55,0,0,1-1.12-2.29,1.85,1.85,0,0,1,.16-1.55,2.05,2.05,0,0,1,1.7-.6,2.39,2.39,0,0,1,1.21,1.53,10.89,10.89,0,0,1,.05,2.62Z" transform="translate(-183.64 -246.44)"/><path class="cls-1" d="M350,407.27c0,1.36,0,2.71,0,4.06a1.56,1.56,0,0,1-1.27,1.74A1.36,1.36,0,0,1,347,412a5.53,5.53,0,0,1-.05-2.36c.08-.36.75-.63,1.19-.87s1.1-.28,1.09-.39a3,3,0,0,0-.42-1.4c-.56-1-1.28-1.87-1.78-2.88s.24-1.73,1-2.25,1.28,0,1.71.52a1.79,1.79,0,0,1,.3,1c0,1.31,0,2.63,0,3.94Z" transform="translate(-183.64 -246.44)"/><path class="cls-1" d="M257.5,413.1c.92-1.28,1.72-2.5,2.63-3.62a2,2,0,0,1,1.34-.65c.25,0,.6.61.74,1a3.31,3.31,0,0,1,0,1.18c-.07,2.79-.18,2.86-2.84,2.24A13.51,13.51,0,0,0,257.5,413.1Z" transform="translate(-183.64 -246.44)"/><path class="cls-1" d="M258.67,404.77v-.72c0-1.87.08-1.93,1.85-1.26s1.79.66.55,2.32c-.38.49-.59,1.12-1,1.59a3.48,3.48,0,0,1-1.08.58,4.33,4.33,0,0,1-.32-1,13.33,13.33,0,0,1,0-1.55Z" transform="translate(-183.64 -246.44)"/><path class="cls-1" d="M313.59,403.68l.81-1.87a12.09,12.09,0,0,1,1.23,1.73,1.41,1.41,0,0,1,0,1.22,4.35,4.35,0,0,1-1.27.88,11.92,11.92,0,0,1-.5-1.16,2.4,2.4,0,0,1,0-.71Z" transform="translate(-183.64 -246.44)"/></svg>