<?xml version="1.0" encoding="UTF-8"?>
<svg id="Layer_1" xmlns="http://www.w3.org/2000/svg" xmlns:xlink="http://www.w3.org/1999/xlink" version="1.1" viewBox="0 0 26 26">
  <!-- Generator: Adobe Illustrator 29.1.0, SVG Export Plug-In . SVG Version: 2.1.0 Build 142)  -->
  <defs>
    <style>
      .st0 {
        fill: #4a7ec4;
      }

      .st1 {
        fill: none;
        stroke: #38342e;
        stroke-linecap: round;
        stroke-linejoin: round;
        stroke-width: 15px;
      }
    </style>
  </defs>
  <path class="st0" d="M255.3-173.3l-7.9,41.6h-29.7l9.9-39.6c2-11.9,2-21.8-11.9-21.8s-19.8,9.9-21.8,21.8l-7.9,33.7c-2,9.9-2,19.8,0,29.7l27.7,81.2c4,11.9,5.9,25.7,2,39.6l-11.9,51.5c-7.9,29.7-29.7,47.5-57.4,47.5s-45.5-13.9-37.6-47.5l9.9-43.6h29.7l-9.9,41.6c-4,15.8,0,23.8,13.9,23.8s19.8-9.9,23.8-23.8l9.9-45.5c2-9.9,2-21.8-2-31.7l-25.7-75.2c-4-13.9-5.9-23.8-4-41.6l7.9-39.6c7.9-31.7,27.7-47.5,57.4-47.5s43.6,15.8,35.6,45.5ZM27.6,107.8L94.9-191.1h-31.7l5.9-25.7h95l-5.9,25.7h-33.7L57.3,107.8s-29.7,0-29.7,0ZM-61.5,107.8l27.7-287L-99.1,107.8h-25.7L-51.6-214.8H-8L-35.7,60.3,27.6-216.8h25.7L-19.9,107.8h-41.6ZM-91.5,204.8H218c56.6,0,102.6-45.9,102.6-102.6V-207.3c0-56.6-45.9-102.6-102.6-102.6H-91.5c-56.6,0-102.6,45.9-102.6,102.6V102.3c0,56.6,45.9,102.6,102.6,102.6Z"/>
  <image width="1080" height="1920" transform="translate(-493.2 -117.5) scale(.2)" xlink:href="../../../../Documents/GirlOnRoad/GOR_client_folders/crown-ruler/NTS-reel_2025/NTS_NAARM_FEB22_9x16.png"/>
  <path class="st1" d="M245.4-183.1l-7.9,41.6h-29.7l9.9-39.6c2-11.9,2-21.8-11.9-21.8s-19.8,9.9-21.8,21.8l-7.9,33.7c-2,9.9-2,19.8,0,29.7l27.7,81.2c4,11.9,5.9,25.7,2,39.6l-11.9,51.5c-7.9,29.7-29.7,47.5-57.4,47.5s-45.5-13.9-37.6-47.5l9.9-43.6h29.7l-9.9,41.6c-4,15.8,0,23.8,13.9,23.8s19.8-9.9,23.8-23.8l9.9-45.5c2-9.9,2-21.8-2-31.7l-25.7-75.2c-4-13.9-5.9-23.8-4-41.6l7.9-39.6c7.9-31.7,27.7-47.5,57.4-47.5s43.6,15.8,35.6,45.5ZM17.7,98L85-200.9h-31.7l5.9-25.7h95l-5.9,25.7h-33.7L47.4,98s-29.7,0-29.7,0ZM-71.4,98l27.7-287L-109,98h-25.7L-61.5-224.7H-17.9L-45.6,50.5,17.7-226.7h25.7L-29.8,98h-41.6ZM-101.4,195H208.1c56.6,0,102.6-45.9,102.6-102.6V-217.2c0-56.6-45.9-102.6-102.6-102.6H-101.4c-56.6,0-102.6,45.9-102.6,102.6V92.4c0,56.6,45.9,102.6,102.6,102.6Z"/>
</svg>