<?xml version="1.0" encoding="utf-8"?>
<!-- Generator: Adobe Illustrator 25.4.1, SVG Export Plug-In . SVG Version: 6.00 Build 0)  -->
<svg version="1.1" id="Layer_1" xmlns="http://www.w3.org/2000/svg" xmlns:xlink="http://www.w3.org/1999/xlink" x="0px" y="0px"
	 viewBox="0 0 8000 800" style="enable-background:new 0 0 8000 800;" xml:space="preserve">
<style type="text/css">
	.st0{fill:none;}
	.st1{fill:#202020;}
</style>
<g>
	<g>
		<path class="st0" d="M-17,551.4c20.8-3.3,41.4,7.9,62.3,8.4c18.6,0.5,37.6,0.5,56.2,0.1c19.6-0.4,33.6-7.4,52-12.7
			c20.4-5.8,36.6-8.8,54.4-20.8c15.7-10.5,25-18.8,41.7-5c17.9,14.8,24.8,41.1,49.6,47.2c33.8,8.4,43.2-1.3,100.1-15.2
			c28.8-8.9,28.7-31.9,54.9-25.2c13.2,3.4,10.7,8.7,24.9,6.8c11-1.5,19.6-7.4,30.7-9.2c10.1-1.6,21.9,3.3,31.7,1.1
			c11-2.5,16.2-11.8,26.4-15.9c20.1-8.1,57.5-1.8,79.8-1.5c25,0.4,30-9.1,51.4-19.1c19.9-9.3,55.8-9.2,77.7-6.5
			c21.9,2.8,36.3,22.1,56,31.8c7.7,3.8,16.4,10.7,24.6,13.1c18.7,5.5,31.2-5.7,48.7-9.4c19.6-4.1,39.8-10.2,59.8-10.3
			c34.3-0.2,51.3,18,81.9,27.9c19.2,6.2,45.4,8.8,58.3,26.2c7.3,9.8,7.2,21.8,17.9,30.4c13.4,10.6,27.7,7.7,44.1,7.5
			c26.1-0.3,45.9,4.9,70.8,8.6c13.3,2,21-0.1,33.5,7.6c17.4,10.8,16.9,13.9,37.1,16.8c11.8,1.7,21.8,7.4,33.5,9
			c10,1.3,22-3.4,31.7-1c24.2,6,19.8,33,50.4,34.3c13.1,0.5,29.7,1.8,42.9,0.1c8.9-1.1,22.9-11.1,31.5-8.4
			c11.9,3.7,15.1,27,24.6,34.2c12.9,9.7,22.1,4.6,36.9-0.2c53.9-17.3,110.4-7.6,151.9-51.1c18.8-19.7,38.8-40.4,59.1-58.3
			c23.4-20.6,39.4-27.6,45-59.3c4-22.6,11.8-43.6,16-65.5c5.7-29.7-10.1-40.4,17.5-60c17.7-12.6,34.5-26.4,50.2-41.4
			c11.9-11.4,28.4-20.4,39-31.9c9.2-10,5.2-20.4,12.8-30.1c4.9-6.3,26.1-13.9,34-16.4c40.2-12.9,28.6,29.4,62.1,37
			c25.2,5.7,54.3-15.7,80.8-15.9c36.5-0.2,40.6-3.4,64.6-32.8c20.7-25.3,53.4-17.3,84.3-17c23.4,0.3,43.7-7.9,66.7-8.5
			c21.6-0.5,46-2.6,67.4,0.7c32.4,5,47.7,31.5,75.3,44.8c15.3,7.4,29.9,6.3,44.9,16.7c12.3,8.5,22.8,17.3,31.4,29.6
			c17.7,25.2,30.1,33.8,60,43.9c17.8,6,33,2.8,50.6,5.6c12.7,2,22.8,8.1,36.1,9c14.8,1,26.3,0.7,40.8,5.7
			c15.5,5.3,24.8,15,38.7,22.6c36.8,20,76.6,6.8,115,14.9c16.3,3.5,32.3,11.1,48.5,15.4c14.8,4,24.3,0.5,38.9,1.2
			c21.8,1.1,42.1,6.8,65,6.7c19.5-0.1,38.9,0,58.4,0l-1-0.1c25.4,0,50.8-0.3,76.2,0c31.9,0.4,48.9-8.5,75.2-24.7
			c20.8-12.9,54.3-16.9,78.1-20.3c30.2-4.3,51.1,3.5,80.3-8.3c29.3-11.8,53.5-16.8,83.2-24.8c23.8-6.4,44.4-22,68.5-27.2
			c27.2-5.8,57.1-10.8,84.9-10.6c15.1,0.1,29.6-1.3,44.4,1.8c18,3.8,27.3,13.5,45.4,11.7c42.2,3.5,60.8-4.7,95.6-15.1
			c23.8-7.1,24.1-18.5,35.3-34.6c10.6-15.1,25.1-15.4,45.2-17.4c26.2-2.6,47.7-9.7,75.4-9c25.5,0.6,45.2-1.3,77.7,34.5
			c25.3,9.6,26.6,0.7,40.2,3.1c25,4.4,48.3,15.7,68.9,29.7c13.8,9.4,35.3,13.8,44.9,26.9c11.1,15.2,10.6,37.7,17.9,54.5
			c12.9,29.7,53.8,20.9,82.6,20.9c17.9,0,35.8,0,53.7,0c14.2,0,38.3-4.9,51.7,0.3c18.1,7,15.6,32.4,30.1,45.2
			c10.1,9,32,15.3,45.5,17.4c31.5,4.9,68.1-0.4,100.2-0.4c17.7,0,35.4,0.3,53,0.2c19.6-0.2,43.4-11.7,61.3-10
			c16.3,1.5,24.9,14.4,34.8,25.2c13.9,15.1,34,38.2,53.5,45.7c13.3,5.1,31.9,2,45.1-0.8c17.7-3.8,22.9,0.3,42.2,2.7
			c37.8,4.8,80.5-0.5,118.8-0.5c29.5,0,60,3.3,88.4-4.5c36-9.8,66.2,4.6,102.4,4.4c66.7-0.4,136.3,5.8,200.6-8.7
			c38.2-8.6,64.6-21.1,72.3-63c6.1-33.1,7.9-93.6,36.6-116.4c14.8-11.8,41.7-22.8,60.6-26.6c7.7-1.5,17.5,1.9,25.1,1
			c10.4-1.4,18.7-7.6,29.1-9c19.7-2.6,35.5,11.5,57,8.9c18-2.2,33.1-9,51.9-9.5c18.6-0.6,44.2-3.9,62.2,1.3
			c24.5,7.1,43.8,34.9,60.9,52.6c19.5,20.1,27.2,23.9,55.1,28.7c18.2,3.2,29.7,8,52,7.8c23.8,1.8,24.9,4.8,35.3,8.4
			c43.9,8.1,50.9,39.3,89.8,62.4c17.1,10.2,36.7,18,53.3,28.3c19.5,12.1,34,26.5,57.5,31.9c31.2,7.2,75.9,5,107.4,2.1
			c31.6-2.9,62.8-21.3,93.6-29.3c60.6-15.7,132.8-6.7,196-6.7c34.9,0,70.5,1.9,105.3,0.2c28.4-1.4,54.6-9.1,84.3-9.1c29,0,58,0,87,0
			c15.6,0,31.3-0.5,46.9-0.2c27,0.6,51.1,9.9,78.5,9.4c21.2-0.4,35.4,2.8,54.8,6.9c24.6,5.2,44.4-5.9,68.5-7.6
			c35.1-2.5,69.9,3.2,104-4c60.3-12.8,131.4-4.9,193.7-4.5c21.8,0.1,37.7-2.6,58.4-6.9c15.8-3.3,30.8,0.2,46.6-1.5
			c16.4-1.8,30.1-8.8,46.8-9.6c18.1-0.9,36.7,0.2,54.9,0.2c39,0,75-1.6,112.4,10.9c37.3,12.4,68.9,25.1,109,24.7
			c41.1-0.4,82.1,0,123.2,0c51.7,0,99.9,9.5,151.4,8.9"/>
		<g>
			<g>
				<g>
					<path class="st1" d="M8137.7,566.8c4.7-0.2,2.1-0.2-11-0.3c-3.1,0-6.2,0.1-9.3,0.1c3.4,0.1,6.8,0.1,10.2,0.2L8137.7,566.8z"/>
					<path class="st1" d="M8050,560.9c-15.3-1.3-33-2.2-23.1-1.2c15.2,0.8,18.8,1.3,35.2,2.4c13,1.2,22.7,2.1,20.5,2
						c2.3,0.2,7.4,0.6,12.7,1c5.4,0.4,11,0.7,14.6,0.8c-8.5-0.6-18.1-1.3-28.4-2.1c-10.3-0.9-21.3-1.8-32.5-2.8
						C8044.2,560.5,8048.9,560.8,8050,560.9z"/>
					<path class="st1" d="M6781.5,540l4.1-0.4l4.1-0.3C6787.5,539.5,6784.7,539.7,6781.5,540z"/>
					<path class="st1" d="M6032.8,464.3c5.6,2.4,7.7,3.8,8,3.9c-0.6-0.3-1.2-0.7-1.8-1c-0.6-0.3-1.2-0.6-1.7-0.9
						c-1.1-0.6-2-1-2.8-1.3C6032.9,464.4,6032.2,464.1,6032.8,464.3z"/>
					<path class="st1" d="M5901.4,435.9c1.3,0.6,2.6,1,3.8,1.4c1.2,0.5,2.4,0.8,3.7,1.1c-1.4-0.4-2.9-0.9-4.2-1.3
						c-0.6-0.2-1.2-0.4-1.8-0.6C5902.3,436.3,5901.8,436.1,5901.4,435.9z"/>
					<path class="st1" d="M6781.5,540c-7,0.7-14,1.6-21,2.6C6759.1,543,6771.2,541,6781.5,540z"/>
					<path class="st1" d="M7873.9,558.1c4.4,0,8.1-0.1,11.5-0.1c-3.6,0-7.2,0-10.8,0C7874.4,558,7874.2,558,7873.9,558.1z"/>
					<path class="st1" d="M7128.3,548.2c2.1-0.3,4.3-0.6,6.4-0.8c0.9-0.1,1.9-0.2,2.8-0.3c0.9-0.1,1.8-0.2,2.6-0.2
						C7136.1,547,7132.2,547.6,7128.3,548.2z"/>
					<path class="st1" d="M7395.4,537.6c-6.1-0.2-8.2,0-10.5,0c3.4,0,7.9,0.1,13.2,0.3C7398.3,537.9,7397.5,537.8,7395.4,537.6z"/>
					<path class="st1" d="M7814.4,551.1c2.5,0.5,4.9,1.1,7.4,1.6C7819.8,552.3,7816.6,551.6,7814.4,551.1z"/>
					<path class="st1" d="M6938.9,538.5c-0.5-0.1-1.4-0.1-2.5-0.2c0,0,0.2,0,0.7,0.1C6937.5,538.5,6938.1,538.5,6938.9,538.5z"/>
					<path class="st1" d="M269,546.6C269.1,546.8,268.9,546.6,269,546.6C268,545.4,267.7,545,269,546.6z"/>
					<path class="st1" d="M-17,551.4c1.4-0.2,2.8-0.4,4.3-0.5c0.5-0.1,0.9-0.1,0.9-0.2l-1.3,0.1l-1.3,0.2L-17,551.4z"/>
					<path class="st1" d="M5683.5,368.5c0.5,0.1,0.6,0.1,1.1,0.2c0.4,0.1,0.7,0.1,1.1,0.2c0.3,0,0.6,0.1,0.9,0.1
						c0.5,0,0.9,0.1,1.1,0.1c0.5,0,0.5,0,0.2,0c-0.3,0-0.9-0.1-1.7-0.1C5685.3,368.9,5684.4,368.7,5683.5,368.5z"/>
					<path class="st1" d="M3701.1,351.8c1.6,0.3,2.8,0.5,3.8,0.7c0.9,0.2,1.5,0.3,1.9,0.4c0.7,0.2,0.3,0.1-0.8-0.1
						c-2.1-0.4-6.9-1.2-11.4-1.4c-4.4-0.3-8.5-0.3-9-0.3c-0.2,0,0.4,0,2.3,0.1c1.9,0.1,5.1,0.2,9.9,0.7c-0.9-0.1,0.9,0,3.5,0.3
						c2.6,0.3,6.1,1,8.7,1.6c2.6,0.6,4.2,1.2,3.4,0.8c-0.4-0.2-1.5-0.5-3.5-1.1c-1-0.3-2.2-0.6-3.7-0.9
						C3704.8,352.5,3703.1,352.1,3701.1,351.8z"/>
					<path class="st1" d="M7867,558c-3.6,0-7.3,0-11-0.1C7861,558,7864.4,558.1,7867,558z"/>
					<path class="st1" d="M3697.9,352L3697.9,352c1.3,0.2,2.7,0.3,4,0.6C3700.2,352.3,3699.3,352.2,3697.9,352z"/>
					<path class="st1" d="M5241.6,582.9c1.2,0.1,3.4,0.1,5.8,0.2C5247.3,583.1,5245.9,583,5241.6,582.9z"/>
					<path class="st1" d="M5543,384c-3.1,1.6-6.2,3.3-9.2,5.1C5537.4,387,5540.4,385.4,5543,384z"/>
					<path class="st1" d="M5022.4,583.2c-5.7,0-7.7,0-15.5,0.3c0.7,0,1.4,0,2.4,0c1.4-0.1,3.1-0.1,5.2-0.2
						C5016.6,583.2,5019.1,583.2,5022.4,583.2z"/>
					<path class="st1" d="M4798.4,569c0.9,0.8,2.1,1.8,3.3,2.7c0.9,0.7,1.9,1.4,2.9,2.1c1,0.7,2,1.4,3,2c-1.6-1.1-3.1-2.1-4.7-3.3
						C4801.4,571.4,4799.9,570.2,4798.4,569z"/>
					<path class="st1" d="M920,517.8c-4.9,1.1-8,1.7-10.4,2.1c0.9-0.1-0.5,0.2-2.5,0.7c-2,0.5-4.4,1.1-5.8,1.6
						c-1.4,0.4-1.6,0.5,0.9-0.2c0.6-0.2,1.4-0.4,2.4-0.6c1-0.2,2.2-0.5,3.7-0.8C911.2,519.9,915.1,519,920,517.8z"/>
					<path class="st1" d="M7873.8,557.9c-1.3,0.1-3.3,0.1-6.8,0.1c2.6,0,5.2,0,7.6,0C7875.3,558,7875.4,557.9,7873.8,557.9z"/>
					<path class="st1" d="M5013.1,585.6c-12.1,0.3-24.3,0.9-36.4,1.4C4986.9,586.6,5000.1,585.9,5013.1,585.6z"/>
					<path class="st1" d="M2236,259.7c-2.8,0.2-5.5,0.4-8.2,0.8C2230.9,260,2233.8,259.8,2236,259.7z"/>
					<path class="st1" d="M4869.1,582.3c-1.6,0.2-3.2,0.5-4.8,0.8c-1.7,0.3-3.3,0.6-5,1c-3.4,0.6-6.9,1.2-10.5,1.6
						c-1.5,0.2-3.2,0.4-4.2,0.5c4.2-0.4,8.3-1,12.4-1.7C4861.1,583.9,4865.1,582.9,4869.1,582.3z"/>
					<path class="st1" d="M909.6,519.9C909.6,519.9,909.6,519.9,909.6,519.9C909.6,519.9,909.6,519.9,909.6,519.9z"/>
					<path class="st1" d="M687.1,498.9c3.7-2.2,6.8-3.8,9.3-5.1c1.3-0.6,2.4-1.2,3.3-1.7c1-0.4,1.8-0.8,2.6-1.1
						c1.4-0.7,2.5-1,3.2-1.3c0.7-0.3,1-0.4,1.2-0.5c0.6-0.3-2.1,0.4,1.4-0.8c1.2-0.3,2.4-0.7,3.5-1c1.1-0.3,2.2-0.5,3.2-0.7
						c2-0.5,3.9-0.8,5.6-1.1c1.7-0.3,3.1-0.5,4.4-0.6c1.3-0.2,2.4-0.3,3.4-0.4c3.9-0.4,5.5-0.4,6.1-0.4c0.7,0,0.5,0.1,1.1,0.1
						c0.5,0,1.8,0,5.3-0.1c12.8-0.5,24.3-0.1,34.7,1c1.3,0.1,2.6,0.3,3.8,0.5c0.6,0.1,1.3,0.2,1.9,0.3c0.6,0.2,1.2,0.3,1.8,0.5
						c0.6,0.2,1.2,0.3,1.8,0.5c0.6,0.2,1.2,0.4,1.7,0.6c0.6,0.2,1.2,0.4,1.7,0.6c0.6,0.3,1.1,0.5,1.7,0.7c4.5,2,8.6,4.5,12.5,7.2
						c1.1,0.9,4.2,3,0.6,0.6c2.8,1.9,5.9,4.2,9.2,6.7c3.3,2.5,6.9,5.2,10.9,7.8c2,1.3,4.1,2.6,6.2,3.8c1.1,0.6,2.2,1.2,3.3,1.8
						c1.1,0.6,2.2,1.1,3.3,1.7c4.3,2.5,8.7,5.4,13.3,7.9c2.3,1.3,4.8,2.4,7.3,3.2c0.6,0.2,1.3,0.4,1.9,0.5l2,0.5
						c1.3,0.3,2.7,0.4,4,0.6c5.3,0.5,10.7-0.3,15.5-1.7c4.9-1.4,9.3-3.3,13.6-5c4.2-1.7,8.3-3.1,12.1-4c2.3-0.5,3.5-0.7,4.1-0.8
						c-2.6,0.4-4,0.7-4.7,0.8c-0.7,0.1-0.7,0-0.2-0.2c7.6-1.7,14.6-3.4,20.5-4.8c5.8-1.4,10.5-2.4,13.4-2.8
						c-9.3,1.9-10.1,2.3-14.4,3.3c5.3-1.3,10.6-2.5,15.9-3.5c3.6-0.6,4.1-0.6,2.7-0.3c-1.4,0.3-4.5,0.9-8.2,1.6
						c-3.6,0.8-7.7,1.7-10.8,2.4c-1.6,0.4-2.9,0.7-3.9,0.9c-1,0.2-1.5,0.4-1.5,0.4c7.7-1.8,15.8-3.8,24-5.3
						c8.2-1.5,16.5-2.6,24.6-2.5c8.1,0,15.9,1.1,23,3.1c7.1,2,13.4,4.7,18.9,7.3c0.6,0.3,0.2,0.2-0.9-0.3c-1-0.5-2.8-1.2-4.9-2.1
						c-4.2-1.8-10.1-3.9-15.3-5.2c-1.3-0.3-2.6-0.6-3.7-0.9c-1.2-0.3-2.3-0.4-3.2-0.6c-1-0.2-1.8-0.3-2.4-0.4
						c-0.7-0.1-1.2-0.1-1.4-0.1c-0.6,0-0.3,0,1.1,0.2c0.7,0.1,1.7,0.3,3,0.5c0.6,0.1,1.4,0.2,2.2,0.4c0.8,0.2,1.7,0.4,2.7,0.6
						c-12.1-2.9-24.8-2.7-37.1-0.9c7.1-0.9,9.3-0.8,8.9-0.8c-0.4,0.1-3.3,0.3-6.2,0.7c-1.5,0.2-3,0.4-4.2,0.6
						c-1.2,0.2-2.1,0.4-2.5,0.4c-0.7,0.2,1-0.2,7.6-0.9c6.1-0.7,11.6-1,16.5-0.8c1.2,0,2.4,0.1,3.6,0.1c1.2,0.1,2.3,0.2,3.4,0.3
						c2.2,0.1,4.3,0.6,6.3,0.9c8,1.5,14.5,3.8,20.9,6.4c6.3,2.7,12.5,5.8,19.9,9.5c7.5,3.6,16.3,7.9,28.3,11.5
						c10.9,2.8-3.5-1.2,7.4,1.5c8.5,2.2,15.8,4,21.8,6.2c6,2.1,10.8,4.5,14.7,7c0.9,0.7,1.9,1.2,2.7,1.9c0.8,0.7,1.6,1.3,2.4,1.9
						c0.7,0.6,1.4,1.3,2,2c0.3,0.3,0.6,0.6,0.9,0.9c0.3,0.3,0.5,0.7,0.8,1c2.2,2.5,3.7,5.1,4.9,7.7c1.2,2.6,2.1,5.1,3.2,7.8
						c1.1,2.7,2.2,5.6,4,8.7c1.8,3.1,4.4,6.5,8.3,9.4c0.5,0.4,1,0.7,1.5,1.1c0.5,0.4,1.1,0.7,1.6,1c1.1,0.7,2.4,1.3,3.6,1.9
						c2.6,1.1,5.6,2.1,8.9,2.7c3.4,0.6,6.3,0.6,9.3,0.7c3,0,6.1-0.2,9.8-0.4c7.5-0.4,18.1-1.1,36.3,1.2c-4.2-0.4-8.3-0.7-12.5-0.8
						c47.5,5,27,4.7,76.9,10.2c-2.1-0.5-5.5-0.9-9.4-1.1c-3.8-0.2-8.1-0.5-11.8-1.1c-7.4-1.1-12.7-2-9.1-1.4c4,0.7,7.4,1.3,10.3,1.7
						c2.9,0.4,5.3,0.6,7.4,0.8c4.1,0.3,6.7,0.4,9,0.7c2.3,0.3,4.4,0.6,7.4,1.5c2.9,0.9,6.6,2.6,11.8,6.1c1.4,1,2.8,2.1,4.1,3.1
						c2.7,1.8,5.3,3.6,8.1,5.4c2.8,1.8,5.9,3.2,9.1,4.1c3.2,1,6.5,1.6,9.8,2.2c3.3,0.5,6.5,1,9.7,1.8c6.4,1.7,12.6,4.2,19.3,6
						c1.7,0.5,3.4,0.8,5.1,1.2c0.9,0.2,1.7,0.3,2.6,0.4c0.9,0.1,1.8,0.2,2.7,0.2c3.5,0.1,7-0.3,10.4-0.7c3.4-0.5,6.8-1,10.2-1.2
						c1.7-0.1,3.4-0.1,5.1,0c1.7,0.1,3.3,0.5,4.9,1c3.2,0.9,6.3,2.6,9,4.6c2.7,2.1,5,4.6,7.1,7.4c2.1,2.7,4.1,5.7,6.4,8.4
						c2.2,2.8,4.7,5.4,7.7,7.5c3,2.1,6.4,3.6,9.9,4.5c1.8,0.5,3.5,0.8,5.3,1c1.8,0.2,3.6,0.3,5.4,0.4c-1.5,0-4.8-0.1-6-0.3
						c-0.6-0.1-0.7,0,0.2,0.1c0.5,0.1,1.2,0.2,2.2,0.3c0.5,0,1.1,0.1,1.8,0.1c0.7,0,1.4,0.1,2.2,0.1c8.9,0.4,18,0.9,27.3,0.8
						c4.6-0.1,9.3-0.3,14-0.9c2.4-0.4,4.7-1.2,6.9-2c2.2-0.8,4.4-1.8,6.5-2.7c4.3-1.8,8.7-3.6,13.1-4c2.2-0.2,4.3,0.2,6.2,1.3
						c1.9,1.1,3.5,2.7,4.8,4.5c2.7,3.7,4.7,7.9,6.8,12.2c2,4.3,4,8.7,6.9,12.6c0.8,1,1.5,1.9,2.5,2.8c0.9,0.9,2,1.5,3,2.2
						c0.5,0.4,1,0.7,1.6,1c0.5,0.3,1.1,0.6,1.6,0.9c1.1,0.5,2.2,1.1,3.4,1.4c2.3,0.8,4.8,1.2,7.3,1.2c2.5,0,4.9-0.4,7.2-0.9
						c4.7-1.1,9.1-2.8,13.5-4.2c2.2-0.7,4.4-1.4,6.6-2c2.2-0.6,4.4-1.2,6.7-1.8c17.8-4.5,35.6-6.7,52.7-9.4
						c8.7-1.5,17.3-3.2,25.9-5.3c3-0.7,5.8-1.4,7-1.8c1.2-0.3,0.9-0.2-2.3,0.8c3.3-0.9,5.7-1.6,7.6-2.2c1.8-0.6,3-1,3.8-1.3
						c1.5-0.5,1.3-0.5,0.6-0.3c-1.4,0.4-4.4,1.3,1.7-0.9c7.2-2.6,11.8-5,13.6-5.7c1.8-0.8,0.7-0.2-3.7,2c5.4-2.5,11.3-5.7,17.1-9.8
						c5.8-4.1,11.6-9,17.1-14.8c10.8-11.4,22.5-23.6,34.6-35.6c12.1-11.9,24.7-23.5,37.2-33.5c6.2-5.1,12.2-10,17.1-15.5
						c4.9-5.5,8.6-11.6,10.9-17.5c-0.7,1.5-1.3,3-2,4.5c-0.8,1.5-1.5,3-2.4,4.4c0.7-1,1.2-2.1,1.8-3.2c0.3-0.5,0.6-1,0.8-1.5
						c0.2-0.5,0.5-1,0.7-1.5c0.4-1,0.9-2,1.3-3c0.3-1,0.7-2,1-2.9c1.3-3.8,2.1-7.3,2.7-10.5c0.7-3.2,1.1-6.1,1.7-8.9
						c0.5-2.8,1.1-5.4,1.7-8c1.2-5.2,2.5-10.2,4.1-16.2c1.6-5.9,3.5-12.7,5.8-21.5c-0.5,2.2-1.1,4.5-1.7,6.7
						c1.4-5.1,2.7-10.3,3.8-15.5c1.1-5.2,2.1-10.6,2.2-16.1c0.2-5.4-0.2-10.9-0.6-16.2c-0.3-5.3-0.4-10.8,1.8-15.6
						c2.1-4.8,5.8-8.8,9.8-12.2c2.1-1.7,4.2-3.3,6.4-4.8c2.2-1.6,4.4-3.2,6.5-4.8c8.6-6.4,17-13.1,24.9-19.9
						c4-3.4,7.9-6.9,11.7-10.4c1.9-1.8,3.8-3.5,5.6-5.3c1.8-1.7,3.7-3.4,5.7-5c7.7-6.4,16-11.8,23.5-17.9c3.7-3,7.3-6.1,10.5-9.7
						c3.2-3.6,5.1-8.1,6.2-12.5c1.1-4.4,1.7-8.6,3.5-12.3c0.4-0.9,0.9-1.8,1.4-2.7c0.3-0.4,0.6-0.8,0.9-1.2l0.4-0.6
						c0.1-0.2,0.3-0.3,0.5-0.5c1.3-1.4,2.9-2.5,4.6-3.5c2.4-1.7,8.4-4.8,16.3-7.9c3.9-1.5,8.3-3.2,12.9-4.6c4.6-1.4,9.5-2.4,14.3-2
						c2.4,0.2,4.7,0.8,6.8,1.9c2.1,1,3.9,2.5,5.4,4.1c3.1,3.3,5.3,7,7.3,10.3c2,3.3,3.8,6.1,5.3,8.1c1.5,2,2.7,3.3,3.2,3.8
						c4,4.6,8.5,7.5,12.7,9.2c4.2,1.7,7.9,2.4,11.2,2.7c3.3,0.3,6.3,0.2,9,0c2.8-0.3,5.4-0.7,8.1-1.2c5.5-1.1,11.4-2.9,20-5.8
						c4.3-1.4,9.2-3.2,15.1-5c3-0.9,6.2-1.8,9.7-2.6c3.5-0.8,7.3-1.4,11.5-1.6c2.2-0.1,4.3-0.1,6.4-0.1c2,0,4-0.1,5.8-0.2
						c1.9-0.1,3.7-0.2,5.5-0.3c1.8-0.1,3.6-0.3,5.4-0.6c0.5-0.1,0.9-0.1,1.4-0.2c0.5-0.1,0.9-0.2,1.4-0.3c0.9-0.2,1.9-0.3,2.9-0.5
						c1.9-0.5,3.9-0.9,6-1.7c4.1-1.5,8.5-3.9,12.8-7.6l0.6-0.1c3.9-3.5,7.3-7.3,10.6-11.2c1.7-1.9,3.2-3.9,4.9-5.9
						c1.6-2,3.2-4,4.8-5.9c3.5-4,7.7-7.3,12.3-9.8c5.9-3.4,12.6-5.3,19.5-6.3c-4.1,0.5-8.4,1.5-11.4,2.5c-3,1-4.8,1.8-4.3,1.5
						c7.4-3.3,16.4-4.8,25.4-5.1c9-0.3,18,0.4,26,0.9c8,0.5,15,0.8,20.2,0.7c2.6-0.1,4.6-0.2,6.1-0.3c1.4-0.1,2.3-0.1,2.4-0.1
						c13-1.4,25.6-4.7,38.3-6.6c1.6-0.2,3.2-0.5,4.8-0.6c1.6-0.2,3.2-0.3,4.8-0.5c3.2-0.3,6.4-0.3,9.7-0.5l19.4-0.8
						c-1.7,0.2-14.7,0.7-25,1.1c20.7-0.9,22.6-0.9,24.1-0.9c0.7,0,1.3,0,4.1,0c2.8,0,7.8-0.3,17.3-0.2c-5.1-0.2,2.7-0.1,3.6-0.2
						c4.7,0.2,10.9,0.6,18,1.6c1.8,0.2,3.5,0.6,5.4,1c1.9,0.3,3.7,0.9,5.6,1.5c3.8,1.1,7.6,2.8,11.3,4.7
						c15.1,7.8,28.3,21.5,41.8,30.4c-1.8-1.1-3.5-2.2-5.2-3.4c5.8,4.3,12.1,8.4,18.9,11.6c6.9,3.2,14.3,4.9,21.6,6.8
						c3.6,1,7.2,2,10.7,3.4c3.5,1.4,6.8,3,10,5.1c6.3,4.2,12.5,8.9,18.2,14.1c2.8,2.6,5.6,5.4,8.1,8.3c0.6,0.7,1.3,1.5,1.9,2.2
						c0.6,0.7,1.2,1.5,1.8,2.3c1.2,1.5,2.3,3.1,3.5,4.7c4.7,6.4,9.6,12.8,15.4,18.5c2.9,2.9,6,5.4,9.3,7.9c3.3,2.4,6.8,4.5,10.4,6.4
						c7.2,3.8,14.9,6.7,22.5,9.3c-1.4-0.5-2.6-0.9-3.8-1.4c-1.2-0.4-2.2-0.8-3.2-1.2c-1.9-0.7-3.4-1.4-4.6-1.9
						c-2.3-1-3.1-1.4-2.7-1.3c0.8,0.2,6.4,2.6,15.4,5.6c1.2,0.5,2.4,0.9,3.6,1.3c1.2,0.4,2.5,0.8,3.7,1.1c3.1,0.6,3.4,0.6,2.5,0.4
						c-0.4-0.1-1.2-0.3-2-0.4c-0.8-0.2-1.7-0.5-2.6-0.7c-1.6-0.4-2.8-0.9-2.1-0.7c0.4,0.1,1.2,0.3,2.7,0.7c0.8,0.2,1.7,0.4,2.8,0.6
						c0.6,0.1,1.2,0.2,1.9,0.4c0.7,0.1,1.4,0.2,2.2,0.3c6,0.9,10.1,1,12.5,1.2c2.4,0.1,3.3,0.2,2.9,0.2c-0.3,0-1.9,0.1-4.2,0
						c-2.3-0.1-5.5-0.2-9-0.6c9.9,1.2,19.7,0.7,29.4,1.5c0.8,0.1-0.4,0.1-2.1,0c-1.7-0.1-3.9-0.1-4.8-0.1c3,0.1,7.6,0.3,13.1,1.1
						c2.7,0.4,5.6,1,8.6,1.9c3,0.9,6.1,1.9,9.3,3c3.2,1.1,6.4,2.1,9.7,2.9c3.3,0.8,6.7,1.3,9.9,1.5c6.3,0.4,11.9,0.6,16.3,0.8
						l1.6,0.2c8,0.7,15.3,2.1,21.9,4.3c6.6,2.2,12.3,5.4,17.6,8.8c5.3,3.4,10.1,7,15.1,10.1c4.9,3.1,10,5.8,15.2,7.9
						c5.2,2.1,10.5,3.7,15.8,4.8c5.4,1.1,10.9,1.9,16.5,2.3c11.2,0.9,23,0.6,36.1,0.6c1-0.2,21.7-0.7,37,2.4
						c9.4,1.9,18.7,5.3,28.3,8.8c4.8,1.7,9.7,3.5,14.7,5.1c5,1.6,10.2,3.1,15.7,3.6c5.4,0.6,11,0.2,16.4-0.1
						c2.7-0.2,5.5-0.3,8.2-0.3c2.7,0,5.5,0.1,8.2,0.3c11.1,0.8,22.3,2.7,33.9,4.3c8.1,1.1,12.9,1.4,15.5,1.6
						c2.7,0.1,3.3,0.2,3.4,0.1c0.1-0.1-2-0.2,5.4,0c2.5,0.3,49,0.3,24.9,0.5c15.9,0,28.5,0,37.2,0l0.1-2.4c-0.4,0-0.7,0-1-0.1
						l-0.1,2.4c15.8,0,29.3-0.1,45.1-0.1c7.9,0,16.4,0,26-0.1c2.4,0,4.9,0,7.5,0c1.3,0,2.6,0,3.9-0.1c1.3-0.1,2.7-0.1,4.1-0.2
						c5.5-0.4,11.4-1.1,17.6-2.5c-7.6,1.7-16.3,2.2-11.8,1.7c6.4-0.7,13.7-2.1,18.9-3.8c5.3-1.6,8.7-3,7.8-2.6
						c-1.1,0.4-2.1,0.9-3.2,1.3c4.7-1.7,9.4-3.8,14-6.2c4.6-2.3,9.2-5,13.7-7.7c4.6-2.7,9-5.7,13.8-8c2.4-1.2,4.9-2.2,7.3-3.3
						c2.5-0.9,5.1-1.9,7.7-2.7c10.4-3.3,21.2-5.5,32.1-7.3c5.5-0.9,10.9-1.7,16.4-2.4c2.7-0.4,5.5-0.8,8.2-1.1l4.1-0.5l2-0.2l2-0.2
						c10.8-0.9,21.6-0.4,32.3-0.4c5.3,0,10.6-0.2,15.8-0.7c5.2-0.5,10.2-1.6,15.1-2.9c1.2-0.4,2.4-0.7,3.6-1.1
						c1.2-0.3,2.3-0.8,3.5-1.2c2.3-0.8,4.6-1.7,6.8-2.6c2.2-0.9,4.4-1.7,6.6-2.5c2.2-0.8,4.3-1.6,6.5-2.3c8.5-2.9,16.7-5.4,24.3-7.6
						l-3.4,1c10.5-3,21.1-5.7,31.7-8.5c5.3-1.4,10.6-2.7,15.9-4.3c5.3-1.6,10.4-3.6,15.5-5.8c3.5-1.5,5.8-2.6,7.3-3.3
						c0.7-0.3,1.3-0.6,1.6-0.7c0.3-0.2,0.5-0.2,0.5-0.2c0,0-0.5,0.3-1.4,0.7c-0.9,0.4-2.1,1-3.3,1.6c-2.5,1.2-5.2,2.4-6.1,2.8
						c-0.8,0.4,0.3,0,5.4-2.3c8.1-3.8,15.5-7.6,22.8-10.9c3.6-1.7,7.2-3.1,10.8-4.5c3.6-1.3,7.1-2.4,10.6-3.3
						c7.1-1.7,14.1-3,20.8-4.3c6.8-1.3,13.4-2.4,19.9-3.3c13-1.9,25.8-3.1,38.9-3.4c1.6-0.1,3.3-0.1,4.9-0.1c1.7,0,3.3,0,5,0
						c3.4,0,6.7-0.1,10.2-0.2c6.8-0.1,13.8-0.3,21,0.3c5.6,0.6,12.1,1.7,19.2,4.2c3.5,1.2,7.2,2.8,11.1,4.4
						c3.9,1.6,8.1,3.2,12.6,4.2c1.1,0.3,2.3,0.4,3.5,0.6c1.2,0.1,2.4,0.2,3.6,0.3c1.2,0,2.4,0.1,3.6,0c0.6,0,1.2-0.1,1.8-0.1l0.5,0
						l0.2,0c0,0,0,0,0,0l0.9,0.1c2.4,0.2,4.8,0.4,7.3,0.5c2.5,0.1,5,0.2,7.5,0.2c10.1,0.1,20.6-0.5,31-2.4
						c5.2-0.9,10.4-2.2,15.5-3.5c5.1-1.4,10.2-2.9,15.2-4.4c5-1.5,10-3.1,14.9-4.6c1.2-0.4,2.5-0.8,3.7-1.1c1.2-0.4,2.5-0.8,3.7-1.2
						c1.2-0.4,2.4-1,3.6-1.4c1.2-0.5,2.3-1.1,3.5-1.7c4.6-2.3,8.6-5.8,11.7-9.6c3.1-3.9,5.3-8.1,7.6-12c2.3-3.9,4.6-7.6,7.1-10.8
						c2.5-3.2,5.4-5.7,8.6-7.6l-1.5,0.8c-0.5,0.3-0.9,0.6-1.4,0.9c3-2.3,5.7-3.7,8.2-4.6c2.5-0.9,4.6-1.5,6.6-1.9
						c4.1-0.8,7.7-1.2,13.5-1.8c-0.8,0-5.1,0.4-7.8,0.8c-2.8,0.4-4.2,0.6,0.6-0.2c8.2-1.1,16.6-1.6,24.9-2.8
						c8.4-1.1,16.7-2.7,25-4.1c4.2-0.7,8.3-1.4,12.5-2c4.2-0.6,8.4-1.1,12.6-1.4c2.1-0.2,4.2-0.3,6.3-0.4c2.1,0,4.2-0.2,6.3-0.1
						c4.2,0,8.5,0.1,12.8,0.2c4.3,0.1,8.5,0.3,12.7,0.8c1.1,0.1,2.1,0.3,3.1,0.4c1,0.2,2.1,0.3,3.1,0.5l3.1,0.7c1,0.3,2,0.6,3,0.9
						c8.1,2.4,15.5,6.7,22.3,11.8c1.7,1.3,3.4,2.5,5,4l2.4,2.1l1.2,1l1.2,1.1l4.6,4.5l4.4,4.7l1.1,1.2l0.5,0.5l0.6,0.2l0.8,0.3
						l3.1,1.1c2.1,0.6,4.2,1.3,6.3,1.8c4.3,1,8.8,1.7,13.3,1.2c2.2-0.2,4.4-0.7,6.5-1.1c2.1-0.4,4.1-0.6,6.2-0.6l1.5,0.1l1.5,0.2
						c1,0.1,2.1,0.4,3.1,0.6c2.1,0.4,4.2,0.9,6.3,1.4c4.2,1.1,8.3,2.2,12.4,3.6c2,0.7,4,1.4,6.1,2.2c2,0.8,4,1.6,6,2.4
						c7.9,3.4,15.6,7.3,23,11.7c3.7,2.2,7.3,4.5,10.9,6.9c0.9,0.6,1.8,1.2,2.7,1.8l1.4,0.9l1.4,0.8c1,0.6,1.9,1.1,2.9,1.6
						c1,0.5,1.9,1,2.9,1.5c7.8,3.8,15.9,7,23.2,11.3c3.6,2.2,7,4.7,9.7,7.8c2.7,3.1,4.8,6.8,6.4,10.6c3.3,7.7,5,16.2,6.8,24.5
						c0.9,4.2,1.9,8.4,3.1,12.6c1.2,4.2,2.7,8.3,4.9,12.2c0.8,1.4,1.7,2.7,2.6,3.9c1,1.1,1.9,2.3,2.9,3.2c0.9,1,2,1.8,2.9,2.6
						c0.5,0.4,1,0.7,1.5,1.1c0.5,0.3,1,0.7,1.5,0.9c3.9,2.3,7.3,3.6,10.3,4.4c3,0.9,5.5,1.3,7.8,1.6c2.3,0.3,4.4,0.5,6.6,0.7
						c4.4,0.3,9.2,0.4,16.9,0.1c3.8-0.1,8.4-0.3,13.9-0.6c5.5-0.3,12-0.5,19.9-0.4c-3,0.1-6,0.1-8.9,0.2c-3,0.1-5.9,0.3-8.9,0.5
						c3.1-0.2,6.3-0.3,9.4-0.4c3.1-0.1,6.3-0.1,9.5-0.1c6.3,0,12.7,0,19.1,0c6.4,0,12.7,0,19.1,0c3.2,0,6.4,0,9.6,0
						c3.3,0,6.5-0.2,9.7-0.5c6.4-0.5,12.8-1.2,19.1-1.5c3.2-0.2,6.4-0.2,9.5-0.1c3.2,0.1,6.3,0.4,9.3,1.1c0.8,0.2,1.5,0.3,2.2,0.6
						c0.7,0.3,1.5,0.4,2.2,0.8c1.4,0.5,2.7,1.3,4,2.2c1.2,0.9,2.3,1.9,3.4,3c1,1.1,1.9,2.4,2.8,3.7c3.3,5.3,5.3,11.4,7.7,17.4
						c1.2,3,2.5,6,4,8.9c1.6,2.9,3.5,5.7,5.8,8.1c2.3,2.4,5.1,4.4,7.9,6c2.8,1.7,5.7,3.1,8.7,4.4c6,2.5,12.1,4.5,18.3,6.2
						c3.1,0.8,6.2,1.5,9.4,2.1c3.2,0.6,6.3,1,9.5,1.4c6.4,0.7,12.7,1,19,1.2c6.3,0.1,12.6,0,18.9-0.2c12.6-0.4,25-1.3,37.3-1.9
						c-5.9,0.4-6,0.5-15.7,1c5.2-0.2,12.6-0.6,20.8-0.9c4.1-0.1,8.4-0.2,12.7-0.3c4.3,0,8.7,0,12.8,0c8.4,0,16.1,0,21.7,0
						c2.8,0,5.1,0,6.8,0c0.8,0,1.4,0,1.9,0c0.4,0,0.7,0,0.7,0c3.8,0,6,0.1,7.2,0.1c1.2,0,1.5,0,1.5,0.1s0,0.1,0.4,0.1
						c0.2,0,0.6,0,1.2,0c0.6,0,1.5,0,2.7-0.1c5.4-0.3,11.3-1.3,17.2-2.7c6-1.4,12-3.1,17.8-4.5c5.8-1.4,11.2-2.5,16-2.8
						c4.7-0.4,8.7,0,11.3,0.7c0.4,0.1,0.3,0.1-0.2,0c-0.5-0.1-1.4-0.2-2.4-0.4c-1-0.2-2.3-0.2-3.5-0.3c-1.2-0.1-2.4,0-3.3,0
						c3.3-0.2,8.9-0.1,14.5,2.3c2.8,1.2,5.6,2.9,8.2,4.9c2.6,2,4.9,4.3,7,6.6c4.2,4.5,7.7,8.7,9.9,11c2.1,2.2,2.6,2.7,0.4,0.2
						c6.2,6.9,12.3,13.6,18.6,19.9c6.3,6.3,12.8,12.1,19.6,17.1c0.9,0.6,1.8,1.2,2.6,1.8c0.9,0.6,1.7,1.2,2.7,1.7
						c0.9,0.5,1.8,1.1,2.7,1.6c0.9,0.5,1.9,1,2.8,1.4c0.9,0.5,1.9,0.9,2.8,1.3c0.9,0.4,1.9,0.8,2.9,1.1l1.5,0.5l1.5,0.4
						c1,0.3,2,0.5,3,0.6c8,1.4,15.8,0.9,23.2,0.1c2.4-0.3,5.2-0.8,8.2-1.4c1.5-0.3,3.1-0.6,4.7-0.9c1.6-0.4,3.3-0.7,5-1
						c3.4-0.6,6.9-1,10.5-1c3.6,0,7.1,0.5,10.6,1.1c6.9,1.3,13.6,2.6,18.9,3.2c2.7,0.3,5,0.5,6.8,0.7c1.8,0.1,3.2,0.2,4,0.2
						c-0.7,0.1,3.1,0.5,9.4,0.8c6.4,0.3,15.3,0.5,25.1,0.3c19.6-0.3,42.3-1.8,54-2.2c-3.9,0.2,1.2,0.1,6.1,0
						c4.9-0.1,9.7-0.1,5.1,0.1c13.3-0.2,26.1,0.2,35,0.4c8.9,0.2,13.9,0,11.5-0.1c12.3,0.2,24.8-0.2,36.8-2.2l2.2-0.4l2.2-0.4
						c1.5-0.3,3-0.6,4.4-0.9c1.5-0.4,2.9-0.7,4.3-1.1c1.4-0.3,2.8-0.7,4.2-1c0.7-0.2,1.4-0.3,2.1-0.5c0.7-0.2,1.4-0.2,2.1-0.4
						c1.4-0.2,2.8-0.5,4.2-0.7c1.4-0.2,2.8-0.3,4.2-0.4c1.4-0.1,2.7-0.3,4.1-0.3c10.9-0.5,21.2,0.5,30.4,1.9
						c9.2,1.4,17.4,2.9,24.3,4c2.5,0.3,4.9,0.6,7.4,0.9l3.7,0.4c1.2,0.1,2.5,0.2,3.7,0.3c2.5,0.1,4.9,0.3,7.4,0.3
						c2.5,0,4.9,0.1,7.4,0.1c9.7,0,19.4,0,29,0.1c19.2,0.2,38.1,0.6,56.7,0.6c18.6,0,37.1-0.4,55.2-1.8c18.2-1.4,36.1-3.7,53.6-7.4
						c-0.3,0.1-1.7,0.5-4,1c-1.1,0.2-2.5,0.5-4,0.9c-1.5,0.3-3.2,0.6-5.1,0.9c-3.7,0.6-7.9,1.4-12.5,2c-2.3,0.3-4.6,0.6-6.9,0.9
						c-2.4,0.3-4.7,0.5-7.1,0.8c-19,2-37.4,2.5-35.8,2.7c17-0.7,32.1-1.9,46.3-3.8c1.8-0.2,3.5-0.5,5.3-0.7c0.9-0.1,1.7-0.2,2.6-0.4
						c0.9-0.1,1.7-0.3,2.6-0.4c3.4-0.6,6.8-1.2,10.2-1.7c6.7-1.4,13.2-2.7,19.7-4.4c6.5-1.7,12.9-3.6,19.3-6.1
						c6.3-2.5,12.6-5.6,18.5-9.7c5.9-4.1,11.3-9.4,15.6-15.8c4.3-6.4,7.6-13.9,9.8-22.1c1.1-4.3,1.4-5.8,1.4-5.6
						c0,0.1-0.1,0.6-0.3,1.5c-0.2,0.8-0.5,2-0.8,3.3c-0.7,2.6-1.6,6-2.7,8.9c-1.1,3-2.3,5.6-2.9,6.9c1.9-3.9,3.4-7.9,4.7-11.9
						c1.2-4.1,2.1-8.2,2.9-12.3c1.4-8.3,2.5-16.5,3.6-24.6c2.2-16.2,4.5-32.2,8.7-47.5c2.1-7.6,4.7-15.1,8.1-22
						c3.4-7,7.7-13.4,13.3-18.5l2.1-1.8l2.3-1.7c0.7-0.6,1.6-1.1,2.3-1.6c0.8-0.5,1.6-1.1,2.4-1.6c3.2-2.1,6.5-3.9,9.9-5.7
						c6.7-3.5,13.6-6.6,20.7-9.2c-0.1,0-1.6,0.7-3.8,1.5c-2.2,0.9-5.1,2.1-7.9,3.4c5.4-2.4,11.8-4.9,16.7-6.6
						c4.9-1.7,8.4-2.6,7.7-2.6c-3.7,1.1-7.3,2.3-10.9,3.6c-1.1,0.4-1.9,0.7-2.4,0.8c-0.5,0.2-0.8,0.3-0.8,0.2c0,0,0.2-0.1,0.7-0.3
						c0.4-0.2,1.1-0.4,1.9-0.8c3.3-1.3,9.5-3.5,16.4-5.3c1.7-0.5,3.5-0.9,5.3-1.2c1.8-0.3,3.6-0.4,5.4-0.4c3.6,0.1,7.1,0.6,10.2,1
						c3.1,0.3,5.8,0.5,7.8,0.3c0.5-0.1,1-0.1,1.4-0.1c0.4-0.1,0.7-0.1,1-0.2c0.6-0.1,1-0.2,1.1-0.2c-2.5,0.5-3.5,0.6-3.3,0.6
						c0.1,0,0.5,0,1.1,0c0.6-0.1,1.5-0.2,2.5-0.4c2.1-0.4,4.8-1.2,7.7-2.3c3-1.1,6.1-2.5,9.2-3.6c3.1-1.2,6.2-2,8.9-2.4
						c2.7-0.3,4.9-0.4,6.2-0.3c1.3,0,1.7,0.1,0.8,0.2c-0.5,0-1.2,0.1-2.4,0.1c-0.6,0-1.2,0.1-2,0.2c-0.8,0.1-1.6,0.1-2.6,0.3
						c0.9-0.2,1.9-0.2,2.9-0.3l1.5-0.1c0.5,0,1,0,1.5,0c1.9-0.1,3.8,0.2,5.4,0.3c1.6,0.2,2.8,0.4,3.6,0.5c0.8,0.1,1,0.2,0.6,0
						c5.6,1.3,9.2,2.6,10,2.8c0.8,0.3-1.1-0.3-6.7-1.8c5.1,1.3,9.3,2.8,12.9,3.8c1.8,0.5,3.4,1,5,1.4c0.8,0.2,1.5,0.4,2.2,0.6
						c0.7,0.1,1.4,0.3,2,0.4c1.3,0.3,2.5,0.5,3.6,0.6c0.5,0.1,1.1,0.2,1.6,0.2c0.5,0.1,1,0.1,1.5,0.1c0.9,0.1,1.8,0.2,2.7,0.2
						c0.9,0,1.7,0,2.5,0l1.2,0c0.4,0,0.8-0.1,1.2-0.1c0.8-0.1,1.7-0.1,2.5-0.2c1.8-0.2,3.7-0.5,6-0.9c4.6-0.8,10.8-2.2,20.1-4.6
						c0,0-0.5,0.2-1.3,0.4c-0.8,0.2-1.9,0.5-3,0.8c-2.4,0.6-5.2,1.4-7.2,1.9c9.5-2.3,18.9-5.2,30.1-6.6c1.4-0.2,2.8-0.3,4.3-0.4
						c1.5-0.1,3-0.2,4.5-0.2c3.1-0.1,6.3-0.3,9.7-0.5c6.7-0.4,14-0.9,22.2-1c-1,0-0.5,0.1-1,0.1c-0.5,0-2,0.1-6.8,0.3
						c7-0.3,13.7-0.4,20.2,0c6.5,0.4,12.8,1.2,18.6,3.3c5.8,2,11.2,5,16.1,8.6c4.9,3.5,9.5,7.6,13.8,11.8
						c8.7,8.6,16.7,18.1,25.7,27.8c4.5,4.8,9.3,9.7,14.6,14.4c5.3,4.7,11.6,8.9,18.8,11.7c-2.1-0.8-3.4-1.3-4-1.6
						c-0.6-0.3-0.6-0.2-0.1,0.1c0.3,0.1,0.6,0.3,1.1,0.6c0.5,0.2,1.1,0.5,1.8,0.7c1.4,0.6,3.1,1.2,5,1.8c7.6,2.4,18.1,4.2,19.6,4.7
						c10.8,1.7,21.4,4.8,32.4,6.4c-4.4-0.7-8.7-1.7-13-2.7c7.1,1.6,14,2.9,20.9,3.5c3.4,0.3,6.8,0.4,10.2,0.5c0.8,0,1.7,0,2.5,0
						c0.7,0,1.6,0.1,2.4,0.2c1.6,0.1,3.3,0.3,4.9,0.4c6.5,0.7,12.9,1.6,18.7,3.9c2.9,1.1,5.8,2.4,8.8,3.5l0.6,0.2l0.3,0.1l0.3,0.1
						l1.1,0.2l2.3,0.5c1.5,0.4,3,0.7,4.5,1.2c-0.9-0.3-1.7-0.4-2.6-0.7c-0.9-0.2-1.7-0.4-2.6-0.6l-2.6-0.5l-0.3-0.1
						c-0.2,0-0.3-0.1-0.4-0.1l-0.6-0.2c-0.4-0.2-0.9-0.3-1.3-0.5c-3.4-1.2-6.6-2.8-10-3.8c2.1,0.7,4.2,1.5,6.3,2.4
						c1,0.4,2.1,0.9,3.2,1.3c0.5,0.2,1.1,0.4,1.6,0.6l0.8,0.3c0.1,0,0.3,0.1,0.5,0.2l0.4,0.1c4.4,0.8,8.7,2,13,3.5
						c8.5,3,16.3,7.5,23.3,13.1c-3.9-3.2-8.1-6.1-12.6-8.5c-4.4-2.4-9.2-4.4-14-5.9c7,2.1,10,3.8,11.6,4.4c1.5,0.7,1.4,0.6,1.6,0.7
						c0.2,0.1,0.6,0.2,3.1,1.6c2.4,1.4,7,4,14.2,10.4c-3-2.5,2.6,2.1,9.7,9.2c3.6,3.6,7.6,7.7,11.5,11.5c3.9,3.8,7.7,7.3,10.6,9.7
						l-0.1-0.1c2.8,2.3,5.7,4.5,8.7,6.6c3.1,2.1,6.3,4.2,9.9,6.2c7,4.1,15.1,8.2,24.7,12.9c4.9,2.6-4.2-1.6-1,0.1
						c3.2,1.5,8.6,4.1,15.1,7.4c3.2,1.7,6.7,3.6,10.3,5.7c3.6,2.1,7.2,4.4,10.8,6.9c7.2,4.9,14.3,10.1,20.9,14.2
						c3.3,2.1,6.5,3.8,9.3,5.3c1.5,0.7,2.8,1.4,4.1,1.9c1.3,0.5,2.4,1,3.5,1.4c-5.5-2.3-5.9-2.3-4.1-1.4c3.7,1.6,7.4,2.9,11.2,4
						c1.6,0.5,3.1,0.8,4.4,1.2c1.3,0.3,2.4,0.5,3.4,0.8c2,0.4,3.4,0.7,4.3,0.9c1.9,0.3,1.8,0.4,0.7,0.3c10,1.7,14.2,1.8,15.7,2
						c1.4,0.1,0.1-0.1-1-0.2c-1.1-0.2-2-0.3,0.4-0.1c0.6,0.1,1.4,0.1,2.4,0.2c1,0.1,2.4,0.2,3.9,0.3c1.6,0.1,3.5,0.3,5.7,0.4
						c2.2,0.1,4.8,0.3,7.8,0.3c-3.8-0.1-2,0-9.8-0.3c24,1.3,47.3,0.1,69.9-1.8c5.7-0.4,11.3-1.2,16.8-2.3c5.5-1.2,10.9-2.6,16.3-4.3
						c10.7-3.4,21-7.5,31.3-11.4c6.1-2.2-2.8,1.3-11.6,4.8c-8.8,3.4-17.5,6.4-10.4,4c15-5.3,29.9-11.9,45.3-17
						c3.9-1.3,7.8-2.4,11.7-3.4l6-1.4l3-0.7l1.5-0.3l1.5-0.3l6-1.1c2-0.4,4-0.8,6-1l6.1-0.9c2-0.3,4-0.6,6.1-0.8
						c16.2-1.9,32.5-2.6,48.5-2.7c16-0.1,31.8,0.3,47.2,0.9l-11.5-0.4c4.3-0.1,15.7,0.3,30,0.9c14.3,0.6,31.4,1.3,47,1.1
						c-7.6,0-10,0.2-7.9,0.2c5.3,0,10.6,0.1,15.9,0.1c5.4,0.1,10.8,0.1,16.3,0.2c11.1,0.2,22.5,0.4,34.7,0.5c12.1,0.1,25,0,38.7-0.5
						c6.9-0.2,14-0.8,21.4-1.7c7.4-0.9,15-2.1,22.8-3.3l-7.8,1.3c12.3-1.8,28.4-4.6,45-5.3c4.1-0.2,8.3-0.2,12.4-0.2
						c4.1,0,8.2,0,12.2,0c8,0,15.5,0,22.3,0c8-0.1,23.3-0.1,14-0.3c10.3,0.1,20.6,0.1,30.7,0.2c10.1,0.1,20.1-0.1,30.1-0.2
						c5,0,9.9-0.1,14.8,0c4.9,0,9.8,0.2,14.6,0.6c9.7,0.9,19.2,2.6,28.6,4.3c9.4,1.7,18.8,3.3,28.3,4c2.4,0.2,4.7,0.2,7.1,0.4
						c2.4,0,4.7,0,7.1,0c4.7-0.1,9.4,0.1,14,0.4c9.3,0.7,18.4,2.2,27.5,4.1c2.3,0.5,4.5,1,6.8,1.4c2.3,0.5,4.5,1,6.8,1.4
						c2.3,0.5,4.6,0.7,6.9,0.9c2.3,0.1,4.6,0.2,6.9,0.1c-2.2,0.1-4.6,0-6.9,0c-2.3-0.2-4.4-0.3-6-0.7c-3.3-0.5-4.5-0.7-1.1-0.1
						c5.2,0.9,10.5,1.2,15.7,0.9c5.3-0.3,10.4-1.2,15.6-2.2c10.2-2.1,20.3-5,30.6-6.3c-1.2,0.1-2.3,0.2-3.5,0.4
						c-1.2,0.1-2.5,0.4-4,0.6c-3,0.5-7,1.3-13.4,2.8c3.8-0.9,10-2.5,17.3-3.7c1.8-0.2,3.7-0.6,5.6-0.7c1-0.1,1.9-0.2,2.9-0.3
						c1-0.1,2-0.1,3-0.2c2-0.1,4-0.2,5.9-0.3c2-0.1,4-0.2,5.9-0.2c-28.1,1.3,0.3,0,12.4,0.5c-2-0.1,2.1-0.1,1.1-0.2
						c16.3,0.5,17.7,0.4,20.6,0.3c1.4,0,3.2-0.1,7.5-0.1c4.2,0,10.9,0.1,22.1-0.5l-2.4,0.2c8.3-0.5,16.3-1.4,24.4-2.9
						c4-0.8,8.1-1.6,12.2-2.4c1-0.2,2.1-0.4,3.1-0.6c1.1-0.2,2.1-0.3,3.2-0.5c2.2-0.3,4.3-0.6,6.6-1c3.7-0.4-0.7,0.3-6.1,1.1
						c-1.4,0.2-2.8,0.4-4.2,0.6c-1.4,0.3-2.7,0.5-3.9,0.8c-2.4,0.5-4.1,0.8-4.4,0.9c12.4-2.6,24.8-4.1,36.9-5.2c3-0.2,6-0.6,9-0.7
						c3-0.2,6-0.3,8.9-0.5c3-0.1,5.9-0.2,8.8-0.3c1.5,0,2.9-0.1,4.3-0.1c1.4,0,2.9,0,4.3,0c-10.7,0.2-26.2,0.7-36.9,1.8
						c3.1-0.2,5.9-0.4,8.4-0.6c2.5-0.1,4.7-0.2,6.8-0.3c2-0.1,3.9-0.2,5.6-0.2c1.7,0,3.3-0.1,4.8-0.1c6.1-0.2,11.5-0.3,20.7-0.3
						l-1.8,0c14.3,0,28.5,0.4,42.8,0.9l-10.9-0.4c15.8,0.1,31.9,0.7,49.4,1.3c8.7,0.3,17.8,0.5,27.4,0.6c9.6,0.1,19.6-0.3,30.2-1.8
						c-10.3,1.3-15.9,1.5-18.5,1.7c-2.6,0.1-2.3,0.2-0.8,0.1c1.5,0,4.3-0.1,6.4-0.2c2.2-0.1,3.7-0.2,2.9-0.1
						c5.5-0.3,12.3-1.2,17.2-1.9c4.9-0.7,7.8-1.2,5.5-0.8c5-0.9,9.5-1.8,14-2.7c2.2-0.5,4.4-0.9,6.6-1.3c2.2-0.3,4.5-0.6,6.8-0.7
						c4.7-0.3,9.6-0.2,15.2,0c5.6,0.2,11.8,0.4,18.9-0.2c0.3,0,1.8-0.1,3.9-0.3c1-0.1,2.1-0.3,3.3-0.5c1.2-0.2,2.4-0.4,3.5-0.6
						c4.6-0.9,8.4-2,6.2-1.3c25.3-6.9-6,1.5-4,0.7c9.9-2.2,20.2-6.2,31.8-7.5c2.9-0.4,5.8-0.4,8.8-0.5c3-0.1,6.1-0.1,9.1-0.1
						c6.2,0,12.5,0.1,19,0.3c6.5,0.2,13.1,0.3,19.9,0.4c6.7,0,13.6,0,20.6,0c7,0,14,0,21.1,0.1c7.1,0.1,14.3,0.3,21.5,0.8
						c12.5,0.9,22.3,2.3,30.8,4c8.5,1.7,15.5,3.7,22.3,5.9c6.8,2.3,13.6,4.5,21.3,7c7.8,2.5,16.6,5.5,27.8,8.5
						c3.8,1.1,4.9,1.4,4.4,1.3c-0.5-0.1-2.5-0.6-5-1.2c-5-1.3-11.8-3.4-11.8-3.4c12.1,3.9,22.8,6.7,33.6,8.7
						c10.7,2,21.5,3.2,33.4,3.3c-4.8,0,0.2,0.2,7.4,0.3c19.1,0,12.8-0.4,38-0.2c-4.3,0.1-9.9,0.3-19.1,0.4
						c22.6-0.1,44.8-0.2,68.2-0.3c6.2,0.2-14.1,0.3-22.3,0.4c13.1,0,30.1-0.1,44.9-0.1c3.7,0,7.2,0,10.5,0c3.3,0,6.4,0,9.1,0
						c5.5,0.1,9.6,0.2,11.6,0.2c-5.6-0.3-11.2-0.5-16.8-0.5c9.6,0.1,4.9,0.3-2.1,0.3c-22.5,0.2-32.4-0.1-33.7-0.2l16.6-0.1
						c-17.1-0.6-66.8,0.1-100.3,0l14-0.4l-17.2,0.2c-2.9,0-5.7,0.1-8.6,0c-1.4,0-2.9,0-4.3,0l-4.3-0.2c-1.8-0.1-3.5-0.3-4.7-0.4
						c-1.2-0.1-2-0.3-2.1-0.3c0,0,0.7,0,2.4,0.1c1.7,0.2,4.5,0.3,8.6,0.4c-12-0.6-17.2-1.5-22.1-2.1c-2.4-0.4-4.7-0.7-7.7-1.3
						c-1.5-0.3-3.1-0.6-5-1c-1.9-0.4-4-0.9-6.5-1.6c-2.2-0.6-1.2-0.4,0.9,0.1c-7.6-1.8-15.1-3.9-22.6-6.2c2.2,0.6,1.3,0.3,1.6,0.3
						c0.3,0,1.7,0.4,8.6,2.5c-10.1-2.9-19.1-6-27.2-8.7c-8.1-2.7-15.4-5.2-21.9-7.3c-13.1-4.1-23.4-6-31.2-7.3l3.5,0.5
						c-1.8-0.3-3.5-0.5-5.1-0.8c-1.6-0.2-3.1-0.4-4.5-0.6c-2.8-0.4-5.3-0.6-7.4-0.8c-2.1-0.2-3.9-0.3-5.4-0.4
						c-1.5-0.1-2.7-0.2-3.7-0.2c-4-0.2-4.2-0.1-4-0.1c0.2,0.1,0.9,0.2-1.3,0.1c-1.1,0-2.8-0.1-5.7-0.1c-2.9-0.1-6.8-0.1-12.3-0.2
						c-9.8-0.4-19.7-0.5-29.5-0.8l-5.7,0.3c-6,0-17.9-0.3-15.7-0.4c-22.4-0.2,3.8,0.2-9.2,0.1c-7.2-0.2-15.9-0.4-24.8-0.1
						c-4.5,0.1-9.1,0.4-13.5,1.3c-4.5,0.8-8.8,1.9-12.9,3c-4.1,1.1-8.1,2.3-11.8,3.1c-3.7,0.9-7.1,1.6-10.2,2
						c-6.1,0.8-10.5,0.7-12.1,0.6c-5.2,0.1,1.7,0.3,6.1,0c2.2-0.1,3.7-0.3,2.8-0.2c-0.9,0.1-4.3,0.6-12.1,0.5
						c-2.2-0.1-5.5-0.3-9.7-0.5c-4.2-0.2-9.2-0.3-14.8,0.1c-2.8,0.2-5.7,0.6-8.7,1.2c-3,0.6-6,1.2-9.2,1.9
						c-6.3,1.2-12.8,2.4-19.4,3.2c4-0.6,12.2-2,16.1-2.8c2-0.4,2.8-0.6,1.6-0.4c-1.2,0.2-4.6,0.8-11.1,1.8c-3.9,0.7-9.1,1.5-15,2.1
						c-5.9,0.6-12.5,0.9-19.4,0.9c-13.7-0.1-28.2-0.7-39.3-1c-0.3,0.1-3.4,0-8.6-0.1c-5.2-0.2-12.4-0.4-20.7-0.7
						c-16.7-0.6-38-1.1-56.7-0.7c0.6,0-3.5,0-10.6,0.2c-3.5,0.1-7.8,0.4-12.5,0.6c-2.4,0.1-4.9,0.4-7.5,0.6
						c-2.6,0.2-5.3,0.4-8.1,0.7c-11.1,1-23.3,3.1-34.8,5.3c-5.7,1.2-11.4,1.8-16.7,2.3c-2.7,0.2-5.2,0.4-7.6,0.5
						c-2.4,0.1-4.8,0.2-6.9,0.3l1-0.1c-3.4,0.3-14,0.6-27.1,0.3c-13.1-0.2-28.7-0.6-41.8,0.3c1-0.2,5.7-0.9,19.9-1
						c-8.2,0-16.4,0.2-24.7,0.9c-0.7,0.1-1.5,0.2-2.3,0.3c-0.8,0.1-1.6,0.3-2.5,0.4c-1.8,0.2-3.8,0.7-6,1.1
						c-4.6,0.9-10.3,2.3-18.1,4.1c2-0.5,4-1.1,6-1.6c-8,1.8-16,3.7-24.3,4.4c-4.1,0.3-8.3,0.4-12.6-0.2l-1.6-0.2l-1.6-0.3
						c-1.1-0.2-2.1-0.3-3.2-0.6c-2.1-0.4-4.3-0.9-6.4-1.3c-8.7-1.8-17.7-3.6-27.2-4.6c-4.8-0.5-9.7-0.8-14.7-0.9
						c-2.5-0.1-5.1,0-7.6,0c-1.3,0-2.6,0-3.9,0c-1.3-0.1-2.6-0.1-3.9-0.2c-0.6,0,1.2,0.2,3.5,0.4c2.3,0.1,5.2,0.2,6.8,0.3
						c1.6,0.1,1.8,0.1-1.1,0.2c-2.9,0-9.1,0.3-20.2-1c-0.8-0.2-1.6-0.4-0.8-0.4c0.4,0,1.3,0.1,2.7,0.2c1.5,0.1,3.5,0.3,6.4,0.5
						c-1-0.1-2.3-0.2-3.8-0.3c-1.6-0.2-3.4-0.3-5.3-0.6c-3.9-0.5-8.2-1.1-12-1.8c5.9,0.9,11.7,1.8,17.7,2.2c-9.5-1.1-12-1.6-14-1.8
						c-2-0.3-3.6-0.4-11.1-1.8c0.3-0.1-11.2-2.2-9-1.9c3.9,0.6,13.2,2.5,19,3.4c-8.5-1.4-17.9-3.4-26.1-4.7
						c-8.2-1.4-15.2-2-18.6-2.2c0.8,0.1,0.8,0.2-1,0.1c-1.8,0-5.3-0.1-11.7-0.1c-16.4,0-19.2,0.1-20.3,0c-1.1-0.1-0.5-0.1-10-0.1
						c-7.9,0.2-28.8,0-29.4,0.3c-9.6,0-11.4-0.1-15.1-0.2c-8.5,0-28.3,0.1-43.6,0.1c-3.8,0-7.4,0-10.4,0.1c-3,0.1-5.5,0.2-7.2,0.4
						c-3.4,0.3-3.7,0.3,1.1,0.1l4.4-0.2c-0.8,0-1.8,0.1-2.8,0.1c0.1,0,0,0,0.1,0l-0.1,0c-13.9,0.7-27.9,3-42.1,5.2
						c-7.1,1.1-14.2,2.1-21.3,2.8c-7.1,0.8-14.3,1.1-21.5,1.3c-28.8,0.8-57.6-0.4-85.2-0.6l0.1-0.1c-32.9,0.3-73.3-1.9-96.8-2.1
						c-4.9-0.1-10.6-0.2-14.6-0.3c-4-0.1-6.3-0.1-4.2-0.2c-6.3,0-11.2,0.1-15.6,0.2c-4.4,0.1-8.2,0.3-12.4,0.5
						c-8.4,0.5-18.2,0.8-36.3,3.3c6.3-0.9,8.9-1.3,9.8-1.4c0.9-0.1,0.1,0-0.4,0c-0.5,0-0.7,0.1,1.4-0.1c1-0.1,2.6-0.3,5.1-0.5
						c1.2-0.1,2.6-0.3,4.3-0.4c1.7-0.1,3.6-0.2,5.7-0.4c-2,0.1-4,0.3-5.8,0.4c-1.9,0.2-3.6,0.4-5.3,0.5c-3.4,0.3-6.5,0.6-9.4,1
						c-2.9,0.4-5.6,0.8-8.2,1.1c-2.6,0.4-5.1,0.9-7.7,1.3c-5.1,0.8-10.2,2.2-16.2,3.5c-6,1.6-12.7,3.7-20.9,6.8
						c2.8-1.1,2.7-1.1,0.8-0.5c-1.9,0.6-5.6,2-10.1,3.7c-9,3.4-21.1,8.2-28.4,10.8c7.2-2.4,14.3-5.2,21.5-7.9
						c-16.3,6.4-30.6,11.9-45.8,14.8c1.4-0.3,2.7-0.7,4-1c1.3-0.4,2.7-0.7,4-1.1c-2,0.5-4,0.9-6,1.4c-2,0.5-4,0.7-6,1.1
						c-2,0.3-4,0.5-6,0.8c-2,0.2-4,0.4-6,0.5c-7.9,0.7-15.7,1.2-23.3,1.6c-7.6,0.4-15,0.7-22.3,0.7c-7.3,0.1-14.5,0-21.5-0.3
						c-7-0.3-13.9-0.8-20.6-1.7c-1.7-0.2-3.4-0.5-5-0.7c-1.7-0.3-3.3-0.5-5-0.9c-1.6-0.3-3.3-0.6-4.9-1l-2.4-0.6
						c-0.8-0.2-1.6-0.4-2.4-0.7c-6.3-1.9-12.2-4.6-17.8-7.8c-5.6-3.2-10.8-6.9-16-10.6c-3.7-2.5-3.6-2.4-1.7-1.1
						c1.9,1.4,5.6,4,9.5,6.6c3.9,2.6,7.9,5,10.1,6.2c2.2,1.2,2.6,1.5-0.9-0.3c-6.7-3.7-13.1-8.2-19.2-12.5c-6.1-4.4-12-8.5-17.6-12
						c-5.6-3.4-10.8-6.2-15.1-8.5c-4.3-2.3-7.7-4-9.9-5c-18.9-9.4-27.5-14.1-35.7-19.8c-4.1-2.9-8.2-5.9-13.1-10.3
						c-2.5-2.2-5.1-4.7-8.1-7.6c-3-3-6.3-6.4-10.3-10.3c2,2,3.8,4.1,2.3,2.7c-0.8-0.7-2.4-2.3-5.3-5.1c-1.5-1.4-3.3-3.1-5.6-5
						c-2.3-2-5-4.2-8.4-6.6c-6.3-4.5-12-7.2-16.3-9c-4.4-1.8-7.4-2.7-8.9-3.1c-1.5-0.5-1.5-0.5,0-0.2c1.6,0.4,4.7,1.2,9.3,2.9
						c3.5,1.4,5.9,2.7,7.5,3.5c1.6,0.9,2.3,1.3,2.1,1.2c2.2,1.2,4.5,2.7,6.5,4.1c1,0.7,1.9,1.4,2.8,2c0.8,0.6,1.6,1.2,2.2,1.7
						c1.2,0.9,1.8,1.5,1.6,1.2c-0.2-0.2-1.4-1.2-3.8-3.1c-1.1-0.8-2.2-1.6-3.3-2.3c-3.1-2.2-7.9-5.2-13.5-7.6
						c-5.5-2.4-11.8-4.3-17.4-5.4c-0.3-0.1-0.7-0.1-1-0.2c-0.1,0-0.5-0.2-0.8-0.3c-0.6-0.2-1.2-0.4-1.8-0.7
						c-1.2-0.5-2.3-0.9-3.4-1.4c-2.1-0.9-3.9-1.6-5.2-2.1c-1.4-0.5-2.2-0.7-2.5-0.8c-0.2-0.1,0.2,0,1.4,0.4c-2.8-0.9-5.2-1.4-7-1.7
						c-1.8-0.3-3.1-0.5-4-0.6c-1.8-0.2-1.7-0.2-0.5,0c1.3,0.2,3.8,0.6,7.1,1.3c1.6,0.4,3.5,0.9,5.3,1.6c1.9,0.7,3.8,1.5,5.8,2.3
						c-2.3-1-4.5-1.9-6.8-2.6c-2.3-0.7-4.5-1.3-6.8-1.7c-4.4-0.9-8.7-1.3-12.8-1.7c-1-0.1-2.1-0.2-3.1-0.3c-0.3,0-0.5-0.1-0.8-0.1
						l-0.8,0l-1.5,0c-2,0-4-0.1-5.9-0.2c-3.9-0.2-7.8-0.6-11.6-1.1c-7.7-1.1-15.2-3-23.5-4.8c-4.1-0.9-8.5-1.7-12.9-2.5
						c-4.5-0.9-9.2-1.8-14-3.2c3.1,0.9,6.1,1.6,7.5,2c1.4,0.4,1.3,0.4-1.8-0.3c-7.2-1.6-12.8-3.7-17.1-5.8c-4.3-2.2-7.3-4.4-9.6-6.1
						c-4.6-3.6-6.5-5.5-8-6.9c-1.5-1.4-2.6-2.4-5.1-4.8c-2.5-2.4-6.3-6.4-13-13.9c-3.8-4.3-5.3-6.1-5.9-6.9
						c-0.6-0.7-0.2-0.4-0.3-0.5s-0.4-0.6-2.6-2.9c-1.1-1.2-2.6-2.8-4.7-5c-2.2-2.2-4.9-5.1-8.7-8.5c-4.6-4.2-7.4-6.3-8.6-7.2
						c-1.2-0.9-0.8-0.7,0.4,0.2c0.6,0.5,1.5,1,2.4,1.8c0.9,0.8,2,1.6,3.1,2.5c2.2,1.9,4.5,3.9,6.3,5.6c-6.7-6.5-13.8-12.2-21.5-16.3
						c-0.9-0.6-1.9-1-2.9-1.4c-1-0.4-1.9-0.9-2.9-1.3c-1-0.4-2-0.7-3-1c-0.5-0.2-1-0.4-1.5-0.5c-0.5-0.1-1-0.3-1.5-0.4
						c-4-1-8-1.7-11.9-2c-7.7-0.8-15-0.7-21.6-0.5c-6.6,0.2-12.6,0.6-17.9,0.9c6.5-0.4,13-0.9,19.5-1.1c-5.9,0.2-11.2,0.5-16.2,0.8
						c-2.5,0.1-5,0.3-7.4,0.4c-2.5,0.1-4.8,0.2-7.3,0.3c1.9-0.1,3.7-0.1,5.6-0.1l5.6-0.2c-2.9,0.2-5.6,0.3-8.1,0.4
						c-2.5,0.1-4.9,0.2-6.8,0.4c-1.9,0.1-3.5,0.4-4.6,0.5c-1.1,0.1-1.6,0.2-1.6,0.2c-5.9,1.1-3.6,0.8-2.8,0.8c0.4,0,0.5,0-1,0.4
						c-1.5,0.3-4.5,1-10.2,2.4c-7.4,1.7-18.7,5-28.9,5.7c-5.1,0.3-9.9-0.4-13.7-1.2c-3.8-0.8-6.6-1.8-7.8-2.2
						c11.4,3.5,17.1,3.4,19.5,3.3c1.2,0,1.5-0.1,1.5-0.1c-0.1,0-0.6,0-1.1,0c-1.1-0.1-2.4-0.1-1-0.2c0.4,0,0.9,0,1.6,0
						c0.7-0.1,1.7-0.1,2.9-0.2c2.5-0.2,6-0.8,11-1.8c-1.9,0.4-3.9,0.8-6,1.1c-2.1,0.3-4.4,0.7-6.7,0.8c-4.7,0.3-9.8-0.2-15.3-1.6
						c-0.8-0.2-0.4-0.1,0.5,0.1c1,0.2,2.5,0.6,4,0.8c-5.5-1-9.9-2.4-13.6-3.5c-3.6-1.2-6.5-2.1-8.9-2.7c-4.8-1.4-7.5-1.7-10.3-2.1
						c-0.7-0.1-1.4-0.1-2.2-0.2c-0.7-0.1-1.5-0.1-2.4-0.1c-0.9,0-1.8,0-2.9,0c-1,0.1-2.2,0.2-3.5,0.3c-2.6,0.4-5.7,1.2-9.5,2.6
						c-1.9,0.7-3.9,1.6-6.2,2.5c-2.3,0.9-4.7,1.9-7.5,2.7c1.4-0.5,1.5-0.5,0.6-0.3c-0.8,0.2-2.5,0.7-4.7,1.1
						c-0.5,0.1-1.1,0.2-1.7,0.2c-0.6,0-1.1,0.1-1.8,0.1c-1.2,0-2.5,0-3.7-0.1c-2.5-0.2-5-0.6-7-0.8c4.8,0.6,7.6,0.9,9.1,0.9
						c1.4,0,1.4,0.1,0.3,0.1c-1.1,0-3.4,0-6.4-0.4c-3.1-0.3-7-1-11.5-0.9c-1.9,0-3.9,0.3-5.5,0.7c-1.7,0.3-3.3,0.7-4.7,1.1
						c-3,0.7-5.5,1.5-7.8,2.2c-4.6,1.5-8.1,2.7-11.1,3.9c-6.1,2.4-10.4,4.3-17.5,7.9c5.5-2.8,11.1-5.2,16.8-7.4
						c-2.9,1.2-7.9,3.2-14.4,6.5c-3.3,1.6-6.9,3.5-10.8,5.9c-3.9,2.4-8.1,5.1-12.1,8.7c-0.4,0.3,0.4-0.4,1.6-1.5
						c0.6-0.6,1.4-1.1,2.2-1.8c0.8-0.6,1.7-1.3,2.5-1.9c0.9-0.6,1.7-1.2,2.4-1.6c0.7-0.5,1.3-0.8,1.7-1.1c0.8-0.5,0.7-0.4-1,0.6
						c-1.3,0.8-2.5,1.7-3.7,2.6c-1.2,0.9-2.5,1.8-3.7,2.9c-2.5,2-4.8,4.4-6.9,6.9c-4.2,5.2-7.8,11.3-10.7,18
						c-5.9,13.4-9.5,28.9-12.1,45.2c-1.3,7.5-1.4,7.9-1.5,8c-0.1,0.1-0.2,0-1.2,6.7c-1.2,9.2-2.1,16.2-3,22.3c-0.9,6-1.8,11-3,15.9
						c-1.3,4.9-2.9,9.8-5.6,15.3c-2.8,5.5-6.7,11.9-13.8,18.3c2.1-1.8,3.6-3.3,4.5-4.3c0.9-0.9,1.2-1.3,0.7-0.7
						c-0.5,0.6-1.7,2.1-4.2,4.4c-2.5,2.3-6.3,5.5-12.2,8.9c4.6-2.6,8.9-5.7,12.7-9.3c3.8-3.6,7.1-7.7,9.8-12.2
						c2.7-4.5,4.9-9.3,6.5-14.3c1.7-5,2.8-10.2,3.7-15.4c-0.5,3.4-1.2,6.7-2,10c-0.9,3.3-1.8,6.5-3.1,9.7c-1.2,3.1-2.7,6.2-4.3,9.1
						c-1.7,2.9-3.6,5.7-5.8,8.3c6.2-7.3,10.5-16.6,12.9-25.4c1.2-4.4,2-8.7,2.7-12.5c0.6-3.9,1.1-7.3,1.5-10.2
						c-1.3,9.7-2.1,14-2.2,14.7c-0.1,0.8,0.5-2,1.3-6.5c-0.5,3.3-1.2,6.5-1.9,9.7c-0.8,3.2-1.6,6.3-2.7,9.5
						c-1.1,3.1-2.3,6.2-3.8,9.1c-1.5,3-3.2,5.8-5.2,8.6c-3.9,5.5-8.9,10.3-14.8,14.3c-5.8,4-12.5,7.2-19.7,9.7l0.7-0.9
						c-5.3,2-10.6,3.5-15.9,4.9c-5.3,1.4-10.5,2.6-15.8,3.6c-10.4,2.2-20.9,3.7-31.9,5.1c-5.5,0.6-11.1,1.2-16.8,1.6
						c-5.8,0.5-11.7,0.8-17.9,1.1c-12.4,0.5-25.8,0.8-40.7,0.7l9.6,0c3.2,0,6.4,0,9.6,0c-2,0.1-5.3,0.2-9.4,0.2
						c-4.1,0-9.1,0.1-14.4,0c-10.6-0.1-22.6-0.3-32.3-0.4c1.8-0.2-10.3-0.5-18.5-0.7c0.5,0.1-10.4-0.1-22.1-0.1c-2.9,0-5.9,0-8.8,0
						c-2.9,0-5.6,0-8-0.1c-2.4-0.1-4.6-0.2-6.3-0.3c-1.7-0.1-3-0.2-3.7-0.2c-8.8-1-17.5-2.5-26.2-4c-23.7-4-37.9-3.8-51.2-1.3
						c-6.7,1.4-13,3.5-20.8,4.7c-7.7,1.3-16.8,2.2-28.3,2.4c3.5-0.1,4.8-0.2,5.2-0.3c0.5-0.1,0.1-0.1,0.3-0.1c0.2,0,0.9-0.1,3.5-0.3
						c2.6-0.2,7.1-0.4,14.7-1.4c-7.6,1-14.9,1.4-20.3,1.5c-2.7,0.1-4.9,0.1-6.5,0.1c-1.6,0-2.5,0-2.5,0.1c-4.5,0-15.2-0.2-26.5-0.4
						c-11.4-0.3-23.4-0.1-30.5,0.1c-6.5,0.3-8.6,0.5-25.9,1.3c-1.9,0,0.1-0.1,0.1-0.1c0,0-0.1,0-0.3,0c-0.2,0-0.5,0-0.8,0.1
						c-0.7,0-1.7,0.1-2.9,0.2c-2.3,0.1-5.2,0.3-7.7,0.4c-4.9,0.2-7.8,0.4-0.3,0.2c-11.9,0.3-26.1,0.7-41.4,0.2
						c-7.6-0.3-15.6-0.8-23.5-1.8c-4-0.5-8-1.1-12-1.9c-4-0.7-8-1.6-12.1-2c-4.1-0.4-8.2-0.4-12.2,0.2c-4,0.5-7.9,1.5-11.7,2.2
						c-7.7,1.5-15.3,2.5-22.5,2.5c-7.2,0-14.1-1.2-19.8-4c-5.7-2.7-10.5-6.1-14.6-9.2c-13.3-10.2-25.8-24.1-38-37.5
						c-3-3.4-5.9-6.9-9.1-10.1c-3.2-3.2-6.6-6.1-10.3-8.4c-3.8-2.2-7.9-3.7-12.1-4.3c-4.1-0.6-8.2-0.4-12,0c1-0.1,1-0.1,1.5-0.2
						c0.5-0.1,1.5-0.2,4.4-0.3c-5.3,0.1-9.7,0.8-13.3,1.6c-3.6,0.7-6.6,1.4-9.1,2.1c-5,1.3-8.3,2.2-11.8,3.1
						c-3.5,0.9-7.1,1.9-12.9,2.8c-0.7,0.1-1.5,0.2-2.3,0.4c-0.8,0.1-1.6,0.2-2.5,0.3c-0.4,0-0.9,0.1-1.3,0.1c-0.5,0-0.9,0-1.4,0.1
						c-1,0-2,0.1-3,0.1c-4.2,0-9.2-0.1-15.2-0.1c-24.5-0.4,25.5-0.1,10.2-0.3c-3.3-0.3-17.8-0.4-35.5-0.4c-4.4,0-9,0-13.7,0
						c-4.7,0-9.5,0.2-14.2,0.4c-9.4,0.4-18.7,0.9-26.8,1.2l7.8-0.4c-12.3,0.5-27.4,1.5-44.3,1c-8.5-0.3-17.4-1-26.6-2.8
						c-4.6-0.9-9.2-2.1-13.8-3.6c-4.6-1.5-9.3-3.2-13.8-5.3c0,0,1.8,0.8,0.3,0c-3.1-1.4-6.5-3.2-9.8-5.6c-3.3-2.4-6.2-5.7-8.5-9.7
						c-2.3-4-4.1-8.6-6-13.3c-1.9-4.7-3.7-9.7-6.7-14.3c-1.5-2.2-3.3-4.4-5.5-6.1c-2.2-1.7-4.7-3-7.3-3.8c-1.3-0.5-2.7-0.7-4-1
						c-1.4-0.2-2.7-0.5-4.1-0.5l-2-0.2c-0.7,0-1.4-0.1-2-0.1c-1.4-0.1-2.7-0.1-4.1,0c-10.8,0.1-21.3,1.7-31,2.1
						c6-0.4,10.4-0.9,12.4-1.1c2-0.2,1.5-0.2-2.2,0c-8.7,0.7-7.4,0.7-8.3,0.8c-0.4,0.1-1.4,0.2-4.5,0.3c-3,0.1-8.1,0.1-16.8,0.1
						c-11.3-0.1-36.3-0.3-39.7-0.5l32.8,0c-8.4-0.2-19-0.2-29.6-0.1c-10.7,0-21.4,1-30,1.2l2.2-0.2c-12.5,0.5-21.9,0-29.6-1.8
						c-7.6-1.7-13.5-4.6-18.3-9c-2.3-2.2-4.4-4.8-6-7.9c-1.6-3.1-2.9-6.6-4.2-10.6c-1.2-4-2.2-8.5-3.4-13.7
						c-1.2-5.1-2.3-11-4.4-17.4c0.3,0.9,0.5,1.8,0.8,2.7c0.2,0.9,0.5,1.8,0.7,2.7c-1.9-7.1-4-12-6-15.7c-1-1.9-2-3.4-2.9-4.8
						c-1-1.3-2-2.6-3.1-3.7c-1.1-1.2-2.3-2.1-3.6-3.2c-0.7-0.5-1.4-1-2.1-1.6c-0.7-0.6-1.6-1-2.5-1.6c-3.5-2.2-8.2-4.6-15-7.5
						c-2.7-1.3-5.3-2.7-7.9-4.1c-2.2-1-4.8-2.3-7.6-3.9c-2.8-1.6-5.7-3.7-9.1-5.8c-6.6-4.2-14.5-8.7-23.1-12.7
						c-8.6-4-18-7.6-27.5-10.1c-4.7-1.3-9.5-2.3-14.2-3c-2.4-0.3-4.7-0.3-7,0.1c-2.3,0.3-4.4,0.9-6.6,1.2c2.4-0.4,5.1-1.2,8.2-1.5
						c3.1-0.4,6.5,0.1,9.9,0.8c6.9,1.3,14.4,3.3,21.9,6c15,5.2,29.7,13.2,40.3,20.1c-4.1-2.6-9.6-6.1-16-9.5
						c-6.4-3.4-13.6-6.8-20.7-9.5c-7.1-2.8-14.2-4.9-20.1-6.2c-1.5-0.3-2.9-0.7-4.2-0.9c-1.3-0.2-2.5-0.5-3.7-0.7
						c-1.1-0.2-2.2-0.3-3.1-0.4c-0.9,0-1.7-0.1-2.4-0.1c2,0,4.1,0.2,6.2,0.6c1.1,0.2,2.1,0.4,3.2,0.6c1.1,0.2,2.1,0.5,3.2,0.7
						c2.2,0.5,4.3,1.1,6.3,1.6c2,0.6,4,1.2,5.8,1.8c-5.7-1.8-11.9-3.4-18.7-4.6c-3.4-0.7-7.1-0.9-10.7-0.2
						c-3.6,0.6-7.3,1.6-11.1,1.5c-3.8,0-7.8-0.8-11.7-1.9c-1-0.3-2-0.6-3-0.9c-1-0.3-2-0.7-3-1c-0.5-0.2-1-0.4-1.5-0.5l-0.3-0.1
						c-0.1-0.1-0.1-0.1-0.2-0.2l-0.6-0.6c-0.7-0.8-1.5-1.6-2.2-2.3c-6-6.3-12.7-12.7-20.6-18.1c0.8,0.4,0-0.2-1.9-1.5
						c-0.5-0.3-1-0.7-1.7-1.1c-0.7-0.4-1.4-0.8-2.2-1.3c-0.8-0.5-1.7-1-2.6-1.5c-0.9-0.5-2-1-3.1-1.5c-4.3-2-9.9-4-16.3-5.1
						c-6.4-1.1-13.5-1.4-20.9-1.5c-1.8,0-3.7-0.1-5.5-0.1c-1.9,0-3.8,0-5.6,0c-3.8,0.1-7.6,0.2-11.3,0.5c-7.5,0.6-14.9,1.7-21.7,2.8
						c-6.8,1.1-13.2,2.3-18.7,3.1c-5.5,0.9-10.2,1.4-13.6,1.8c-8.4,1.1-16.9,1.4-25.3,3c-4.2,0.8-8.4,2-12.3,4
						c-3.9,2-7.4,4.7-10.3,8.1c-2.9,3.4-5.1,7-7.3,10.7c-2.2,3.7-4.2,7.5-6.6,11c-2.4,3.5-5.3,6.6-8.7,9c-3.5,2.4-7.4,4.2-11.5,5.6
						l-3.1,1l-3.2,1c-2.1,0.6-4.2,1.3-6.4,1.9c-4.2,1.3-8.5,2.6-12.8,3.9c-8.6,2.6-17.3,5-26.4,6.6c-9,1.7-18.3,2.4-27.8,2.4
						c-1.2,0-2.4,0-3.6,0c-1.2,0-2.4-0.1-3.6-0.1c-1.2,0-2.4-0.1-3.6-0.1c-1.2-0.1-2.4-0.2-3.6-0.2c-1.2-0.1-2.4-0.2-3.6-0.2l-0.5,0
						c-0.2,0-0.3,0-0.6,0l-1,0.1l-1.8,0.1c-1.2,0.1-2.4,0-3.6,0c-1.2-0.1-2.4-0.2-3.6-0.4c3.4,0.6,5.6,0.5,6.9,0.6
						c1.3,0,1.6,0,1.2,0c-0.4,0-1.5,0.1-3,0.1c-0.8,0-1.6,0-2.6-0.1c-0.9-0.1-2-0.2-3-0.3c-4.2-0.6-9-2.2-12.4-3.5
						c-3.4-1.3-5.6-2.2-4.5-1.5c-4.3-1.8-7.9-3.2-11.1-4.2c-3.2-1-5.8-1.6-7.9-2c-4.2-0.8-6.4-1-7.2-1.1c-9.3-1.1-18.7-0.8-28-0.7
						c-4.7,0.1-9.3,0-14,0c-4.7,0.1-9.3,0.2-14,0.5c-6.6,0.4-2.3,0,3.6-0.4c5.8-0.4,13.1-0.5,12.3-0.5c-10.1,0.1-16.3,0.6-20.2,0.9
						c-3.9,0.3-5.6,0.4-6.9,0.5c-1.3,0.1-2.1,0.1-4.3,0.3c-2.2,0.2-5.7,0.6-12.4,1.5c5.5-0.6-13.9,2.1-36.5,6.9
						c10.6-2.2,21.3-4.1,32-5.7c-14,2.3-23.9,4.4-31.8,6c-8,1.6-13.9,3.7-19.6,6c-5.7,2.3-11.3,4.9-18.7,8.4
						c-3.7,1.8-7.8,3.8-12.7,5.9c-4.9,2.1-10.4,4.5-17.2,6.5c5.7-1.7,11.2-3.9,16.6-6.4c-1.6,0.8-3.5,1.5-5.5,2.3
						c-2,0.8-4.2,1.7-6.5,2.4c-1.2,0.4-2.4,0.8-3.6,1.2c-1.3,0.4-2.5,0.8-3.9,1.1c-2.7,0.7-5.5,1.4-8.3,2.2
						c-11.5,3-24.6,6.2-37.5,10c-12.9,3.7-25.7,8.2-36.7,12.6c-5.4,2.2-10.7,3.7-15.4,4.7c-2.4,0.4-4.6,0.9-6.8,1.2
						c-1.1,0.1-2.1,0.3-3,0.4c-1,0.1-1.9,0.2-2.8,0.3c-2.6,0.2-5.5,0.2-6.3,0.2c-0.4,0-0.2,0,0.9-0.1c0.5,0,1.3-0.1,2.3-0.1
						c1,0,2.3-0.1,3.9-0.3c-8.6,0.7-17.5,0.4-26.7,0.3c-4.6,0-9.2,0.1-13.9,0.3c-2.3,0.1-4.7,0.3-7,0.6c-2.3,0.3-4.7,0.6-7,0.9
						c-18.5,2.6-37.4,5.3-55.1,11c-4.4,1.4-8.7,3.1-12.9,5c-4.2,1.9-8.1,4.3-11.9,6.6c-7.6,4.7-15,9-22.6,12.5
						c-7.5,3.5-15.1,6.1-22.5,7.6c-7.4,1.5-14.7,2.1-21.4,2.2c1.8,0,3.5-0.2,5.2-0.3c-1.6,0.1-3.2,0.2-4.7,0.2c-1.5,0-3,0-4.5,0.1
						c-3,0-5.9,0.1-9,0.1c-6.1,0-12.6,0.1-20.7,0c0.8-0.1,5.2-0.2-0.8-0.2c-6.2,0-29.6,0.2-46.4,0.2l-0.1,2.1c0.4,0,0.7,0,1,0.1
						l0.1-2.1c-1.7,0-3.1,0-4.4,0l4.4,0l-0.1,2.2l-1,0l0.1-2.3l9.3-0.1c-3.3,0-6.5,0-9.3,0l-0.1,2.5c0.4,0,0.7,0,1,0.1l0.1-2.5
						c-15.4,0-29.2,0-42,0c-6.4,0-12.6,0-18.6,0c-6,0-11.8-0.5-17.6-1.1c-11.6-1.2-22.8-3.2-34.7-4.4c-5.9-0.6-12-1.1-18.3-0.8
						c-6.3,0.2-12.7,1.1-19.4,0.7c0-0.1-0.8-0.1-2.3-0.3c-1.5-0.2-3.6-0.5-6.2-1.1c-5.2-1.2-12.3-3.6-20.1-6.5
						c-7.8-2.8-16.5-6.1-25-8.5c-8.6-2.4-17-3.4-23.7-4l0.9,0c-10-0.8-19.5-0.7-28.8-0.7c-9.2,0.1-18.2,0.1-26.8-0.5
						c-8.6-0.6-17-1.8-25-4.1c-8-2.3-15.4-5.6-22.4-9.9c-6.9-4.3-13.5-9.3-20.7-13.4c-3.6-2.1-7.4-3.9-11.3-5.4
						c-3.9-1.5-8-2.6-12.1-3.5c-8.3-1.7-16.9-2.1-25.6-2.5c-2.2-0.1-4.4-0.2-6.5-0.4c-2.2-0.2-4.3-0.5-6.4-1
						c-4.3-0.9-8.6-2.3-12.9-3.7c-2.7-0.9-5.6-1.9-8.9-2.8c-3.2-0.9-6.8-1.6-10.5-2c-7.5-1-15.8-0.9-24.6-1.3
						c-4.4-0.2-8.9-0.7-13.5-1.6c-1.1-0.2-2.3-0.5-3.4-0.8c-0.6-0.1-1.1-0.3-1.7-0.4c-0.6-0.2-1.1-0.4-1.7-0.5
						c-1.1-0.3-2.3-0.7-3.4-1.1c-1.1-0.4-2.3-0.8-3.5-1.2c-4.6-1.7-9.3-3.5-13.9-5.6c-4.6-2.2-9.1-4.6-13.4-7.6
						c-8.6-5.8-15.9-13.7-22.2-22.2c-1.6-2.1-3.1-4.3-4.7-6.5c-1.6-2.2-3.2-4.4-5-6.5c-1.8-2.1-3.6-4.1-5.5-6
						c-1.9-1.9-3.9-3.8-5.9-5.5c-4-3.5-8.2-6.8-12.5-9.8c-2.1-1.5-4.3-3-6.6-4.3l-1.7-1l-1.7-0.9c-1.2-0.6-2.4-1.1-3.5-1.6
						c-4.8-2-9.6-3.2-14.3-4.5c-4.7-1.2-9.2-2.4-13.4-3.9c2.6,0.9,3.8,1.3,3.9,1.4c0.1,0.1-0.8-0.2-2.5-0.7c-1.6-0.5-4-1.3-6.6-2.4
						c-1.3-0.5-2.6-1.2-4-2c-0.7-0.4-1.4-0.7-2.1-1.1c-0.7-0.4-1.4-0.8-2.1-1.2c-0.9-0.6-1.9-1.1-2.8-1.7c-1-0.6-2-1.3-3-2
						c-2.1-1.3-4.1-2.9-6.2-4.4c-4.1-3.1-8.3-6.5-11.9-9.4c-1.8-1.5-3.6-2.8-5.1-4c-1.5-1.2-2.9-2.2-4-3.1c-2.2-1.6-3.3-2.5-2.7-2.2
						l2.5,1.8l2.4,1.9c-1.3-1-2.8-2.3-4.6-3.6c-1.8-1.4-4-2.8-6.3-4.3c-4.8-3-10.7-6-17.5-8.2c-3.4-1.1-7-1.8-10.6-2.4
						c-3.6-0.6-7.4-0.9-11.1-1.2c-7.4-0.5-14.8-0.6-21.8-0.5l-4.5,0.6c-9,0.1-18.7,0.6-28.9,0.8c-10.3,0.2-20.9,2-31.5,4.1
						c-10.6,2-21.5,4.1-32.5,4.3c-11,0.1-22-0.9-32.8-1.3c-10.8-0.4-21.6,0-31.4,2.9c-2.4,0.7-4.8,1.6-7.1,2.7
						c-2.3,1-4.4,2.3-6.4,3.6c-4,2.7-7.5,6-10.3,9.4c-5.6,6.8-10.7,13-15.7,18c-1.3,1.2-2.4,2.4-3.7,3.4c-0.6,0.5-1.2,1-1.8,1.5
						c-0.6,0.5-1.2,0.9-1.8,1.3c-0.6,0.4-1.2,0.9-1.8,1.2c-0.6,0.3-1.2,0.7-1.8,1c-0.3,0.2-0.6,0.3-0.9,0.5
						c-0.3,0.1-0.6,0.3-0.9,0.4c-0.6,0.3-1.1,0.5-1.7,0.7c-3.9,1.7-8.3,2.7-12.9,3.3c-1.2,0.1-2.3,0.3-3.5,0.4
						c-1.2,0.1-2.4,0.2-3.6,0.2c-2.4,0.2-4.8,0.2-7.2,0.3c-2.4,0-4.9,0.1-7.3,0.1c-2.5,0-4.9,0.3-7.3,0.6c-4.7,0.7-9.2,1.8-13.4,3.1
						l0.8-0.5c-5.9,1.7-11.2,3.5-16.3,5.3c-5.1,1.8-9.9,3.4-14.7,4.8c-4.7,1.4-9.4,2.5-14.1,3c-2.3,0.3-4.7,0.4-7,0.4
						c-2.3,0-4.7-0.2-7-0.7c-1.2-0.2-2.3-0.6-3.4-0.8c-0.6-0.1-1.1-0.4-1.7-0.6c-0.6-0.2-1.1-0.4-1.7-0.6c-2.2-1-4.3-2.1-6.3-3.6
						c-2-1.5-3.8-3.2-5.6-5.2c-1.7-2-3.3-4.2-4.8-6.5c-1.5-2.4-3-4.9-4.6-7.5c-1.6-2.6-3.4-5.3-5.7-7.8c-2.2-2.5-5.2-4.7-8.7-5.9
						c-3.5-1.3-7.4-1.4-11.2-1c4.1-0.6,8.6-0.3,12.7,1.4c-4.2-1.8-8.4-2-12.1-1.6c-0.9,0.1-1.8,0.3-2.7,0.4
						c-0.9,0.1-1.7,0.3-2.5,0.5c-1.6,0.3-3.2,0.8-4.6,1.3c-5.8,1.9-10.7,3.8-15.4,5.9c-2.4,1-4.7,2.1-7.1,3.3
						c-2.4,1.2-4.8,2.5-7.2,4c-0.3,0.2-0.6,0.4-0.9,0.6c-0.3,0.2-0.6,0.4-0.9,0.7c-0.3,0.2-0.6,0.4-0.9,0.7
						c-0.3,0.3-0.6,0.5-0.9,0.8c-0.6,0.5-1.1,1.2-1.7,1.8c-0.5,0.7-1,1.3-1.4,2.1c-1.8,2.9-3,6.4-3.8,10.2c-0.8,3-1.5,6-2.7,8.8
						c-1.2,3.3-2.9,6.4-5.4,8.9c-2.5,2.6-5.2,5.1-8,7.4c-5.6,4.6-11.6,8.8-17.6,13.3c-3,2.2-5.9,4.5-8.7,6.9l-2.1,1.8l-2.1,1.9
						l-4,3.8c-5.4,5-10.9,9.9-16.5,14.6c-5.6,4.7-11.3,9.3-17.2,13.7c-2.9,2.2-5.8,4.4-8.8,6.6l-4.4,3.2c-0.7,0.6-1.5,1.1-2.2,1.7
						l-2.2,1.8c-2.9,2.4-5.5,5.1-7.7,8.2c-1.1,1.6-2.1,3.2-2.8,5c-0.7,1.8-1.2,3.6-1.6,5.5c-0.6,3.8-0.5,7.5-0.2,11.2
						c0.3,3.6,0.6,7.2,0.7,10.8c-0.1-1-0.2-2.6-0.9-12.1c0.2,3.5,0.6,7.7,0.7,12.4c0.1,4.7-0.2,10-1.2,15.3
						c-2,10.9-5.3,22.6-8.2,33.2c-2.9,10.6-5.3,20.2-6.6,26.5c-0.7,3.2-1,5.5-1.2,6.8c-0.2,1.2-0.2,1.4,0.1,0.2
						c-0.1,0.1-0.3,1-0.7,2.7c-0.2,0.8-0.4,1.9-0.7,3.1c-0.3,1.2-0.7,2.5-1.1,4c-0.4,1.5-1,3-1.6,4.7c-0.3,0.8-0.7,1.7-1.1,2.5
						c-0.4,0.9-0.7,1.8-1.2,2.7c-1.8,3.6-4.2,7.3-7.2,10.9c-3,3.6-6.5,7-10.3,10.3c-3.8,3.3-7.8,6.6-11.6,9.8
						c-7.8,6.5-14.9,13-20.7,18.5l3.4-3.6c-9.7,9.2-14.5,14.2-20.3,20c-5.8,5.9-12.5,12.7-25.3,26.2c-6.1,6.4-5.5,5.4,2.7-3
						c-2.6,2.7-4.7,4.9-6.6,6.9c-1.9,2-3.5,3.5-4.9,5c-1.5,1.4-2.8,2.6-4,3.7c-1.3,1.1-2.5,2.1-3.7,3.1c-1.3,1-2.6,2-4.1,3.1
						c-0.8,0.6-1.6,1.1-2.5,1.7c-0.9,0.6-1.8,1.2-2.8,1.9c-1,0.6-2.2,1.3-3.4,2c-1.2,0.7-2.6,1.4-4,2.2c-1.5,0.8-3.1,1.5-4.8,2.3
						c-1.8,0.8-3.6,1.6-5.7,2.4c4.1-1.7,8.1-3.6,11.9-5.8c-6.6,3.5-11.8,5.5-15.8,7.1c-4,1.5-6.9,2.4-9.4,3.1
						c-5,1.5-8.5,2.5-16.6,4.3c-4.7,1-10.5,2.1-16.8,3.1c-6.3,1-12.9,2-19.1,2.9c-6.2,0.9-12,1.9-16.4,2.6c-4.5,0.8-7.7,1.4-8.8,1.6
						c-2,0.5-7,1.7-13.7,3.5c-1.7,0.5-3.4,1-5.3,1.6c-1.8,0.6-3.8,1.2-5.7,1.8c-3.9,1.3-8,2.8-12.4,3.8c-1.2,0.2-0.2,0,1.5-0.5
						c1.7-0.4,4-1.2,5.5-1.7c-3,1-5.9,1.9-8.8,2.3c-2.9,0.5-5.7,0.6-8.3,0.1c-2.7-0.5-5.1-1.5-7.3-2.8c-1.1-0.6-2.1-1.4-3.2-2.1
						c-1-0.7-1.8-1.6-2.6-2.5c-1.6-1.8-2.8-3.9-3.9-5.9c-1.1-2.1-2.1-4.1-3.1-6.2c-2-4.1-3.8-8.1-6.2-11.7c-1.2-1.8-2.5-3.5-4.1-4.9
						c-1.6-1.4-3.4-2.6-5.5-3.2c-2.1-0.6-4.2-0.4-6.3-0.1c-2,0.3-4,0.9-5.9,1.6c-3.8,1.3-7.5,3-11.3,4.5c-1.9,0.7-3.8,1.5-5.8,1.9
						c-2,0.5-4.1,0.6-6.3,0.8c-0.7,0-3,0.1-5.9,0.2c2.5-0.1,5-0.2,7.4-0.5c1.2-0.1,2.4-0.2,3.5-0.5c0.6-0.1,1.1-0.2,1.7-0.4
						c0.6-0.1,1.1-0.3,1.7-0.5c4.4-1.5,8.5-3.5,12.6-5c2-0.8,4.1-1.5,6.1-2c1-0.3,2-0.4,3.1-0.6c1-0.1,2-0.2,3.1-0.1
						c0.5,0,1,0,1.5,0.2c0.5,0.1,1,0.2,1.5,0.4c0.5,0.2,0.9,0.3,1.4,0.6c0.4,0.2,0.9,0.4,1.2,0.7c1.6,1,2.9,2.2,4,3.5
						c2.1,2.5,3.6,5.1,4.8,7.3c1.2,2.2,2.1,4.1,2.8,5.5c1.4,2.9,2,4.2,1.7,3.6c0,0-0.2-0.5-0.5-1.3c-0.3-0.8-0.8-1.8-1.4-3
						c-1.1-2.4-2.5-5.4-3.8-7.5c-1.3-2.2-2.3-3.6-1.9-3.1c0.4,0.5,2.3,2.8,5.2,8.6c-1.5-2.9-3.2-6.2-5.6-9.3
						c-1.2-1.6-2.7-3.1-4.5-4.3c-0.9-0.6-1.9-1.2-3-1.5c-0.5-0.2-1.1-0.3-1.7-0.4c-0.6-0.2-1.1-0.2-1.7-0.2
						c-2.3-0.1-4.6,0.3-6.7,0.9c-2.2,0.6-4.3,1.4-6.3,2.2c-4.2,1.7-8.3,3.7-12.5,5c-1.1,0.3-2.1,0.6-3.2,0.8
						c-1.1,0.2-2.3,0.3-3.4,0.4c-2.3,0.2-4.6,0.4-6.9,0.5c-4.6,0.2-9.2,0.1-13.7,0c-4.5-0.1-9-0.3-13.3-0.5
						c-2.2-0.1-4.3-0.2-6.3-0.3c-2-0.1-4-0.3-5.9-0.7c-0.7-0.1-1.5-0.3-2.1-0.5c-0.7-0.2-1.3-0.4-1.8-0.6c0.5,0.2,1,0.3,1.5,0.4
						c0.5,0.1,1,0.3,1.5,0.4c-3.5-0.7-6.6-2.1-9.3-3.8c-2.7-1.7-5-3.8-7-6.1c-3.2-3.8-5.5-7.3-8-10.5c-2.5-3.3-5.3-6.5-9.6-9.2
						c-0.2-0.1-0.5-0.3-0.9-0.6c-0.4-0.2-0.9-0.5-1.5-0.9c-0.6-0.3-1.3-0.6-2.1-1c-0.8-0.3-1.7-0.7-2.7-1c-1.9-0.6-4.3-1.1-6.8-1.2
						c-2.5-0.1-5.2,0.1-8,0.4c-5.5,0.6-11.2,1.7-16.5,1.5c-2.6-0.1-5.2-0.6-7.5-1.2c-2.4-0.6-4.5-1.2-6.5-1.8
						c1.2,0.7-18.9-6.1-0.1,0.4c-1.2-0.4-0.5-0.2,1.8,0.5c1.2,0.3,2.7,0.8,4.6,1.2c1.9,0.4,4.2,0.9,6.8,1.1c2.4,0.2,5.2,0,6.8-0.2
						c-0.3,0-0.7,0.1-1.1,0.1c2.6-0.2,5.4-0.6,8.5-1c3-0.4,6.3-0.8,9.7-0.8c7-0.1,14.7,2.9,20.4,8.6c-4.7-4.6-11-7.8-18.4-8.4
						c-3.7-0.2-7.5,0.2-11.4,0.7c-4,0.5-8.1,1.1-12.5,1.1c-4.1,0.1-8.4-0.9-12.2-1.8c-3.8-1-7.2-2.2-9.7-2.9c-2.6-0.9-5.5-2-8.8-2.8
						c-1.6-0.4-3.3-0.8-5-1.2c-1.7-0.3-3.5-0.6-5.3-0.9c-3.5-0.7-7.2-1.4-10.6-2.7c-1.7-0.6-3.3-1.4-4.9-2.2
						c-1.6-0.9-3.1-1.8-4.5-2.8c-2.9-2-5.7-4-8.4-5.8c-2.7-1.8-5.1-3.4-7.5-4.7c-4.7-2.6-8.5-3.5-10-3.9c-6.3-1.3-12.8-1.2-19.3-2
						c-6.5-0.9-13.3-2-20-3.2c-6.8-1.2-13.6-2.4-20.5-3.3c-6.9-1-13.7-1.6-20.5-2c-6.7-0.3-13.4-0.2-19.7,0.1
						c-6.3,0.3-12.4,0.6-18-0.2c-2.8-0.4-5.4-1-7.9-1.8c-1.2-0.5-2.4-0.9-3.5-1.5c-1.2-0.5-2.2-1.2-3.2-1.8
						c-4.1-2.5-7.2-5.8-9.3-8.9c-1.9-2.9-3-5.5-3.8-7.5c-0.9-2.1-1.5-3.7-2-5.1c-1.1-2.8-1.8-4.5-3-6.9c2,3.6,3.6,7.8,5.1,11.5
						c1.5,3.7,3.2,6.7,4.4,8.4c-2-2.8-3.6-6.4-5.2-10.3c-1.6-3.9-3.2-8.2-5.8-12.1c-2.7-3.9-6.1-7.4-10-10.2
						c-3.9-2.8-8.2-4.9-12.5-6.7c-4.2-1.7-8.4-3.1-12.4-4.2c-3.9-1.1-7.6-2-10.7-2.8c-6.4-1.6-10.9-2.8-12.5-3.2
						c-8.4-2.7-11.3-4.2-11.8-4.4c-0.5-0.2,1.4,0.5,3,1.1c1.6,0.6,2.7,1,0.7,0.2c-2-0.8-7.4-2.8-18.3-8.1c2,0.9,4,1.9,6,2.8
						c-5.4-2.6-10.6-5.3-15.7-7.8c-5.2-2.5-10.3-4.9-15.5-6.8c-5.2-2-10.5-3.4-15.8-4.4c-1.3-0.2-2.7-0.4-4-0.7
						c-1.3-0.1-2.7-0.3-4-0.4l-2-0.2l-2-0.1c-1.3,0-2.6-0.1-3.9-0.1c-10.5,0-20.6,1.7-30.5,3.8c-9.9,2.1-19.6,4.6-29.4,6.8
						c-5,1-9.8,2.8-14.6,4.6c-4.8,1.9-9.5,3.8-14.5,5.1c-5,1.4-10.2,1.7-15.4,0.9c-2.6-0.5-5.2-1.1-7.7-2.1c-2.5-1-4.9-2.3-7.3-3.7
						c-4.8-2.7-9.4-5.9-14.6-8.5c-5.1-2.6-9.9-5.9-14.8-9.4c-4.8-3.6-9.6-7.4-14.8-11c-5.2-3.6-10.8-7-17.2-9.2
						c1.7,0.7,3.3,1.2,4.6,1.8c1.3,0.6,2.4,1.1,3.3,1.6c0.9,0.5,1.6,0.9,2.2,1.2c0.6,0.3,1,0.6,1.3,0.8l-1.2-0.7l-1.3-0.7
						c-0.8-0.4-1.7-0.9-2.5-1.3c-1.7-0.8-3.5-1.6-5.3-2.3c-1.8-0.7-3.7-1.2-5.5-1.7c-0.9-0.2-1.9-0.4-2.8-0.5l-1.4-0.3l-1.4-0.2
						c-7.6-0.9-15.3-1.4-23-1.5c-7.7-0.1-15.4,0.1-23.1,0.9c-7.7,0.8-15.4,2-22.9,4.3c-1.8,0.6-3.7,1.2-5.5,2
						c-1.8,0.7-3.6,1.6-5.3,2.5c-3.5,1.8-6.9,3.7-10.2,5.7c-3.3,2-6.6,4-10.1,5.8c-3.4,1.8-7,3.3-10.7,4.3c-3.7,1-7.5,1.6-11.4,1.7
						c-1,0.1-1.9,0.1-2.9,0.1l-2.9,0c-1.9-0.1-3.9-0.1-5.8-0.2c-7.8-0.4-15.5-1-23.3-1.6c-7.8-0.5-15.6-0.9-23.4-0.8
						c-7.8,0.1-15.6,0.7-23.2,2.7l-2.8,0.9c-0.5,0.2-0.9,0.3-1.4,0.5l-1.4,0.6c-1.8,0.8-3.5,1.8-5.1,3c-3.2,2.2-6.1,4.8-9.2,7.1
						c-1.6,1.1-3.1,2.2-4.8,3c-1.7,0.8-3.4,1.6-5.3,2c-3.7,0.9-7.5,0.8-11.3,0.4c-3.8-0.4-7.6-1.1-11.4-1.4
						c-1.9-0.2-3.9-0.3-5.8-0.3c-2,0-3.9,0.3-5.8,0.7c-7.6,1.6-14.5,5.2-21.7,7.2c-3.6,1.1-7.3,1.6-11.1,1.8c-1.9,0-3.7-0.1-5.4-0.6
						c-1.7-0.5-3.3-1.5-4.9-2.4c-3.2-2-6.9-3.5-10.6-4.3c-3.7-0.9-7.6-1.4-11.4-0.9c-4.4,0.5-8,2.4-10.8,4.4c-2.8,2-5,4.1-7.1,5.9
						c-4,3.7-7.2,6.5-10.4,8.7c-3.2,2.2-6.2,3.9-9.6,5.4c-0.9,0.4-1.8,0.7-2.7,1.1c-0.9,0.3-1.9,0.7-2.9,1c-2.1,0.5-4.3,1.1-6.8,1.8
						c-2.4,0.5-4.8,1-7.2,1.6c-11.4,3.1-22.7,6.7-34.1,10c-6,1.7-11.9,3.2-17.8,4.1c-5.9,0.9-11.7,1.1-17.4,0.6
						c-5.7-0.5-11.3-1.7-16.8-3.1c-5.5-1.5-10.6-4.2-15.1-7.9c-4.5-3.7-8.3-8.3-12-13.2c-3.7-4.9-7.2-10.2-11.3-15.4
						c-4.1-5.2-8.9-10.4-15.2-14.3c-3.1-1.9-6.7-3.5-10.7-3.8c-3.9-0.3-8,0.8-11.6,2.6c2.5-1.1,5.2-2,8-2.3
						c-2.9,0.3-6.1,1.5-9.3,3.1c-3.2,1.7-6.3,3.8-9.6,6c-3.2,2.2-6.5,4.5-9.9,6.4c-3.4,2-6.9,3.8-10.2,5.2c-6.7,3-13,4.9-17.3,6.2
						c-4.3,1.2-6.6,1.8-5.7,1.5c-2.2,0.7-7.2,2.2-15.8,4.5l-0.7,0c-9,2.6-17.8,6-26.7,8.7c-4.5,1.3-9,2.4-13.6,3.1l-3.5,0.5
						l-3.5,0.3l-3.5,0.2l-3.5,0.1c-10.9,0.2-15.9,0.1-18.3,0c-2.4-0.1-2.2-0.1-2.6-0.2c-0.4-0.1-1.4-0.1-6.3-0.2
						c-2.4,0-5.9-0.1-10.7-0.1c-2.4,0-5.1-0.1-8.3-0.2c-3.1-0.1-6.7-0.1-10.6-0.4c-5.8-0.5-12.8-1.9-19.9-3.5
						c-7.1-1.7-14.3-3.4-20.7-4.2c-0.8-0.1-1.6-0.2-2.3-0.3c-0.8-0.1-1.5-0.1-2.3-0.2c-1.5-0.1-2.8-0.1-4.1-0.2
						c-1.3-0.1-2.5,0-3.5,0.1c-1.1,0-2,0.1-2.8,0.2c-3.2,0.4-4.3,0.6-2.1,0.4c1.2-0.1,2.5-0.3,3.8-0.4c1.3,0,2.7-0.2,4.1-0.1
						c2.8,0,5.5,0.3,8,0.6c5,0.7,8.8,1.6,9.1,1.8c-3.5-0.8-7.1-1.3-10.7-1.7c-3.6-0.4-7.2-0.5-10.8-0.2c-1,0.2-2.7,0.5-4,0.8
						c-1.2,0.3-2,0.5-1,0.5c0.5,0,1.4-0.1,3-0.2c1.5-0.2,3.6-0.2,6.5-0.2c2.9,0.1,6.5,0.4,11,1.2c4.5,0.8,9.9,2.1,16.3,3.7
						c6,1.4,12.1,2.8,18.2,3.6c1.6,0.1,3.1,0.4,4.7,0.4c1.6,0.1,3.1,0.2,4.7,0.2l9.3,0.1l11.9,0.4c-5.2,0-10.4-0.1-15.6-0.2
						c-2.6-0.1-5.2-0.1-7.8-0.2c-1.3-0.1-2.6-0.1-3.9-0.3c-1.3-0.2-2.6-0.3-3.9-0.5c4.4,0.7,8.5,0.9,12.2,0.9
						c3.7,0.1,7.2,0.1,10.5,0.2c6.6,0,12.5,0,18.8-0.1c3,0.1,8.2,0.2,15.5,0.1c3-0.1,6-0.1,9.1-0.3l2.3-0.1l2.3-0.2
						c1.5-0.1,3-0.4,4.6-0.6c6.1-0.9,12-2.5,17.8-4.4c2.1-0.6-1.7,0.7-3.2,1.2c-0.8,0.3-0.9,0.3,0.6-0.1c1.5-0.4,4.7-1.3,10.5-3.2
						c16.1-5.6-15.6,4.7,11.1-4.2c4.2-1.3,7.1-2,9.4-2.6c2.3-0.6,3.9-1,5.6-1.4c1.7-0.4,3.5-0.9,6.1-1.7c2.6-0.7,6.1-1.7,11-3.4
						c2.8-0.8-1.3,0.8-9.3,3.1c4.4-1.3,9.6-2.9,14.9-4.9c5.3-2,10.7-4.4,15.6-7.2c4.9-2.8,9.2-5.9,12.9-8.4c3.7-2.5,6.8-4.4,8.9-5.5
						c2-0.9,4.5-1.9,7.3-2.3c2.8-0.4,5.9,0,8.9,1.2c0.8,0.2,1.5,0.6,2.2,1l1.1,0.6c0.4,0.2,0.7,0.4,1.1,0.7c0.7,0.5,1.4,0.9,2.1,1.4
						l2,1.5c2.7,2.1,5.1,4.5,7.2,6.9c4.3,4.8,7.7,9.7,10.1,13c2.4,3.4,3.8,5.4,3.4,5.1c0.9,1.2,2.6,3.4,4.9,6.1
						c2.4,2.8,5.4,6.1,9.3,9.1c3.8,3,8.5,5.6,13.4,7.1c4.9,1.4,9.7,2.3,13.9,2.9c-3.9-0.6-5.8-0.9-6.2-0.9c-0.4-0.1,0.7,0.3,2.9,0.6
						c1.1,0.2,2.4,0.5,4,0.7c1.6,0.2,3.4,0.4,5.3,0.6c1,0,2,0.1,3.1,0.1c0.5,0,1.1,0.1,1.6,0.1c0.5,0,1.1,0,1.7,0
						c1.1,0,2.3,0,3.4-0.1c1.2-0.1,2.3-0.2,3.5-0.3c4.7-0.6,9.6-1.5,14-2.6c4.5-1.1,8.7-2.3,12.2-3.3c7-2,11.2-3.1,9.3-2.4
						c5.5-1.7,13.2-4,22.3-6.4c2.3-0.6,4.7-1.2,7.1-1.9c2.5-0.6,5-1.2,7.6-2.2c5.1-1.9,10.3-4.6,14.9-8.1c2.3-1.8,4.6-3.7,6.7-5.7
						c2.2-2,4.3-4,6.6-5.8c2.2-1.8,4.6-3.4,7.2-4.5c2.6-1,5.4-1.5,8.2-1.4c2.8,0.1,5.6,0.6,8.3,1.3c2.7,0.7,5.3,1.7,7.7,3
						c1.2,0.6,2.3,1.4,3.6,2.1c1.2,0.7,2.6,1.3,4,1.6c2.8,0.6,5.6,0.5,8.2,0.2c-0.6,0.1-1.3,0.2-2.1,0.2c-0.8,0.1-1.7,0.1-2.7,0.1
						c-1.9,0-4.1-0.5-5.9-1.3c1.4,0.7,2.9,1,4.3,1.2c1.4,0.2,2.7,0.2,3.9,0.1c2.5-0.1,4.7-0.4,6.8-0.8c4.1-0.8,7.4-2,10.4-3.1
						c3-1.1,5.7-2.2,8.6-3.1c2.8-0.9,5.8-1.8,9.3-2.3c0.7-0.2,3.3-0.6,7.3-0.4c2,0.1,4.3,0.4,6.8,0.7c2.5,0.3,5.3,0.7,8.3,0.9
						c3,0.2,6.1,0.1,9.3-0.7c3.1-0.8,6-2.2,8.6-3.9c2.6-1.7,4.9-3.7,7.1-5.4c2.2-1.8,4.3-3.4,6.3-4.6c1.5-0.9,2.8-1.5,3.9-1.9
						c1.1-0.4,2-0.7,2.7-0.9c1.4-0.4,1.9-0.6,1.9-0.5c-0.1,0-0.7,0.3-1.7,0.7c-1,0.4-2.4,0.8-3.9,1.6c-2.9,1.4-6,3.7-7.9,5.3
						c-1.9,1.6-2.8,2.4-1,1.1c-0.3,0.2,1.8-1.8,5.3-4.2c1.8-1.2,3.9-2.4,6.4-3.2c2.4-0.9,5.2-1.6,7.8-2.2c5.4-1.1,10.7-1.3,14-1.5
						c3.3-0.1,4.7-0.2,2.3-0.2c5.3-0.1,9.2,0.1,12.1,0.2c2.9,0.1,4.9,0.3,6.5,0.4c3.3,0.2,5.3,0.4,10.8,1c1.9-0.1,6.9,0.3,13.6,0.7
						c3.4,0.2,7.2,0.4,11.3,0.5c4.1,0,8.6-0.2,13-1.1c3.9-0.6,6.9-1.6,9.2-2.4c2.3-0.9,3.9-1.7,5.2-2.2c2.5-1.2,3.5-1.8,4.5-2.3
						c1.1-0.6,2.2-1.2,4.9-2.8c2.7-1.6,6.9-4.2,14.4-7.9c3.7-1.6,4.7-1.9,4.2-1.7c-0.2,0.1-0.9,0.4-1.8,0.8c-0.9,0.4-2,0.9-3.2,1.5
						c-1.2,0.6-2.6,1.3-3.9,2c-1.3,0.7-2.6,1.4-3.7,2c-1.1,0.6-2.1,1.2-2.8,1.6C687.5,498.7,687.1,498.9,687.1,498.9z M1427.3,677.6
						L1427.3,677.6c-3.5-0.1-6.8-0.4-9.6-1c-2.8-0.6-5.2-1.6-6.9-2.4c1.6,0.7,3.6,1.6,6.3,2.2c1.3,0.3,2.8,0.6,4.6,0.8
						C1423.3,677.5,1425.2,677.5,1427.3,677.6z M1494.1,669c-4,0.6-8.3,2.4-12.9,4.3c-2.3,1-4.7,2-7.2,2.9c-0.6,0.2-1.3,0.4-1.9,0.6
						c-0.7,0.2-1.3,0.3-2,0.5c-0.7,0.1-1.4,0.3-2.1,0.4c-0.7,0.1-1.4,0.2-2,0.2c-1.2,0.1-1.2,0,0-0.1c0.6-0.1,1.5-0.2,2.7-0.4
						c1.2-0.2,2.6-0.5,4.3-1.1c-1.8,0.6,1.3-0.2,5.7-2.1C1483.2,672.4,1489.2,669.7,1494.1,669z M1364.2,640.8
						c2.7-0.3,5.1-0.3,7-0.2c1.9,0.2,3.5,0.5,4.8,0.8c0.6,0.2,1.1,0.3,1.6,0.5c0.5,0.2,0.9,0.3,1.2,0.5c0.7,0.3,1.2,0.5,1.5,0.7
						c-0.6-0.3-1.2-0.5-1.9-0.7c-0.6-0.3-1.3-0.5-2-0.6c-0.3-0.1-0.7-0.2-1.1-0.3c-0.4-0.1-0.7-0.2-1.1-0.2
						c-0.8-0.2-1.5-0.3-2.3-0.3c-3.2-0.3-6.8-0.1-10.7,0.4c-0.3,0-1,0.1-1.3,0.2C1361,641.3,1362.1,641.1,1364.2,640.8z"/>
					<path class="st1" d="M1345.1,642.9c-1.5-0.1-2.3-0.2-4.3-0.6c2.1,0.4,4.2,0.7,6.2,0.7c1.3,0,2.6-0.1,3.7-0.2
						C1348.8,642.9,1346.8,643,1345.1,642.9z"/>
					<path class="st1" d="M6791.2,539.3c-0.5,0-1,0-1.4,0.1c1.2-0.1,2.3-0.1,3-0.1C6791.8,539.3,6791.8,539.3,6791.2,539.3z"/>
					<path class="st1" d="M2175.8,299.4l-0.1,0c-0.8,0.7-1.5,1.4-2.3,2l-2.5,1.8l2.5-1.8C2174.3,300.8,2175,300.1,2175.8,299.4z"/>
					<path class="st1" d="M7164.5,547.8c0.7,0,2.1,0.1,4.9,0.1C7169.3,547.9,7167.1,547.8,7164.5,547.8z"/>
					<path class="st1" d="M7326.1,537.2l11.5,0.1l11.5,0.3c-5-0.1-9.2-0.2-13-0.3C7332.2,537.3,7328.9,537.3,7326.1,537.2z"/>
					<path class="st1" d="M7450.8,539.7c1.6-0.2,2-0.2,2.4-0.3c-0.1,0-0.2,0-0.2,0L7450.8,539.7z"/>
					<path class="st1" d="M5551.6,382c-1.5,0.7-3,1.4-4.3,2c-5,2.5-5.8,3-4.4,2.2c0.7-0.4,1.9-1,3.5-1.8
						C5547.8,383.8,5549.7,382.8,5551.6,382z"/>
					<path class="st1" d="M6086.6,510.1c-4.9-4-9.4-8.2-14.1-12.8c3.7,3.7,7.1,6.9,9.7,9.2C6084.8,508.7,6086.5,510,6086.6,510.1z"
						/>
					<path class="st1" d="M5017.1,585.5C5017.1,585.5,5017.1,585.5,5017.1,585.5c-1.3,0-2.6,0.1-4,0.1L5017.1,585.5z"/>
					<path class="st1" d="M6052.8,478.3c4,3.4,7.4,6.7,10.7,9.9c3.2,3.2,6.2,6.2,9.1,9.1C6066.4,491.2,6059.5,483.8,6052.8,478.3z"
						/>
					<path class="st1" d="M7985.1,558.1l6,0.1c-0.1,0,0.3,0,0.7,0L7985.1,558.1z"/>
					<path class="st1" d="M7991.8,558.1c2.2,0,4.4,0,6.7,0.1C7995.4,558.1,7992.8,558.1,7991.8,558.1z"/>
					<path class="st1" d="M8012.5,558.7l-7-0.3l-7-0.2c2.4,0.1,5.1,0.2,7.6,0.2C8008.6,558.6,8010.9,558.7,8012.5,558.7z"/>
					<path class="st1" d="M7820.2,553.5l-1.9-0.3C7819.3,553.3,7820,553.5,7820.2,553.5z"/>
					<path class="st1" d="M7772,539.3c11.3,3.9,28.4,9.9,44.8,13.5l1.5,0.3c-3.9-0.7-12.9-3-22.1-5.9
						C7786.9,544.4,7777.4,541.1,7772,539.3z"/>
					<path class="st1" d="M7565.2,524.8c6.8-1.8,13.7-3.4,20.7-3.8c7-0.4,14-0.4,21-0.3c-3.7-0.1-7.9-0.1-8.9-0.2
						c-0.9,0,1.4-0.2,11-0.1c-13.3-0.2-19.2,0.1-21.5,0.2c-2.3,0.1-1,0.1,0.2,0.1c1.2,0,2.4,0-0.2,0.2c-1.3,0.1-3.5,0.2-7.2,0.7
						C7576.8,522,7571.8,523,7565.2,524.8z"/>
					<path class="st1" d="M7436.2,538.7c5.6,0,8.4-0.2,9.5-0.2c1-0.1,0.3-0.1-1,0c-2.7,0.1-8.1,0.1-7.5,0
						C7422.9,538.5,7419.4,538.4,7436.2,538.7z"/>
					<path class="st1" d="M6497.7,545.2l2.3-0.3C6482.5,545.3,6499.8,545,6497.7,545.2z"/>
					<path class="st1" d="M6323.1,584.9c5.7-0.5,11.3-1.5,16.8-2.8c1.3-0.4,2.6-0.8,3.9-1.1c1.3-0.4,2.6-0.8,3.9-1.2
						C6339.6,582.2,6331.4,584.1,6323.1,584.9z"/>
					<path class="st1" d="M6217.2,581.5l3.7,0.7c1.2,0.2,2.5,0.4,3.7,0.6l-3.6-0.6l-3.5-0.7c-2.4-0.4-4.7-1.1-7-1.7
						c-4.6-1.3-9-3.1-13.3-5.2c3.2,1.6,6.4,2.9,9.8,4.1C6210.4,579.8,6213.8,580.8,6217.2,581.5z"/>
					<path class="st1" d="M4834.6,584.3c0.9,0.1,1.7,0.1,2.6,0.2c0.9,0.1,1.7,0.1,2.6,0.1c5.8-0.3,9.3-1,9-1c-0.2,0-1.3,0.1-3.6,0.3
						C4842.9,584.1,4839.4,584.4,4834.6,584.3z"/>
					<path class="st1" d="M4244.2,404.6c-0.2-0.9-0.5-2-0.8-3.2c-0.2-0.6-0.3-1.3-0.5-1.9c-0.2-0.7-0.4-1.4-0.7-2.1
						c-0.4-1.5-1.1-3-1.7-4.6c-0.3-0.8-0.7-1.6-1.1-2.4c-0.4-0.8-0.8-1.6-1.2-2.4c-0.8-1.6-1.9-3.2-2.9-4.7
						c-0.6-0.7-1.2-1.5-1.8-2.2c-0.6-0.7-1.3-1.3-2-2c-2.7-2.5-5.6-4.5-8.2-6c3.3,2,6.5,4.4,9.1,7.1c0.7,0.6,1.3,1.4,1.9,2.1
						c0.3,0.4,0.6,0.7,0.9,1.1c0.3,0.4,0.5,0.8,0.8,1.1c0.5,0.8,1,1.5,1.4,2.3c0.4,0.8,0.8,1.5,1.3,2.3
						C4241.7,395.2,4243.2,400.8,4244.2,404.6z"/>
					<path class="st1" d="M2340.4,250.4c4.6-0.3,9.2-0.4,13.8-0.6c-4.3,0.2-8.6,0.3-13,0.5c-4.4,0.3-8.7,0.8-13,1.5
						C2332.2,251.2,2336.3,250.6,2340.4,250.4z"/>
				</g>
			</g>
		</g>
	</g>
</g>
</svg>
