<?xml version="1.0" encoding="UTF-8"?><svg id="Layer_2" xmlns="http://www.w3.org/2000/svg" viewBox="0 0 939.15 309.12"><g id="Layer_2-2"><g id="Threshold_1_Image"><path d="m311.07,177.61c.19-5.24.36-10.49.61-15.73.04-.94.46-1.86.65-2.8.15-.72.31-1.45.31-2.18.03-4.67-.03-9.33.04-14,.02-1.03.43-2.05.64-3.08.13-.64.33-1.29.31-1.93-.16-5.58-.37-11.15-.54-16.73-.02-.66.06-1.32.12-1.97.13-1.32-.11-2.06-.23-3.35-.44-4.67-.08-3.59,0-8.16-.15-4.29.14-13.55,1.76-16.25,4.18-3.25,9.92-3.51,11.6-3.91,4.87-1,14.55.1,17.27.67,4.01.21,5.46,1.18,8,.45,5.24-.73,7.92-.48,12.89-.07,5.8.48,11.64.38,17.44.81,3.88.29,7.74,1.05,11.6,1.62,1.23.18,2.45.51,3.68.64,10.44,1.15,18.86,6.16,25.84,13.75,3.25,3.54,5.48,7.73,6.64,12.44.36,1.45.76,2.9,1.11,4.35.5,2.05.61,4.1.08,6.18-.78,3.06-1.46,6.15-2.26,9.21-1.21,4.61.81,8.56,5.52,9.77,3.53.91,7.01,2.14,10.33,3.63,3.93,1.76,7.89,1.76,11.98,1.18,3.46-.5,6.96-.76,10.36-1.49,6.09-1.3,12.13-2.85,18.17-4.35,3.06-.76,6.09-1.63,9.13-2.49,6.95-1.98,13.83-4.22,20.85-5.89,3.76-.9,7.75-.84,11.64-1.26,2.68-.29,5.28-.02,7.92.48,3.77.72,6.95,2.57,10,4.74.19.13.35.34.46.54.87,1.49,1.61,3.08,2.62,4.47,1.44,2,1.59,4.34,2.07,6.6.29,1.38.75,2.75.83,4.15.13,2.22.39,4.54-.08,6.67-1.64,7.43-4.13,14.6-8.22,21.07-3.79,6-8.32,11.44-13.55,16.27-2.14,1.98-4.3,3.94-6.35,6-1.51,1.52-2.03,3.52-2.26,5.62-.22,1.98.77,3.17,2.38,3.96.89.43,1.86.78,2.83.96,4.36.79,7.06,3.77,9.62,7.04,2.78,3.55,3.1,7.8,3.19,11.95.09,4.06-.44,8.14-.87,12.19-.7,6.53-1.39,13.08-2.41,19.57-.63,4.04-1.19,8.06-1.11,12.15.01.65-.25,1.31-.3,1.97-.19,2.47-1.59,3.96-3.85,4.69-7.2,2.33-14.39,4.66-21.6,6.95-1.49.47-3.02.79-4.97,1.3v.02c.35-3.62-.01-6.91.68-10.19.68-3.25,1.22-6.54,1.74-9.82.88-5.59,1.7-11.18,2.51-16.78.63-4.3.86-8.6-.02-12.92-.3-1.46-.38-2.97-.52-4.47-.28-2.95-1.74-5.03-4.22-6.68-3.65-2.42-7.53-2.28-11.54-1.63-1.06.17-2.12.51-3.19.54-5.04.14-9.81,1.71-14.71,2.61-3.92.72-7.83,1.52-11.74,2.31-4.11.83-6.4,3.63-7.69,7.38-.48,1.41-.74,2.9-.97,4.38-.56,3.62-.97,7.25-1.58,10.86-.65,3.85-1.49,7.67-2.2,11.51-.93,5.07-1.78,10.15-2.74,15.21-.99,5.23-2.07,10.44-3.11,15.66-.46,2.29-1.65,3.78-4.15,3.88-.16,0-.33.08-.49.09-6.81.38-13.62.77-20.42,1.14-.33.02-.66-.07-1.29-.15-.05-.85-.23-1.73-.14-2.58.9-7.85-1.6-14.78-5.66-21.3-4.39-7.04-7.36-14.58-7.77-22.92-.31-6.32-.24-12.65-.43-18.98-.05-1.81-.38-3.62-.61-5.42-.12-.91-.29-1.8-.45-2.7-.27-1.43.14-2.5,1.25-3.55.93-.87,1.76-2.06,2.13-3.26.77-2.53,1.41-5.14,1.74-7.76.56-4.44.71-8.94,1.28-13.39.89-6.9-.7-13.23-3.96-19.23-1.66-3.06-4.57-4.81-7.39-6.55-2.19-1.35-4.48-2.67-6.9-3.47-2.65-.87-5.49-1.28-8.28-1.61-2.01-.24-3.87-.67-5.77-1.4-1.9-.74-3.99-1.13-6.03-1.33-4.14-.42-8.3-.61-12.45-.88-.5-.03-1.07-.21-1.48-.03-2.72,1.14-5.41.13-8.11.03-1.32-.05-2.64.07-3.96.06-1.49,0-2.99,0-4.47-.15-1.38-.15-2.62.04-3.76.65-.24,5.84-.43,11.57-.75,17.3-.07,1.28-.65,2.52-.94,3.79-.33,1.44-.7,2.88-.87,4.34-1.01,9.1-2,18.21-2.92,27.32-.2,1.98-.05,3.98-.11,5.98-.06,2.06-.19,4.12-.3,6.47-5.8-.67-19.46-7.67-24.86-8.87.32-2.93,1.41-7.33,1.7-9.96,1.05-9.69,1.5-10.36,2.55-20.05m213.86-25.54v-1.93c.12-7.79-5.38-14.33-13.14-15.36-5.22-.69-10.45-.54-15.59.84-5.14,1.38-10.28,2.72-15.43,4.05-3.06.79-6.16,1.41-9.17,2.33-3.3,1.01-5.6,3.29-6.61,6.61-.45,1.49-.5,3.11-.64,4.68-.81,9.28-1.55,18.56-2.42,27.84-.41,4.39-1.28,8.73-1.56,13.12-.28,4.5,2.36,6.62,6.79,5.81,2.78-.5,5.52-1.23,8.3-1.72,9.09-1.6,17.58-4.77,25.69-9.19,4.45-2.43,8.26-5.53,11.83-9.05,4.6-4.54,7.61-10.06,10.06-15.93.6-1.44.88-3.04,1.09-4.6.37-2.63.57-5.29.8-7.52v.02Zm-188.36-19.55c1.29.41,2.06.89,2.78.83,1.79-.13,3.56-.51,5.34-.8,2.17-.34,4.42.08,6.54-.72.21-.08.49.03.74.08,1.78.35,3.54.94,5.26-.31.31-.22.96.02,1.46.05,5.16.39,10.2,1.41,15.17,2.81,2.07.58,4.19,1.05,6.32,1.38,4.62.73,8.67-1.17,12.64-3.08,6.18-2.95,9.94-8.17,12.68-14.23.47-1.04.63-2.24.83-3.38.77-4.41.18-8.79-.37-13.17-.28-2.22-1.21-4.18-2.64-5.83-1.8-2.07-3.61-4.19-5.7-5.93-3.87-3.22-8.2-5.68-13.24-6.65-9.85-1.9-19.77-2.46-29.77-1.84-.91.06-1.83.1-2.74.19-3.44.35-6.68,1.31-9.61,3.21-2.55,1.65-3.73,3.94-3.42,6.98.09.83.22,1.65.37,2.47,1.01,5.45,2.83,10.78,1.72,16.49-.51,2.65-.52,5.4-.77,8.11-.02.24-.07.51-.18.72-1.16,2.24-.93,4.77-1.46,7.15-.38,1.74-.05,3.64-1.96,5.48h0Z"/><path d="m791.78,172.3c-.23-3.42-.03-6.88.42-10.34.13-.98.36-1.96.41-2.94.18-3.41.19-6.83.47-10.24,1.62-19.96,1.03-39.94.54-59.91-.17-6.71-1.05-13.42-1.75-20.11-.64-6.2-1.31-12.41-2.25-18.57-1.17-7.72-2.63-15.39-3.97-23.08-.14-.81-.44-1.6-.59-2.42-.34-1.81.16-2.85,1.81-3.64.74-.35,1.55-.65,2.36-.77,5.17-.79,10.35-1.56,15.53-2.26,4.28-.58,8.58-1.06,12.87-1.56,2.33-.27,4.49.14,6.17,1.9,2.18,2.29,4.34,4.6,6.43,6.98,3.02,3.44,5.93,6.98,8.95,10.42,8.58,9.76,16.63,19.95,24.22,30.47,6.86,9.52,13.32,19.32,19.91,29.03,1.26,1.86,2.25,3.89,3.43,5.8,2.09,3.4,4.25,6.76,6.34,10.16,4.15,6.75,7.62,13.84,10.6,21.18.74,1.82,1.73,3.63,2.98,5.12,1.85,2.2,5.19,1.96,6.94-.3,1.09-1.4,1.86-2.99,1.81-4.82-.05-1.82-.24-3.64-.35-5.47-.15-2.49-.33-4.98-.39-7.47-.1-4.24-.13-8.48-.16-12.72-.05-6.58.11-13.17-.18-19.74-.36-8.4-1.01-16.78-1.67-25.16-.44-5.56-.97-11.11-1.73-16.64-.96-7.01-2.18-13.98-3.28-20.96-.17-1.07-.33-2.14-.41-3.22-.1-1.23.32-1.69,1.59-1.59,1.82.15,3.64.36,5.45.66,4.92.8,9.83,1.65,14.75,2.49,2.51.43,3.93,1.79,4.27,4.44.95,7.5,2,15,3.05,22.49,3.08,22.02,3.01,44.17,2.61,66.32-.14,7.99-.57,15.98-1.11,23.95-.48,7.14-1.28,14.25-1.98,21.37-.24,2.48-.61,4.95-.93,7.43-.23,1.74-.63,2.23-2.44,2.07-3.72-.33-7.42-.89-11.14-1.32-5.12-.59-10.23-1.14-15.35-1.7-.74-.08-1.5-.09-2.24-.13-2.67-.15-9.04-2.22-10.39-4.75-1.99-3.74-4.34-7.3-6.41-11-1.09-1.96-1.81-4.11-2.86-6.1-7.79-14.72-16.19-29.09-25.51-42.9-4.65-6.89-9.34-13.77-14.07-20.6-3.89-5.61-7.96-11.09-11.78-16.74-3.91-5.79-7.65-11.7-11.38-17.6-1.15-1.82-2.71-2.95-4.74-3.32-3.15-.56-.92,2.11-1.12,5.29-.13,2.15.04,4.33.27,6.47.37,3.39.85,6.76,1.39,10.13.46,2.87,1.12,5.72,1.56,8.59.35,2.29.58,4.61.75,6.93.33,4.73.59,9.47.87,14.2.05.83.13,1.66.13,2.49,0,9.33.08,18.66-.03,27.99-.05,3.99-.51,7.97-.73,11.96-.24,4.24-.33,8.49-.65,12.72-.37,4.81-.86,9.61-1.41,14.39-.29,2.54-1.26,3.4-3.78,3.8-2.3.37-4.61.67-6.9,1.06-3.28.56-6.55,1.14-9.81,1.78-2.1.41-3.39.48-5.36-.02l-.03.03Z"/><path d="m694.9,210.55c-.33-.08-2.41-5.16-3.09-7.82-1.44-5.54-2.92-11.08-4.45-16.6-.31-1.11-.92-2.14-1.36-3.21-.81-1.99-5.76-7.24-7.75-6.98-1.62.21-3.34.5-4.77,1.24-13.7,7.01-27.35,14.11-41.01,21.2-7.97,4.13-15.95,8.27-23.91,12.43-1.99,1.04-3.91,2.21-5.92,3.21-3.98,1.99-6.72,5.2-8.63,9.07-3.91,7.9-7.64,15.88-11.46,23.82-.58,1.2-1.19,2.38-1.81,3.56-1.64,3.09-3.28,6.17-4.95,9.24-1.03,1.9-2.06,3.8-3.18,5.66-.92,1.53-2.25,2.65-3.92,3.36-7.26,3.11-14.52,6.23-21.78,9.34-.29.12-.61.17-1.32.37.6-1.13,1.02-1.96,1.47-2.78,2.15-3.95,4.34-7.87,6.46-11.84.86-1.61,1.56-3.31,2.39-4.94,2.83-5.56,5.69-11.11,8.51-16.67,3.05-6.01,6.07-12.04,9.09-18.07,2.02-4.02,4.11-8,6-12.07,5.68-12.22,11.17-24.53,16.93-36.71,4.91-10.39,9.34-20.98,13.53-31.67,1.73-4.42,3.58-8.79,5.34-13.19.46-1.16.84-2.35,1.19-3.55,1.2-4.07,2.52-8.11,3.52-12.22,1.44-5.94,1.64-11.98-.87-17.65-1.89-4.27-2.72-8.71-3.41-13.23-.52-3.37-1-6.75-1.56-10.11-.77-4.53-.53-8.95,1.01-13.3.53-1.49.85-3.05,1.33-4.55.35-1.1.77-2.2,1.25-3.25.82-1.83,2.26-2.61,4.24-2.23,1.14.22,2.27.51,3.4.77,3.72.87,7.42,1.79,11.16,2.59,2.3.49,4.49,1.05,6.4,2.55,3.46,2.72,7.36,4.5,11.73,5.22,2.07.34,3.62,1.46,4.93,3.11,1.77,2.22,3.23,4.52,4.39,7.17,1.63,3.71,3.8,7.21,5.93,10.67,3.13,5.09,6.56,10,9.63,15.13,1.95,3.26,3.44,6.79,5.21,10.16,1.31,2.5,2.79,4.92,4.09,7.42,2,3.84,4.07,7.65,5.83,11.59,1.96,4.39,3.63,8.92,5.41,13.39.15.39.22.81.39,1.19,1.56,3.49,6.57,11.39,8.05,14.91,1.64,3.91,3.11,7.88,4.67,11.82,1.04,2.63,1.87,5.38,3.21,7.84,2.46,4.5,3.69,9.42,5.37,14.19.55,1.56.55,2.68,1.16,4.22.41,1.04.49,1.86-.34,2.48-.4.3-8.12,3.64-8.57,3.86-8.17,3.94-8.92,5.19-17.1,9.11-.59.28-.98.4-1.81.72,0,0-.17.05-.25.04Zm-23.04-55.91c-.33-1.25-.64-1.28-.99-2.52-.24-.84-.51-1.66-.82-2.47-1.48-3.99-2.98-7.99-4.49-11.98-.13-.34-.42-.88-.57-1.22-.38-.85-.69-1.47-1.07-2.33-1.49-3.45-2.9-6.94-4.48-10.35-1.85-4-3.89-7.93-5.73-11.93-.64-1.39-1.6-1.99-3.02-2.06-1.2-.06-2.28.29-3.21,1.09-1.54,1.32-2.47,3.01-3.12,4.89-.79,2.26-1.56,4.53-2.42,6.75-3.75,9.74-7.53,19.48-11.3,29.22-1.91,4.94-3.78,9.89-5.75,14.8-1.94,4.85-4.01,9.64-5.95,14.49-.39.99-.66,2.1-.67,3.15,0,1.99,1.77,3.38,3.69,2.92,1.19-.29,2.35-.75,3.44-1.32,13.13-6.83,26.24-13.66,39.32-20.59,1.75-.93,3.32-2.32,4.75-3.73,1.47-1.46,2.24-3.38,2.4-5.58v-1.23Z"/><path d="m210.96,134.86c-2.74-1.05-2.15,3.16-2.08,3.93,1.22,13.49,1.34,23.92,1.35,37.67,0,2.27.02,2.31,2.2,2.92,14.64,4.11,13.2,2.26,27.85,6.33,7.69,2.13,28.56,8.53,36.27,10.61,1.44.39,2.88.45,4.39.46,2.02.02,4.03.66,6.24,1.14.31.07.53.36.5.68-.35,3.8-.71,7.42-.96,11.03-.24,3.46-.38,6.93-.57,10.6-.02.4-.4.68-.79.59-18.53-4.62-35.05-10.79-51.66-15.43s-39.8-9.94-57.7-14.77c-.28-.08-.47-.33-.47-.62,0-1.17,0-2.25,0-3.33.12-10.91.51-21.83.28-32.73-.22-10.15-1.11-20.28-1.7-30.42-.09-1.58-.09-3.17-.31-4.74-.23-1.63-.71-3.23-1-4.86-.33-1.87-.87-3.76-.81-5.63.19-5.78-.48-11.47-1.51-17.12-.63-3.43-1.7-6.77-2.47-10.18-.57-2.51-.94-5.06-1.49-7.57-.89-4.06-1.98-8.07-2.74-12.15-.6-3.23-.99-6.49-.94-9.83.04-2.77-.84-5.56-1.37-8.33-.16-.82.67-.51.39-1.46-.14-.46.29-.9.76-.78,1.17.3,1.06-.54,2.06-.4,4.43.67,8.91,1.12,13.31,1.95,2.83.53,5.63,1.44,8.33,2.46,2.8,1.05,12.97,4.86,15.67,6.16,3.03,1.46,6.24,2.22,9.55,2.71,7.48,1.11,14.94,2.34,22.41,3.51.74.12,1.48.21,2.23.25,6.9.42,5.81-1.18,12.5.62,3.84,1.04,7.78,1.74,11.65,2.68,4.86,1.18,9.09,3.62,12.98,6.7,2.22,1.75,4.43,3.52,6.67,5.26,1.61,1.25,2.78,2.78,3.63,4.67,1.02,2.27,2.24,4.46,3.54,6.59,1.49,2.45,2.47,3.69,1.8,5.86-.04.14-.13.26-.26.33-1.2.73-2.86,1.45-3.85,1.15-4.43-1.3-7.09-1.94-11.37-3.17-1.77-.51-4.71-1.13-6.54-1.28-2.33-.19-4.52-.76-6.6-1.76-3.75-1.81-7.44-3.73-11.2-5.49-2.33-1.08-4.77-1.93-7.14-2.92-1.69-.7-3.35-1.46-5.01-2.22-4.69-2.16-1.65-1.21-6.71-2.3-2.6-.56-5.15-1.33-7.74-1.96-1.53-.37-3.11-.57-4.62-1-4.59-1.3-12.49-1.25-16.76.2-4.56,1.55-5.18,5.39-4.27,8.83.87,3.29,1.96,6.53,2.68,9.85.82,3.81,1.32,7.69,2.01,11.53.21,1.2.13,2.54,1.28,3.41.12.09.23.28.23.43.11,2.51.95,4.83,1.79,7.15.78,2.14,1.29,4.4,2.23,6.46.39.85,5.1,2.87,6.04,3.16,2.44.76,4.91,1.63,7.57,1.21.32-.05.73-.07.97.08,2.18,1.36,4.47.42,6.72.44,4.16.05,8.28-.65,12.44-.58.47,0,.95.22,1.42.35.56.16,1.12.5,1.66.47,5.26-.24,10.29.89,15.32,2.24,7.55,2.03,15.12,3.95,22.68,5.89,2.29.59,2.37.67,2.47,2.96.21,4.82-.63,6.39-.43,11.2,0,.02,0,.03,0,.05-.04,1.08-.7,6.3-1.12,8.99-.13.84-.95,1.38-1.77,1.18h0c-5.07-1.3-8.73-2.6-13.79-3.97-8.05-2.17-15.12-4.61-29.36-9.28-1.38-.45-2.79-.85-4.2-1.19l-22.76-5.47Z"/><path d="m.64,4.76C-.98-1-.15.54,10.81.14c7.95-.4,16.3.1,24.43.75,7.62.62,25.43,2.22,33.01,3.15,11.49,1.4,22.81,3.75,34.1,6.18,3.26.7,6.42,2.31,9.39,3.93,5.98,3.25,12.32,5.36,18.91,6.9,2.41.57,4.77,1.45,7.02,2.49,3.52,1.63,4.89,4.77,5.38,8.44.51,3.78.9,12.35,1.46,16.13.1.65.18,1.29.32,2.3-1.76-.71-3.24-1.32-4.73-1.9-4.03-1.59-7.94-3.4-11.61-5.73-5.04-3.21-10.7-4.92-16.42-6.45-2.16-.58-4.26-1.42-6.42-2.02-1.59-.45-3.24-.66-4.86-1.04-2.42-.56-5.21,2.1-4.92,4.41s.68,4.6,1.13,6.87c1.72,8.73,3.64,17.43,5.17,26.19,1.45,8.35,2.59,16.76,3.68,25.18.67,5.19.96,10.43,1.48,15.64.19,1.9.58,3.78.82,5.68.33,2.64.59,5.28.91,7.92.1.82.22,1.66.52,2.43,1.47,3.75,3.33,7.29,5.99,10.32,3.95,4.52,7.97,8.95,12.05,13.35,1.81,1.95,3.86,3.66,5.74,5.54,1.77,1.77,3.5,3.56,5.16,5.43,1.91,2.14,2.59,4.83,2.82,7.59.07.84-.31,1.8-.71,2.6-1.23,2.47-2.17,5-2.8,7.71-.76,3.33-2.52,6.14-5.45,8.1-1.13.76-2.28,1.01-3.54.57-5.1-1.77-10.34-3.23-15.26-5.41-7.56-3.35-14.18-8.05-18.35-15.51-1.91-3.42-3.82-6.83-5.57-10.33-.89-1.77-1.39-3.73-2.15-5.57-.79-1.91-1.52-3.88-2.58-5.65-1.77-2.95-2.61-5.97-2.57-9.46.06-5.15-.25-10.31-.57-15.47-.43-6.73-.78-13.47-1.58-20.16-1.23-10.32-2.54-20.65-4.31-30.89-1.94-11.23-4.43-22.36-6.69-33.53-.74-3.68-2.7-6.58-5.77-8.73-1.38-.97-12.99-3.67-14.7-3.91-12.21-1.76-27.67-1.49-30.18-1.2-.9-.04-8.58.34-9.49.38-1.71.07-3.11-.41-3.81-2.17-.3-.78-.78-1.49-1.01-2.27"/><path d="m739.17,191.31c.25-3.41.43-6.3.68-9.19.2-2.23.51-4.46.76-6.69.56-5.21-.12-10.61.33-15.82.3-3.4,1.59-6.62,1.81-10.03,1.04-15.72.25-26.96-.26-42.69-.23-7.07.31-18.64-.18-25.69-.34-4.89-.94-9.77-1.58-14.64-1.06-8.08-2.23-16.15-3.38-24.22-.14-.99-.32-1.98-.61-2.93-.5-1.63.11-2.78,1.44-3.61.77-.48,1.59-.92,2.44-1.22,5.89-2.05,11.78-4.06,17.69-6.06,2.23-.76,3.19-.07,3.61,2.31.89,5.08,1.92,10.13,2.73,15.22.67,4.18,1.16,8.4,1.64,12.61.71,6.2,1.31,12.4,2.01,18.6,1.69,15.1,1.71,30.25,1.61,45.41-.03,4.5.09,9.01-.15,13.49-.4,7.39-1,14.77-1.57,22.15-.4,5.22-.87,10.44-1.34,15.66-.15,1.65-.37,3.31-.66,4.94-.4,2.24-2.08,3.34-4.01,4.07-6.3,2.37-12.62,4.67-18.93,6.99-1.16.42-2.34.78-4.07,1.36v-.02Z"/></g></g></svg>