<svg id="Layer_1" data-name="Layer 1" xmlns="http://www.w3.org/2000/svg" viewBox="0 0 377.28 192.96"><defs><style>.cls-1{fill:#fff;}</style></defs><path class="cls-1" d="M109,345V324.89H486.2v193h-95l2.78-1.36c0-.58.43-.63,1.16-.67.48,0,1-.5,1.4-.85.24-.19.29-.61.53-.78a15.43,15.43,0,0,0,4.41-4.48c.67-1.11,1.29-2.26,1.92-3.4a6.29,6.29,0,0,0,.47-1c.63-1.69,1.24-3.39,1.85-5.08a32.72,32.72,0,0,0,1.24-3.52c.47-1.94.84-3.91,1.16-5.88a40.69,40.69,0,0,0,.47-4.27c.08-1.2.05-2.41,0-3.62s-.08-2.58-.2-3.87c-.09-1-.37-2-.47-3-.2-2-.73-4-.81-6a23,23,0,0,0-.86-4c-.07-.3-.12-.6-.16-.9s0-.56-.07-.85a4.37,4.37,0,0,0-1,.14c-1.9.78-1.88,3.08-3.37,4.25-.92.73-1.48,1.92-2.41,2.63-1.41,1.09-2.88.3-3.09-1.47a7.17,7.17,0,0,1,.89-4.21,1.5,1.5,0,0,0-.07-1.19c-.07-.15-.68-.13-1,0a2,2,0,0,0-1.69,2,2,2,0,0,1-.54,1.27,42.47,42.47,0,0,1-4.56,4.05c-1.57,1.09-4.79.34-5.62-1.2s-1.36-3.21-2-4.81c-.27-.62-.6-1.22-1-2.05-1.14.71-2.32,1.11-3,1.93a49.06,49.06,0,0,0-3.33,5.06c-.39.64-.54,1.52-1.08,1.95s-.62,2-2.07,1.26a5.68,5.68,0,0,1-.37-1.6c.11-1.95.31-3.89.48-5.83.16-1.75.17-1.75,1.81-1.88,0,0,.09-.1.13-.16-.68-1.6-1.78-1.9-2.87-.65a8.65,8.65,0,0,0-1.05,2.3l.54.05a17.7,17.7,0,0,0-.53,7.64l.13-.07c.42.6.71,1.45,1.22,1.62.8.25,1.8,1,2.62,0a35.6,35.6,0,0,0,2.58-3.42c1-1.63,1.84-3.37,2.85-5a1.5,1.5,0,0,1,1.29.06c.47.94.7,2,1.14,3,.88,2,3,4.09,5.66,3.85a8,8,0,0,0,6.11-2.42,8.49,8.49,0,0,0,1.06-1.09,7.57,7.57,0,0,1,.89,1.29c.53,1.34,1.94,1.6,3,1.85.85.21,2.11-.52,3-1.16a38.37,38.37,0,0,0,3.45-3.32,3.81,3.81,0,0,1,.28.75c.5,2.59,1,5.18,1.44,7.79a35.11,35.11,0,0,1,0,8.51c-.21,2.3-.28,4.61-.52,6.91a21.21,21.21,0,0,1-.75,4c-.52,1.74-1.23,3.42-1.86,5.12-.5,1.34-.93,2.71-1.54,4a24.27,24.27,0,0,1-6.23,8.29,6.56,6.56,0,0,1-6.34,1.29,7.85,7.85,0,0,1-4.85-5.43,7.08,7.08,0,0,1,.49-6.05c1.05-1.63,1.29-3.95,3.52-4.74.22-.08.34-.49.47-.77s.12-.51.15-.5c1.42.1.6-.9.7-1.46-.59.49-1.07,1.07-1.6,1.6s-1.19,1.06-1.79,1.59l-.2-.3c-.81,1.35-1.63,2.66-2.4,4-.35.6-.61,1.25-.91,1.88l.33.19-1.26.24c0,.62.07,1.17.1,1.73a12.46,12.46,0,0,1,.1,2.43,5.35,5.35,0,0,0,.83,3.59,4.36,4.36,0,0,0,2.73,2.35,1.08,1.08,0,0,1,.64.45c.73,1.4,2,1.29,3.26,1.23a2.58,2.58,0,0,1,.81.27H109V346.7a6.49,6.49,0,0,1,.69,2,16,16,0,0,0,2.23,8.26,1.2,1.2,0,0,0,.92.48c.23,0,.59-.4.64-.67.33-1.85.6-3.72.89-5.63l9.27-4.67c.07,4.15.35,8-.81,11.71a8.27,8.27,0,0,0,2.1-4.67,2,2,0,0,1,.22.55c.7,1.9,1.54,2.31,3.14,2.27s2-1.48,2.79-2.3.88-2.49,1.41-3.72.86-2.68,2.58-3.55a56.32,56.32,0,0,1,1.26,5.65c.22,1.73.74,2.74,2.47,2.9a11,11,0,0,1,3.8,1.37c.17.08.39.32.48.28a19.88,19.88,0,0,0,3.51-1.95A18.5,18.5,0,0,0,149,352c2.3,3.06,3.81,3.53,6.85,2.47-.8-.22-1.45-.36-2.07-.58a3.78,3.78,0,0,1-1.33-.71,7.35,7.35,0,0,1-1.64-2.07,1.92,1.92,0,0,1,0-2.2,7.81,7.81,0,0,0,1.49-3.13c.54-2.79.87-5.63,1.21-8.45a22.55,22.55,0,0,0,.23-4.26,19.5,19.5,0,0,0-.84-3.73,8.66,8.66,0,0,0-.84-2.68c-.86-1.34-1.57-1.51-3-1-2,.7-2.62,1.24-2.62,3.38s-.07,4.27,0,6.4c.1,2.88.21,5.76.52,8.62.11.94-.06,1.85,0,2.74a32.38,32.38,0,0,0,.91,3.37,1.82,1.82,0,0,1-.2,1.3,29.13,29.13,0,0,1-2.29,2.8c-1.26,1.39-1.78,1.42-2.61.35,1.13-1.45,3.06-2.33,3.26-4.39.07-.75.66-2-.64-2.28a3.85,3.85,0,0,0-4.29,2.94c-.24,1.07-.49,2.13-.74,3.2-1.55-.44-1.56-.44-2-2.14-.14-.57-.11-1.19-.26-1.76a23.16,23.16,0,0,1-.87-3c-.12-1.05-.45-2-1.48-2.12a3.26,3.26,0,0,0-2.86,1.26,24.17,24.17,0,0,0-3.81,7,7.63,7.63,0,0,1-.94,1.37c-.25-.27-.47-.39-.5-.55-.35-1.83-.68-3.67-1-5.51-.15-.86-.24-1.72-.41-2.58s-.44-1.6-.57-2.41-.08-1.74-.23-2.59c-.64-3.56-1.11-7.18-2.89-10.4-.5-.9-1.13-2.05-2-2.36a5.38,5.38,0,0,0-6,2.16c-.42.63-.89,1.23-1.27,1.88a24,24,0,0,1-1.83,3.26c-1.43,1.75-1.36,3.86-1.75,5.87C109.53,342.72,109.25,343.87,109,345Zm126.25,19.29a6,6,0,0,1,.35,1.83c-.27,2.32-.66,4.63-1,6.95-.18,1.35-.22,2.73-.46,4.08s-.62,2.41-.92,3.63c-.49,2-.83,4.05-1.47,6a45.18,45.18,0,0,1-2.33,5.57,66.08,66.08,0,0,1-3.23,6.12,20,20,0,0,1-2.76,3.15,4.45,4.45,0,0,1-3.73.56c-2.75-1.2-2.86-3.9-3.57-6.25-.5-1.64.05-3.23.42-4.81.29-1.2.6-2.39.91-3.62,2.09-.42,1.38-2.54,2.19-3.71l-.84-.58c1.61-.07,1.73-.24,1.48-1.81l.81.3.41-1.73a3.63,3.63,0,0,0,1.18-.51A7.9,7.9,0,0,0,224,378c.34-.47.83-1,.85-1.48a3.46,3.46,0,0,1,2.16-2.92c1.17-.62,1.47-1.9,2.47-2.57.09-.05.11-.32.06-.45-.33-.84.2-1.15.8-1.54a1.16,1.16,0,0,0-1,.31c-.4.46-.59,1.24-1.06,1.46-1,.43-.86,1.18-.87,1.71a10.18,10.18,0,0,0-1.9,1.4,36.12,36.12,0,0,0-2.16,3,8.1,8.1,0,0,0-.79,1.29,4.94,4.94,0,0,0-.25,1l-.88-.49c-.35.56-.68,1.14-1.06,1.7-.59.85-1.65,1.66-1.69,2.53-.05,1.24-1.28,1.64-1.38,3s-.69,1.25-1,2.89c-.06.28-.31.69-.53.74-1.38.25-.89,1.4-1.1,2.19a8.35,8.35,0,0,0-.13,1.12,9,9,0,0,0,.09,4.53c.26.75,1.06,1.65.41,2.63.74.46.1,1.83,1.32,2,.11,0,.25.26.29.41a2.65,2.65,0,0,0,2.06,1.92,4.06,4.06,0,0,0,4.14-.94c.4-.38.79-1.07,1.2-1.09,1.6-.07,2.16-1.35,3-2.29a4.43,4.43,0,0,0,.71-1.21c.33-.79,1.29-1.09,1.46-2.05a7.68,7.68,0,0,1,.81-2.08c1-1.9,2-3.76,3-5.66.11-.21-.09-.57-.13-.82a8.43,8.43,0,0,0,.9-1.36,13.66,13.66,0,0,0,.37-1.71c.53-2.08,1.11-4.14,1.62-6.21.31-1.29.53-2.61.79-3.92s.57-2.87.85-4.31a.28.28,0,0,0,0-.22c-.76-.84,0-1.62.16-2.38.17-1,1-1.95.25-3.06-.09-.15,0-.44.07-.66a17.68,17.68,0,0,0,.31-2.27,2.11,2.11,0,0,1,.68-1.91c.48-.38.35-.39-.2-.93a2.23,2.23,0,0,1-.74-1.53c.14-1.15.66-2.24.84-3.38.27-1.76-.53-3.61.39-5.34.05-.08,0-.23,0-.35a23.39,23.39,0,0,1,.24-2.38,1.66,1.66,0,0,0-1.15-1.81c-.88-.35-.76.27-1.13.65a3.66,3.66,0,0,0-1.33,2.46c-1.36,0-1.06,1.09-1.26,1.8a9.31,9.31,0,0,0-2.3,2.3c-1.13,1.94-1.95,2.56-3.51,2.2.06-.34.13-.69.17-1,.2-1.67.36-3.34.61-5a3.93,3.93,0,0,0-.45-3.21c-.35.29-.83.5-.92.82a11.94,11.94,0,0,0-.57,2.89c-.08,1.38.14,2.79-.91,4-.14.16-.1.54-.05.81s.24.78.41,1.32a4,4,0,0,1,.78.52,2.15,2.15,0,0,0,3.25.09c1-1,2-2,3-3.08.66-.74,1.2-1.59,1.84-2.35.1-.12.71,0,.71,0,0,1.17,0,2.34,0,3.51s-1,2.4-.13,3.64l-.55.44a18.18,18.18,0,0,1-.55,7l-.75-.47-1.3,1.43.16.26Zm190.68,40.24a10.81,10.81,0,0,0,2.32,1c1,.17,2,.91,3,.21a4.5,4.5,0,0,0,2.29-3.79,3.55,3.55,0,0,0-1-2.51,4.42,4.42,0,0,0-5.47,0c-.43.3-.85.62-1.34,1-.13-.29-.22-.45-.3-.63-.52-1.2-2.18-2.56-3.1-2.46a5.51,5.51,0,0,0-4.73,3.31,38.77,38.77,0,0,0-1.31,4c-.39-.63-.82-1-.84-1.43a3.32,3.32,0,0,0-1.14-2.07,3.78,3.78,0,0,1-1.08-1.55,3.57,3.57,0,0,0-2-2.37,4.43,4.43,0,0,0-4.59.07c-.25.13-.62.14-.78.33-.79,1-1.54,2-2.29,3-.32.42-.61.86-.92,1.29l-.61-.31,1.22-18.29c-1.25-.28-2.56.38-2.32,1.24a9.32,9.32,0,0,1,.06,3.07c-.05,1.52-.1,3.05-.25,4.57-.18,1.78-.53,3.55-.68,5.33-.1,1.25.1,2.52,0,3.77-.12,2.13.53,4.25,0,6.38-.06.23.32.6.54.86s.54.29.52.39c-.22,1.52,1.15,2.12,1.88,2.93,1,1.13,2.55.77,4.09.65,2.45-.19,2.72-2.54,4.33-3.44,0-1.39,1.75-2.11,1.43-3.66-.06-.25.27-.57.44-.9.71,1.15,1.42,2.17,2,3.25a2.33,2.33,0,0,1,0,1.28,9.3,9.3,0,0,1-.3,1.13,16.08,16.08,0,0,0,2.15.26,1,1,0,0,0,.77-.53,6.56,6.56,0,0,0,.39-2.82c-.22-.89.25-1.51.39-2.21a31.11,31.11,0,0,1,1.39-4.15l1.92-2c.79,1.32,1.5,2.51,2.18,3.72a1,1,0,0,1,0,.67c-.18.64-.42,1.26-.56,1.91-.31,1.4.86,4.13,2.1,4.44a55.23,55.23,0,0,0,6.39,1.17c.39.05.83-.7,1.31-.83,1.61-.43,3.23-.79,4.27-2.27.06-.08.2-.1.3-.16.86-.52,1.72-1.05,2.58-1.56.63-.37,1.25-.76,1.9-1.07a26.14,26.14,0,0,0,2.69-1.2,19.62,19.62,0,0,0,2.27-2,10,10,0,0,0,.64,1.48c.58.94,1,2.1,2.3,2.29.84.13,1.7.08,2.55.16a7.4,7.4,0,0,1,1.08.27l1.52-.47,1.75,3.46c-.12.24-.38.52-.34.76a.81.81,0,0,0,1.18.73,1.05,1.05,0,0,0,.58-.76c.12-2,.17-4.05.23-5.72l3.47-1.9c.23-.13.56-.41.67-.34a1.28,1.28,0,0,1,.55.76c.14.76.11,1.56.28,2.31.41,1.87,1,3.82,2.55,4.94a8.78,8.78,0,0,0,7.43,1.37c1.55-.38,3.11-.71,4.65-1.1a16,16,0,0,0,2.78-.87,1.94,1.94,0,0,0,1-1.19,3.3,3.3,0,0,0-4.12-4c.34,1.18.73,2.35,1,3.54a.91.91,0,0,1-.87,1.25,34.82,34.82,0,0,0-4.23.67,6.49,6.49,0,0,1-5.26-1,4.88,4.88,0,0,1-2-3.15,12.66,12.66,0,0,1,0-3.59c0-1.75.08-3.36,1.6-4.69a8.09,8.09,0,0,0,3.12-4.87c.09-.73,1.15-1.2.47-2.13-.48-.65-.79-1.41-1.23-2.08-.25-.39-.54-.88-.92-1-.72-.26-3.38,1.41-3.57,2.19a41.55,41.55,0,0,1-1.82,7.12c0,.09,0,.22,0,.33a10,10,0,0,1-.85,2.6c-.52.8-1,1.76-2.25,1.91-.66.08-1.24.77-1.86,1.18,1.86-2.78,2.13-5.92,2.46-8.66a5.42,5.42,0,0,1-.25-1.09,9.74,9.74,0,0,0,.16-2.06c-.3-1.75-.75-3.47-1.14-5.2-.47-2.07-.47-2.07-2.49-2a1.5,1.5,0,0,0-.36.14q-.57,9.42-1.15,19A11.64,11.64,0,0,0,455,402c-.61.06-1.4.05-1.76.42s0,1,.58,1.32c.09.05.09.27.14.43-2.55.25-2.86.08-3.79-2.09-.07-.17-.22-.31-.24-.48-.18-1.4-1.16-1.57-2.43-1.44.46-.85.84-1.56,1.24-2.27.62-1.07.38-1.44-.89-1.56a8.81,8.81,0,0,0-5.15,1,6.45,6.45,0,0,0-3.51,5.14c-.07.6.46,1.26.75,2l-2.28,1.42a22.65,22.65,0,0,1-2.5,1.5c-2,1-4,2.47-6.49,1.22-.24-.12-.61,0-1,0-.26-.55-.55-1.15-.82-1.77S426.33,405.5,425.93,404.55ZM347,412c.24.17.92.43.92.67,0,1.36,1.28,1.22,1.91,1.79.84.77,3.42.08,4.29-.69a2.43,2.43,0,0,0,.6-1.05c.39-1.16.73-2.34,1.11-3.5a1,1,0,0,1,.24-.37c.79.37.5-.3.56-.6a3.23,3.23,0,0,1,2.82-2.26c-.7,1.47-.36,3.51,1.93,5.13l2.75.15a31.27,31.27,0,0,0,2.51-2.06,21.13,21.13,0,0,0,2.11-2.5.86.86,0,0,0,0-.83c-.78-.83.18-.68.48-1.1.56,1.51,1.11,2.84,1.54,4.2.32,1.06,1,1.48,2,1.15,1.69-.58,3.53-1.06,3.91-3.28,0-.28.45-.49.66-.76a17.29,17.29,0,0,0,1.89-2.48c.56-1,.63-2.29,1.74-3.12a12.91,12.91,0,0,0,2-2.42l-.55-.5-1.8,1.66c0,.19-.47.14-.63.34-1.57,1.89-3.09,3.81-4.6,5.75-.6.77-1.11,1.6-1.51,2.19-.7-.82-1.32-1.48-1.87-2.19-.33-.43-1.36-.44-.86-1.43.13-.27.14-.89,0-1a1.83,1.83,0,0,0-1.31-.26,6.39,6.39,0,0,0-3.12,2.45c-.8,1.14-1.49,2.36-2.3,3.49-.32.44-.68,1-1.48.52s-1.67-3.37-1.54-3.95a2.75,2.75,0,0,0-.93-2.82,1.74,1.74,0,0,0-1.49,0c-.38.18-1,.54-.25,1.25.54.53,0,1.28-.67,1.26l.29-.88-1.33,1.23c-.72-1.36-1.1-2.59-2.56-2.65a9.61,9.61,0,0,0-1.2,0c-.21,0-.58.17-.62.1-1-1.61-2.25-.73-3.39-.33a3,3,0,0,0-1.34,3.41c-.23.11-.64.21-.64.33a19.37,19.37,0,0,0,.14,2.1l-3.92,6.62c-.66-4.32-.4-8.67-2.15-12.59-.5.1-.87.19-1.24.24-.73.12-2.2,1.71-2,2.38.4,1.49-.6,2.59-1.24,3.59a6.92,6.92,0,0,1-1.87,2.32,1.2,1.2,0,0,1-1.13.13c-.49-.11-1.31-.55-1.29-.81.1-1.64-.74-3.22-.2-4.9a12.41,12.41,0,0,0,.27-2.67c-1.93-.61-1.93-.61-2.51.9l.93.53,0,.23-1.39.11-.46.53,1,.35-.3.12.34.82-1,1.12,1.22.46v.21l-1.24.11c.29.51.82,1,.73,1.37-.35,1.52.9,2,1.69,2.68a4.26,4.26,0,0,0,2.46.61c1.75,0,2.6-1.62,4-2.35,0,0,0-.21,0-.3a7.54,7.54,0,0,1,.42-1.06c.31-.61.66-1.21,1.1-2,.12.66.25,1.25.32,1.84a22.84,22.84,0,0,1,.44,4.09c-.11,2.08.83,4.31-.87,6.22a34.7,34.7,0,0,0-1.86,2.93c-.76,1.07-1.63,2.07-2.42,3.12s-1.75,2.34-2.61,3.52c-1,1.37-2.06,2.69-3,4.12s-1.75,3-2.56,4.52a27.07,27.07,0,0,0-2,4.18,8.58,8.58,0,0,0-.23,3.43,21.46,21.46,0,0,0,.88,3.25,2.69,2.69,0,0,0,3.2,2.24l2.33-.37.87-1.69.58.67c.84-.76,1.65-1.47,2.45-2.2.13-.11.35-.24.35-.37a3.15,3.15,0,0,1,1.38-2.31,4.14,4.14,0,0,0,1.06-2c.4-1.06,1.2-2,1.34-3.23.05-.48-.23-1.33.79-1.29a1.13,1.13,0,0,1,0-.22c.63-2.21,1.27-4.41,1.87-6.63a1.85,1.85,0,0,0-.14-.81c1.45-.66.72-2,1-3a16.28,16.28,0,0,0,.32-3.22c-.94-.41-.94-.41-.33-1.18l.18.67a1.6,1.6,0,0,0,.21-.83c.13-1.33.63-2.77.28-3.95a1.86,1.86,0,0,1,.51-2c.83-1.08,1.74-2.11,2.56-3.2A4.87,4.87,0,0,0,347,412Zm139.24,51.27-.65-.79a5.53,5.53,0,0,0-1,.58,13.08,13.08,0,0,1-4.9,2.94,2.93,2.93,0,0,1-3.63-1.46c-.31-.87-.78-1.65.38-2.59a10,10,0,0,0,2.39-3.65,5.75,5.75,0,0,0,.78-3.82c-.09-.39.1-.85,0-1.22a3.38,3.38,0,0,0-.82-1.29,1.28,1.28,0,0,0-1-.08c-.48.12-.92.46-1.4.53-1.68.22-2.39,1.42-2.93,2.77a15.3,15.3,0,0,0-.89,2.76c-.21,1.13-.22,2.29-.35,3.44a.83.83,0,0,1-.41.6c-.78.26-3.24-.93-3.56-1.68a8,8,0,0,0-.65-1.49c-.38-.53-1.07-.87-1.36-1.43a1.16,1.16,0,0,0-1.69-.54,7.3,7.3,0,0,0-3.51,3.36c-.8,2-2.19,3.88-2.15,6.22,0,.23-.32.46-.68,1a32.08,32.08,0,0,0-.9-3.3,1.39,1.39,0,0,0-1.05-.71,11.67,11.67,0,0,0-2.14.57c-.14-.16-.25-.27-.35-.4-1.61-2-3.37-2.33-5.08-1.05a2,2,0,0,0-.9,1.25,2.6,2.6,0,0,0,3,2.3c.81-.12,1,.24.94.91a5.32,5.32,0,0,1-.9,2.38,2.07,2.07,0,0,1-1.72,1.1l-1.4.1-1.81-1.22a4.25,4.25,0,0,0-.49-.21,4,4,0,0,0,.3-.42c.14-.26.25-.54.37-.81l-.41.17a7.43,7.43,0,0,0,.09-.81c0-1.08,0-2.16,0-3.24l-.45-.25a9.37,9.37,0,0,0-2.43,1.52,43.14,43.14,0,0,0-2.31,3.74,4.87,4.87,0,0,1-1.54,1.67,2.22,2.22,0,0,1-1.93.06,2.86,2.86,0,0,1-.77-1.86c-.15-1.38-.11-2.78-.2-4.16-.05-.74-.2-1.47-.3-2.23-2.68.58-3.31,1.25-3.62,3.89a2.77,2.77,0,0,1-.93,1.7,2.87,2.87,0,0,0-1.44,2.12c0,.19-.25.36-.37.53-.12-1.64-.21-3.22-.34-4.79a13.79,13.79,0,0,0-.39-2.8,1.57,1.57,0,0,0-1.15-.81,2.85,2.85,0,0,0-2.28.92c-1.59,1.3-1.75,1.06-2.18,2.66a5.72,5.72,0,0,1-.79,1.63c-.25.37-.75.59-.94,1a22.77,22.77,0,0,0-.89,2.35,20.08,20.08,0,0,1-1.1,3.08c-.61,1-1,2.05-1.55,3.06-.12.23-.44.35-.68.51a2.82,2.82,0,0,1-.32-.71,18.26,18.26,0,0,1,.11-3.47,31.74,31.74,0,0,1,.21-3.61c.26-1.39.89-2.07,2.31-1.91l-.06-1.21c-.51.09-1,0-1.32.26a7.67,7.67,0,0,0-2.29,2.12c-.42.8-.23,1.92-.34,2.9a3.63,3.63,0,0,1-.31.74,3.51,3.51,0,0,0-.37,1.21,18.85,18.85,0,0,0,.34,2.34c.06.33.18.66.31,1.12s-.25,1.49.05,1.7a3.66,3.66,0,0,0,2.29.45c1.33-.17,1.34-1.62,1.9-2.49a24.24,24.24,0,0,0,1.22-3.05c.51-1.11,1.13-2.16,1.69-3.24s1.13-2.24,1.74-3.33c.47-.85,1-1.67,1.56-2.58.48.1,1.48.08.66,1.33-.07.1.09.35.13.54.17.89.4,1.77.49,2.67s.08,2,.12,3.06c0,0,.11.09.26.2l.56-.24,1.55,1.21a24.19,24.19,0,0,0,2.49-2.95,23.81,23.81,0,0,0,1.45-3.57l.45,0a18.35,18.35,0,0,1,.81,2.44,27.92,27.92,0,0,1,.29,2.9l.29,0,.46-1.06c.39,1.45.94,1.93,1.85,1.78a7.68,7.68,0,0,0,1.46-.25,4.75,4.75,0,0,0,2.46-2,18.26,18.26,0,0,1,1.95-2.24,11.44,11.44,0,0,1,.4,1.35c.12,1.25,2.58,2.89,3.64,2.35.88-.45,2,.39,2.69-.62,0,0,.17,0,.23,0,1.08.64,1.12-.32,1.4-.91.74.32,1.05,0,1.33-.7.41-.94.94-1.83,1.42-2.74l.33.07.59,2.54-.46.31a11.5,11.5,0,0,0,2.17,1.07c.3.08.77-.48,1.17-.75l.33.75a5.17,5.17,0,0,0,1-1.14c.73-1.59,1.38-3.22,2-4.83.58-1.44,1.11-2.89,1.72-4.31.12-.28.54-.46.85-.6.11-.05.36.09.49.21q1.2,1.15,2.37,2.34a3.43,3.43,0,0,0,2.81,1,13.83,13.83,0,0,1,2.32,0c.27,0,.73.4.72.58-.14,1.92,1.47,2.57,2.64,3.15,2.42,1.18,4.64-.14,6.67-1.34A31.66,31.66,0,0,0,486.28,463.26ZM246.79,409.39a2.53,2.53,0,0,1-.17-.5c.07-1.78.14-3.57.23-5.35.15-3.07.35-6.13.46-9.2.13-3.47.19-6.94.23-10.41a4.5,4.5,0,0,0-.51-1.41,3.69,3.69,0,0,0-1.43,2.26c-.2,1.07.5,2.16-.2,3.15,0,.05,0,.13,0,.2,0,.74,0,1.47,0,2.21,0,.29-.12.58-.13.87-.09,1.38-.15,2.76-.23,4.15a4.36,4.36,0,0,0-.06,1.64,2.9,2.9,0,0,1,.19,2.52c-.18.37.07.94.14,1.58-.36.31-.67,2.66-.59,3.45a13.52,13.52,0,0,1,0,4.35c-.42,1.9,0,2.91,2,3.41a10.66,10.66,0,0,0,.76-.88,11.11,11.11,0,0,0,1.78-2.8,24.74,24.74,0,0,1,4.15-8.44,1.84,1.84,0,0,1,1.21-.48c.16,0,.41.5.51.81s.17.88.27,1.32c.23,1,.52,2,.7,3,.14.81.17,1.65.24,2.48,0,.37.54.78-.14,1.14a1.61,1.61,0,0,0,.26,1.14c.45.52,1.22.72,1.46,1.49a.63.63,0,0,0,.5.27,14.22,14.22,0,0,0,3.09-.44,17,17,0,0,0,2.74-1.51,9.25,9.25,0,0,0,1.18,1.34,8.42,8.42,0,0,0,1.5.66c.47.22.94.7,1.38.67a6.71,6.71,0,0,0,5.53-5,3.62,3.62,0,0,0-.09-.85c0-.24-.12-.55,0-.72.86-1.28-.14-2.42-.3-3.6-.08-.55-.82-1-1.23-1.52a9.49,9.49,0,0,0-1.47-1.87,2.63,2.63,0,0,0-2-.64,12,12,0,0,0-3.11,2.05c-.9.77-1.89,1.64-1.4,3.09-1.12.76-.63,1.92-.66,2.91a3.67,3.67,0,0,1-4.33,3.72c-.52-1.21-1.36-2.32-1.08-3.8a4.15,4.15,0,0,0-.05-2.19,8.93,8.93,0,0,1-.52-2.88,9,9,0,0,0-1.07-2.74c0-.07-.22-.11-.34-.1l-2.44.18c-1.63.12-1.37,2.35-2.89,2.6a8,8,0,0,1-1.2,2.8c-.77,1.43-1.42,2.92-2.12,4.38C247.23,408.36,247.05,408.8,246.79,409.39Zm48.55,3.27a3.64,3.64,0,0,0,1.06-.28c.7-.5,1.36-1.05,2-1.6a11.44,11.44,0,0,0,1.4-1.28c.46-.55.8-1.23,1.52-1,.35.67.5,1.35.92,1.67a10,10,0,0,0,1.9.72c.16.07.18.45.33.86l3.17-.75-.1-.43-1.89.42-.2-.79-.41.32c-.24-.44-.35-1-.68-1.21-1.46-.9-1.85-1.53-1.45-3.09.2-.75.71-1.41,1-2.15.68-2,1.29-4,1.94-6a3.43,3.43,0,0,1,.22-.56,6.26,6.26,0,0,0,.71-1.25,9.34,9.34,0,0,0,.26-1.76c.05-.48,0-1,.08-1.44s-.36-1.22.44-1.6c.16-.07.21-.5.19-.76-.14-1.87-.28-3.74-.48-5.6a3.5,3.5,0,0,0-.5-1.26c-.45-.79-.79-1.94-1.47-2.23a2.89,2.89,0,0,0-2.89-.06,4.39,4.39,0,0,0-2.07,4.21c0,.81.11,1.63,0,2.44-.09,1-.42,2-.43,3.06a21.08,21.08,0,0,1-.7,5,4.07,4.07,0,0,0,.25,1.72c.09.4.5.93.36,1.14-.59.88.51,1.93-.36,2.74a.59.59,0,0,0,0,.52c1,.45.48,1.19.36,1.85a5.43,5.43,0,0,0-.05.9c0,.28,0,.55.06.82h-1c.05-.37.19-.67.09-.81a3.7,3.7,0,0,0-3.65-1.9c-.39,0-.76.18-1.15.22-1.43.15-3.53,2.69-3.39,4.11.09,1,.2,1.93.2,2.89,0,1.66,2.35,3.36,3.88,2.71C295.11,413.15,295.24,412.8,295.34,412.66Zm-40-62.5c.38,1.33.63,2.5,1.94,2.95a26.69,26.69,0,0,0,2.87.61c1,.22,2.3-.48,3.31-1.05,1.66-.95,2.53-2.68,3.54-4.24.57-.88,1.14-1.76,1.64-2.68a12.55,12.55,0,0,0,.68-1.7l.45.05a20.58,20.58,0,0,1,.55,2.88c.06,1.11.74,2,.76,3.19a3.4,3.4,0,0,0,2.92,3.44.88.88,0,0,1,.43.14c.58.52.9.59,1.28.44a8.94,8.94,0,0,1-1.91-2.38c-.82-2.37-1.34-4.86-2-7.28-.09-.33-.43-.6-.67-.89s-.4-.3-.5-.49a1.12,1.12,0,0,0-1.8-.39c-1,.92-2.36,1.66-2.3,3.35,0,.13-.25.36-.4.38-.83.06-.87.83-1.22,1.31-.83,1.14-1.6,2.34-2.53,3.4a2.31,2.31,0,0,1-1.55.65,4.64,4.64,0,0,1-3.26-1.17,7,7,0,0,0,.66-2.09,2.82,2.82,0,0,0-.76-2c-.54-.4-1.73-.28-1.89.57-.19,1.07-1,1.27-1.58,1.84s-.75.3-1-.29a2.43,2.43,0,0,0-2.76-1.55c-.84.1-2,.87-2.43-.65-.05-.16-.61-.32-.86-.23-2.22.74-4.63,1.27-5.24,4.08-.08.4-.09.81-.14,1.35-.8.35-.92,3.24-.13,4.44L241,358c.64-.18,1.19-.52,1.64-.42a31.41,31.41,0,0,1,3.18,1.09l0-.39,1.11-.3c.31-.09.72-.12.92-.34,1.16-1.28,2.84-2.06,3.67-3.68.2-.39.46-.75.69-1.13l-.31-.26Zm-45.8-15.44a3.23,3.23,0,0,0,.16-.88,9.61,9.61,0,0,0-1.5-4.72c-1-1.35-1.58-2.92-3.38-3.17a20.82,20.82,0,0,0-4.25,0c-.25,0-.58.85-.67.82-.95-.4-.87.44-1.19.84a2.63,2.63,0,0,1-1,.58c-.11.05-.36-.06-.39,0-.58,1.1-1.13,2.22-1.68,3.33,0,.07,0,.16,0,.23-.22,1.5-.44,3-.68,4.5-.14.92-.36,1.84-.43,2.77a17.08,17.08,0,0,1,0,2.58,11.87,11.87,0,0,0-.15,4.89c.34,1.94-.25,2.69-2.24,2.63a1.43,1.43,0,0,0-1.61,1.18c.62.16,1.2.32,1.78.45s1.23.06,1.3.27a18.94,18.94,0,0,1,.71,3.26c0,.43-.34.92-.28,1.35.08.62.44,1.2.58,1.82.3,1.29,1,1.8,2.14,1.26.64-.29,1.08-1,1.62-1.55-.33-.2-.57-.24-.7-.14-.83.7-1.08.61-1.45-.45a4.41,4.41,0,0,1-.06-2c.09-1-.18-2.12-.13-3.17a1.45,1.45,0,0,1,.81-1.09c1.52-.35,3.1-.43,4.62-.82A30.41,30.41,0,0,0,205.4,348c.12-.05.14-.36.25-.64a6.6,6.6,0,0,1-1,.29c-1.85.17-3.71.31-5.57.5a2.88,2.88,0,0,0-1.16.41c-.89.52-1.63.4-1.75-.41a9.18,9.18,0,0,1-.08-2.16c.17-2.13.39-4.26.62-6.39a58.18,58.18,0,0,1,.77-6.33,9.36,9.36,0,0,1,3.36-5.32,3.89,3.89,0,0,1,3.7-.46c1.5.45,2.13,1.83,2.86,2.9.84,1.23,1.09,2.86,1.63,4.29a.85.85,0,0,0,.53.41c.13,0,.32-.14.59-.27Zm148.94-6.42c0,.71-.23,1.47,0,1.9.47.73-.18,1.2-.12,1.8.13,1.16.12,2.33.2,3.49.06.79.21,1.56.3,2.35a2.19,2.19,0,0,1-1.75,2.66c-1.23.39-2.5.69-3.32,1.94,1.69,1.69,3.49.14,5.48.18-.73,1.52.57,2.87,0,4.27s.64,2.38.42,3.79.7,2.75,1.12,4.13l.39,0c.08-1,.19-1.93.21-2.89.06-2.85.05-5.71.12-8.56,0-.85-.07-1.87,1.09-2.18s2.3-1.36,3.77-1a2.86,2.86,0,0,0,1.25-.22c1.16-.31,2.31-.64,3.46-1l2-.62-.05-.2-11.55,1.05c-.09-3.48-.09-3.48-.85-3.85a2.16,2.16,0,0,0,.38-.63,3.21,3.21,0,0,0,.09-1.11c-.11-.88.42-1.86-.42-2.64-.11-.1,0-.47,0-.71.05-.53.3-1.13.11-1.55s-.85-.32-1.32-.4A6.8,6.8,0,0,0,358.47,328.3Zm-16.16,27.18c-.62-.46-1.09-.62-1.18-.9a49.36,49.36,0,0,0-1.41-4.76,7.23,7.23,0,0,0-3.17-3.93,6.7,6.7,0,0,0-5-.34,4.54,4.54,0,0,0-1.8,1c-.85.83-1.55,1.81-2.33,2.72-.05.06-.23,0-.51,0,.1-.48.17-.93.28-1.37.19-.8.45-1.6.57-2.41,0-.2-.39-.68-.55-.66-.49.07-1.23.19-1.39.52-.34.72-.07,1.7-1,2.25-.17.1-.15.5-.22.76a20.49,20.49,0,0,1-.71,2.72,2.36,2.36,0,0,0,1.18,3c1.36.43,2.76.74,4.39,1.16a5.48,5.48,0,0,1-.3-1.45,12,12,0,0,1,.5-3.42c.61-1.54,2.12-2.33,3.38-3.31a1.33,1.33,0,0,1,1.81,0,7.37,7.37,0,0,1,1.93,2.35,45.11,45.11,0,0,1,2.17,5.74c.37,1.2,1.35.87,2.08,1C341.39,356.28,341.88,355.74,342.31,355.48Zm16.25,110.11.5-.11c0-.63.05-1.25,0-1.87a2.83,2.83,0,0,0-1.49-2.48,4,4,0,0,0-4.91,1.63,3.17,3.17,0,0,1-.5.46,6.19,6.19,0,0,0-1.34,1.37c-.59,1.23-1,2.55-1.51,3.81-.21.52-.64,1-.79,1.47s-.17,1.37-.32,2c-.2.93,0,1.59,1,1.84a.82.82,0,0,1,.41.19,3.49,3.49,0,0,0,3.95.6c1.18-.83,2.31-1.74,3.41-2.66.79-.67,1.52-.58,1.91.33a4.76,4.76,0,0,0,6.45,3.16c-2.62-.2-4.64-1.22-5.61-3.87a23.94,23.94,0,0,0-1.41-2.72l-3.64,2.64c-1.32.95-2.64,1.91-4.41,1.25a5.85,5.85,0,0,1,0-1.68c.56-1.71,1.19-3.39,1.85-5.06a4.78,4.78,0,0,1,5.13-3.21,1.22,1.22,0,0,1,.77.72A18.92,18.92,0,0,1,358.56,465.59Zm-78.32-70.84-.2.07a3.24,3.24,0,0,0-.1,1c.07.33.53.64.49.91a10.73,10.73,0,0,0,.24,4.91,8.08,8.08,0,0,1,.14,2.16c0,1.22.06,2.45.14,3.68,0,.6.2,1.19.28,1.79.18,1.51,1.43,2.69,2.66,2.49,0-.06-.06-.16-.13-.19s-.42-.16-.63-.23c.45-.81.45-.81-.42-1.05a9.87,9.87,0,0,0,.33-1.56c0-1.15,0-2.31-.06-3.47,0-.76-.11-1.52-.14-2.28-.06-2.31-.08-4.63-.19-6.94,0-1.22-.32-2.43-.35-3.65-.07-2.08,0-4.17,0-6.26a6.4,6.4,0,0,1-.86-.11c-1.5-.45-2.13.24-1.91,1.84.26,1.89.33,3.81.5,5.72C280.05,394,280.16,394.36,280.24,394.75Zm23-53.8c-.37-.41-.59-.9-.87-.93-1.42-.2-2.86-.3-4.3-.39-.17,0-.37.25-.53.41a11.16,11.16,0,0,0-2.62,5.29c-.39,1.49-.45,3.07-.86,4.54-.59,2.12,1,3.28,1.85,4.77a2.44,2.44,0,0,0,1,.73,9.94,9.94,0,0,0,2.22,1.09c2.21.52,4.19-.46,6.14-1.27a8,8,0,0,0,1.71-1.37,33.68,33.68,0,0,0-3.62,1.44c-3.19,1.73-6.23-.18-6.91-3.26a11.12,11.12,0,0,1,.42-5.37,24.56,24.56,0,0,1,.95-2.9c.87-2.16,2.31-3.34,4.78-2.6C302.68,341.15,302.77,341.09,303.22,341Zm18.23,15.3a19.75,19.75,0,0,0-1.3-2.21c-.8-1-1.22-2.46-3.07-2.32a11.64,11.64,0,0,0-4.33,1.51c-1.14.57-2.21.54-2.87-.67-.89-1.63.54-6.21,2.32-6.73a12.91,12.91,0,0,1,3.47-.06c.2-.81-.43-1.11-1.21-1.17a24.33,24.33,0,0,0-2.83-.09c-1.87.06-2.61.91-3.41,2.37a17.87,17.87,0,0,0-.9,3.26c-.3.89-.79,1.79.06,2.6.69.65,1.41,1.54,2.24,1.71,2.17.46,4.41.65,6.32-1,.86-.74,1.45-.29,2,.49a2.34,2.34,0,0,0,.68.54c.61-.71.86,0,1,.33C319.81,355.88,320.63,356,321.45,356.25Zm29.18-15.47c-.09-3.65,1.88-7,1.88-10.54A5.57,5.57,0,0,0,351,330a1.71,1.71,0,0,0-1,.51c.41,1.5-1.14,2.72-.55,4.22a.48.48,0,0,1-.13.42c-1.11.62-.85,1.66-.53,2.46C349.34,338.76,348.53,340.77,350.63,340.78ZM188.06,357.6c0-.36.15-.84,0-1.05-1-1.12-.75-2.49-.91-3.77-.24-1.95-.43-3.91-.76-5.84a1.38,1.38,0,0,0-1-.83c-.45-.07-1-.05-1,.85,0,1.41.76,2.64.55,4.12-.18,1.31.43,2.71.43,4.07C185.36,357.08,186.37,358.11,188.06,357.6Zm.83-19.67,0-.23-1-.21c-.38-.09-.75-.23-1.13-.31-.88-.19-2.1.53-1.86,1.12.54,1.37,1.17,2.7,1.76,4.05l.31-.06v-3.88Zm43.23,27.89-1.41,2.38c1.52.44,1.25-1.4,2.45-1.54Z" transform="translate(-109 -324.89)"/><path d="M109,345c.25-1.15.53-2.3.75-3.47.39-2,.32-4.12,1.75-5.87a24,24,0,0,0,1.83-3.26c.38-.65.85-1.25,1.27-1.88a5.38,5.38,0,0,1,6-2.16c.84.31,1.47,1.46,2,2.36,1.78,3.22,2.25,6.84,2.89,10.4.15.85.1,1.73.23,2.59s.41,1.6.57,2.41.26,1.72.41,2.58c.33,1.84.66,3.68,1,5.51,0,.16.25.28.5.55a7.63,7.63,0,0,0,.94-1.37,24.17,24.17,0,0,1,3.81-7,3.26,3.26,0,0,1,2.86-1.26c1,.14,1.36,1.07,1.48,2.12a23.16,23.16,0,0,0,.87,3c.15.57.12,1.19.26,1.76.43,1.7.44,1.7,2,2.14.25-1.07.5-2.13.74-3.2a3.85,3.85,0,0,1,4.29-2.94c1.3.31.71,1.53.64,2.28-.2,2.06-2.13,2.94-3.26,4.39.83,1.07,1.35,1,2.61-.35a29.13,29.13,0,0,0,2.29-2.8,1.82,1.82,0,0,0,.2-1.3,32.38,32.38,0,0,1-.91-3.37c-.1-.89.07-1.8,0-2.74-.31-2.86-.42-5.74-.52-8.62-.08-2.13,0-4.26,0-6.4s.59-2.68,2.62-3.38c1.43-.49,2.14-.32,3,1a8.66,8.66,0,0,1,.84,2.68,19.5,19.5,0,0,1,.84,3.73,22.55,22.55,0,0,1-.23,4.26c-.34,2.82-.67,5.66-1.21,8.45a7.81,7.81,0,0,1-1.49,3.13,1.92,1.92,0,0,0,0,2.2,7.35,7.35,0,0,0,1.64,2.07,3.78,3.78,0,0,0,1.33.71c.62.22,1.27.36,2.07.58-3,1.06-4.55.59-6.85-2.47a18.5,18.5,0,0,1-2.42,2.93,19.88,19.88,0,0,1-3.51,1.95c-.09,0-.31-.2-.48-.28a11,11,0,0,0-3.8-1.37c-1.73-.16-2.25-1.17-2.47-2.9a56.32,56.32,0,0,0-1.26-5.65c-1.72.87-2,2.3-2.58,3.55s-.58,2.81-1.41,3.72-1.2,2.25-2.79,2.3-2.44-.37-3.14-2.27a2,2,0,0,0-.22-.55,8.27,8.27,0,0,1-2.1,4.67c1.16-3.75.88-7.56.81-11.71l-9.27,4.67c-.29,1.91-.56,3.78-.89,5.63,0,.27-.41.66-.64.67a1.2,1.2,0,0,1-.92-.48,16,16,0,0,1-2.23-8.26,6.49,6.49,0,0,0-.69-2Zm5.51,4.34,9.24-4.16c-.14-2.27-.1-4.22-.39-6.11a23.42,23.42,0,0,0-2.92-8.55c-.57-1-1.18-.87-2-.84-1.67.05-2.27,1.5-3.27,2.39a3.44,3.44,0,0,0-1.06,1.92c-.09.6.41,1.26.48,1.91a35.58,35.58,0,0,1,.33,4.6C114.86,343.35,114.66,346.18,114.51,349.36Zm35.39-22.78c-1.29,2.46-1,18.35.21,19.71a10.7,10.7,0,0,0,.74-2.59c.07-2.75,1-5.43.7-8.2s-.68-5.23-1.05-7.85A4.2,4.2,0,0,0,149.9,326.58ZM113,350.08l.54-14-.64,0a25.55,25.55,0,0,0-1.49,14.88Z" transform="translate(-109 -324.89)"/><path d="M389.8,517.85a2.58,2.58,0,0,0-.81-.27c-1.27.06-2.53.17-3.26-1.23a1.08,1.08,0,0,0-.64-.45,4.36,4.36,0,0,1-2.73-2.35,5.35,5.35,0,0,1-.83-3.59,12.46,12.46,0,0,0-.1-2.43c0-.56-.07-1.11-.1-1.73l1.26-.24-.33-.19c.3-.63.56-1.28.91-1.88.77-1.34,1.59-2.65,2.4-4l.2.3c.6-.53,1.22-1,1.79-1.59s1-1.11,1.6-1.6c-.1.56.72,1.56-.7,1.46,0,0-.07.34-.15.5s-.25.69-.47.77c-2.23.79-2.47,3.11-3.52,4.74a7.08,7.08,0,0,0-.49,6.05,7.85,7.85,0,0,0,4.85,5.43,6.56,6.56,0,0,0,6.34-1.29,24.27,24.27,0,0,0,6.23-8.29c.61-1.3,1-2.67,1.54-4,.63-1.7,1.34-3.38,1.86-5.12a21.21,21.21,0,0,0,.75-4c.24-2.3.31-4.61.52-6.91a35.11,35.11,0,0,0,0-8.51c-.4-2.61-.94-5.2-1.44-7.79a3.81,3.81,0,0,0-.28-.75,38.37,38.37,0,0,1-3.45,3.32c-.84.64-2.1,1.37-3,1.16-1-.25-2.43-.51-3-1.85a7.57,7.57,0,0,0-.89-1.29,8.49,8.49,0,0,1-1.06,1.09,8,8,0,0,1-6.11,2.42c-2.65.24-4.78-1.88-5.66-3.85-.44-1-.67-2-1.14-3a1.5,1.5,0,0,0-1.29-.06c-1,1.64-1.83,3.38-2.85,5a35.6,35.6,0,0,1-2.58,3.42c-.82,1-1.82.28-2.62,0-.51-.17-.8-1-1.22-1.62l-.13.07a17.7,17.7,0,0,1,.53-7.64l-.54-.05a8.65,8.65,0,0,1,1.05-2.3c1.09-1.25,2.19-.95,2.87.65,0,.06-.08.16-.13.16-1.64.13-1.65.13-1.81,1.88-.17,1.94-.37,3.88-.48,5.83a5.68,5.68,0,0,0,.37,1.6c1.45.7,1.48-.77,2.07-1.26s.69-1.31,1.08-1.95a49.06,49.06,0,0,1,3.33-5.06c.66-.82,1.84-1.22,3-1.93.42.83.75,1.43,1,2.05.68,1.6,1.22,3.28,2,4.81s4.05,2.29,5.62,1.2a42.47,42.47,0,0,0,4.56-4.05,2,2,0,0,0,.54-1.27,2,2,0,0,1,1.69-2c.32-.1.93-.12,1,0a1.5,1.5,0,0,1,.07,1.19,7.17,7.17,0,0,0-.89,4.21c.21,1.77,1.68,2.56,3.09,1.47.93-.71,1.49-1.9,2.41-2.63,1.49-1.17,1.47-3.47,3.37-4.25a4.37,4.37,0,0,1,1-.14c0,.29,0,.57.07.85s.09.6.16.9a23,23,0,0,1,.86,4c.08,2,.61,4,.81,6,.1,1,.38,2,.47,3,.12,1.29.17,2.58.2,3.87s.06,2.42,0,3.62a40.69,40.69,0,0,1-.47,4.27c-.32,2-.69,3.94-1.16,5.88a32.72,32.72,0,0,1-1.24,3.52c-.61,1.69-1.22,3.39-1.85,5.08a6.29,6.29,0,0,1-.47,1c-.63,1.14-1.25,2.29-1.92,3.4a15.43,15.43,0,0,1-4.41,4.48c-.24.17-.29.59-.53.78-.43.35-.92.83-1.4.85-.73,0-1.2.09-1.16.67l-2.78,1.36Z" transform="translate(-109 -324.89)"/><path d="M425.93,404.55c.4.95.68,1.66,1,2.35s.56,1.22.82,1.77c.35,0,.72-.16,1,0,2.49,1.25,4.45-.26,6.49-1.22a22.65,22.65,0,0,0,2.5-1.5l2.28-1.42c-.29-.72-.82-1.38-.75-2a6.45,6.45,0,0,1,3.51-5.14,8.81,8.81,0,0,1,5.15-1c1.27.12,1.51.49.89,1.56-.4.71-.78,1.42-1.24,2.27,1.27-.13,2.25,0,2.43,1.44,0,.17.17.31.24.48.93,2.17,1.24,2.34,3.79,2.09-.05-.16-.05-.38-.14-.43-.56-.31-1.08-.82-.58-1.32s1.15-.36,1.76-.42a11.64,11.64,0,0,1,1.72.13q.58-9.64,1.15-19a1.5,1.5,0,0,1,.36-.14c2-.11,2-.11,2.49,2,.39,1.73.84,3.45,1.14,5.2a9.74,9.74,0,0,1-.16,2.06,5.42,5.42,0,0,0,.25,1.09c-.33,2.74-.6,5.88-2.46,8.66.62-.41,1.2-1.1,1.86-1.18,1.27-.15,1.73-1.11,2.25-1.91a10,10,0,0,0,.85-2.6c0-.11,0-.24,0-.33a41.55,41.55,0,0,0,1.82-7.12c.19-.78,2.85-2.45,3.57-2.19.38.14.67.63.92,1,.44.67.75,1.43,1.23,2.08.68.93-.38,1.4-.47,2.13a8.09,8.09,0,0,1-3.12,4.87c-1.52,1.33-1.6,2.94-1.6,4.69a12.66,12.66,0,0,0,0,3.59,4.88,4.88,0,0,0,2,3.15,6.49,6.49,0,0,0,5.26,1,34.82,34.82,0,0,1,4.23-.67.91.91,0,0,0,.87-1.25c-.29-1.19-.68-2.36-1-3.54a3.3,3.3,0,0,1,4.12,4,1.94,1.94,0,0,1-1,1.19,16,16,0,0,1-2.78.87c-1.54.39-3.1.72-4.65,1.1a8.78,8.78,0,0,1-7.43-1.37c-1.56-1.12-2.14-3.07-2.55-4.94-.17-.75-.14-1.55-.28-2.31a1.28,1.28,0,0,0-.55-.76c-.11-.07-.44.21-.67.34l-3.47,1.9c-.06,1.67-.11,3.7-.23,5.72a1.05,1.05,0,0,1-.58.76.81.81,0,0,1-1.18-.73c0-.24.22-.52.34-.76l-1.75-3.46-1.52.47a7.4,7.4,0,0,0-1.08-.27c-.85-.08-1.71,0-2.55-.16-1.3-.19-1.72-1.35-2.3-2.29a10,10,0,0,1-.64-1.48,19.62,19.62,0,0,1-2.27,2,26.14,26.14,0,0,1-2.69,1.2c-.65.31-1.27.7-1.9,1.07-.86.51-1.72,1-2.58,1.56-.1.06-.24.08-.3.16-1,1.48-2.66,1.84-4.27,2.27-.48.13-.92.88-1.31.83a55.23,55.23,0,0,1-6.39-1.17c-1.24-.31-2.41-3-2.1-4.44.14-.65.38-1.27.56-1.91a1,1,0,0,0,0-.67c-.68-1.21-1.39-2.4-2.18-3.72l-1.92,2a31.11,31.11,0,0,0-1.39,4.15c-.14.7-.61,1.32-.39,2.21a6.56,6.56,0,0,1-.39,2.82,1,1,0,0,1-.77.53,16.08,16.08,0,0,1-2.15-.26,9.3,9.3,0,0,0,.3-1.13,2.33,2.33,0,0,0,0-1.28c-.57-1.08-1.28-2.1-2-3.25-.17.33-.5.65-.44.9.32,1.55-1.42,2.27-1.43,3.66-1.61.9-1.88,3.25-4.33,3.44-1.54.12-3.05.48-4.09-.65-.73-.81-2.1-1.41-1.88-2.93,0-.1-.38-.22-.52-.39s-.6-.63-.54-.86c.54-2.13-.11-4.25,0-6.38.07-1.25-.13-2.52,0-3.77.15-1.78.5-3.55.68-5.33.15-1.52.2-3.05.25-4.57a9.32,9.32,0,0,0-.06-3.07c-.24-.86,1.07-1.52,2.32-1.24l-1.22,18.29.61.31c.31-.43.6-.87.92-1.29.75-1,1.5-2,2.29-3,.16-.19.53-.2.78-.33a4.43,4.43,0,0,1,4.59-.07,3.57,3.57,0,0,1,2,2.37,3.78,3.78,0,0,0,1.08,1.55,3.32,3.32,0,0,1,1.14,2.07c0,.41.45.8.84,1.43a38.77,38.77,0,0,1,1.31-4,5.51,5.51,0,0,1,4.73-3.31c.92-.1,2.58,1.26,3.1,2.46.08.18.17.34.3.63.49-.36.91-.68,1.34-1a4.42,4.42,0,0,1,5.47,0,3.55,3.55,0,0,1,1,2.51,4.5,4.5,0,0,1-2.29,3.79c-1.07.7-2.05,0-3-.21A10.81,10.81,0,0,1,425.93,404.55Zm-21.39-1.82a7.35,7.35,0,0,1-.32.83c-1,1.92-1.9,3.82-.8,6,.67,1.36,1.95,2.74,3.78,1.15a12.41,12.41,0,0,0,1.65-1.5,10,10,0,0,0,1.68-2.62c.35-.95.2-2.07,1-2.91.16-.16,0-.65,0-1s-.2-.54-.1-.69c.46-.72,0-.8-.53-.81a11.54,11.54,0,0,1-1.75.07,3.72,3.72,0,0,0-3.45,1C405.41,402.56,405,402.59,404.54,402.73Zm1.09-1.81c1.38-.09,2.7-.12,4-.27a3.69,3.69,0,0,0,1.88-.62c.43-.36-.88-2.41-1.54-2.44C407.47,397.48,405.87,398.74,405.63,400.92Zm24.68-.56c-1.23,0-3.36,1.62-3.07,2a8.68,8.68,0,0,0,2.42,2c.42.25,1.75-1.6,1.58-2.45A4.94,4.94,0,0,0,430.31,400.36Zm11.83,2.15a9.55,9.55,0,0,0,3.86-4.46C443.29,398.42,442.73,399.48,442.14,402.51Zm25.75-9.14c1.65-1.1,2-2.47,1.17-3.74-.22.65-.45,1.26-.65,1.88S468.06,392.75,467.89,393.37Z" transform="translate(-109 -324.89)"/><path d="M347,412a4.87,4.87,0,0,1-.44,1.33c-.82,1.09-1.73,2.12-2.56,3.2a1.86,1.86,0,0,0-.51,2c.35,1.18-.15,2.62-.28,3.95a1.6,1.6,0,0,1-.21.83l-.18-.67c-.61.77-.61.77.33,1.18a16.28,16.28,0,0,1-.32,3.22c-.29,1,.44,2.32-1,3a1.85,1.85,0,0,1,.14.81c-.6,2.22-1.24,4.42-1.87,6.63a1.13,1.13,0,0,0,0,.22c-1,0-.74.81-.79,1.29-.14,1.24-.94,2.17-1.34,3.23a4.14,4.14,0,0,1-1.06,2,3.15,3.15,0,0,0-1.38,2.31c0,.13-.22.26-.35.37-.8.73-1.61,1.44-2.45,2.2l-.58-.67-.87,1.69-2.33.37a2.69,2.69,0,0,1-3.2-2.24,21.46,21.46,0,0,1-.88-3.25,8.58,8.58,0,0,1,.23-3.43,27.07,27.07,0,0,1,2-4.18c.81-1.53,1.63-3.07,2.56-4.52s2-2.75,3-4.12c.86-1.18,1.72-2.36,2.61-3.52s1.66-2.05,2.42-3.12a34.7,34.7,0,0,1,1.86-2.93c1.7-1.91.76-4.14.87-6.22a22.84,22.84,0,0,0-.44-4.09c-.07-.59-.2-1.18-.32-1.84-.44.77-.79,1.37-1.1,2a7.54,7.54,0,0,0-.42,1.06c0,.09,0,.28,0,.3-1.36.73-2.21,2.38-4,2.35a4.26,4.26,0,0,1-2.46-.61c-.79-.64-2-1.16-1.69-2.68.09-.36-.44-.86-.73-1.37l1.24-.11v-.21l-1.22-.46,1-1.12-.34-.82.3-.12-1-.35.46-.53,1.39-.11,0-.23-.93-.53c.58-1.51.58-1.51,2.51-.9a12.41,12.41,0,0,1-.27,2.67c-.54,1.68.3,3.26.2,4.9,0,.26.8.7,1.29.81a1.2,1.2,0,0,0,1.13-.13,6.92,6.92,0,0,0,1.87-2.32c.64-1,1.64-2.1,1.24-3.59-.17-.67,1.3-2.26,2-2.38.37-.05.74-.14,1.24-.24,1.75,3.92,1.49,8.27,2.15,12.59l3.92-6.62a19.37,19.37,0,0,1-.14-2.1c0-.12.41-.22.64-.33a3,3,0,0,1,1.34-3.41c1.14-.4,2.4-1.28,3.39.33,0,.07.41-.09.62-.1a9.61,9.61,0,0,1,1.2,0c1.46.06,1.84,1.29,2.56,2.65l1.33-1.23-.29.88c.69,0,1.21-.73.67-1.26-.72-.71-.13-1.07.25-1.25a1.74,1.74,0,0,1,1.49,0,2.75,2.75,0,0,1,.93,2.82c-.13.58.88,3.59,1.54,3.95s1.16-.08,1.48-.52c.81-1.13,1.5-2.35,2.3-3.49a6.39,6.39,0,0,1,3.12-2.45,1.83,1.83,0,0,1,1.31.26c.15.08.14.7,0,1-.5,1,.53,1,.86,1.43.55.71,1.17,1.37,1.87,2.19.4-.59.91-1.42,1.51-2.19,1.51-1.94,3-3.86,4.6-5.75.16-.2.63-.15.63-.34l1.8-1.66.55.5a12.91,12.91,0,0,1-2,2.42c-1.11.83-1.18,2.08-1.74,3.12a17.29,17.29,0,0,1-1.89,2.48c-.21.27-.61.48-.66.76-.38,2.22-2.22,2.7-3.91,3.28-.94.33-1.64-.09-2-1.15-.43-1.36-1-2.69-1.54-4.2-.3.42-1.26.27-.48,1.1a.86.86,0,0,1,0,.83,21.13,21.13,0,0,1-2.11,2.5,31.27,31.27,0,0,1-2.51,2.06l-2.75-.15c-2.29-1.62-2.63-3.66-1.93-5.13a3.23,3.23,0,0,0-2.82,2.26c-.06.3.23,1-.56.6a1,1,0,0,0-.24.37c-.38,1.16-.72,2.34-1.11,3.5a2.43,2.43,0,0,1-.6,1.05c-.87.77-3.45,1.46-4.29.69-.63-.57-1.95-.43-1.91-1.79C348,412.42,347.28,412.16,347,412Zm-6.45,9.63c-1.21,1.66-2.18,3.08-3.26,4.42-.69.85-1.73,1.45-2.25,2.37a3.94,3.94,0,0,1-1.56,1.67c-.2.11-.23.5-.35.76-.3.65-.57,1.3-.92,1.92-.08.15-.52.09-.62.24a11,11,0,0,0-.69,1.37c-.78,1.63-1.6,3.24-2.33,4.88-.4.88-.66,1.83-1,2.74-.13.37-.46.76-.4,1.08a22.41,22.41,0,0,0,1,3.89,2.09,2.09,0,0,0,3.65.68,22.57,22.57,0,0,0,3.72-5.46,119.38,119.38,0,0,0,4.1-12.09,33.6,33.6,0,0,0,.76-5.79C340.52,423.5,340.53,422.68,340.59,421.62Zm10.54-14.88c-.28.55-.46,1-.7,1.35-.58.87.37,1.82,0,2.56-.69,1.26.35,1.36,1,1.7a5.36,5.36,0,0,0,1.45.33l1.16-4.43a6.57,6.57,0,0,1-.91-1.37c-.37-1.23-.57-1.35-1.7-.78a2.75,2.75,0,0,1-.48.15Z" transform="translate(-109 -324.89)"/><path d="M486.28,463.26a31.66,31.66,0,0,1-3.76,3c-2,1.2-4.25,2.52-6.67,1.34-1.17-.58-2.78-1.23-2.64-3.15,0-.18-.45-.55-.72-.58a13.83,13.83,0,0,0-2.32,0,3.43,3.43,0,0,1-2.81-1q-1.17-1.18-2.37-2.34c-.13-.12-.38-.26-.49-.21-.31.14-.73.32-.85.6-.61,1.42-1.14,2.87-1.72,4.31-.65,1.61-1.3,3.24-2,4.83a5.17,5.17,0,0,1-1,1.14l-.33-.75c-.4.27-.87.83-1.17.75a11.5,11.5,0,0,1-2.17-1.07l.46-.31-.59-2.54-.33-.07c-.48.91-1,1.8-1.42,2.74-.28.66-.59,1-1.33.7-.28.59-.32,1.55-1.4.91-.06,0-.2,0-.23,0-.7,1-1.81.17-2.69.62-1.06.54-3.52-1.1-3.64-2.35a11.44,11.44,0,0,0-.4-1.35,18.26,18.26,0,0,0-1.95,2.24,4.75,4.75,0,0,1-2.46,2,7.68,7.68,0,0,1-1.46.25c-.91.15-1.46-.33-1.85-1.78l-.46,1.06-.29,0a27.92,27.92,0,0,0-.29-2.9,18.35,18.35,0,0,0-.81-2.44l-.45,0a23.81,23.81,0,0,1-1.45,3.57,24.19,24.19,0,0,1-2.49,2.95l-1.55-1.21-.56.24c-.15-.11-.26-.15-.26-.2,0-1,0-2.05-.12-3.06s-.32-1.78-.49-2.67c0-.19-.2-.44-.13-.54.82-1.25-.18-1.23-.66-1.33-.56.91-1.09,1.73-1.56,2.58-.61,1.09-1.16,2.22-1.74,3.33s-1.18,2.13-1.69,3.24A24.24,24.24,0,0,1,419.7,477c-.56.87-.57,2.32-1.9,2.49a3.66,3.66,0,0,1-2.29-.45c-.3-.21-.05-1.24-.05-1.7s-.25-.79-.31-1.12a18.85,18.85,0,0,1-.34-2.34,3.51,3.51,0,0,1,.37-1.21,3.63,3.63,0,0,0,.31-.74c.11-1-.08-2.1.34-2.9a7.67,7.67,0,0,1,2.29-2.12c.3-.23.81-.17,1.32-.26l.06,1.21c-1.42-.16-2.05.52-2.31,1.91a31.74,31.74,0,0,0-.21,3.61,18.26,18.26,0,0,0-.11,3.47,2.82,2.82,0,0,0,.32.71c.24-.16.56-.28.68-.51.53-1,.94-2.06,1.55-3.06a20.08,20.08,0,0,0,1.1-3.08,22.77,22.77,0,0,1,.89-2.35c.19-.39.69-.61.94-1a5.72,5.72,0,0,0,.79-1.63c.43-1.6.59-1.36,2.18-2.66a2.85,2.85,0,0,1,2.28-.92,1.57,1.57,0,0,1,1.15.81,13.79,13.79,0,0,1,.39,2.8c.13,1.57.22,3.15.34,4.79.12-.17.36-.34.37-.53a2.87,2.87,0,0,1,1.44-2.12,2.77,2.77,0,0,0,.93-1.7c.31-2.64.94-3.31,3.62-3.89.1.76.25,1.49.3,2.23.09,1.38.05,2.78.2,4.16a2.86,2.86,0,0,0,.77,1.86,2.22,2.22,0,0,0,1.93-.06,4.87,4.87,0,0,0,1.54-1.67,43.14,43.14,0,0,1,2.31-3.74,9.37,9.37,0,0,1,2.43-1.52l.45.25c0,1.08,0,2.16,0,3.24a7.43,7.43,0,0,1-.09.81l.41-.17c-.12.27-.23.55-.37.81a4,4,0,0,1-.3.42,4.25,4.25,0,0,1,.49.21l1.81,1.22,1.4-.1a2.07,2.07,0,0,0,1.72-1.1,5.32,5.32,0,0,0,.9-2.38c.09-.67-.13-1-.94-.91a2.6,2.6,0,0,1-3-2.3,2,2,0,0,1,.9-1.25c1.71-1.28,3.47-.94,5.08,1.05.1.13.21.24.35.4a11.67,11.67,0,0,1,2.14-.57,1.39,1.39,0,0,1,1.05.71,32.08,32.08,0,0,1,.9,3.3c.36-.5.68-.73.68-1,0-2.34,1.35-4.18,2.15-6.22a7.3,7.3,0,0,1,3.51-3.36,1.16,1.16,0,0,1,1.69.54c.29.56,1,.9,1.36,1.43a8,8,0,0,1,.65,1.49c.32.75,2.78,1.94,3.56,1.68a.83.83,0,0,0,.41-.6c.13-1.15.14-2.31.35-3.44a15.3,15.3,0,0,1,.89-2.76c.54-1.35,1.25-2.55,2.93-2.77.48-.07.92-.41,1.4-.53a1.28,1.28,0,0,1,1,.08,3.38,3.38,0,0,1,.82,1.29c.13.37-.06.83,0,1.22a5.75,5.75,0,0,1-.78,3.82,10,10,0,0,1-2.39,3.65c-1.16.94-.69,1.72-.38,2.59a2.93,2.93,0,0,0,3.63,1.46,13.08,13.08,0,0,0,4.9-2.94,5.53,5.53,0,0,1,1-.58Z" transform="translate(-109 -324.89)"/><path d="M235.25,364.31a18.18,18.18,0,0,0,.55-7l.55-.44c-.83-1.24.09-2.42.13-3.64s.05-2.34,0-3.51c0,0-.61-.15-.71,0-.64.76-1.18,1.61-1.84,2.35-.94,1.07-1.94,2.08-3,3.08a2.15,2.15,0,0,1-3.25-.09,4,4,0,0,0-.78-.52c-.17-.54-.33-.92-.41-1.32s-.09-.65.05-.81c1-1.16.83-2.57.91-4a11.94,11.94,0,0,1,.57-2.89c.09-.32.57-.53.92-.82a3.93,3.93,0,0,1,.45,3.21c-.25,1.66-.41,3.33-.61,5,0,.34-.11.69-.17,1,1.56.36,2.38-.26,3.51-2.2a9.31,9.31,0,0,1,2.3-2.3c.2-.71-.1-1.77,1.26-1.8a3.66,3.66,0,0,1,1.33-2.46c.37-.38.25-1,1.13-.65a1.66,1.66,0,0,1,1.15,1.81,23.39,23.39,0,0,0-.24,2.38c0,.12.08.27,0,.35-.92,1.73-.12,3.58-.39,5.34-.18,1.14-.7,2.23-.84,3.38a2.23,2.23,0,0,0,.74,1.53c.55.54.68.55.2.93a2.11,2.11,0,0,0-.68,1.91,17.68,17.68,0,0,1-.31,2.27c0,.22-.16.51-.07.66.72,1.11-.08,2-.25,3.06-.12.76-.92,1.54-.16,2.38a.28.28,0,0,1,0,.22c-.28,1.44-.57,2.88-.85,4.31s-.48,2.63-.79,3.92c-.51,2.07-1.09,4.13-1.62,6.21a13.66,13.66,0,0,1-.37,1.71,8.43,8.43,0,0,1-.9,1.36c0,.25.24.61.13.82-1,1.9-2,3.76-3,5.66a7.68,7.68,0,0,0-.81,2.08c-.17,1-1.13,1.26-1.46,2.05a4.43,4.43,0,0,1-.71,1.21c-.84.94-1.4,2.22-3,2.29-.41,0-.8.71-1.2,1.09a4.06,4.06,0,0,1-4.14.94,2.65,2.65,0,0,1-2.06-1.92c0-.15-.18-.39-.29-.41-1.22-.17-.58-1.54-1.32-2,.65-1-.15-1.88-.41-2.63a9,9,0,0,1-.09-4.53,8.35,8.35,0,0,1,.13-1.12c.21-.79-.28-1.94,1.1-2.19.22,0,.47-.46.53-.74.33-1.64.92-1.6,1-2.89s1.33-1.72,1.38-3c0-.87,1.1-1.68,1.69-2.53.38-.56.71-1.14,1.06-1.7l.88.49a4.94,4.94,0,0,1,.25-1,8.1,8.1,0,0,1,.79-1.29,36.12,36.12,0,0,1,2.16-3,10.18,10.18,0,0,1,1.9-1.4c0-.53-.08-1.28.87-1.71.47-.22.66-1,1.06-1.46a1.16,1.16,0,0,1,1-.31c-.6.39-1.13.7-.8,1.54.05.13,0,.4-.06.45-1,.67-1.3,1.95-2.47,2.57a3.46,3.46,0,0,0-2.16,2.92c0,.5-.51,1-.85,1.48a7.9,7.9,0,0,1-1.31,1.51,3.63,3.63,0,0,1-1.18.51l-.41,1.73-.81-.3c.25,1.57.13,1.74-1.48,1.81l.84.58c-.81,1.17-.1,3.29-2.19,3.71-.31,1.23-.62,2.42-.91,3.62-.37,1.58-.92,3.17-.42,4.81.71,2.35.82,5.05,3.57,6.25a4.45,4.45,0,0,0,3.73-.56,20,20,0,0,0,2.76-3.15,66.08,66.08,0,0,0,3.23-6.12,45.18,45.18,0,0,0,2.33-5.57c.64-2,1-4,1.47-6,.3-1.22.71-2.41.92-3.63s.28-2.73.46-4.08c.31-2.32.7-4.63,1-6.95a6,6,0,0,0-.35-1.83Z" transform="translate(-109 -324.89)"/><path d="M246.79,409.39c.26-.59.44-1,.65-1.47.7-1.46,1.35-2.95,2.12-4.38a8,8,0,0,0,1.2-2.8c1.52-.25,1.26-2.48,2.89-2.6l2.44-.18c.12,0,.31,0,.34.1a9,9,0,0,1,1.07,2.74,8.93,8.93,0,0,0,.52,2.88,4.15,4.15,0,0,1,.05,2.19c-.28,1.48.56,2.59,1.08,3.8a3.67,3.67,0,0,0,4.33-3.72c0-1-.46-2.15.66-2.91-.49-1.45.5-2.32,1.4-3.09a12,12,0,0,1,3.11-2.05,2.63,2.63,0,0,1,2,.64,9.49,9.49,0,0,1,1.47,1.87c.41.52,1.15,1,1.23,1.52.16,1.18,1.16,2.32.3,3.6-.11.17,0,.48,0,.72a3.62,3.62,0,0,1,.09.85,6.71,6.71,0,0,1-5.53,5c-.44,0-.91-.45-1.38-.67a8.42,8.42,0,0,1-1.5-.66,9.25,9.25,0,0,1-1.18-1.34,17,17,0,0,1-2.74,1.51,14.22,14.22,0,0,1-3.09.44.63.63,0,0,1-.5-.27c-.24-.77-1-1-1.46-1.49a1.61,1.61,0,0,1-.26-1.14c.68-.36.17-.77.14-1.14-.07-.83-.1-1.67-.24-2.48-.18-1-.47-2-.7-3-.1-.44-.13-.89-.27-1.32s-.35-.82-.51-.81a1.84,1.84,0,0,0-1.21.48,24.74,24.74,0,0,0-4.15,8.44,11.11,11.11,0,0,1-1.78,2.8,10.66,10.66,0,0,1-.76.88c-2-.5-2.37-1.51-2-3.41a13.52,13.52,0,0,0,0-4.35c-.08-.79.23-3.14.59-3.45-.07-.64-.32-1.21-.14-1.58a2.9,2.9,0,0,0-.19-2.52,4.36,4.36,0,0,1,.06-1.64c.08-1.39.14-2.77.23-4.15,0-.29.12-.58.13-.87,0-.74,0-1.47,0-2.21,0-.07,0-.15,0-.2.7-1,0-2.08.2-3.15a3.69,3.69,0,0,1,1.43-2.26,4.5,4.5,0,0,1,.51,1.41c0,3.47-.1,6.94-.23,10.41-.11,3.07-.31,6.13-.46,9.2-.09,1.78-.16,3.57-.23,5.35A2.53,2.53,0,0,0,246.79,409.39Zm19.34-2a6.64,6.64,0,0,0,.15.77c.44,1.5,2.37,2.85,3.31,1.73a10.33,10.33,0,0,0,2-3.47c.57-1.86-.29-3.62-1-5.31a5.87,5.87,0,0,0-1.07-1.27C268.34,402.41,267.26,404.86,266.13,407.42Z" transform="translate(-109 -324.89)"/><path d="M295.34,412.66c-.1.14-.23.49-.46.59-1.53.65-3.88-1.05-3.88-2.71,0-1-.11-1.93-.2-2.89-.14-1.42,2-4,3.39-4.11.39,0,.76-.19,1.15-.22a3.7,3.7,0,0,1,3.65,1.9c.1.14,0,.44-.09.81h1c0-.27-.06-.54-.06-.82a5.43,5.43,0,0,1,.05-.9c.12-.66.68-1.4-.36-1.85a.59.59,0,0,1,0-.52c.87-.81-.23-1.86.36-2.74.14-.21-.27-.74-.36-1.14a4.07,4.07,0,0,1-.25-1.72,21.08,21.08,0,0,0,.7-5c0-1,.34-2,.43-3.06.07-.81,0-1.63,0-2.44a4.39,4.39,0,0,1,2.07-4.21,2.89,2.89,0,0,1,2.89.06c.68.29,1,1.44,1.47,2.23a3.5,3.5,0,0,1,.5,1.26c.2,1.86.34,3.73.48,5.6,0,.26,0,.69-.19.76-.8.38-.34,1.07-.44,1.6s0,1-.08,1.44a9.34,9.34,0,0,1-.26,1.76,6.26,6.26,0,0,1-.71,1.25,3.43,3.43,0,0,0-.22.56c-.65,2-1.26,4-1.94,6-.26.74-.77,1.4-1,2.15-.4,1.56,0,2.19,1.45,3.09.33.21.44.77.68,1.21l.41-.32.2.79,1.89-.42.1.43-3.17.75c-.15-.41-.17-.79-.33-.86a10,10,0,0,1-1.9-.72c-.42-.32-.57-1-.92-1.67-.72-.27-1.06.41-1.52,1a11.44,11.44,0,0,1-1.4,1.28c-.66.55-1.32,1.1-2,1.6A3.64,3.64,0,0,1,295.34,412.66Zm7.07-11.16c.17-.21.31-.55.53-.6.69-.18.2-1.39,1.16-1.27a4.75,4.75,0,0,1,0-1.3,22.36,22.36,0,0,0,.81-2.69,23.34,23.34,0,0,0-.09-3,2.9,2.9,0,0,1,.23-1.32,2.72,2.72,0,0,0,.36-2.68,18.58,18.58,0,0,1-.9-3.58c-.15-.65-.22-1.31-.36-2.19-1.05,1.49-1.92,5.75-1.92,7.27,0,2.55-.25,5.1-.34,7.66C301.81,399.05,301.48,400.37,302.41,401.5Zm-8.71,4.23c-.11.63-.21,1.4-.39,2.16s-.49,1.31-.6,2,1.4,2.05,2.07,1.72c.86-.43,1.43-1.49,2.63-1.17.07,0,.22-.3.34-.45l.54-.69c.22-.28.68-.66.61-.82a4.9,4.9,0,0,0-.94-1.38c-.42-.47-1-.8-1.34-1.31-.52-.85-1.11-1-1.93-.43A4.75,4.75,0,0,1,293.7,405.73Z" transform="translate(-109 -324.89)"/><path d="M255.33,350.16l-3.45,2.36.31.26c-.23.38-.49.74-.69,1.13-.83,1.62-2.51,2.4-3.67,3.68-.2.22-.61.25-.92.34l-1.11.3,0,.39a31.41,31.41,0,0,0-3.18-1.09c-.45-.1-1,.24-1.64.42l.42-1.78c-.79-1.2-.67-4.09.13-4.44.05-.54.06-1,.14-1.35.61-2.81,3-3.34,5.24-4.08.25-.09.81.07.86.23.48,1.52,1.59.75,2.43.65a2.43,2.43,0,0,1,2.76,1.55c.21.59.25,1,1,.29s1.39-.77,1.58-1.84c.16-.85,1.35-1,1.89-.57a2.82,2.82,0,0,1,.76,2,7,7,0,0,1-.66,2.09,4.64,4.64,0,0,0,3.26,1.17,2.31,2.31,0,0,0,1.55-.65c.93-1.06,1.7-2.26,2.53-3.4.35-.48.39-1.25,1.22-1.31.15,0,.41-.25.4-.38-.06-1.69,1.26-2.43,2.3-3.35a1.12,1.12,0,0,1,1.8.39c.1.19.35.31.5.49s.58.56.67.89c.69,2.42,1.21,4.91,2,7.28a8.94,8.94,0,0,0,1.91,2.38c-.38.15-.7.08-1.28-.44a.88.88,0,0,0-.43-.14,3.4,3.4,0,0,1-2.92-3.44c0-1.2-.7-2.08-.76-3.19a20.58,20.58,0,0,0-.55-2.88l-.45-.05a12.55,12.55,0,0,1-.68,1.7c-.5.92-1.07,1.8-1.64,2.68-1,1.56-1.88,3.29-3.54,4.24-1,.57-2.32,1.27-3.31,1.05a26.69,26.69,0,0,1-2.87-.61C256,352.66,255.71,351.49,255.33,350.16ZM244,353.94l0,0a5.12,5.12,0,0,1,.2.84c0,.36-.18,1-.06,1,.62.32,1.44.83,2,.64a8.24,8.24,0,0,0,2.73-1.81,4.35,4.35,0,0,0,.93-2c.06-.21-.42-.56-.62-.87s-.83-1-.72-1.28c.34-1-.28-1-.74-1.17l-.43,1.18c.07-.59-1.73-1-.07-1.66-.93-.06-2.06-.37-2.36,0-1,1.15-1.9,2.44-1.41,4.18C243.52,353.45,243.29,354,244,353.94Z" transform="translate(-109 -324.89)"/><path d="M209.53,334.72l.64.14c-.27.13-.46.31-.59.27a.85.85,0,0,1-.53-.41c-.54-1.43-.79-3.06-1.63-4.29-.73-1.07-1.36-2.45-2.86-2.9a3.89,3.89,0,0,0-3.7.46,9.36,9.36,0,0,0-3.36,5.32,58.18,58.18,0,0,0-.77,6.33c-.23,2.13-.45,4.26-.62,6.39a9.18,9.18,0,0,0,.08,2.16c.12.81.86.93,1.75.41a2.88,2.88,0,0,1,1.16-.41c1.86-.19,3.72-.33,5.57-.5a6.6,6.6,0,0,0,1-.29c-.11.28-.13.59-.25.64a30.41,30.41,0,0,1-3.92,1.46c-1.52.39-3.1.47-4.62.82a1.45,1.45,0,0,0-.81,1.09c-.05,1,.22,2.13.13,3.17a4.41,4.41,0,0,0,.06,2c.37,1.06.62,1.15,1.45.45.13-.1.37-.06.7.14-.54.53-1,1.26-1.62,1.55-1.17.54-1.84,0-2.14-1.26-.14-.62-.5-1.2-.58-1.82-.06-.43.33-.92.28-1.35a18.94,18.94,0,0,0-.71-3.26c-.07-.21-.85-.17-1.3-.27s-1.16-.29-1.78-.45a1.43,1.43,0,0,1,1.61-1.18c2,.06,2.58-.69,2.24-2.63a11.87,11.87,0,0,1,.15-4.89,17.08,17.08,0,0,0,0-2.58c.07-.93.29-1.85.43-2.77.24-1.5.46-3,.68-4.5,0-.07,0-.16,0-.23.55-1.11,1.1-2.23,1.68-3.33,0-.05.28.06.39,0a2.63,2.63,0,0,0,1-.58c.32-.4.24-1.24,1.19-.84.09,0,.42-.81.67-.82a20.82,20.82,0,0,1,4.25,0c1.8.25,2.42,1.82,3.38,3.17a9.61,9.61,0,0,1,1.5,4.72A3.23,3.23,0,0,1,209.53,334.72Z" transform="translate(-109 -324.89)"/><path d="M358.47,328.3a6.8,6.8,0,0,1,1.12,0c.47.08,1.19.12,1.32.4s-.06,1-.11,1.55c0,.24-.15.61,0,.71.84.78.31,1.76.42,2.64a3.21,3.21,0,0,1-.09,1.11,2.16,2.16,0,0,1-.38.63c.76.37.76.37.85,3.85l11.55-1.05.05.2-2,.62c-1.15.34-2.3.67-3.46,1a2.86,2.86,0,0,1-1.25.22c-1.47-.37-2.52.66-3.77,1s-1.06,1.33-1.09,2.18c-.07,2.85-.06,5.71-.12,8.56,0,1-.13,1.92-.21,2.89l-.39,0c-.42-1.38-1.33-2.84-1.12-4.13s-.93-2.44-.42-3.79-.77-2.75,0-4.27c-2,0-3.79,1.51-5.48-.18.82-1.25,2.09-1.55,3.32-1.94a2.19,2.19,0,0,0,1.75-2.66c-.09-.79-.24-1.56-.3-2.35-.08-1.16-.07-2.33-.2-3.49-.06-.6.59-1.07.12-1.8C358.24,329.77,358.47,329,358.47,328.3Z" transform="translate(-109 -324.89)"/><path d="M342.31,355.48c-.43.26-.92.8-1.27.71-.73-.17-1.71.16-2.08-1a45.11,45.11,0,0,0-2.17-5.74,7.37,7.37,0,0,0-1.93-2.35,1.33,1.33,0,0,0-1.81,0c-1.26,1-2.77,1.77-3.38,3.31a12,12,0,0,0-.5,3.42,5.48,5.48,0,0,0,.3,1.45c-1.63-.42-3-.73-4.39-1.16a2.36,2.36,0,0,1-1.18-3,20.49,20.49,0,0,0,.71-2.72c.07-.26.05-.66.22-.76.89-.55.62-1.53,1-2.25.16-.33.9-.45,1.39-.52.16,0,.58.46.55.66-.12.81-.38,1.61-.57,2.41-.11.44-.18.89-.28,1.37.28,0,.46.05.51,0,.78-.91,1.48-1.89,2.33-2.72a4.54,4.54,0,0,1,1.8-1,6.7,6.7,0,0,1,5,.34,7.23,7.23,0,0,1,3.17,3.93,49.36,49.36,0,0,1,1.41,4.76C341.22,354.86,341.69,355,342.31,355.48Z" transform="translate(-109 -324.89)"/><path d="M358.56,465.59a18.92,18.92,0,0,0-.53-2.16,1.22,1.22,0,0,0-.77-.72,4.78,4.78,0,0,0-5.13,3.21c-.66,1.67-1.29,3.35-1.85,5.06a5.85,5.85,0,0,0,0,1.68c1.77.66,3.09-.3,4.41-1.25l3.64-2.64a23.94,23.94,0,0,1,1.41,2.72c1,2.65,3,3.67,5.61,3.87a4.76,4.76,0,0,1-6.45-3.16c-.39-.91-1.12-1-1.91-.33-1.1.92-2.23,1.83-3.41,2.66a3.49,3.49,0,0,1-3.95-.6.82.82,0,0,0-.41-.19c-1-.25-1.2-.91-1-1.84.15-.66.12-1.38.32-2s.58-.95.79-1.47c.53-1.26.92-2.58,1.51-3.81a6.19,6.19,0,0,1,1.34-1.37,3.17,3.17,0,0,0,.5-.46,4,4,0,0,1,4.91-1.63,2.83,2.83,0,0,1,1.49,2.48c.06.62,0,1.24,0,1.87Z" transform="translate(-109 -324.89)"/><path d="M280.24,394.75c-.08-.39-.19-.77-.23-1.16-.17-1.91-.24-3.83-.5-5.72-.22-1.6.41-2.29,1.91-1.84a6.4,6.4,0,0,0,.86.11c0,2.09,0,4.18,0,6.26,0,1.22.3,2.43.35,3.65.11,2.31.13,4.63.19,6.94,0,.76.11,1.52.14,2.28,0,1.16.09,2.32.06,3.47a9.87,9.87,0,0,1-.33,1.56c.87.24.87.24.42,1.05.21.07.43.14.63.23s.09.13.13.19c-1.23.2-2.48-1-2.66-2.49-.08-.6-.24-1.19-.28-1.79-.08-1.23-.1-2.46-.14-3.68a8.08,8.08,0,0,0-.14-2.16,10.73,10.73,0,0,1-.24-4.91c0-.27-.42-.58-.49-.91a3.24,3.24,0,0,1,.1-1Z" transform="translate(-109 -324.89)"/><path d="M303.22,341c-.45.14-.54.2-.6.18-2.47-.74-3.91.44-4.78,2.6a24.56,24.56,0,0,0-.95,2.9,11.12,11.12,0,0,0-.42,5.37c.68,3.08,3.72,5,6.91,3.26a33.68,33.68,0,0,1,3.62-1.44,8,8,0,0,1-1.71,1.37c-2,.81-3.93,1.79-6.14,1.27a9.94,9.94,0,0,1-2.22-1.09,2.44,2.44,0,0,1-1-.73c-.83-1.49-2.44-2.65-1.85-4.77.41-1.47.47-3.05.86-4.54a11.16,11.16,0,0,1,2.62-5.29c.16-.16.36-.42.53-.41,1.44.09,2.88.19,4.3.39C302.63,340.05,302.85,340.54,303.22,341Z" transform="translate(-109 -324.89)"/><path d="M321.45,356.25c-.82-.21-1.64-.37-1.91-1.41-.09-.34-.34-1-1-.33a2.34,2.34,0,0,1-.68-.54c-.52-.78-1.11-1.23-2-.49-1.91,1.62-4.15,1.43-6.32,1-.83-.17-1.55-1.06-2.24-1.71-.85-.81-.36-1.71-.06-2.6a17.87,17.87,0,0,1,.9-3.26c.8-1.46,1.54-2.31,3.41-2.37a24.33,24.33,0,0,1,2.83.09c.78.06,1.41.36,1.21,1.17a12.91,12.91,0,0,0-3.47.06c-1.78.52-3.21,5.1-2.32,6.73.66,1.21,1.73,1.24,2.87.67a11.64,11.64,0,0,1,4.33-1.51c1.85-.14,2.27,1.29,3.07,2.32A19.75,19.75,0,0,1,321.45,356.25Z" transform="translate(-109 -324.89)"/><path d="M350.63,340.78c-2.1,0-1.29-2-1.75-3.17-.32-.8-.58-1.84.53-2.46a.48.48,0,0,0,.13-.42c-.59-1.5,1-2.72.55-4.22a1.71,1.71,0,0,1,1-.51,5.57,5.57,0,0,1,1.47.24C352.51,333.79,350.54,337.13,350.63,340.78Z" transform="translate(-109 -324.89)"/><path d="M188.06,357.6c-1.69.51-2.7-.52-2.7-2.45,0-1.36-.61-2.76-.43-4.07.21-1.48-.56-2.71-.55-4.12,0-.9.56-.92,1-.85a1.38,1.38,0,0,1,1,.83c.33,1.93.52,3.89.76,5.84.16,1.28-.06,2.65.91,3.77C188.21,356.76,188.06,357.24,188.06,357.6Z" transform="translate(-109 -324.89)"/><path d="M188.89,337.93l-2,.48v3.88l-.31.06c-.59-1.35-1.22-2.68-1.76-4.05-.24-.59,1-1.31,1.86-1.12.38.08.75.22,1.13.31l1,.21Z" transform="translate(-109 -324.89)"/><path d="M232.12,365.82l1,.84c-1.2.14-.93,2-2.45,1.54Z" transform="translate(-109 -324.89)"/><path d="M235.25,364.31l-1.89,1.22-.16-.26,1.3-1.43.75.47Z" transform="translate(-109 -324.89)"/><path class="cls-1" d="M114.51,349.36c.15-3.18.35-6,.39-8.84a35.58,35.58,0,0,0-.33-4.6c-.07-.65-.57-1.31-.48-1.91a3.44,3.44,0,0,1,1.06-1.92c1-.89,1.6-2.34,3.27-2.39.84,0,1.45-.12,2,.84a23.42,23.42,0,0,1,2.92,8.55c.29,1.89.25,3.84.39,6.11Z" transform="translate(-109 -324.89)"/><path class="cls-1" d="M149.9,326.58a4.2,4.2,0,0,1,.6,1.07c.37,2.62.75,5.23,1.05,7.85s-.63,5.45-.7,8.2a10.7,10.7,0,0,1-.74,2.59C148.94,344.93,148.61,329,149.9,326.58Z" transform="translate(-109 -324.89)"/><path class="cls-1" d="M113,350.08l-1.59.8A25.55,25.55,0,0,1,112.9,336l.64,0Z" transform="translate(-109 -324.89)"/><path class="cls-1" d="M404.54,402.73c.42-.14.87-.17,1.11-.41a3.72,3.72,0,0,1,3.45-1,11.54,11.54,0,0,0,1.75-.07c.49,0,1,.09.53.81-.1.15.07.45.1.69s.21.82,0,1c-.8.84-.65,2-1,2.91a10,10,0,0,1-1.68,2.62,12.41,12.41,0,0,1-1.65,1.5c-1.83,1.59-3.11.21-3.78-1.15-1.1-2.22-.17-4.12.8-6A7.35,7.35,0,0,0,404.54,402.73Z" transform="translate(-109 -324.89)"/><path class="cls-1" d="M405.63,400.92c.24-2.18,1.84-3.44,4.35-3.33.66,0,2,2.08,1.54,2.44a3.69,3.69,0,0,1-1.88.62C408.33,400.8,407,400.83,405.63,400.92Z" transform="translate(-109 -324.89)"/><path class="cls-1" d="M430.31,400.36a4.94,4.94,0,0,1,.93,1.54c.17.85-1.16,2.7-1.58,2.45a8.68,8.68,0,0,1-2.42-2C427,402,429.08,400.39,430.31,400.36Z" transform="translate(-109 -324.89)"/><path class="cls-1" d="M442.14,402.51c.59-3,1.15-4.09,3.86-4.46A9.55,9.55,0,0,1,442.14,402.51Z" transform="translate(-109 -324.89)"/><path class="cls-1" d="M467.89,393.37c.17-.62.33-1.24.52-1.86s.43-1.23.65-1.88C469.86,390.9,469.54,392.27,467.89,393.37Z" transform="translate(-109 -324.89)"/><path class="cls-1" d="M340.59,421.62c-.06,1.06-.07,1.88-.16,2.68a33.6,33.6,0,0,1-.76,5.79,119.38,119.38,0,0,1-4.1,12.09,22.57,22.57,0,0,1-3.72,5.46,2.09,2.09,0,0,1-3.65-.68,22.41,22.41,0,0,1-1-3.89c-.06-.32.27-.71.4-1.08.34-.91.6-1.86,1-2.74.73-1.64,1.55-3.25,2.33-4.88a11,11,0,0,1,.69-1.37c.1-.15.54-.09.62-.24.35-.62.62-1.27.92-1.92.12-.26.15-.65.35-.76a3.94,3.94,0,0,0,1.56-1.67c.52-.92,1.56-1.52,2.25-2.37C338.41,424.7,339.38,423.28,340.59,421.62Z" transform="translate(-109 -324.89)"/><path class="cls-1" d="M351.13,406.74l-.25-.49a2.75,2.75,0,0,0,.48-.15c1.13-.57,1.33-.45,1.7.78a6.57,6.57,0,0,0,.91,1.37l-1.16,4.43a5.36,5.36,0,0,1-1.45-.33c-.62-.34-1.66-.44-1-1.7.41-.74-.54-1.69,0-2.56C350.67,407.71,350.85,407.29,351.13,406.74Z" transform="translate(-109 -324.89)"/><path class="cls-1" d="M266.13,407.42c1.13-2.56,2.21-5,3.34-7.55a5.87,5.87,0,0,1,1.07,1.27c.73,1.69,1.59,3.45,1,5.31a10.33,10.33,0,0,1-2,3.47c-.94,1.12-2.87-.23-3.31-1.73A6.64,6.64,0,0,1,266.13,407.42Z" transform="translate(-109 -324.89)"/><path class="cls-1" d="M302.41,401.5c-.93-1.13-.6-2.45-.55-3.71.09-2.56.34-5.11.34-7.66,0-1.52.87-5.78,1.92-7.27.14.88.21,1.54.36,2.19a18.58,18.58,0,0,0,.9,3.58,2.72,2.72,0,0,1-.36,2.68,2.9,2.9,0,0,0-.23,1.32,23.34,23.34,0,0,1,.09,3,22.36,22.36,0,0,1-.81,2.69,4.75,4.75,0,0,0,0,1.3c-1-.12-.47,1.09-1.16,1.27C302.72,401,302.58,401.29,302.41,401.5Z" transform="translate(-109 -324.89)"/><path class="cls-1" d="M293.7,405.73a4.75,4.75,0,0,0,1-.39c.82-.6,1.41-.42,1.93.43.32.51.92.84,1.34,1.31a4.9,4.9,0,0,1,.94,1.38c.07.16-.39.54-.61.82l-.54.69c-.12.15-.27.46-.34.45-1.2-.32-1.77.74-2.63,1.17-.67.33-2.21-.9-2.07-1.72s.44-1.31.6-2S293.59,406.36,293.7,405.73Z" transform="translate(-109 -324.89)"/><path class="cls-1" d="M244,353.94c-.73,0-.5-.49-.63-.92-.49-1.74.45-3,1.41-4.18.3-.37,1.43-.06,2.36,0-1.66.7.14,1.07.07,1.66l.43-1.18c.46.17,1.08.18.74,1.17-.11.31.44.86.72,1.28s.68.66.62.87a4.35,4.35,0,0,1-.93,2,8.24,8.24,0,0,1-2.73,1.81c-.52.19-1.34-.32-2-.64-.12-.06.07-.68.06-1a5.12,5.12,0,0,0-.2-.84l2-1-.75-.81Z" transform="translate(-109 -324.89)"/><path d="M244,353.94l1.23-1.82.75.81-2,1Z" transform="translate(-109 -324.89)"/></svg>