<svg id="Layer_1" data-name="Layer 1" xmlns="http://www.w3.org/2000/svg" viewBox="0 0 412.8 569.28"><defs><style>.cls-1{fill:#fff;}</style></defs><path class="cls-1" d="M503.8,627.65v77.52H91V135.89H503.8V626.21a4.27,4.27,0,0,1-.18-.68,13,13,0,0,0-4.76-8.46,24.5,24.5,0,0,0-11.17-5.46,62.34,62.34,0,0,1-13.33-4.05c-6.68-3.1-12.54-7.1-16.67-13.38a49.54,49.54,0,0,0-8.26-9.29c-5.85-5.31-10.41-11.58-12.69-19.25a66.23,66.23,0,0,0-7.52-16.48c-3.3-5.23-6.9-10.28-10.09-15.57a487.9,487.9,0,0,1-24.05-45.44c-7.67-16.4-15.16-32.88-23.81-48.79-8-14.71-16.09-29.37-24.08-44.09-4.88-9-7.63-18.54-6.84-28.91a13.85,13.85,0,0,1,3.73-9.06,97.41,97.41,0,0,1,20.29-16.15c13-7.83,25.57-16.31,37.91-25.13a210.38,210.38,0,0,1,28.83-17.73,34.21,34.21,0,0,1,11.44-3.66,20.38,20.38,0,0,1,12.54,2.7,16.84,16.84,0,0,0,7.16,2.48c4.66.32,8.56-1.5,12.16-4.22a14,14,0,0,0,5.86-11.86,26.89,26.89,0,0,0-2-9.17c-2.7-7.32-5.44-14.63-7.95-22a21.06,21.06,0,0,1-.82-6.35c-.06-3.35,1.11-6.49,2.28-9.59,2.38-6.28,5.31-12.4,6-19.21.36-3.6.9-7.21,1-10.82s-1.38-5.43-5-5.92a34.77,34.77,0,0,0-6.92-.08c-5.54.36-11.06,1-16.59,1.25a50.37,50.37,0,0,1-24.4-4.79c-2.22-1.09-4.3-2.46-6.48-3.61-2.54-1.35-5.15-1.4-7.42.45-3.38,2.74-6.71,5.56-9.86,8.56-5.35,5.1-8.2,11.3-7.78,18.84a18.57,18.57,0,0,1-.32,3.93c-1.19,7.36-5.15,13-11.14,17.2q-14.78,10.35-29.73,20.41a154.42,154.42,0,0,1-23.21,13.35c-9.75,4.33-19.85,6.41-30.53,4.44-4.9-.91-9.3-2.89-12.21-7.1-5.06-7.35-10.09-14.76-13.76-23q-10.92-24.37-21.81-48.77a25,25,0,0,1-.23-20.64,87.67,87.67,0,0,0,6.27-21.88,8,8,0,0,0-3.93-8.47,18.14,18.14,0,0,0-4.36-1.9c-6.2-1.75-12.49-1.16-18.79-.67-2.72.21-5.6.57-8.19,0a27.48,27.48,0,0,0-12.3-.16,33.38,33.38,0,0,1-11.53.7c-5.78-.78-10.35-3.65-14.17-8a13.3,13.3,0,0,0-10-4.65,21,21,0,0,0-11,2.83c-3.91,2.23-7.56,4.9-11.34,7.35a1.49,1.49,0,0,0-.8,1.54c.36,4.9.61,9.81,1,14.7a38.38,38.38,0,0,1-6.4,25c-3.88,5.9-8.64,11.09-13.25,16.4-2.77,3.18-5.84,6.14-7.86,9.94a1.35,1.35,0,0,0,0,1.61c1,1.53,1.9,3.15,3,4.65,4,5.71,9.23,9.68,16.24,10.92,1.92.34,3.91.35,5.81.75a24,24,0,0,1,11.72,6.42c4.85,4.63,9.53,9.45,14.26,14.22a19.91,19.91,0,0,1,4.18,5.18,339,339,0,0,1,17.52,44.53c2.09,6.52,4.28,13,6.16,19.59,1.67,5.83.14,10.89-4.56,14.85a36.48,36.48,0,0,1-3.51,2.71c-16.56,10.9-32.4,22.8-48.34,34.55-5.73,4.22-12,6.79-19.13,6.84a40.86,40.86,0,0,1-12.91-2.22c-4.7-1.52-9.28-1.42-13.63,1.11a27.5,27.5,0,0,0-8.79,8.35,7.36,7.36,0,0,0-1.44,5.77,15.74,15.74,0,0,0,1.82,4.62,23.62,23.62,0,0,1,2.93,18.82q-2.4,9.24-4.41,18.58A15.28,15.28,0,0,0,95,449.27a2.73,2.73,0,0,0,2.22,1.08c5.47.17,10.93.38,16.39.7a10.69,10.69,0,0,1,6.35,2.18,102.2,102.2,0,0,1,16.34,16.66,83.8,83.8,0,0,0,6,7.56c4.57,4.7,9.9,5.05,15.19,1.21a37.67,37.67,0,0,0,12.37-15.87,94.69,94.69,0,0,1,8.4-15.42,120.3,120.3,0,0,1,26.56-27.8c8.25-6.36,16.85-12.26,25.43-18.17a31.69,31.69,0,0,1,20.33-5.83c5.11.33,9.46,2.18,12.53,6.46,5.17,7.2,10.45,14.32,15.44,21.65a244.55,244.55,0,0,1,24.75,45.66c2.92,7.2,5.56,14.51,8.68,21.62,5,11.46,10.65,22.64,16.55,33.68,5,9.43,8.66,19.5,12.54,29.44,4,10.25,8.19,20.41,13.67,30,3.48,6.09,7.11,12.13,10.1,18.47,4.85,10.25,9.29,20.71,13.8,31.12a61,61,0,0,1,5.14,22c.14,3.63,0,7.27,0,10.9,0,6.07-.05,12.14,0,18.21a1.68,1.68,0,0,0,.64,1.22,18.19,18.19,0,0,0,11.4,3.32c3.37-.26,6.72-.86,10.08-1.21a37.86,37.86,0,0,1,29.49,8.95,71.41,71.41,0,0,0,7.72,5.84,11.91,11.91,0,0,0,13.25.15,58.63,58.63,0,0,0,7.51-5.51c3.87-3.31,7.35-7,9.54-11.71,5.13-11.06,9.87-22.28,14.06-33.73,1.85-5,4.51-9.57,8.89-12.81C500.37,636.33,503.21,632.73,503.8,627.65Z" transform="translate(-91 -135.89)"/><path d="M503.8,627.65c-.59,5.08-3.43,8.68-7.42,11.63-4.38,3.24-7,7.77-8.89,12.81-4.19,11.45-8.93,22.67-14.06,33.73-2.19,4.72-5.67,8.4-9.54,11.71a58.63,58.63,0,0,1-7.51,5.51,11.91,11.91,0,0,1-13.25-.15,71.41,71.41,0,0,1-7.72-5.84,37.86,37.86,0,0,0-29.49-8.95c-3.36.35-6.71.95-10.08,1.21a18.19,18.19,0,0,1-11.4-3.32,1.68,1.68,0,0,1-.64-1.22c0-6.07,0-12.14,0-18.21,0-3.63.12-7.27,0-10.9a61,61,0,0,0-5.14-22c-4.51-10.41-9-20.87-13.8-31.12-3-6.34-6.62-12.38-10.1-18.47-5.48-9.59-9.67-19.75-13.67-30-3.88-9.94-7.5-20-12.54-29.44C322.65,513.6,317,502.42,312,491c-3.12-7.11-5.76-14.42-8.68-21.62a244.55,244.55,0,0,0-24.75-45.66c-5-7.33-10.27-14.45-15.44-21.65-3.07-4.28-7.42-6.13-12.53-6.46a31.69,31.69,0,0,0-20.33,5.83c-8.58,5.91-17.18,11.81-25.43,18.17a120.3,120.3,0,0,0-26.56,27.8,94.69,94.69,0,0,0-8.4,15.42,37.67,37.67,0,0,1-12.37,15.87c-5.29,3.84-10.62,3.49-15.19-1.21a83.8,83.8,0,0,1-6-7.56,102.2,102.2,0,0,0-16.34-16.66,10.69,10.69,0,0,0-6.35-2.18c-5.46-.32-10.92-.53-16.39-.7A2.73,2.73,0,0,1,95,449.27a15.28,15.28,0,0,1-3.33-13.56q2-9.33,4.41-18.58a23.62,23.62,0,0,0-2.93-18.82,15.74,15.74,0,0,1-1.82-4.62,7.36,7.36,0,0,1,1.44-5.77,27.5,27.5,0,0,1,8.79-8.35c4.35-2.53,8.93-2.63,13.63-1.11a40.86,40.86,0,0,0,12.91,2.22c7.16-.05,13.4-2.62,19.13-6.84,15.94-11.75,31.78-23.65,48.34-34.55a36.48,36.48,0,0,0,3.51-2.71c4.7-4,6.23-9,4.56-14.85-1.88-6.58-4.07-13.07-6.16-19.59a339,339,0,0,0-17.52-44.53,19.91,19.91,0,0,0-4.18-5.18c-4.73-4.77-9.41-9.59-14.26-14.22a24,24,0,0,0-11.72-6.42c-1.9-.4-3.89-.41-5.81-.75-7-1.24-12.22-5.21-16.24-10.92-1-1.5-1.94-3.12-3-4.65a1.35,1.35,0,0,1,0-1.61c2-3.8,5.09-6.76,7.86-9.94,4.61-5.31,9.37-10.5,13.25-16.4a38.38,38.38,0,0,0,6.4-25c-.41-4.89-.66-9.8-1-14.7a1.49,1.49,0,0,1,.8-1.54c3.78-2.45,7.43-5.12,11.34-7.35a21,21,0,0,1,11-2.83,13.3,13.3,0,0,1,10,4.65c3.82,4.31,8.39,7.18,14.17,8a33.38,33.38,0,0,0,11.53-.7,27.48,27.48,0,0,1,12.3.16c2.59.61,5.47.25,8.19,0,6.3-.49,12.59-1.08,18.79.67a18.14,18.14,0,0,1,4.36,1.9,8,8,0,0,1,3.93,8.47,87.67,87.67,0,0,1-6.27,21.88,25,25,0,0,0,.23,20.64q10.91,24.39,21.81,48.77c3.67,8.2,8.7,15.61,13.76,23,2.91,4.21,7.31,6.19,12.21,7.1,10.68,2,20.78-.11,30.53-4.44a154.42,154.42,0,0,0,23.21-13.35q15-10,29.73-20.41c6-4.19,9.95-9.84,11.14-17.2a18.57,18.57,0,0,0,.32-3.93c-.42-7.54,2.43-13.74,7.78-18.84,3.15-3,6.48-5.82,9.86-8.56,2.27-1.85,4.88-1.8,7.42-.45,2.18,1.15,4.26,2.52,6.48,3.61a50.37,50.37,0,0,0,24.4,4.79c5.53-.2,11.05-.89,16.59-1.25a34.77,34.77,0,0,1,6.92.08c3.63.49,5.13,2.23,5,5.92s-.66,7.22-1,10.82c-.69,6.81-3.62,12.93-6,19.21-1.17,3.1-2.34,6.24-2.28,9.59a21.06,21.06,0,0,0,.82,6.35c2.51,7.38,5.25,14.69,7.95,22a26.89,26.89,0,0,1,2,9.17,14,14,0,0,1-5.86,11.86c-3.6,2.72-7.5,4.54-12.16,4.22a16.84,16.84,0,0,1-7.16-2.48,20.38,20.38,0,0,0-12.54-2.7,34.21,34.21,0,0,0-11.44,3.66A210.38,210.38,0,0,0,402.28,316c-12.34,8.82-24.9,17.3-37.91,25.13a97.41,97.41,0,0,0-20.29,16.15,13.85,13.85,0,0,0-3.73,9.06c-.79,10.37,2,19.91,6.84,28.91,8,14.72,16.08,29.38,24.08,44.09,8.65,15.91,16.14,32.39,23.81,48.79a487.9,487.9,0,0,0,24.05,45.44c3.19,5.29,6.79,10.34,10.09,15.57a66.23,66.23,0,0,1,7.52,16.48c2.28,7.67,6.84,13.94,12.69,19.25a49.54,49.54,0,0,1,8.26,9.29c4.13,6.28,10,10.28,16.67,13.38a62.34,62.34,0,0,0,13.33,4.05,24.5,24.5,0,0,1,11.17,5.46,13,13,0,0,1,4.76,8.46,4.27,4.27,0,0,0,.18.68ZM254.42,387.3c.58.26,1,.46,1.38.61,2.62,1,5.25,1.87,7.85,2.88a12,12,0,0,1,5.59,3.77c6.24,8.4,12.61,16.71,18.64,25.27,6.84,9.73,13.14,19.81,17.87,30.79,3.5,8.12,6.82,16.33,10.55,24.34,9,19.3,18.42,38.37,27.13,57.78,10,22.22,20.51,44.16,31.36,66,2.09,4.2,4.75,8.11,7.18,12.14s4.61,8.38,5.35,13.21a18.49,18.49,0,0,0,1.14,5.23,74.67,74.67,0,0,1,4.41,12.6,78.13,78.13,0,0,1,1.64,11.23,47.9,47.9,0,0,1-.33,14.44c-.43,2.1-1,4.18-1.37,6.29a5.41,5.41,0,0,0,4.75,6.56c2.12.32,4.28.42,6.43.53a5,5,0,0,0,3.61-1.33A10.62,10.62,0,0,1,418,677.05c4.81,1.4,9.59,3,14.23,4.82s8.23,5,12.13,7.86c2.77,2,5.42,4.23,8.72,5.39,3.65,1.3,6.71.66,9.2-2.27a21,21,0,0,0,3.15-4.91c1.89-4.21,3.55-8.53,5.31-12.8,2.72-6.58,5.36-13.21,8.19-19.75,3.15-7.28,7.27-13.93,13.36-19.2a5.67,5.67,0,0,0,1.31-2.1,2,2,0,0,0,0-1.5c-1.68-3.26-3.42-6.49-5.17-9.72a1.44,1.44,0,0,0-.82-.73c-2.52-.33-5.05-.64-7.58-.85-1.71-.15-3.45,0-5.15-.23-6.4-.8-11.92-3.64-16.94-7.55a99.73,99.73,0,0,1-24.52-27.66q-11.25-18.79-22-37.88a578.11,578.11,0,0,1-30.79-62.1c-4.12-9.89-8.67-19.61-13.4-29.23-3.55-7.23-7.73-14.14-11.54-21.24-3.07-5.72-5.91-11.57-9.05-17.25-2.39-4.33-5.2-8.42-7.62-12.73A27.94,27.94,0,0,1,335,389.74a1.92,1.92,0,0,0-.6-1.19,10.43,10.43,0,0,1-3.18-5.91c-.35-2.92-.35-5.88-.48-8.82-.11-2.41-.2-4.83-.31-7.47l-8.92,3.75-1.22-1.59a48.38,48.38,0,0,1,4.77-5.06c3.93-3.14,8-6.16,12.1-9q26-17.86,52.17-35.57c15.29-10.38,30.85-20.34,47.38-28.7A31.36,31.36,0,0,1,450,286.56a34.93,34.93,0,0,1,12.65,2.11c3.11,1.08,6.22,2.13,9.48,3.25-.19-1-.33-1.73-.49-2.5a22.7,22.7,0,0,0-2.12-6.79,56.81,56.81,0,0,1-3.58-7.81c-2.16-5.81-3.11-11.93-4.39-18-1-4.43-1.36-8.85-.18-13.27a29.23,29.23,0,0,1,2.17-6.18c3.15-6,4.54-12.55,5.72-19.15.14-.78.35-1.56.43-2.35.43-3.79-1.82-6.44-5.67-6.56-2.88-.1-5.76-.06-8.64,0-5.44.06-10.87.15-16.31.23a20.87,20.87,0,0,1-7.12-.63l-20.16-6.71c-2-.66-2-.71-2.91,1.21a77.78,77.78,0,0,0-3.56,8.44c-.73,2.29-.71,4.81-1.27,7.17-2.5,10.51-8.55,18.7-17.22,24.85-12.9,9.14-26,18-39.07,26.9-8.47,5.76-17.35,10.77-27.09,14.08-8.76,3-17.71,4.83-27,3.65-5-.63-9.64-2.37-13-6.22a116.34,116.34,0,0,1-8.48-11.14c-5.32-7.82-9.19-16.41-12.86-25.09-6.06-14.3-11.87-28.72-18.09-43a21.76,21.76,0,0,1-.29-17.72c1.71-4.21,3.52-8.38,5.2-12.59A34.76,34.76,0,0,0,248.77,162c.23-4-1.12-6.83-5.26-8a8.62,8.62,0,0,0-1.86-.42c-3.75-.19-7.5-.4-11.25-.47Q221.72,153,213,153c-6.51,0-13,.28-19.52.1a27.87,27.87,0,0,1-16.48-6c-1.93-1.48-3.79-3.07-5.83-4.39a6.26,6.26,0,0,0-7.8.37c-1.62,1.28-3,2.84-4.55,4.24a2,2,0,0,0-.54,2.14,51.93,51.93,0,0,1,.76,20.1,55.59,55.59,0,0,1-9.9,23.22,100.85,100.85,0,0,1-14.72,16.38,1.22,1.22,0,0,0-.36,1.72c1.12,2.12,2,4.34,3.27,6.38,3.67,6.07,9.07,9.46,16.2,9.74a15.39,15.39,0,0,1,7.38,2.13,82.16,82.16,0,0,1,13,9.8,66.71,66.71,0,0,1,17.5,23.86q10,23.81,19.71,47.71c3.08,7.56,2.53,14.91-2.17,21.76a34.54,34.54,0,0,1-9.16,8.88c-13.84,9.45-27.12,19.62-40.36,29.87a113.16,113.16,0,0,1-20.83,13.35,41.61,41.61,0,0,1-14.75,4.19,31.78,31.78,0,0,1-16.26-3.18c-3.75-1.8-6.12-1-8.22,2.6-.14.24-.25.5-.41.73a1.89,1.89,0,0,0,.12,2.44,30.82,30.82,0,0,1,5.63,18.45,41.75,41.75,0,0,1-3.26,14.5c-1.34,3.36-2.78,6.69-3.13,10.36-.33,3.45,1,6,4.29,7.17a29.47,29.47,0,0,0,4.86,1.19c4.07.76,8.22,1.17,12.21,2.23,11.49,3,20,9.79,25,20.78.67,1.48,1.19,3,1.79,4.55a5.11,5.11,0,0,0,5.29,3.66,10.07,10.07,0,0,0,9.85-6.12c1.38-2.86,2.55-5.83,3.85-8.74,3.43-7.71,7.53-15,13.51-21.06,4.21-4.25,8.72-8.22,13.15-12.26a359.16,359.16,0,0,1,29.79-24.72c8.57-6.26,17.59-11.75,27.76-15a5.72,5.72,0,0,0,3.61-3.47l-6.5-5.46c2.31-.92,4.36-1.78,6.44-2.54a3.12,3.12,0,0,1,3.89,1.29c.91,1.35,1.6,2.85,2.45,4.23a1.17,1.17,0,0,1-.22,1.65C257.69,383.61,256.11,385.4,254.42,387.3Z" transform="translate(-91 -135.89)"/><path class="cls-1" d="M254.42,387.3c1.69-1.9,3.27-3.69,4.89-5.46a1.17,1.17,0,0,0,.22-1.65c-.85-1.38-1.54-2.88-2.45-4.23a3.12,3.12,0,0,0-3.89-1.29c-2.08.76-4.13,1.62-6.44,2.54l6.5,5.46a5.72,5.72,0,0,1-3.61,3.47c-10.17,3.28-19.19,8.77-27.76,15a359.16,359.16,0,0,0-29.79,24.72c-4.43,4-8.94,8-13.15,12.26-6,6-10.08,13.35-13.51,21.06-1.3,2.91-2.47,5.88-3.85,8.74a10.07,10.07,0,0,1-9.85,6.12,5.11,5.11,0,0,1-5.29-3.66c-.6-1.52-1.12-3.07-1.79-4.55-4.93-11-13.46-17.74-25-20.78-4-1.06-8.14-1.47-12.21-2.23a29.47,29.47,0,0,1-4.86-1.19c-3.24-1.2-4.62-3.72-4.29-7.17.35-3.67,1.79-7,3.13-10.36a41.75,41.75,0,0,0,3.26-14.5,30.82,30.82,0,0,0-5.63-18.45,1.89,1.89,0,0,1-.12-2.44c.16-.23.27-.49.41-.73,2.1-3.6,4.47-4.4,8.22-2.6a31.78,31.78,0,0,0,16.26,3.18,41.61,41.61,0,0,0,14.75-4.19,113.16,113.16,0,0,0,20.83-13.35c13.24-10.25,26.52-20.42,40.36-29.87A34.54,34.54,0,0,0,209,332.3c4.7-6.85,5.25-14.2,2.17-21.76q-9.73-23.91-19.71-47.71A66.71,66.71,0,0,0,173.93,239a82.16,82.16,0,0,0-13-9.8,15.39,15.39,0,0,0-7.38-2.13c-7.13-.28-12.53-3.67-16.2-9.74-1.23-2-2.15-4.26-3.27-6.38a1.22,1.22,0,0,1,.36-1.72,100.85,100.85,0,0,0,14.72-16.38,55.59,55.59,0,0,0,9.9-23.22,51.93,51.93,0,0,0-.76-20.1,2,2,0,0,1,.54-2.14c1.53-1.4,2.93-3,4.55-4.24a6.26,6.26,0,0,1,7.8-.37c2,1.32,3.9,2.91,5.83,4.39a27.87,27.87,0,0,0,16.48,6c6.5.18,13-.09,19.52-.1q8.7,0,17.38.14c3.75.07,7.5.28,11.25.47a8.62,8.62,0,0,1,1.86.42c4.14,1.14,5.49,4,5.26,8a34.76,34.76,0,0,1-2.66,10.75c-1.68,4.21-3.49,8.38-5.2,12.59a21.76,21.76,0,0,0,.29,17.72c6.22,14.24,12,28.66,18.09,43,3.67,8.68,7.54,17.27,12.86,25.09a116.34,116.34,0,0,0,8.48,11.14c3.36,3.85,8,5.59,13,6.22,9.32,1.18,18.27-.67,27-3.65,9.74-3.31,18.62-8.32,27.09-14.08,13.08-8.89,26.17-17.76,39.07-26.9,8.67-6.15,14.72-14.34,17.22-24.85.56-2.36.54-4.88,1.27-7.17a77.78,77.78,0,0,1,3.56-8.44c.86-1.92.92-1.87,2.91-1.21l20.16,6.71a20.87,20.87,0,0,0,7.12.63c5.44-.08,10.87-.17,16.31-.23,2.88,0,5.76-.07,8.64,0,3.85.12,6.1,2.77,5.67,6.56-.08.79-.29,1.57-.43,2.35-1.18,6.6-2.57,13.12-5.72,19.15a29.23,29.23,0,0,0-2.17,6.18c-1.18,4.42-.77,8.84.18,13.27,1.28,6,2.23,12.15,4.39,18a56.81,56.81,0,0,0,3.58,7.81,22.7,22.7,0,0,1,2.12,6.79c.16.77.3,1.54.49,2.5-3.26-1.12-6.37-2.17-9.48-3.25A34.93,34.93,0,0,0,450,286.56a31.36,31.36,0,0,0-13.27,3.62c-16.53,8.36-32.09,18.32-47.38,28.7q-26.13,17.73-52.17,35.57c-4.14,2.84-8.17,5.86-12.1,9a48.38,48.38,0,0,0-4.77,5.06l1.22,1.59,8.92-3.75c.11,2.64.2,5.06.31,7.47.13,2.94.13,5.9.48,8.82a10.43,10.43,0,0,0,3.18,5.91,1.92,1.92,0,0,1,.6,1.19A27.94,27.94,0,0,0,339,405.42c2.42,4.31,5.23,8.4,7.62,12.73,3.14,5.68,6,11.53,9.05,17.25,3.81,7.1,8,14,11.54,21.24,4.73,9.62,9.28,19.34,13.4,29.23A578.11,578.11,0,0,0,411.36,548q10.78,19,22,37.88a99.73,99.73,0,0,0,24.52,27.66c5,3.91,10.54,6.75,16.94,7.55,1.7.21,3.44.08,5.15.23,2.53.21,5.06.52,7.58.85a1.44,1.44,0,0,1,.82.73c1.75,3.23,3.49,6.46,5.17,9.72a2,2,0,0,1,0,1.5,5.67,5.67,0,0,1-1.31,2.1c-6.09,5.27-10.21,11.92-13.36,19.2-2.83,6.54-5.47,13.17-8.19,19.75-1.76,4.27-3.42,8.59-5.31,12.8a21,21,0,0,1-3.15,4.91c-2.49,2.93-5.55,3.57-9.2,2.27-3.3-1.16-5.95-3.37-8.72-5.39-3.9-2.85-7.61-6.06-12.13-7.86s-9.42-3.42-14.23-4.82a10.62,10.62,0,0,0-10.35,2.55,5,5,0,0,1-3.61,1.33c-2.15-.11-4.31-.21-6.43-.53a5.41,5.41,0,0,1-4.75-6.56c.35-2.11.94-4.19,1.37-6.29a47.9,47.9,0,0,0,.33-14.44,78.13,78.13,0,0,0-1.64-11.23,74.67,74.67,0,0,0-4.41-12.6,18.49,18.49,0,0,1-1.14-5.23c-.74-4.83-2.86-9.09-5.35-13.21s-5.09-7.94-7.18-12.14c-10.85-21.8-21.39-43.74-31.36-66-8.71-19.41-18.16-38.48-27.13-57.78-3.73-8-7.05-16.22-10.55-24.34-4.73-11-11-21.06-17.87-30.79-6-8.56-12.4-16.87-18.64-25.27a12,12,0,0,0-5.59-3.77c-2.6-1-5.23-1.92-7.85-2.88C255.39,387.76,255,387.56,254.42,387.3Zm41.28,16.4c.4.66.76,1.22,1.1,1.8,2.12,3.6,4.57,7.06,6.3,10.84,3.13,6.84,5.89,13.85,8.71,20.83,6.81,16.85,14,33.53,22,49.85,6.26,12.78,12.56,25.54,18.54,38.44C362.79,548,373,570.69,383.38,593.28c5.16,11.22,10.37,22.41,14,34.24a124.33,124.33,0,0,1,4.93,23.22c.35,3.1,1.21,6.13,1.83,9.2l.51.22c2.1-1.18,4.26-2.26,6.27-3.58a5.4,5.4,0,0,0,2.31-4.17,15.46,15.46,0,0,0,0-4.19c-1.35-7.2-2.69-14.4-4.27-21.56-1.13-5.16-2.72-10.23-3.91-15.38a32.33,32.33,0,0,0-4.67-11.42,33,33,0,0,1-3.19-6.13c-1.36-3.27-2.26-6.74-3.75-9.94-2.5-5.34-5.28-10.55-8-15.78-4-7.64-7.86-15.33-12-22.85a109.16,109.16,0,0,1-9-19.64,33.25,33.25,0,0,0-4.68-9.64A34.64,34.64,0,0,1,356,510c-2.48-5.42-4.78-10.94-7-16.47-2.35-5.82-4.78-11.59-8.78-16.5a25.77,25.77,0,0,1-4.19-7.61c-1-2.81-1.83-5.7-3-8.42q-12.11-27.32-24.37-54.56a22,22,0,0,0-2.24-3.8,4.07,4.07,0,0,0-4-1.64C299.94,401.34,297.9,402.58,295.7,403.7Zm94.52,140.24c.07-.38.16-.84.23-1.31.47-3.06.57-6-1.54-8.67a4.34,4.34,0,0,1-.65-2.49,22,22,0,0,0-1.85-9.08c-1.69-3.6-3.6-7.1-5.52-10.59-3.57-6.5-7.05-13.06-10.88-19.4a197.71,197.71,0,0,1-17.12-35.2c-2.76-7.63-5.75-15.22-9.25-22.53-5.84-12.16-11.07-24.45-13-37.93-.44-3.12-2.38-5-4.81-4.69a17.29,17.29,0,0,0-5.12,1.48c-2.16,1-2.8,3-2.32,5.34s.94,5.09,1.29,7.65c.5,3.72,1.68,7,5.32,8.81a2.43,2.43,0,0,1,.9,1.54c.26,1.21.29,2.46.53,3.67.66,3.39,1.08,6.83,2.49,10.06,3.71,8.47,7.32,17,11,25.47a438.36,438.36,0,0,0,19.44,40.11c2.59,4.67,5.47,9.23,7.52,14.14a135.54,135.54,0,0,0,19,32.12C387.09,543.91,388.17,544.85,390.22,543.94ZM284.3,303.36l-1.7.54c-8.84,2.79-17.75,5.38-26.5,8.42s-14.1,9.22-15.62,18.46a51.35,51.35,0,0,0,.07,15.75c1.31,8.84,5.75,15.51,13.89,19.51a46.88,46.88,0,0,0,28.64,4.13q21.06-3.36,29.25-23.07c1.27-3,1.7-6.13.24-9.16-2.5-5.13-3.31-10.7-4.59-16.16-.57-2.41-.46-2.44,1.87-3.27l5.95-2.15c-.76-1.46-1.36-2.81-2.13-4.05a3.5,3.5,0,0,0-4.35-1.64,7.27,7.27,0,0,0-2.45,1.62c-1,.94-1.9,2-2.91,3.13a21.76,21.76,0,0,1-2.07-1.86c-1.24-1.45-2.4-3-3.61-4.47a7.22,7.22,0,0,0-4.88-3,20.79,20.79,0,0,0-3,.11,15.09,15.09,0,0,0,6.06-8.61c-2.87-.39-5.69-.9-8.53-1.12-1.66-.13-2.6.72-3,2.37C284.6,300.31,284.51,301.79,284.3,303.36ZM227.54,173.8a8.23,8.23,0,0,0-7.64,3.85c-6.1,9-8.2,18.81-5.31,29.29,3.29,12,7,23.81,10.74,35.66,1.95,6.22,3.94,12.5,7.2,18.18,3.85,6.71,8,13.26,12.09,19.83a5.2,5.2,0,0,0,5.27,2.4c2.93-.28,5.45-2.18,5.57-4.65a7.9,7.9,0,0,0-1-4c-1.65-3-3.46-5.94-5.36-8.79-4.94-7.43-9.33-15.14-12.07-23.69-1.5-4.7-2.73-9.48-4.33-14.14-1.52-4.44-3.56-8.71-5-13.16A57.92,57.92,0,0,1,225.86,183C226.54,180,227,177,227.54,173.8ZM156.6,213.54a50.29,50.29,0,0,1,17.15,12,169.71,169.71,0,0,1,18.74,24.39c6.56,10.29,11.52,21.4,16.32,32.58a175.24,175.24,0,0,0,10.3,21.17,6.11,6.11,0,0,0,4.79,2.94,2.08,2.08,0,0,0,1.45-.34c1.92-1.52,3.49-3.43,3.12-6a22.37,22.37,0,0,0-2-6.2c-3-6.23-6.17-12.36-9.23-18.56-4.15-8.39-8.2-16.83-12.39-25.2a110.79,110.79,0,0,0-15.78-23.64,175,175,0,0,0-13.24-13.85C169.81,207.32,162.6,208.52,156.6,213.54Zm293.71,49.89a33.39,33.39,0,0,0-14-.92c-3.84.62-7.28,2.24-10.73,3.9-11.05,5.36-22.06,10.77-32.47,17.34-6.1,3.85-12.17,7.77-18.9,10.48a88.81,88.81,0,0,0-17.29,9.41,203.54,203.54,0,0,0-18.59,14.91l-8.13,7.1c.94,1.18,1.75,2.37,2.72,3.41,2,2.11,4,2.41,6.58,1a32,32,0,0,0,2.91-1.88,97.06,97.06,0,0,0,13.26-10.41,110.18,110.18,0,0,1,10.85-9.41c8-6,17.11-10.32,26.18-14.56,6.56-3.07,13.15-6,19.14-10.26A111.06,111.06,0,0,1,446,266.69,6.57,6.57,0,0,0,450.31,263.43Zm18,378.28-.27-.35c-11-2.4-19.87-8.23-27-16.81a94.44,94.44,0,0,1-10.3-15.12c-4.8-8.77-10.85-16.83-14.65-26.16a16.73,16.73,0,0,0-1.42-2.76c-.82-1.3-1.75-2.53-2.76-4-2.17,1.52-4.2,2.84-6.11,4.32a3.67,3.67,0,0,0-1.31,3.57,28.12,28.12,0,0,0,3.26,9.81c5.81,10.13,11.69,20.23,17.37,30.43a52.44,52.44,0,0,0,14.48,16.85,56.59,56.59,0,0,0,15,8.27c2.62.92,5.24.78,7.31-1.17C464.23,646.47,466.23,644,468.35,641.71ZM315.61,304.81a35.75,35.75,0,0,0,4.77,2.61c2.5.94,4.84-.14,7.1-1.2,8-3.74,15.92-7.51,23.91-11.21,8.88-4.13,17.9-8,26.67-12.32a79.38,79.38,0,0,0,25.5-20.12c8-9.47,13.11-20.5,17.3-32a1.06,1.06,0,0,0,0-.86,4.17,4.17,0,0,0-7.23.5c-.88,1.7-1.66,3.44-2.51,5.16a92.19,92.19,0,0,1-19,26.24,94.16,94.16,0,0,1-24.72,16.88c-12.62,6-25.32,11.85-38,17.75C324.56,298.48,319.47,300.31,315.61,304.81ZM143.06,454.42c1.33-.06,2.57,0,3.78-.18,2.85-.44,4.59-2.38,6.06-4.67,3.15-4.9,6.11-9.94,9.54-14.64a172,172,0,0,1,27.79-29.35,77,77,0,0,1,24.16-14.33,22,22,0,0,0,6.84-4.49,1.2,1.2,0,0,0,.13-1c-.14-.43-.47-1.14-.74-1.14-2.26-.06-4.65-.45-6.75.15a141.39,141.39,0,0,0-14.08,4.92c-7.64,3.07-14.58,7.3-19.79,13.84a77.59,77.59,0,0,1-8.75,9,119.84,119.84,0,0,0-8.69,8.77c-6,6.73-10.75,14.36-15.67,21.89C144.64,446.61,144,450.43,143.06,454.42ZM202,362c-2.82.78-5.48,1.33-8,2.27a15.26,15.26,0,0,0-4.42,2.71c-2.33,2-4.36,4.35-6.69,6.35-8,6.89-16.75,12.81-25.43,18.79a60.33,60.33,0,0,1-24,10.06c-4.39.76-8.84,1.24-13.26,1.85-2.67.37-5.18,1.08-7.21,3.15a26.34,26.34,0,0,0,8.87,1.85,51.83,51.83,0,0,0,18.05-2.51,125.11,125.11,0,0,0,53.31-33.1A60.23,60.23,0,0,0,202,362Zm41.86-50.9c2.62-1.52,5.22-3,7.74-4.53a2.65,2.65,0,0,0,1.19-1.75,44.66,44.66,0,0,0-.34-4.91c-1.06-.06-1.91-.05-2.73-.18a3,3,0,0,0-3.31,1.53c-1.47,2.54-3,5.07-4.47,7.62Zm81.36,24.17c-2.26-.61-4.26-1-6.27-.32s-3.61,3.24-2.92,4.74a4.11,4.11,0,0,0,3.77,2.67,3.71,3.71,0,0,0,3.92-2.34C324.3,338.48,324.67,336.89,325.18,335.22Zm-50.1-37.44c-5.66-1.22-9.9,1.12-13.31,5.12C266.49,305,271.44,303.12,275.08,297.78Zm-42.76,57.48c-2.67,0-3.2.28-4.08,1.92-.45.84-.8,1.72,0,2.54s1.75,2.07,3.21,1.53c2.2-.81,4.35-1.76,6.48-2.75.28-.13.4-.86.38-1.31s-.35-.88-.62-.94C235.62,355.81,233.54,355.47,232.32,355.26Zm77.53,13.51a8.45,8.45,0,0,0,.09,1.43c.06.24.41.62.56.6a28.8,28.8,0,0,0,4.84-1.09,3.07,3.07,0,0,0,1.58-3.3,3.49,3.49,0,0,0-3.7-2.33C310.87,364.45,309.83,365.89,309.85,368.77Zm-20.21,8.57c-3.63,1.78-6.65,3.67-7.12,8.18a45.16,45.16,0,0,0,5.24-1.2,2.8,2.8,0,0,0,1.43-1.86A47.38,47.38,0,0,0,289.64,377.34Zm125.71,295c2.87,1.62,5.51,3.1,8.38,4.73-.42-2.22-.57-4.32-2.47-5.37S417.45,671.51,415.35,672.29Zm-189.25-343,.07.23c1.27,0,2.54.05,3.8,0a2.9,2.9,0,0,0,2.78-1.93c.48-1.28.87-2.61,1.3-3.92l-.21-.13Z" transform="translate(-91 -135.89)"/><path d="M295.7,403.7c2.2-1.12,4.24-2.36,6.68-2.66a4.07,4.07,0,0,1,4,1.64,22,22,0,0,1,2.24,3.8Q320.87,433.73,333,461c1.21,2.72,2,5.61,3,8.42a25.77,25.77,0,0,0,4.19,7.61c4,4.91,6.43,10.68,8.78,16.5,2.24,5.53,4.54,11.05,7,16.47a34.64,34.64,0,0,0,3.74,5.84,33.25,33.25,0,0,1,4.68,9.64,109.16,109.16,0,0,0,9,19.64c4.17,7.52,8.06,15.21,12,22.85,2.72,5.23,5.5,10.44,8,15.78,1.49,3.2,2.39,6.67,3.75,9.94a33,33,0,0,0,3.19,6.13,32.33,32.33,0,0,1,4.67,11.42c1.19,5.15,2.78,10.22,3.91,15.38,1.58,7.16,2.92,14.36,4.27,21.56a15.46,15.46,0,0,1,0,4.19,5.4,5.4,0,0,1-2.31,4.17c-2,1.32-4.17,2.4-6.27,3.58l-.51-.22c-.62-3.07-1.48-6.1-1.83-9.2a124.33,124.33,0,0,0-4.93-23.22c-3.67-11.83-8.88-23-14-34.24C373,570.69,362.79,548,352.33,525.46c-6-12.9-12.28-25.66-18.54-38.44-8-16.32-15.17-33-22-49.85-2.82-7-5.58-14-8.71-20.83-1.73-3.78-4.18-7.24-6.3-10.84C296.46,404.92,296.1,404.36,295.7,403.7Z" transform="translate(-91 -135.89)"/><path d="M390.22,543.94c-2.05.91-3.13,0-4.3-1.5a135.54,135.54,0,0,1-19-32.12c-2.05-4.91-4.93-9.47-7.52-14.14a438.36,438.36,0,0,1-19.44-40.11c-3.64-8.49-7.25-17-11-25.47-1.41-3.23-1.83-6.67-2.49-10.06-.24-1.21-.27-2.46-.53-3.67a2.43,2.43,0,0,0-.9-1.54c-3.64-1.84-4.82-5.09-5.32-8.81-.35-2.56-.78-5.12-1.29-7.65s.16-4.34,2.32-5.34a17.29,17.29,0,0,1,5.12-1.48c2.43-.29,4.37,1.57,4.81,4.69,1.89,13.48,7.12,25.77,13,37.93,3.5,7.31,6.49,14.9,9.25,22.53A197.71,197.71,0,0,0,370,492.4c3.83,6.34,7.31,12.9,10.88,19.4,1.92,3.49,3.83,7,5.52,10.59a22,22,0,0,1,1.85,9.08,4.34,4.34,0,0,0,.65,2.49c2.11,2.65,2,5.61,1.54,8.67C390.38,543.1,390.29,543.56,390.22,543.94Z" transform="translate(-91 -135.89)"/><path d="M284.3,303.36c.21-1.57.3-3.05.61-4.48.37-1.65,1.31-2.5,3-2.37,2.84.22,5.66.73,8.53,1.12a15.09,15.09,0,0,1-6.06,8.61,20.79,20.79,0,0,1,3-.11,7.22,7.22,0,0,1,4.88,3c1.21,1.49,2.37,3,3.61,4.47a21.76,21.76,0,0,0,2.07,1.86c1-1.1,1.89-2.19,2.91-3.13a7.27,7.27,0,0,1,2.45-1.62,3.5,3.5,0,0,1,4.35,1.64c.77,1.24,1.37,2.59,2.13,4.05l-5.95,2.15c-2.33.83-2.44.86-1.87,3.27,1.28,5.46,2.09,11,4.59,16.16,1.46,3,1,6.12-.24,9.16q-8.2,19.68-29.25,23.07A46.88,46.88,0,0,1,254.44,366c-8.14-4-12.58-10.67-13.89-19.51a51.35,51.35,0,0,1-.07-15.75c1.52-9.24,6.9-15.43,15.62-18.46s17.66-5.63,26.5-8.42Zm-35.59,31.12c0,.68,0,1.36,0,2,0,.47.12.94.19,1.42a30.21,30.21,0,0,0,14.91,22.91c5.35,3.24,11.26,4.22,17.46,3.81a31.86,31.86,0,0,0,14.63-4.35c5.08-3.06,8.21-7.41,8.47-13.48.14-3.34.13-6.69.09-10a16.35,16.35,0,0,0-.48-3.67c-2.31-9.65-8.44-16-17.47-19.63a17.83,17.83,0,0,0-8.85-1.6,43.4,43.4,0,0,0-7.43,1.69,52.26,52.26,0,0,1-9.34,2.4c-4.92.55-8.22,3.35-10.09,7.9A26.28,26.28,0,0,0,248.71,334.48Z" transform="translate(-91 -135.89)"/><path d="M227.54,173.8c-.58,3.2-1,6.23-1.68,9.21a57.92,57.92,0,0,0,1.82,31.61c1.47,4.45,3.51,8.72,5,13.16,1.6,4.66,2.83,9.44,4.33,14.14,2.74,8.55,7.13,16.26,12.07,23.69,1.9,2.85,3.71,5.78,5.36,8.79a7.9,7.9,0,0,1,1,4c-.12,2.47-2.64,4.37-5.57,4.65a5.2,5.2,0,0,1-5.27-2.4c-4.09-6.57-8.24-13.12-12.09-19.83-3.26-5.68-5.25-12-7.2-18.18-3.72-11.85-7.45-23.7-10.74-35.66-2.89-10.48-.79-20.32,5.31-29.29A8.23,8.23,0,0,1,227.54,173.8Z" transform="translate(-91 -135.89)"/><path d="M156.6,213.54c6-5,13.21-6.22,19.23-.72a175,175,0,0,1,13.24,13.85,110.79,110.79,0,0,1,15.78,23.64c4.19,8.37,8.24,16.81,12.39,25.2,3.06,6.2,6.24,12.33,9.23,18.56a22.37,22.37,0,0,1,2,6.2c.37,2.54-1.2,4.45-3.12,6a2.08,2.08,0,0,1-1.45.34,6.11,6.11,0,0,1-4.79-2.94,175.24,175.24,0,0,1-10.3-21.17c-4.8-11.18-9.76-22.29-16.32-32.58a169.71,169.71,0,0,0-18.74-24.39A50.29,50.29,0,0,0,156.6,213.54Z" transform="translate(-91 -135.89)"/><path d="M450.31,263.43a6.57,6.57,0,0,1-4.35,3.26,111.06,111.06,0,0,0-34.13,16.87c-6,4.26-12.58,7.19-19.14,10.26-9.07,4.24-18.14,8.53-26.18,14.56a110.18,110.18,0,0,0-10.85,9.41A97.06,97.06,0,0,1,342.4,328.2a32,32,0,0,1-2.91,1.88c-2.54,1.39-4.62,1.09-6.58-1-1-1-1.78-2.23-2.72-3.41l8.13-7.1a203.54,203.54,0,0,1,18.59-14.91,88.81,88.81,0,0,1,17.29-9.41c6.73-2.71,12.8-6.63,18.9-10.48,10.41-6.57,21.42-12,32.47-17.34,3.45-1.66,6.89-3.28,10.73-3.9A33.39,33.39,0,0,1,450.31,263.43Z" transform="translate(-91 -135.89)"/><path d="M468.35,641.71c-2.12,2.32-4.12,4.76-6.39,6.9-2.07,1.95-4.69,2.09-7.31,1.17a56.59,56.59,0,0,1-15-8.27,52.44,52.44,0,0,1-14.48-16.85c-5.68-10.2-11.56-20.3-17.37-30.43a28.12,28.12,0,0,1-3.26-9.81,3.67,3.67,0,0,1,1.31-3.57c1.91-1.48,3.94-2.8,6.11-4.32,1,1.45,1.94,2.68,2.76,4a16.73,16.73,0,0,1,1.42,2.76c3.8,9.33,9.85,17.39,14.65,26.16a94.44,94.44,0,0,0,10.3,15.12c7.16,8.58,16,14.41,27,16.81Z" transform="translate(-91 -135.89)"/><path d="M315.61,304.81c3.86-4.5,8.95-6.33,13.79-8.59,12.66-5.9,25.36-11.75,38-17.75a94.16,94.16,0,0,0,24.72-16.88,92.19,92.19,0,0,0,19-26.24c.85-1.72,1.63-3.46,2.51-5.16a4.17,4.17,0,0,1,7.23-.5,1.06,1.06,0,0,1,0,.86c-4.19,11.52-9.28,22.55-17.3,32a79.38,79.38,0,0,1-25.5,20.12c-8.77,4.34-17.79,8.19-26.67,12.32-8,3.7-15.94,7.47-23.91,11.21-2.26,1.06-4.6,2.14-7.1,1.2A35.75,35.75,0,0,1,315.61,304.81Z" transform="translate(-91 -135.89)"/><path d="M143.06,454.42c.93-4,1.58-7.81,3.83-11.25,4.92-7.53,9.68-15.16,15.67-21.89a119.84,119.84,0,0,1,8.69-8.77,77.59,77.59,0,0,0,8.75-9c5.21-6.54,12.15-10.77,19.79-13.84a141.39,141.39,0,0,1,14.08-4.92c2.1-.6,4.49-.21,6.75-.15.27,0,.6.71.74,1.14a1.2,1.2,0,0,1-.13,1,22,22,0,0,1-6.84,4.49,77,77,0,0,0-24.16,14.33,172,172,0,0,0-27.79,29.35c-3.43,4.7-6.39,9.74-9.54,14.64-1.47,2.29-3.21,4.23-6.06,4.67C145.63,454.42,144.39,454.36,143.06,454.42Z" transform="translate(-91 -135.89)"/><path d="M202,362a60.23,60.23,0,0,1-8.72,11.42,125.11,125.11,0,0,1-53.31,33.1A51.83,51.83,0,0,1,121.88,409a26.34,26.34,0,0,1-8.87-1.85c2-2.07,4.54-2.78,7.21-3.15,4.42-.61,8.87-1.09,13.26-1.85a60.33,60.33,0,0,0,24-10.06c8.68-6,17.42-11.9,25.43-18.79,2.33-2,4.36-4.34,6.69-6.35a15.26,15.26,0,0,1,4.42-2.71C196.48,363.28,199.14,362.73,202,362Z" transform="translate(-91 -135.89)"/><path d="M243.82,311.05l-1.92-2.22c1.5-2.55,3-5.08,4.47-7.62a3,3,0,0,1,3.31-1.53c.82.13,1.67.12,2.73.18a44.66,44.66,0,0,1,.34,4.91,2.65,2.65,0,0,1-1.19,1.75C249,308.09,246.44,309.53,243.82,311.05Z" transform="translate(-91 -135.89)"/><path d="M325.18,335.22c-.51,1.67-.88,3.26-1.5,4.75a3.71,3.71,0,0,1-3.92,2.34,4.11,4.11,0,0,1-3.77-2.67c-.69-1.5.92-4.1,2.92-4.74S322.92,334.61,325.18,335.22Z" transform="translate(-91 -135.89)"/><path d="M275.08,297.78c-3.64,5.34-8.59,7.22-13.31,5.12C265.18,298.9,269.42,296.56,275.08,297.78Z" transform="translate(-91 -135.89)"/><path d="M232.32,355.26c1.22.21,3.3.55,5.36,1,.27.06.6.61.62.94s-.1,1.18-.38,1.31c-2.13,1-4.28,1.94-6.48,2.75-1.46.54-2.34-.62-3.21-1.53s-.44-1.7,0-2.54C229.12,355.54,229.65,355.23,232.32,355.26Z" transform="translate(-91 -135.89)"/><path d="M309.85,368.77c0-2.88,1-4.32,3.37-4.69a3.49,3.49,0,0,1,3.7,2.33,3.07,3.07,0,0,1-1.58,3.3,28.8,28.8,0,0,1-4.84,1.09c-.15,0-.5-.36-.56-.6A8.45,8.45,0,0,1,309.85,368.77Z" transform="translate(-91 -135.89)"/><path d="M289.64,377.34a47.38,47.38,0,0,1-.45,5.12,2.8,2.8,0,0,1-1.43,1.86,45.16,45.16,0,0,1-5.24,1.2C283,381,286,379.12,289.64,377.34Z" transform="translate(-91 -135.89)"/><path d="M415.35,672.29c2.1-.78,4-1.71,5.91-.64s2.05,3.15,2.47,5.37C420.86,675.39,418.22,673.91,415.35,672.29Z" transform="translate(-91 -135.89)"/><path d="M226.1,329.32l7.74-5.76.21.13c-.43,1.31-.82,2.64-1.3,3.92a2.9,2.9,0,0,1-2.78,1.93c-1.26.06-2.53,0-3.8,0Z" transform="translate(-91 -135.89)"/><path class="cls-1" d="M248.71,334.48a26.28,26.28,0,0,1,2.09-10.6c1.87-4.55,5.17-7.35,10.09-7.9a52.26,52.26,0,0,0,9.34-2.4,43.4,43.4,0,0,1,7.43-1.69,17.83,17.83,0,0,1,8.85,1.6c9,3.67,15.16,10,17.47,19.63a16.35,16.35,0,0,1,.48,3.67c0,3.35.05,6.7-.09,10-.26,6.07-3.39,10.42-8.47,13.48a31.86,31.86,0,0,1-14.63,4.35c-6.2.41-12.11-.57-17.46-3.81a30.21,30.21,0,0,1-14.91-22.91c-.07-.48-.16-.95-.19-1.42C248.68,335.84,248.71,335.16,248.71,334.48Z" transform="translate(-91 -135.89)"/></svg>