<svg id="Layer_1" data-name="Layer 1" xmlns="http://www.w3.org/2000/svg" viewBox="0 0 385.68 163.44"><defs><style>.cls-1{fill:#fff;}</style></defs><path class="cls-1" d="M109.27,338.89H490.68V502.33H105V338.89h3.79a7.66,7.66,0,0,0-.59,1.79,52,52,0,0,0-.26,5.71c0,1.48.64,3,.6,4.45-.09,2.79.49,5.59-.18,8.37a16.08,16.08,0,0,0-.23,2.2,32.57,32.57,0,0,1-.56,4.76c-.52,2-1.37,3.84-2.14,5.9.48.67,1.22.42,1.92-.06A4.66,4.66,0,0,0,108.5,371c1.14-1.67,2.89-1.5,4.42-1.2s3.06,1.24,4.64,1.72a13.72,13.72,0,0,0,4.55.86c2.91-.19,5.48-1.65,8-3a7.27,7.27,0,0,0,1.32-1.11l-.18-.26c-1.45.6-2.88,1.29-4.37,1.78a22,22,0,0,1-4.74,1.22c-1.64.16-3.16-.65-4.63-1.37-2.15-1.06-4.32-2-6.79-1.21-.71.22-1.42.47-2.23.74.15-.73.23-1.27.37-1.79a35,35,0,0,0,1.28-9.49c0-1.75-.14-3.5-.22-5.25s-.16-3.38-.26-5.06c-.13-2.17-.3-4.33-.43-6.49C109.22,340.34,109.26,339.62,109.27,338.89Zm78.21,35h0a1.91,1.91,0,0,0,.77,2.18c.39.3.85.88,1.18.82.63-.13,1.32-.49,1.2-1.43,0-.35,0-1,.21-1.06,1.16-.53.76-1.57.9-2.43.09-.55.17-1.1.26-1.65l.3,0a13.43,13.43,0,0,1,.06-2.77c.1-.46.6-.82,1.34-1a9.13,9.13,0,0,0,5.31-2.86,11,11,0,0,1,2.11-1.47,46.84,46.84,0,0,0-.57,5.67,24.46,24.46,0,0,0,.76,5.08,14.09,14.09,0,0,0,1.28,3.1c.53,1,1.66,1,2.61,1.39,2.47,1,4.69.31,6.87-.62,2.13,1.49,4.3,2.72,7.12,2.11,2.66-.57,4.15-2.49,5.59-4.61a1.69,1.69,0,0,0-1.14.25,16.25,16.25,0,0,0-3,2.62,1.93,1.93,0,0,1-2.4.63,4.81,4.81,0,0,1-3.38-2.56c.63-.87,1.25-1.72,1.84-2.58A1.9,1.9,0,0,0,217,372a24,24,0,0,1,.34-2.84c.61-2.25-.05-3.59-2.16-4a7.66,7.66,0,0,0-1.35,0c-1.54,0-3.26,1.15-3.26,2.41,0,1.74.1,3.48.23,5.22a8.75,8.75,0,0,0,.45,1.52c.19.7.38,1.22-.63,1.68-1.38.64-2.69,1.31-4.05.27a6,6,0,0,1-2-2.31,22.31,22.31,0,0,1-1.21-5c-.15-1.12.25-2.31.14-3.45-.29-3,.64-5.86,1.42-8.71.47-1.72,1.17-3.37,1.73-5.07a.84.84,0,0,0-.11-.72c-.77-.66-2.95.12-3.19,1.14s-.43,2.22-.75,3.3a14.89,14.89,0,0,1-2.86,4.87,15.2,15.2,0,0,1-1.44,2,17.15,17.15,0,0,1-2.72,1.89,6.57,6.57,0,0,1-1.84.76,1,1,0,0,1-.85-.49,4.38,4.38,0,0,1,0-1.53,28.12,28.12,0,0,0,.5-3.94,55.34,55.34,0,0,1,1-10c.1-.69-.22-.95-.86-.87a9.48,9.48,0,0,0-1.17.25c0,.53,0,1,0,1.55a4.63,4.63,0,0,1,0,1c-.12.49-.42.94-.52,1.42-.21,1.07-.37,2.15-.49,3.23-.06.62,0,1.25,0,1.88l.62-.05-.21,1.4a2.3,2.3,0,0,0-.62,1.22,14,14,0,0,0,.14,2.74c.26,1.65-.17,2.24-1.78,2a3.2,3.2,0,0,1-1.74-.81c-1.33-1.31-2.84-1.18-4.48-.79.46.59,1,1,.79,2-.14.54.26,1.26.49,1.87.51,1.29,1.34,2.49,1.08,4,0,.15.17.34.27.52.33.62.65,1.26,1,1.86C187,373.63,187.29,373.74,187.48,373.89ZM408,447.69c0,1.75-.05,3.15,0,4.54.07,2,.25,4,.32,6,0,.64.05,1.64-.31,1.88A8.93,8.93,0,0,0,406,462.4c-.85,1.07-1.91,2-2.81,3.1-1.38,1.65-2.87,3.2-4.2,4.9-1.09,1.39-2.44,2.56-3.45,4.07s-2.32,2.4-3.22,3.77c-1.6,2.44-3.07,5-4.42,7.56-.82,1.58-1.3,3.34-2,5a8,8,0,0,0-.28,4.7,17.62,17.62,0,0,0,.83,3.05A5.34,5.34,0,0,0,388,501c2.69,1.7,5.51,1.13,8.19-.17,1.1-.53,2-1.68,3.09-2,1.5-.46,2.15-1.71,3-2.65,1.5-1.61,2.33-3.74,3.77-5.48a13.83,13.83,0,0,0,2.06-4.91c.78-2.66,1.36-5.38,2-8.08.36-1.42.85-2.83,1.08-4.28s.23-3,.32-4.52c.15-2.28.26-4.57.45-6.85.11-1.38-.16-2.93,1.15-3.92a7.75,7.75,0,0,0,2.08-2.92,5.79,5.79,0,0,1,1.83-1.89c1.07-.75,2.44-1.14,2.48-2.5.88.24,1.68.51,2.51.66a8.32,8.32,0,0,0,1.8,0,4,4,0,0,0,2.88-1.13,9.48,9.48,0,0,1,5.19-2.95.68.68,0,0,0,.44-.28,2.81,2.81,0,0,1,2.9-1.34c.47.05.84.65,1.32.82a8.52,8.52,0,0,0,6.83-.34,2,2,0,0,1,1.56,0c.54.26.88.89,1.37,1.27,2.41,1.82,4.46,2.18,7.1.28a7.24,7.24,0,0,1-2-.18c-1.61-.63-3.27-3.71-3.15-5.38a11.31,11.31,0,0,0-.13-3,1.45,1.45,0,0,0-1.17-.78,11.32,11.32,0,0,0-2.72.69c-.23.08-.4.49-.51.79a22.27,22.27,0,0,1-1.38,3.66c-1.12,1.88-2.7,1.72-3.63-.21a5.51,5.51,0,0,1-.23-.91,2.13,2.13,0,0,0-3.69-1c-1.05,1-1.45,2.58-2.81,3.41a9.08,9.08,0,0,0-1.64,1.8,5.28,5.28,0,0,1-.36-1.32c.06-1.19.25-2.38.26-3.57a2.4,2.4,0,0,0-.52-1.51c-.2-.21-.86,0-1.3,0s-1.15.31-1.73.47a1.23,1.23,0,0,1,.36-1c.94-.69.54-1-.31-1.12a7.73,7.73,0,0,0-3.16-.12,6.13,6.13,0,0,0-3.14,2,13.47,13.47,0,0,0-2.19,7.27,2.5,2.5,0,0,1-.58,1.36c-.77,1-1.63,1.84-2.45,2.75l-2.87,3.18-.52-.18v-8.64l-1.2-.6.34,0a14.65,14.65,0,0,0,.2-2.54c0-.25-.74-.63-1.13-.63a3.39,3.39,0,0,0-3.07,1.36c-1,1.45-2.27,2.74-3.3,3.95-1.38-1.14-1-2.64-1-4.06,0-1.6-.76-2.28-2.32-2a10.65,10.65,0,0,0-1.17.34,7.29,7.29,0,0,1-.08.79,6.38,6.38,0,0,0,1.48,6.13,3.6,3.6,0,0,0,4.46.47C405.82,448.91,406.72,448.45,408,447.69ZM239.43,440a1.91,1.91,0,0,0,.19.79c.11.15.49.18.72.13s.27-.37.25-.54a6,6,0,0,0-.42-1.8,2,2,0,0,0-1.07-1.06c-1.42-.38-2.66.4-3.81,1-.47.24-.57,1.28-.72,2a18.63,18.63,0,0,0-.21,2.25c-.09,1.13.44,2.22.2,3.37,0,.21.26.49.4.74-.65.32,0,1.32-.85,1.62-.24.09-.21,1-.3,1.51l.28,0,.37-1.34c.84,1.21-1.25,3.06,1.18,3.47l-.31.53c.77.58,1.51.88,2.11,0a7.5,7.5,0,0,0,.77.25,4.27,4.27,0,0,0,3.52-.91c1-.77,1.78-1.74,2.68-2.61a.92.92,0,0,1,.6-.27c.19,0,.51.27.5.4-.12,1.36,1.19,1.65,1.87,2.07,2.09,1.27,5.65.39,7.29-1.42a25.42,25.42,0,0,1,2.32-2,10.89,10.89,0,0,0,1.37,1.83,2.29,2.29,0,0,1,.56,2.93c-1,1.54-2,3.07-2.08,5,0,1,1.27,2.46,2.23,2.38a17.45,17.45,0,0,0,4.28-.75c1.12-.4,2.36-1.27,2.22-2.64a12.09,12.09,0,0,0-1.3-3.85,12.55,12.55,0,0,0-1.66-2.18c.51-.36,1-.52,1-.76a3.84,3.84,0,0,1,1.23-2.43,24.73,24.73,0,0,0,2.43-3.39,5.94,5.94,0,0,1,1-.78,9.18,9.18,0,0,1-.2,1.32,7.33,7.33,0,0,0,.16,4.83,2.39,2.39,0,0,0,2,1.89c1,.05,2.09-.18,2.92.78a6.39,6.39,0,0,0,1.53,1l.52-.55,0,.38,1.55,0a51.35,51.35,0,0,0,5.41,0,23.25,23.25,0,0,0,4.53-1.12A7.59,7.59,0,0,0,289,450.8c.8-.61,1.41-1.45,2.2-2.07s.88-.58.86-1.56c-1.31.82-2.61,1.55-3.81,2.41a12.52,12.52,0,0,1-10.67,2,42,42,0,0,1-6.16-2c0-1.45,0-2.86,0-4.28,0-.7.17-1.4.23-2.11.12-1.42.16-2.85.34-4.27.21-1.76.58-3.5.77-5.26.25-2.39.43-4.8.56-7.2a25.13,25.13,0,0,1,.07-3.89c.3-1.34-.47-1.45-1.3-1.61s-2,.54-2,1.18c0,.88,0,1.77,0,2.65a21.94,21.94,0,0,1-1.16,8.28c-.27.68-.51,1.37-.74,2.06-.37,1.12-.63,2.28-1.1,3.35-.62,1.42-1.39,2.78-2.11,4.16-.23.43-.49.85-.82,1.43-1.41,1-1.62,3-2.86,4.55-.39-.81-.75-1.53-1.22-2.51l-.54,1.16-.35-.08c.12-.37.22-.75.36-1.11s.37-.48.36-.7c-.07-1-.23-2-.32-2.93a.78.78,0,0,1,.22-.52c1.19-1.3,1.14-1.83-.21-2.94a11.19,11.19,0,0,0-1.45.5c-.39.19-1,.54-1,.75.11.93-.59,1.56-.69,2.37,0,.37.16.76.16,1.14a2.77,2.77,0,0,1-.14,1.23c-.52,1.07-1.12,2.1-1.54,2.87-.41.19-.62.22-.7.33-.4.64-.71,1.33-1.16,1.93a1.7,1.7,0,0,1-1.06.74c-1.16.05-2.32-.07-3.39-.12,0-.49.23-1,.1-1.08-1.25-1.14.22-2.85-.93-4.1-.34-.37.12-1.49.22-2.33a18,18,0,0,0-2.25,0,1.56,1.56,0,0,0-1.05.54c-.63,1.13-1,2.37-1.72,3.47-1.18,1.93-2,4.26-4.53,4.75l-1.2-.73-.87-1.7c.61-2.87.18-5.92.25-9l.24.56,1-1.86Zm167.68-58.44c.83,1.53,1.52,2.86,2.28,4.14a2.13,2.13,0,0,0,1,.64c.67.29,1.37.52,2,.77l2.27-.39c-.14-.19-.22-.43-.35-.46-2.42-.58-2.84-2.72-3.49-4.59a21.38,21.38,0,0,1-.65-3.46l5.25-.81a8.36,8.36,0,0,0,3.31,3.75c2.67,1.38,5.28.39,8-.6,0,.5,0,.82,0,1.13.09,1.19.51,1.53,1.57,1.05,1.66-.75,3.44-1.25,4.62-2.9a37.12,37.12,0,0,1,3.51-3.82c.84-.89,1.71-1.74,2.52-2.65.56-.63,1-1.33,1.55-2,1.36-.7,2.58-1.71,4-2.37a37.39,37.39,0,0,1,4.7-1.58c-.43-.23-.57-.37-.68-.35-1.16.21-2.32.45-3.48.66a14.51,14.51,0,0,0-5.27,2.48,35.45,35.45,0,0,0-8,7.77,15.24,15.24,0,0,1-2.11,1.84c-.42-1.81-.75-3.21-1.08-4.6-2.93.74-2.95.73-3.53,1.76a10,10,0,0,0-.68,1.58,2.29,2.29,0,0,1-3.84,1,18.11,18.11,0,0,1-2.21-3.6c-.17-.34-.66-1,.5-1.37a2.69,2.69,0,0,0,1.71-2.14,4.15,4.15,0,0,0-1-3.74,3,3,0,0,0-2.27-.68c-.84.09-2,.29-2.07,1.52a42.53,42.53,0,0,0-.33,5.15c0,.64,0,.84-.58.95-.26.05-.48.26-.73.33-1,.29-2,1-3.16.49a6.17,6.17,0,0,1,.54-2c.93-1.25,1.93-2.41,1.54-4.15,0-.17.25-.42.39-.63l-.28.09-.4-1,.25-.09.39.3c-.17-1.07-.42-2.13-.5-3.21s.13-1.95-.66-2.77c-.15-.16,0-.62,0-.94.11-.81.27-1.62.32-2.44,0-.16-.35-.47-.56-.48-.54,0-1.19.27-1.62.07-1.37-.62-1.47.57-1.7,1.21-.38,1-.45,2.2-.74,3.28-.83,3-.7,6.14-.8,9.24-.05,1.68.18,3.54-.44,5a10.43,10.43,0,0,1-5,5.6c-1.38.66-3,.6-3.46-.46a22.5,22.5,0,0,1-1.26-3.38c-.4-1.31-.5-1.4-1.79-.92-.68.26-1.11.34-1.17-.69s-1.42-2.16-2.22-2a24.45,24.45,0,0,0-2.67.72,3.31,3.31,0,0,0-2.12,3.93c0,.22-.28.48-.35.74-.29,1-.55,2.05-.8,3.08,0,.06.15.19.25.23a16.8,16.8,0,0,0,2,.79c1.46.39,4.45-1,5.05-2.44.34-.78.8-1.14,1.51-.68a26.89,26.89,0,0,0,2.48,2.82.17.17,0,0,0,.11,0c1.47-.08,2.86.38,4.42-.12,2.07-.65,3.95-1.32,5.25-3.15A2.5,2.5,0,0,1,407.11,381.52Zm-101.3-25.81a13,13,0,0,0-1.56-.7,2.18,2.18,0,0,0-2.66,2.34,23.13,23.13,0,0,1,.1,2.63c-.05,2.31-.12,4.63-.26,6.93a8.11,8.11,0,0,1-.5,2.79c-.46,1.06.79,2.12-.16,3.09,0,0,.19.2.24.33a1.91,1.91,0,0,1,.17.79c-.1.58-.38,1.13-.42,1.71a37,37,0,0,0-.13,3.94,4.28,4.28,0,0,0,.52,1.89A8.61,8.61,0,0,0,302.7,383a4.5,4.5,0,0,0,3.66-1.13c.81-.63.45-1.36.65-2,.05-.17.44-.25.71-.39.08.54,0,1,.2,1.23a3.72,3.72,0,0,0,4.33,1.14,7.77,7.77,0,0,0,3.72-2.91,1.45,1.45,0,0,1,.49-.33,10.9,10.9,0,0,0,.23,2c.16.56.87,1.14.76,1.56a6,6,0,0,0,.3,3.19c.37,1.45.57,2.94.86,4.42a9.66,9.66,0,0,1,.34,1.36c.05,2,.11,4,.06,5.94s-.18,3.91-.39,5.84-.54,3.89-.85,5.83a16.09,16.09,0,0,1-.66,3.37c-.67,1.66-.82,3.55-2.06,5a.61.61,0,0,0-.14.32c0,1.42-.93,2.37-1.68,3.42a15,15,0,0,0-1.09,1.81,24.24,24.24,0,0,1-5.68,6.93c-2.09,1.9-4.81,2.38-7.53,2.65-1.42.15-2.59-.52-2.71-1.49a5.86,5.86,0,0,1,.13-1.49,11.64,11.64,0,0,1,.59-3.35,12.62,12.62,0,0,1,2.67-3.5c1.84-1.72,3.88-3.23,5.83-4.83l.78-.67-.21-.24a25.09,25.09,0,0,1-2.45,1.66,24.31,24.31,0,0,0-7.11,5.84c-.35.41-.92.71-1.11,1.17-.71,1.73-1.38,3.48-1.92,5.26-.43,1.41.62,3.35,1.87,3.46a14.06,14.06,0,0,0,6.3-.67c1.41-.53,2.83-1,4.21-1.65.41-.18.69-.65,1.21-1.17,1.12.24,1.95-.78,2.83-1.67.19-.19.36-.38.53-.58,1.62-1.92,3.34-3.77,4.81-5.8a30.74,30.74,0,0,0,2.41-4.5,36.15,36.15,0,0,0,2.17-4.64,33.51,33.51,0,0,0,.88-4.59,38.52,38.52,0,0,0,.86-4.71,106.44,106.44,0,0,0,.41-12.1,60.07,60.07,0,0,0-1.68-9.31c-.38-1.84-1-3.62-.89-5.57a6.59,6.59,0,0,0-.49-2.39,1.22,1.22,0,0,0-.74-.66c-.54-.18-2.37,1-2.71,1.52-1.12,1.61-2.27,3.2-3.49,4.73-.1.13-1-.06-1.09-.3a3.55,3.55,0,0,1-.25-1.6c0-2,0-4,0-5.95-.51-.05-.89-.05-1.26-.12-1.1-.2-1.45.28-1.3,1.32.07.55,0,1.11.06,1.66a5.71,5.71,0,0,1-1.26,4c-.64.79-1.24,1.62-2,2.57-.18-.06-1-.12-1.07-.42a7.54,7.54,0,0,1-.5-2.77c.07-1.9.46-3.79.44-5.68a47.85,47.85,0,0,1,.1-4.94c.09-.93.46-1.77,0-2.76a3.58,3.58,0,0,1,.1-3,5.66,5.66,0,0,0,.17-2.24l.66-3.76Zm43.07,93.11.05-.3h1.45l-.37-.72.81-.56c-1.28-.23-1.39-.69-.66-1.46a1.29,1.29,0,0,0,.33-1.06c-.5-1,.15-1.6.62-2.19.26.18.45.43.67.46,1.48.21,3,.39,4.46.52.19,0,.41-.32.59-.47l1.8.32c0,.3.07.83.13,1.35s.12.89.18,1.34c0,.19.12.49,0,.56-1.48,1.17-.66,2.71-.61,4.08s.73,1.57,2,1.22a19.63,19.63,0,0,0,2-.65,2.43,2.43,0,0,0,.92-.69c.44-.56.81-1.18,1.33-2,0,.13-.08-.06-.05-.23.3-1.87,1.26-3.74,0-5.61,0,0,.06-.07.05-.1a1.71,1.71,0,0,0-2.55-1.44c-.65-.78-.73-.76-1.44.16L355,442l.19-.73-3-.18v-1.23a6.6,6.6,0,0,0,.6-1.7c.06-1.9-.1-3.83.07-5.72a9.48,9.48,0,0,0-.41-3.28,12.84,12.84,0,0,1-.12-2.49c0-.39-.06-.77-.1-1.16h-.3l-.56,1.06a4.94,4.94,0,0,1,.17-2.16c.46-1-.75-1.1-.81-1.77a3.73,3.73,0,0,1,.08-.44c0-.63.07-1.26.1-1.83-.41-.23-.72-.41-1.05-.58-.81-.44-2.49.33-2.42,1.14.11,1.21.27,2.41.4,3.62a11.36,11.36,0,0,1,.16,1.73c-.05,1.21-.23,2.4-.27,3.6-.05,1.55,0,3.1,0,4.65a7.4,7.4,0,0,0,.26,1.39l.32,0-.56,1.31.4,0-.24,4-2,2.76a11,11,0,0,1-1.1,2.56c-.54.68-1.49,1-2.06,1.66-1.61,1.86-3.73,1.24-5.71,1.33-.2,0-.43-.2-.6-.36-.43-.4-.84-.82-1.27-1.23s-.74-.71-1.15-1.1l-.59.34c.83-1.5-.54-2.5-1.1-2.94a5,5,0,0,0-7.26,1.46,12.17,12.17,0,0,1-.68,1.35c-.4.55-1,.73-1.19-.1a16.91,16.91,0,0,1-.34-2.39c-.24-.69-.42-1.23-.61-1.78l.35-.14.59.43.18-.23-2-1.55c-.89.62-.88.61-.42,1.51.07.14-.08.39,0,.56a3.9,3.9,0,0,0,.35.71L321,444v7.77c.5,0,1.08-.25,1.38-.05.63.42,1,.22,1.39-.23l1.08-1.17a30.12,30.12,0,0,0,2.24-2.43,34.12,34.12,0,0,0,1.77-3c.24.31.45.58.65.86.49.64,1,1.27,1.46,1.92a7.59,7.59,0,0,0,1.4,1.82c.84.57,2,.7,2.79,1.32,1.12.89,1.92.77,2.7-.34a1.62,1.62,0,0,0,2.24.78,26.08,26.08,0,0,0,2.78-1.31c.62-.34,1.4-.31,1.84-1.16.22-.42,1.45-.89,1.9.07s1.57,1.84.45,3.13l-1.1.21c.76.71,1.42,1.25,2,1.88.13.13,0,.56-.11.85s-.19.6-.31,1c.53,0,.94-.13,1.1,0,.88.8,1.11.05,1.22-.54a15.45,15.45,0,0,0,.34-3.38,11.68,11.68,0,0,0-.69-2.54l.7-.43Zm26.71-86.36.32-.11a8.37,8.37,0,0,1,.63,1.53c.5,2.75,1,5.51,1.4,8.27.05.28-.15.6-.11.89a16.74,16.74,0,0,1,.07,6.07,3.81,3.81,0,0,0-.14.93,11.39,11.39,0,0,1-1.75,6.5,3.65,3.65,0,0,1-3.41,2,5.19,5.19,0,0,1-3.54-2.54,25.8,25.8,0,0,1-1.82-4,31.31,31.31,0,0,1-1.49-4.89c-.35-1.84-.39-3.75-.58-5.63A15.25,15.25,0,0,0,365,370c-.2-1.1-.42-2.2-.62-3.22a16.28,16.28,0,0,0-1.79.45c-.39.15-.93.34-1.05.65-.5,1.36-1.07,2.73-.65,4.27a4.36,4.36,0,0,1-.11,1.35l.36.15c-.14.58-.3,1.06-.37,1.55a9.2,9.2,0,0,0,0,1.3l-.6.14c-.75,4.23-1,8.44-3.87,11.83a1.94,1.94,0,0,1-1.6-1.67c-.19-1.65-.39-3.3-.59-5s-.48-3.27-.59-4.91c-.13-2.12-.23-4.26-.15-6.38.1-2.71.39-5.42.63-8.14,0-.34.27-.93.44-.94a4.76,4.76,0,0,1,1.45.44c.14-.33.59-.84.5-1.23a1.88,1.88,0,0,0-2.42-1.24c-1.52.35-2.69,1-2.69,2.79l.56.27c-1.44.65-1.65,2.94-.45,4.47-.27.16-.76.29-.77.47a21.92,21.92,0,0,0-.05,2.69c0,.42.19.85.16,1.26-.1,1.29-.61,2.57,0,3.86l.67-.45-.07,1.2-1.25.18c.4.27.71.37.73.51.15.92.23,1.86.35,2.78.1.72-.4,1.61.55,2.11,0,0,0,.12,0,.19l-.31.08c.15.28.43.57.43.86,0,.57-.35,1.26-.14,1.7.54,1.08.12,2.39.92,3.35.62.74,1,1.83,2.12,1.87a14.24,14.24,0,0,0,3-.46.93.93,0,0,0,.57-.39,30.74,30.74,0,0,0,2.64-4.92,64.05,64.05,0,0,0,1.54-6.61c0-.18.31-.31.58-.56a4.76,4.76,0,0,1,.51,1.19,19.57,19.57,0,0,1,0,2.18l.47-1.37.4.13c-.14.58-.28,1.17-.41,1.69.14.13.43.28.48.48.12.49.06,1,.16,1.51a14.17,14.17,0,0,1,.68,2.92c0,1.4,1.09,2,1.73,2.91a8.62,8.62,0,0,0,2.35,1.71,1.5,1.5,0,0,0,.87.3c1.21,0,2.43-.12,3.64-.29a5.6,5.6,0,0,0,3.58-1.58,8.72,8.72,0,0,0,1.52-2.21,14.29,14.29,0,0,0,1.29-2.6c.44-1.77.43-3.67,1-5.39.76-2.31.12-4.56-.11-6.75a67.76,67.76,0,0,0-2.15-9.57,5.94,5.94,0,0,0-1.32-2.18c-1-1.15-1.9.08-3,.13.2,1.07.38,2,.6,3.17Zm-110.87,6.46.7.17.39,3.29a3,3,0,0,0-.45,1.71c.05,1,.25,2,.32,3a8.36,8.36,0,0,0,.1,2.31,2,2,0,0,1-.35,2.42l.7.83c-.2.3-.57.6-.52.79.47,1.64,1,3.25,1.59,5,1-1.07,1-1.08.77-3,0-.13-.35-.23-.24-.16.11-5.24.22-10.32.32-15.4,3.11.29,6.16.87,8.86-1l1.66-.45c0,.73,0,1.43,0,2.13,0,.07.36.12.55.18l-.6.65a.33.33,0,0,0-.09.21c0,1.34,0,2.7.13,4,.12,1,.59,1.9.75,2.88.14.82,0,1.69.08,2.53.07.67,0,1.5,1.07,1.59.25,0,.54.38.68.65.54,1,1.24,1.18,2.42,1,1.7-.21,2.08-1.69,3.22-2.75-.43,0-.74-.11-.83,0-.33.37-.55.84-.88,1.21-.93,1.08-1.79,1-2.43-.25a9.56,9.56,0,0,1-1.07-2.91c-.31-2.13-.41-4.3-.59-6.44-.07-.78-.18-1.55-.2-2.33a8.86,8.86,0,0,1,.18-1.44,8.85,8.85,0,0,0,.44-1.64,4.79,4.79,0,0,1,1.49-4,1.65,1.65,0,0,0,.54-.77c.49-1.87,1.89-3.37,2-5.46.09-1.88-.36-3.24-2-4a2.37,2.37,0,0,0-3,1.43c-.27,1.12-.54,2.24-.71,3.38-.22,1.44-.31,2.9-.53,4.34-.15,1-.1,2.28-.7,2.95-1.82,2-4,3.52-7,3.16a18.32,18.32,0,0,0-3,.16,4.3,4.3,0,0,1-.3-1.31c.12-2.91.29-5.83.48-8.75,0-.4.36-.77.43-1.17.24-1.53.35-3.09.67-4.6a10,10,0,0,1,1-2.13c-1.57-1.27-2.78-.95-3.24,1-.36,1.52-.42,3.1-.75,4.63a30.91,30.91,0,0,0-.38,8.61l-.59-1v4a2.1,2.1,0,0,0-.43-.19c-.89-.15-2.26.5-2.15,1s.39,1.34.53,1.8Zm-101.39-11.4-.15-.35c-1.21.25-2.42.47-3.62.75-1.85.44-3.69.92-5.54,1.37a5.84,5.84,0,0,1-.84.1,4.18,4.18,0,0,1-.05-.86,17.82,17.82,0,0,1,.39-1.93c.74-2.75.25-5.43-.43-8.09a5.52,5.52,0,0,0-1.2-2.25,2.42,2.42,0,0,0-2.69-.77c-1.08.43-2.49.66-2.25,2.38,0,.17-.16.36-.2.55-.49,2.07-1.09,4.12-1.43,6.21-.38,2.33-.48,4.7-.79,7a1.87,1.87,0,0,1-.82,1.14,29.46,29.46,0,0,1-2.64,1.32c1.35.63,1.33.55,2.45.21.41-.13,1.28-.72,1.47.36.43,2.47-.33,3.69-2.48,4.92a5.64,5.64,0,0,1-6.17,0,3.66,3.66,0,0,1-1.61-3.31,3.11,3.11,0,0,0,3.28-1c1.39-1.88,3.15-3.54,3.46-6.11a3.72,3.72,0,0,0-4.19-.61,16.69,16.69,0,0,0-3,2,3.67,3.67,0,0,0-1.43,1.71,23.1,23.1,0,0,0-.49,5,3.78,3.78,0,0,0,1.29,2.81c2.52,2.19,5.38,2,8.3,1.15a7.16,7.16,0,0,0,2.21-1.06c1.29-1,1.91-.77,2.31.83.3,1.22.38,2.7,2.3,2.46.18,0,.4.23.86.51-.2-.49-.23-.83-.36-.87-1.32-.42-1.15-1.64-1.43-2.59-.15-.52-.1-1.11-.27-1.62a1.68,1.68,0,0,1,.4-1.8c.9-1.11,1.7-2.29,2.53-3.46.44-.63.73-1.69,1.28-1.84,1.77-.48,3-1.91,5-2.12s4.14-1.17,6.2-1.82C163.14,357.82,163.22,357.63,163.33,357.52ZM217,444.75c1.2,1,1.92,2.64,3.67,3.53a7.62,7.62,0,0,0,6.81,0,6.15,6.15,0,0,0,2.46-1.33c1.29-1.54,2.57-3.14,2.77-5.33s.32-4.11-.86-6c-.32-.5-.91-1-.94-1.47-.09-1.38-1.19-1.4-2-1.59a3.93,3.93,0,0,0-3,.56c-.9.58.4.73.17,1.16a.44.44,0,0,0,.1.34c.25,0,.58,0,.72-.11a5.4,5.4,0,0,0,.66-1.11c.6.8,1.49,1.44,1.58,2.18.26,2.35,1.67,4.7.28,7.12a.83.83,0,0,0-.07.32c-.09.81-.17,1.63-.27,2.44,0,.11-.11.2-.17.3-1.12-.71-1.3.55-1.7.95-1.5,1.56-4.44,1.43-5.53-.39-.59-1-1.19-2-1.71-3a8,8,0,0,1-.33-2.15,27.58,27.58,0,0,1-.16-5.23c0-.95.09-1.89.11-2.83,0-.52.27-1.19-.56-1.31s-2.29.58-2.17,1.13a6.08,6.08,0,0,1-.43,3.95c-.32.71,0,1.71,0,2.58,0,.38-.05,1.08-.18,1.1-1.06.22-.48,1.2-.86,1.73-.26.36.05,1-.63,1.34-.33.18-.21,1.17-.31,1.93a2.57,2.57,0,0,0-.72.55c-.86,1.1-1.66,2.26-2.51,3.38-.49.65-1.15.93-1.58.06a11.54,11.54,0,0,1-.87-2.8c-.29-1.38-.49-2.78-.68-4.18a13.83,13.83,0,0,1,0-1.82c0-2.64.06-5.28,0-7.91a3.1,3.1,0,0,1,1.59-3.09,3.7,3.7,0,0,0,.54-.37l-.06-.36a11.58,11.58,0,0,0-2.46.3,2.15,2.15,0,0,0-1.33,1.21c-.34,1.65-.08,3.38-.5,5.06a9.49,9.49,0,0,0,.18,2.34c0,1.75,0,3.5,0,5.25,0,.51,0,1,.09,1.54s.08.79.11,1.18a1.34,1.34,0,0,1-.11.38l.47.19.56,1.67c-.34.63-.12,1.44.89,2.18a3.19,3.19,0,0,0,4.08.27,10.28,10.28,0,0,0,3.9-3.87C216.35,446.09,216.67,445.43,217,444.75Zm69.71-64c.45.08.83,0,.95.2,1.32,1.72,3.12,2.09,5.15,2a6.47,6.47,0,0,0,5.21-4.21c.62-2.31-.2-4.31-1.27-6.17a4.6,4.6,0,0,0-6.74-1.33c-.34.23-.65.5-1,.74a7.18,7.18,0,0,0-1.92,1.41,4.25,4.25,0,0,0-.37,2.14C286.71,377.28,286.74,379,286.74,380.74Zm30.31,60c0,2,.08,4,0,6s-.42,4.13-.57,6.2a2.76,2.76,0,0,0,.39,1.26.73.73,0,0,0,.61,0,4.14,4.14,0,0,0,.51-1.11c.08-.24-.07-.66.06-.75.81-.61.76-1.6,1.08-2.4s.25-1.57.54-2.29.3-1.42-.48-1.81c.28-.35.76-.7.71-.9-.23-.77.12-1.54-.22-2.34a8.39,8.39,0,0,1-.19-2.61Zm143.28,4.88c-.74-.69-3.34-.69-4,0a.81.81,0,0,0,.38,1.29A3.83,3.83,0,0,0,460.33,445.64Z" transform="translate(-105 -338.89)"/><path d="M109.27,338.89c0,.73,0,1.45,0,2.18.13,2.16.3,4.32.43,6.49.1,1.68.18,3.37.26,5.06s.23,3.5.22,5.25a35,35,0,0,1-1.28,9.49c-.14.52-.22,1.06-.37,1.79.81-.27,1.52-.52,2.23-.74,2.47-.75,4.64.15,6.79,1.21,1.47.72,3,1.53,4.63,1.37a22,22,0,0,0,4.74-1.22c1.49-.49,2.92-1.18,4.37-1.78l.18.26a7.27,7.27,0,0,1-1.32,1.11c-2.55,1.32-5.12,2.78-8,3a13.72,13.72,0,0,1-4.55-.86c-1.58-.48-3-1.41-4.64-1.72s-3.28-.47-4.42,1.2a4.66,4.66,0,0,1-1.15,1.06c-.7.48-1.44.73-1.92.06.77-2.06,1.62-3.94,2.14-5.9a32.57,32.57,0,0,0,.56-4.76,16.08,16.08,0,0,1,.23-2.2c.67-2.78.09-5.58.18-8.37,0-1.48-.55-3-.6-4.45a52,52,0,0,1,.26-5.71,7.66,7.66,0,0,1,.59-1.79Z" transform="translate(-105 -338.89)"/><path d="M408,447.69c-1.26.76-2.16,1.22-3,1.82a3.6,3.6,0,0,1-4.46-.47,6.38,6.38,0,0,1-1.48-6.13,7.29,7.29,0,0,0,.08-.79,10.65,10.65,0,0,1,1.17-.34c1.56-.3,2.33.38,2.32,2,0,1.42-.35,2.92,1,4.06,1-1.21,2.28-2.5,3.3-3.95a3.39,3.39,0,0,1,3.07-1.36c.39,0,1.11.38,1.13.63a14.65,14.65,0,0,1-.2,2.54l-.34,0,1.2.6v8.64l.52.18,2.87-3.18c.82-.91,1.68-1.8,2.45-2.75a2.5,2.5,0,0,0,.58-1.36,13.47,13.47,0,0,1,2.19-7.27,6.13,6.13,0,0,1,3.14-2,7.73,7.73,0,0,1,3.16.12c.85.1,1.25.43.31,1.12a1.23,1.23,0,0,0-.36,1c.58-.16,1.15-.36,1.73-.47s1.1-.24,1.3,0a2.4,2.4,0,0,1,.52,1.51c0,1.19-.2,2.38-.26,3.57a5.28,5.28,0,0,0,.36,1.32,9.08,9.08,0,0,1,1.64-1.8c1.36-.83,1.76-2.38,2.81-3.41a2.13,2.13,0,0,1,3.69,1,5.51,5.51,0,0,0,.23.91c.93,1.93,2.51,2.09,3.63.21a22.27,22.27,0,0,0,1.38-3.66c.11-.3.28-.71.51-.79a11.32,11.32,0,0,1,2.72-.69,1.45,1.45,0,0,1,1.17.78,11.31,11.31,0,0,1,.13,3c-.12,1.67,1.54,4.75,3.15,5.38a7.24,7.24,0,0,0,2,.18c-2.64,1.9-4.69,1.54-7.1-.28-.49-.38-.83-1-1.37-1.27a2,2,0,0,0-1.56,0,8.52,8.52,0,0,1-6.83.34c-.48-.17-.85-.77-1.32-.82a2.81,2.81,0,0,0-2.9,1.34.68.68,0,0,1-.44.28,9.48,9.48,0,0,0-5.19,2.95,4,4,0,0,1-2.88,1.13,8.32,8.32,0,0,1-1.8,0c-.83-.15-1.63-.42-2.51-.66,0,1.36-1.41,1.75-2.48,2.5a5.79,5.79,0,0,0-1.83,1.89,7.75,7.75,0,0,1-2.08,2.92c-1.31,1-1,2.54-1.15,3.92-.19,2.28-.3,4.57-.45,6.85-.09,1.51-.08,3-.32,4.52s-.72,2.86-1.08,4.28c-.67,2.7-1.25,5.42-2,8.08a13.83,13.83,0,0,1-2.06,4.91c-1.44,1.74-2.27,3.87-3.77,5.48-.88.94-1.53,2.19-3,2.65-1.13.34-2,1.49-3.09,2-2.68,1.3-5.5,1.87-8.19.17a5.34,5.34,0,0,1-1.53-2.47,17.62,17.62,0,0,1-.83-3.05,8,8,0,0,1,.28-4.7c.66-1.66,1.14-3.42,2-5,1.35-2.59,2.82-5.12,4.42-7.56.9-1.37,2.31-2.4,3.22-3.77s2.36-2.68,3.45-4.07c1.33-1.7,2.82-3.25,4.2-4.9.9-1.09,2-2,2.81-3.1a8.93,8.93,0,0,1,2.05-2.25c.36-.24.33-1.24.31-1.88-.07-2-.25-4-.32-6C407.93,450.84,408,449.44,408,447.69Zm0,16.84-.39-.15a10.45,10.45,0,0,1-1.07,1.53c-.94,1-2,1.87-2.94,2.82-.41.41-.76.87-1.13,1.32s-.58.78-.9,1.14c-.61.69-1.27,1.33-1.86,2-1.11,1.34-2.16,2.72-3.28,4-.24.29-.77.36-1,.66-.55.86-1,1.8-1.47,2.7-.73,1.37-1.46,2.73-2.16,4.11a28.73,28.73,0,0,0-1.64,3.46,15.46,15.46,0,0,0-.75,3.51,12.46,12.46,0,0,0,.05,3.66,9.41,9.41,0,0,0,1.31,2.56,3.17,3.17,0,0,0,4.58,1.08,20,20,0,0,0,6.37-7.48,22.44,22.44,0,0,0,1.38-2.42c.44-1.14.55-2.43,1.07-3.53a28.07,28.07,0,0,0,2.07-7c.53-2.94,1-5.89,1.42-8.86C407.92,468,407.91,466.26,408,464.53Zm17.53-21.33c-.6.9-1,2-1.73,2.45a2.29,2.29,0,0,0-1.25,2.29c0,.49,0,1.22.29,1.41.64.43,1-.31,1.38-.71.14-.14.3-.26.45-.39A4.17,4.17,0,0,0,425.53,443.2Z" transform="translate(-105 -338.89)"/><path d="M239.43,440l-1.61-.68-1,1.86-.24-.56c-.07,3.05.36,6.1-.25,9l.87,1.7,1.2.73c2.54-.49,3.35-2.82,4.53-4.75.67-1.1,1.09-2.34,1.72-3.47a1.56,1.56,0,0,1,1.05-.54,18,18,0,0,1,2.25,0c-.1.84-.56,2-.22,2.33,1.15,1.25-.32,3,.93,4.1.13.12-.05.59-.1,1.08,1.07.05,2.23.17,3.39.12a1.7,1.7,0,0,0,1.06-.74c.45-.6.76-1.29,1.16-1.93.08-.11.29-.14.7-.33.42-.77,1-1.8,1.54-2.87a2.77,2.77,0,0,0,.14-1.23c0-.38-.2-.77-.16-1.14.1-.81.8-1.44.69-2.37,0-.21.63-.56,1-.75a11.19,11.19,0,0,1,1.45-.5c1.35,1.11,1.4,1.64.21,2.94a.78.78,0,0,0-.22.52c.09,1,.25,1.95.32,2.93,0,.22-.26.45-.36.7s-.24.74-.36,1.11l.35.08.54-1.16c.47,1,.83,1.7,1.22,2.51,1.24-1.56,1.45-3.58,2.86-4.55.33-.58.59-1,.82-1.43.72-1.38,1.49-2.74,2.11-4.16.47-1.07.73-2.23,1.1-3.35.23-.69.47-1.38.74-2.06a21.94,21.94,0,0,0,1.16-8.28c0-.88,0-1.77,0-2.65,0-.64,1.18-1.34,2-1.18s1.6.27,1.3,1.61a25.13,25.13,0,0,0-.07,3.89c-.13,2.4-.31,4.81-.56,7.2-.19,1.76-.56,3.5-.77,5.26-.18,1.42-.22,2.85-.34,4.27-.06.71-.21,1.41-.23,2.11,0,1.42,0,2.83,0,4.28a42,42,0,0,0,6.16,2,12.52,12.52,0,0,0,10.67-2c1.2-.86,2.5-1.59,3.81-2.41,0,1,0,.91-.86,1.56s-1.4,1.46-2.2,2.07a7.59,7.59,0,0,1-2.26,1.25,23.25,23.25,0,0,1-4.53,1.12,51.35,51.35,0,0,1-5.41,0l-1.55,0,0-.38-.52.55a6.39,6.39,0,0,1-1.53-1c-.83-1-1.88-.73-2.92-.78a2.39,2.39,0,0,1-2-1.89,7.33,7.33,0,0,1-.16-4.83,9.18,9.18,0,0,0,.2-1.32,5.94,5.94,0,0,0-1,.78,24.73,24.73,0,0,1-2.43,3.39,3.84,3.84,0,0,0-1.23,2.43c0,.24-.53.4-1,.76a12.55,12.55,0,0,1,1.66,2.18,12.09,12.09,0,0,1,1.3,3.85c.14,1.37-1.1,2.24-2.22,2.64a17.45,17.45,0,0,1-4.28.75c-1,.08-2.25-1.4-2.23-2.38.05-1.93,1.1-3.46,2.08-5a2.29,2.29,0,0,0-.56-2.93,10.89,10.89,0,0,1-1.37-1.83,25.42,25.42,0,0,0-2.32,2c-1.64,1.81-5.2,2.69-7.29,1.42-.68-.42-2-.71-1.87-2.07,0-.13-.31-.38-.5-.4a.92.92,0,0,0-.6.27c-.9.87-1.71,1.84-2.68,2.61a4.27,4.27,0,0,1-3.52.91,7.5,7.5,0,0,1-.77-.25c-.6.87-1.34.57-2.11,0l.31-.53c-2.43-.41-.34-2.26-1.18-3.47l-.37,1.34-.28,0c.09-.53.06-1.42.3-1.51.9-.3.2-1.3.85-1.62-.14-.25-.44-.53-.4-.74.24-1.15-.29-2.24-.2-3.37a18.63,18.63,0,0,1,.21-2.25c.15-.71.25-1.75.72-2,1.15-.62,2.39-1.4,3.81-1a2,2,0,0,1,1.07,1.06,6,6,0,0,1,.42,1.8c0,.17-.13.51-.25.54s-.61,0-.72-.13A1.91,1.91,0,0,1,239.43,440Zm20.43,16.41a10.26,10.26,0,0,0,0,1.24c0,.31.09.75.3.89,1.14.75,1.86.34,1.94-1.08,0-.82,0-1.63,0-2.5-.65-.29-1.32-.47-1.37.81C260.74,456,260.18,456.15,259.86,456.37Z" transform="translate(-105 -338.89)"/><path d="M407.11,381.52a2.5,2.5,0,0,0-.78.54c-1.3,1.83-3.18,2.5-5.25,3.15-1.56.5-2.95,0-4.42.12a.17.17,0,0,1-.11,0,26.89,26.89,0,0,1-2.48-2.82c-.71-.46-1.17-.1-1.51.68-.6,1.39-3.59,2.83-5.05,2.44a16.8,16.8,0,0,1-2-.79c-.1,0-.26-.17-.25-.23.25-1,.51-2.06.8-3.08.07-.26.39-.52.35-.74a3.31,3.31,0,0,1,2.12-3.93,24.45,24.45,0,0,1,2.67-.72c.8-.17,2.16.93,2.22,2s.49,1,1.17.69c1.29-.48,1.39-.39,1.79.92a22.5,22.5,0,0,0,1.26,3.38c.5,1.06,2.08,1.12,3.46.46a10.43,10.43,0,0,0,5-5.6c.62-1.47.39-3.33.44-5,.1-3.1,0-6.21.8-9.24.29-1.08.36-2.24.74-3.28.23-.64.33-1.83,1.7-1.21.43.2,1.08-.1,1.62-.07.21,0,.57.32.56.48-.05.82-.21,1.63-.32,2.44,0,.32-.18.78,0,.94.79.82.58,1.8.66,2.77s.33,2.14.5,3.21l-.39-.3-.25.09.4,1,.28-.09c-.14.21-.43.46-.39.63.39,1.74-.61,2.9-1.54,4.15a6.17,6.17,0,0,0-.54,2c1.16.48,2.14-.2,3.16-.49.25-.07.47-.28.73-.33.6-.11.59-.31.58-.95a42.53,42.53,0,0,1,.33-5.15c.11-1.23,1.23-1.43,2.07-1.52a3,3,0,0,1,2.27.68,4.15,4.15,0,0,1,1,3.74,2.69,2.69,0,0,1-1.71,2.14c-1.16.33-.67,1-.5,1.37a18.11,18.11,0,0,0,2.21,3.6,2.29,2.29,0,0,0,3.84-1,10,10,0,0,1,.68-1.58c.58-1,.6-1,3.53-1.76.33,1.39.66,2.79,1.08,4.6a15.24,15.24,0,0,0,2.11-1.84,35.45,35.45,0,0,1,8-7.77,14.51,14.51,0,0,1,5.27-2.48c1.16-.21,2.32-.45,3.48-.66.11,0,.25.12.68.35a37.39,37.39,0,0,0-4.7,1.58c-1.38.66-2.6,1.67-4,2.37-.51.67-1,1.37-1.55,2-.81.91-1.68,1.76-2.52,2.65a37.12,37.12,0,0,0-3.51,3.82c-1.18,1.65-3,2.15-4.62,2.9-1.06.48-1.48.14-1.57-1.05,0-.31,0-.63,0-1.13-2.68,1-5.29,2-8,.6a8.36,8.36,0,0,1-3.31-3.75l-5.25.81a21.38,21.38,0,0,0,.65,3.46c.65,1.87,1.07,4,3.49,4.59.13,0,.21.27.35.46l-2.27.39c-.65-.25-1.35-.48-2-.77a2.13,2.13,0,0,1-1-.64C408.63,384.38,407.94,383.05,407.11,381.52Zm-17.2-3.84c-.46,1-1,2.05-1.39,3.13a8.49,8.49,0,0,0-.26,2.09c0,.32,0,.65,0,1,.37-.07.9,0,1.06-.22,1.27-1.64,3.11-3.11,1.87-5.65Zm19.93-6.6.37.19c.36-.25,1-.43,1.05-.75a16.3,16.3,0,0,0,.48-3.48,13.36,13.36,0,0,0-.46-2.45c0-.25-.07-.52-.1-.78l-.38,0Z" transform="translate(-105 -338.89)"/><path d="M305.81,355.71l-1.05.46-.66,3.76a5.66,5.66,0,0,1-.17,2.24,3.58,3.58,0,0,0-.1,3c.44,1,.07,1.83,0,2.76a47.85,47.85,0,0,0-.1,4.94c0,1.89-.37,3.78-.44,5.68a7.54,7.54,0,0,0,.5,2.77c.11.3.89.36,1.07.42.72-.95,1.32-1.78,2-2.57a5.71,5.71,0,0,0,1.26-4c0-.55,0-1.11-.06-1.66-.15-1,.2-1.52,1.3-1.32.37.07.75.07,1.26.12,0,2,0,3.95,0,5.95a3.55,3.55,0,0,0,.25,1.6c.12.24,1,.43,1.09.3,1.22-1.53,2.37-3.12,3.49-4.73.34-.49,2.17-1.7,2.71-1.52a1.22,1.22,0,0,1,.74.66,6.59,6.59,0,0,1,.49,2.39c-.14,1.95.51,3.73.89,5.57a60.07,60.07,0,0,1,1.68,9.31,106.44,106.44,0,0,1-.41,12.1,38.52,38.52,0,0,1-.86,4.71,33.51,33.51,0,0,1-.88,4.59,36.15,36.15,0,0,1-2.17,4.64,30.74,30.74,0,0,1-2.41,4.5c-1.47,2-3.19,3.88-4.81,5.8-.17.2-.34.39-.53.58-.88.89-1.71,1.91-2.83,1.67-.52.52-.8,1-1.21,1.17-1.38.61-2.8,1.12-4.21,1.65a14.06,14.06,0,0,1-6.3.67c-1.25-.11-2.3-2.05-1.87-3.46.54-1.78,1.21-3.53,1.92-5.26.19-.46.76-.76,1.11-1.17a24.31,24.31,0,0,1,7.11-5.84,25.09,25.09,0,0,0,2.45-1.66l.21.24-.78.67c-1.95,1.6-4,3.11-5.83,4.83a12.62,12.62,0,0,0-2.67,3.5,11.64,11.64,0,0,0-.59,3.35,5.86,5.86,0,0,0-.13,1.49c.12,1,1.29,1.64,2.71,1.49,2.72-.27,5.44-.75,7.53-2.65a24.24,24.24,0,0,0,5.68-6.93,15,15,0,0,1,1.09-1.81c.75-1.05,1.68-2,1.68-3.42a.61.61,0,0,1,.14-.32c1.24-1.42,1.39-3.31,2.06-5a16.09,16.09,0,0,0,.66-3.37c.31-1.94.64-3.87.85-5.83S319,399,319,397s0-4-.06-5.94a9.66,9.66,0,0,0-.34-1.36c-.29-1.48-.49-3-.86-4.42a6,6,0,0,1-.3-3.19c.11-.42-.6-1-.76-1.56a10.9,10.9,0,0,1-.23-2,1.45,1.45,0,0,0-.49.33,7.77,7.77,0,0,1-3.72,2.91,3.72,3.72,0,0,1-4.33-1.14c-.19-.24-.12-.69-.2-1.23-.27.14-.66.22-.71.39-.2.68.16,1.41-.65,2A4.5,4.5,0,0,1,302.7,383a8.61,8.61,0,0,1-1.55-1.51,4.28,4.28,0,0,1-.52-1.89,37,37,0,0,1,.13-3.94c0-.58.32-1.13.42-1.71a1.91,1.91,0,0,0-.17-.79c-.05-.13-.26-.31-.24-.33,1-1-.3-2,.16-3.09a8.11,8.11,0,0,0,.5-2.79c.14-2.3.21-4.62.26-6.93a23.13,23.13,0,0,0-.1-2.63,2.18,2.18,0,0,1,2.66-2.34A13,13,0,0,1,305.81,355.71Z" transform="translate(-105 -338.89)"/><path d="M348.88,448.82l1.29.23-.7.43a11.68,11.68,0,0,1,.69,2.54,15.45,15.45,0,0,1-.34,3.38c-.11.59-.34,1.34-1.22.54-.16-.15-.57,0-1.1,0,.12-.38.24-.68.31-1s.24-.72.11-.85c-.57-.63-1.23-1.17-2-1.88L347,452c1.12-1.29,0-2.2-.45-3.13s-1.68-.49-1.9-.07c-.44.85-1.22.82-1.84,1.16a26.08,26.08,0,0,1-2.78,1.31,1.62,1.62,0,0,1-2.24-.78c-.78,1.11-1.58,1.23-2.7.34-.79-.62-1.95-.75-2.79-1.32a7.59,7.59,0,0,1-1.4-1.82c-.48-.65-1-1.28-1.46-1.92-.2-.28-.41-.55-.65-.86a34.12,34.12,0,0,1-1.77,3,30.12,30.12,0,0,1-2.24,2.43l-1.08,1.17c-.4.45-.76.65-1.39.23-.3-.2-.88,0-1.38.05V444l.2.06a3.9,3.9,0,0,1-.35-.71c-.05-.17.1-.42,0-.56-.46-.9-.47-.89.42-1.51l2,1.55-.18.23-.59-.43-.35.14c.19.55.37,1.09.61,1.78a16.91,16.91,0,0,0,.34,2.39c.23.83.79.65,1.19.1a12.17,12.17,0,0,0,.68-1.35,5,5,0,0,1,7.26-1.46c.56.44,1.93,1.44,1.1,2.94l.59-.34c.41.39.79.74,1.15,1.1s.84.83,1.27,1.23c.17.16.4.37.6.36,2-.09,4.1.53,5.71-1.33.57-.65,1.52-1,2.06-1.66a11,11,0,0,0,1.1-2.56l2-2.76.24-4-.4,0,.56-1.31-.32,0a7.4,7.4,0,0,1-.26-1.39c0-1.55-.05-3.1,0-4.65,0-1.2.22-2.39.27-3.6a11.36,11.36,0,0,0-.16-1.73c-.13-1.21-.29-2.41-.4-3.62-.07-.81,1.61-1.58,2.42-1.14.33.17.64.35,1.05.58,0,.57-.06,1.2-.1,1.83a3.73,3.73,0,0,0-.08.44c.06.67,1.27.75.81,1.77a4.94,4.94,0,0,0-.17,2.16l.56-1.06h.3c0,.39.08.77.1,1.16a12.84,12.84,0,0,0,.12,2.49,9.48,9.48,0,0,1,.41,3.28c-.17,1.89,0,3.82-.07,5.72a6.6,6.6,0,0,1-.6,1.7v1.23l3,.18L355,442l5.64-.65c.71-.92.79-.94,1.44-.16a1.71,1.71,0,0,1,2.55,1.44s-.06.09-.05.1c1.26,1.87.3,3.74,0,5.61,0,.17.09.36.05.23-.52.79-.89,1.41-1.33,2a2.43,2.43,0,0,1-.92.69,19.63,19.63,0,0,1-2,.65c-1.23.35-1.91,0-2-1.22s-.87-2.91.61-4.08c.09-.07,0-.37,0-.56-.06-.45-.13-.89-.18-1.34s-.1-1-.13-1.35l-1.8-.32c-.18.15-.4.48-.59.47-1.49-.13-3-.31-4.46-.52-.22,0-.41-.28-.67-.46-.47.59-1.12,1.16-.62,2.19a1.29,1.29,0,0,1-.33,1.06c-.73.77-.62,1.23.66,1.46l-.81.56.37.72h-1.45Z" transform="translate(-105 -338.89)"/><path d="M375.59,362.46l-.25.61c-.22-1.15-.4-2.1-.6-3.17,1.12,0,2-1.28,3-.13a5.94,5.94,0,0,1,1.32,2.18,67.76,67.76,0,0,1,2.15,9.57c.23,2.19.87,4.44.11,6.75-.57,1.72-.56,3.62-1,5.39a14.29,14.29,0,0,1-1.29,2.6,8.72,8.72,0,0,1-1.52,2.21,5.6,5.6,0,0,1-3.58,1.58c-1.21.17-2.43.24-3.64.29a1.5,1.5,0,0,1-.87-.3,8.62,8.62,0,0,1-2.35-1.71c-.64-.89-1.74-1.51-1.73-2.91a14.17,14.17,0,0,0-.68-2.92c-.1-.49,0-1-.16-1.51,0-.2-.34-.35-.48-.48.13-.52.27-1.11.41-1.69l-.4-.13-.47,1.37a19.57,19.57,0,0,0,0-2.18,4.76,4.76,0,0,0-.51-1.19c-.27.25-.54.38-.58.56a64.05,64.05,0,0,1-1.54,6.61,30.74,30.74,0,0,1-2.64,4.92.93.93,0,0,1-.57.39,14.24,14.24,0,0,1-3,.46c-1.09,0-1.5-1.13-2.12-1.87-.8-1-.38-2.27-.92-3.35-.21-.44.16-1.13.14-1.7,0-.29-.28-.58-.43-.86l.31-.08c0-.07,0-.17,0-.19-.95-.5-.45-1.39-.55-2.11-.12-.92-.2-1.86-.35-2.78,0-.14-.33-.24-.73-.51l1.25-.18.07-1.2-.67.45c-.64-1.29-.13-2.57,0-3.86,0-.41-.15-.84-.16-1.26a21.92,21.92,0,0,1,.05-2.69c0-.18.5-.31.77-.47-1.2-1.53-1-3.82.45-4.47l-.56-.27c0-1.82,1.17-2.44,2.69-2.79a1.88,1.88,0,0,1,2.42,1.24c.09.39-.36.9-.5,1.23a4.76,4.76,0,0,0-1.45-.44c-.17,0-.41.6-.44.94-.24,2.72-.53,5.43-.63,8.14-.08,2.12,0,4.26.15,6.38.11,1.64.39,3.27.59,4.91s.4,3.31.59,5a1.94,1.94,0,0,0,1.6,1.67c2.83-3.39,3.12-7.6,3.87-11.83l.6-.14a9.2,9.2,0,0,1,0-1.3c.07-.49.23-1,.37-1.55l-.36-.15a4.36,4.36,0,0,0,.11-1.35c-.42-1.54.15-2.91.65-4.27.12-.31.66-.5,1.05-.65a16.28,16.28,0,0,1,1.79-.45c.2,1,.42,2.12.62,3.22a15.25,15.25,0,0,1,.22,1.51c.19,1.88.23,3.79.58,5.63a31.31,31.31,0,0,0,1.49,4.89,25.8,25.8,0,0,0,1.82,4,5.19,5.19,0,0,0,3.54,2.54,3.65,3.65,0,0,0,3.41-2,11.39,11.39,0,0,0,1.75-6.5,3.81,3.81,0,0,1,.14-.93,16.74,16.74,0,0,0-.07-6.07c0-.29.16-.61.11-.89-.44-2.76-.9-5.52-1.4-8.27a8.37,8.37,0,0,0-.63-1.53Z" transform="translate(-105 -338.89)"/><path d="M187.48,373.89c-.19-.15-.45-.26-.57-.46-.36-.6-.68-1.24-1-1.86-.1-.18-.3-.37-.27-.52.26-1.51-.57-2.71-1.08-4-.23-.61-.63-1.33-.49-1.87.26-1-.33-1.41-.79-2,1.64-.39,3.15-.52,4.48.79a3.2,3.2,0,0,0,1.74.81c1.61.22,2-.37,1.78-2a14,14,0,0,1-.14-2.74,2.3,2.3,0,0,1,.62-1.22l.21-1.4-.62.05c0-.63-.05-1.26,0-1.88.12-1.08.28-2.16.49-3.23.1-.48.4-.93.52-1.42a4.63,4.63,0,0,0,0-1c0-.51,0-1,0-1.55a9.48,9.48,0,0,1,1.17-.25c.64-.08,1,.18.86.87a55.34,55.34,0,0,0-1,10,28.12,28.12,0,0,1-.5,3.94,4.38,4.38,0,0,0,0,1.53,1,1,0,0,0,.85.49,6.57,6.57,0,0,0,1.84-.76,17.15,17.15,0,0,0,2.72-1.89,15.2,15.2,0,0,0,1.44-2,14.89,14.89,0,0,0,2.86-4.87c.32-1.08.5-2.2.75-3.3s2.42-1.8,3.19-1.14a.84.84,0,0,1,.11.72c-.56,1.7-1.26,3.35-1.73,5.07-.78,2.85-1.71,5.67-1.42,8.71.11,1.14-.29,2.33-.14,3.45a22.31,22.31,0,0,0,1.21,5,6,6,0,0,0,2,2.31c1.36,1,2.67.37,4.05-.27,1-.46.82-1,.63-1.68a8.75,8.75,0,0,1-.45-1.52c-.13-1.74-.23-3.48-.23-5.22,0-1.26,1.72-2.46,3.26-2.41a7.66,7.66,0,0,1,1.35,0c2.11.41,2.77,1.75,2.16,4A24,24,0,0,0,217,372a1.9,1.9,0,0,1-.32.78c-.59.86-1.21,1.71-1.84,2.58a4.81,4.81,0,0,0,3.38,2.56,1.93,1.93,0,0,0,2.4-.63,16.25,16.25,0,0,1,3-2.62,1.69,1.69,0,0,1,1.14-.25c-1.44,2.12-2.93,4-5.59,4.61-2.82.61-5-.62-7.12-2.11-2.18.93-4.4,1.58-6.87.62-.95-.37-2.08-.36-2.61-1.39a14.09,14.09,0,0,1-1.28-3.1,24.46,24.46,0,0,1-.76-5.08,46.84,46.84,0,0,1,.57-5.67,11,11,0,0,0-2.11,1.47,9.13,9.13,0,0,1-5.31,2.86c-.74.16-1.24.52-1.34,1a13.43,13.43,0,0,0-.06,2.77l-.3,0c-.09.55-.17,1.1-.26,1.65-.14.86.26,1.9-.9,2.43-.19.09-.25.71-.21,1.06.12.94-.57,1.3-1.2,1.43-.33.06-.79-.52-1.18-.82a1.91,1.91,0,0,1-.77-2.18l.7.09-.33.38,1.47,2a7,7,0,0,1,1-2.16c.9-.86-.35-1.44-.12-2.16a3.29,3.29,0,0,1,.15-.67c.75-1.15.51-2.41.46-3.65,0-.55-.14-.95-.83-1.05a21.65,21.65,0,0,1-2.73-.65c-.65-.19-1.29-.46-2.12-.76l1.28,5.1.69.33-1.1.79C187.67,371.73,187.38,372.9,187.48,373.89ZM213.63,367v4.28C215.34,368.7,215.26,367,213.63,367Z" transform="translate(-105 -338.89)"/><path d="M264.72,368.92l-1.09,1.82c-.14-.46-.39-1.12-.53-1.8s1.26-1.19,2.15-1a2.1,2.1,0,0,1,.43.19v-4l.59,1a30.91,30.91,0,0,1,.38-8.61c.33-1.53.39-3.11.75-4.63.46-1.94,1.67-2.26,3.24-1a10,10,0,0,0-1,2.13c-.32,1.51-.43,3.07-.67,4.6-.07.4-.4.77-.43,1.17-.19,2.92-.36,5.84-.48,8.75a4.3,4.3,0,0,0,.3,1.31,18.32,18.32,0,0,1,3-.16c3,.36,5.21-1.12,7-3.16.6-.67.55-1.94.7-2.95.22-1.44.31-2.9.53-4.34.17-1.14.44-2.26.71-3.38a2.37,2.37,0,0,1,3-1.43c1.67.76,2.12,2.12,2,4-.09,2.09-1.49,3.59-2,5.46a1.65,1.65,0,0,1-.54.77,4.79,4.79,0,0,0-1.49,4,8.85,8.85,0,0,1-.44,1.64,8.86,8.86,0,0,0-.18,1.44c0,.78.13,1.55.2,2.33.18,2.14.28,4.31.59,6.44a9.56,9.56,0,0,0,1.07,2.91c.64,1.27,1.5,1.33,2.43.25.33-.37.55-.84.88-1.21.09-.09.4,0,.83,0-1.14,1.06-1.52,2.54-3.22,2.75-1.18.15-1.88,0-2.42-1-.14-.27-.43-.63-.68-.65-1.07-.09-1-.92-1.07-1.59-.09-.84.06-1.71-.08-2.53-.16-1-.63-1.91-.75-2.88-.15-1.33-.1-2.69-.13-4a.33.33,0,0,1,.09-.21l.6-.65c-.19-.06-.54-.11-.55-.18,0-.7,0-1.4,0-2.13l-1.66.45c-2.7,1.92-5.75,1.34-8.86,1-.1,5.08-.21,10.16-.32,15.4-.11-.07.22,0,.24.16.21,1.92.2,1.93-.77,3-.57-1.75-1.12-3.36-1.59-5-.05-.19.32-.49.52-.79l-.7-.83a2,2,0,0,0,.35-2.42,8.36,8.36,0,0,1-.1-2.31c-.07-1-.27-2-.32-3a3,3,0,0,1,.45-1.71l-.39-3.29Zm16.87-8.41.53.16,1.5-3.45-1.25-.31C282.11,358.13,281.85,359.32,281.59,360.51Z" transform="translate(-105 -338.89)"/><path d="M163.33,357.52c-.11.11-.19.3-.32.34-2.06.65-4.09,1.6-6.2,1.82s-3.23,1.64-5,2.12c-.55.15-.84,1.21-1.28,1.84-.83,1.17-1.63,2.35-2.53,3.46a1.68,1.68,0,0,0-.4,1.8c.17.51.12,1.1.27,1.62.28,1,.11,2.17,1.43,2.59.13,0,.16.38.36.87-.46-.28-.68-.53-.86-.51-1.92.24-2-1.24-2.3-2.46-.4-1.6-1-1.79-2.31-.83a7.16,7.16,0,0,1-2.21,1.06c-2.92.82-5.78,1-8.3-1.15a3.78,3.78,0,0,1-1.29-2.81,23.1,23.1,0,0,1,.49-5,3.67,3.67,0,0,1,1.43-1.71,16.69,16.69,0,0,1,3-2,3.72,3.72,0,0,1,4.19.61c-.31,2.57-2.07,4.23-3.46,6.11a3.11,3.11,0,0,1-3.28,1,3.66,3.66,0,0,0,1.61,3.31,5.64,5.64,0,0,0,6.17,0c2.15-1.23,2.91-2.45,2.48-4.92-.19-1.08-1.06-.49-1.47-.36-1.12.34-1.1.42-2.45-.21a29.46,29.46,0,0,0,2.64-1.32,1.87,1.87,0,0,0,.82-1.14c.31-2.34.41-4.71.79-7,.34-2.09.94-4.14,1.43-6.21,0-.19.22-.38.2-.55-.24-1.72,1.17-1.95,2.25-2.38a2.42,2.42,0,0,1,2.69.77,5.52,5.52,0,0,1,1.2,2.25c.68,2.66,1.17,5.34.43,8.09a17.82,17.82,0,0,0-.39,1.93,4.18,4.18,0,0,0,.05.86,5.84,5.84,0,0,0,.84-.1c1.85-.45,3.69-.93,5.54-1.37,1.2-.28,2.41-.5,3.62-.75Zm-13.12-10.3-.55,0c-1.15,1.72-1.39,3.78-1.74,5.72-.45,2.43-.5,4.93-.76,7.39-.1.9.2,1.13,1.13.91,2.14-.5,2.2-2.5,2.65-4a13.9,13.9,0,0,0,.3-5A40.67,40.67,0,0,0,150.21,347.22ZM134.77,366.1a2.42,2.42,0,0,0,.77-.34,46.24,46.24,0,0,0,3.11-3.61,4.61,4.61,0,0,0,.55-2c0-.19-.34-.64-.44-.61-.68.14-1.54.19-1.94.64C135.36,361.79,134.09,363.57,134.77,366.1Z" transform="translate(-105 -338.89)"/><path d="M217,444.75c-.36.68-.68,1.34-1.05,2a10.28,10.28,0,0,1-3.9,3.87,3.19,3.19,0,0,1-4.08-.27c-1-.74-1.23-1.55-.89-2.18l-.56-1.67-.47-.19a1.34,1.34,0,0,0,.11-.38c0-.39-.08-.78-.11-1.18s-.09-1-.09-1.54c0-1.75,0-3.5,0-5.25a9.49,9.49,0,0,1-.18-2.34c.42-1.68.16-3.41.5-5.06a2.15,2.15,0,0,1,1.33-1.21,11.58,11.58,0,0,1,2.46-.3l.06.36a3.7,3.7,0,0,1-.54.37,3.1,3.1,0,0,0-1.59,3.09c.1,2.63,0,5.27,0,7.91a13.83,13.83,0,0,0,0,1.82c.19,1.4.39,2.8.68,4.18a11.54,11.54,0,0,0,.87,2.8c.43.87,1.09.59,1.58-.06.85-1.12,1.65-2.28,2.51-3.38a2.57,2.57,0,0,1,.72-.55c.1-.76,0-1.75.31-1.93.68-.38.37-1,.63-1.34.38-.53-.2-1.51.86-1.73.13,0,.18-.72.18-1.1,0-.87-.36-1.87,0-2.58a6.08,6.08,0,0,0,.43-3.95c-.12-.55,1.25-1.26,2.17-1.13s.58.79.56,1.31c0,.94-.1,1.88-.11,2.83a27.58,27.58,0,0,0,.16,5.23,8,8,0,0,0,.33,2.15c.52,1,1.12,2,1.71,3,1.09,1.82,4,1.95,5.53.39.4-.4.58-1.66,1.7-.95.06-.1.16-.19.17-.3.1-.81.18-1.63.27-2.44a.83.83,0,0,1,.07-.32c1.39-2.42,0-4.77-.28-7.12-.09-.74-1-1.38-1.58-2.18a5.4,5.4,0,0,1-.66,1.11c-.14.14-.47.1-.72.11a.44.44,0,0,1-.1-.34c.23-.43-1.07-.58-.17-1.16a3.93,3.93,0,0,1,3-.56c.83.19,1.93.21,2,1.59,0,.51.62,1,.94,1.47,1.18,1.87,1,3.9.86,6s-1.48,3.79-2.77,5.33a6.15,6.15,0,0,1-2.46,1.33,7.62,7.62,0,0,1-6.81,0C219,447.39,218.23,445.78,217,444.75Z" transform="translate(-105 -338.89)"/><path d="M286.74,380.74c0-1.74,0-3.46,0-5.19a4.25,4.25,0,0,1,.37-2.14,7.18,7.18,0,0,1,1.92-1.41c.34-.24.65-.51,1-.74a4.6,4.6,0,0,1,6.74,1.33c1.07,1.86,1.89,3.86,1.27,6.17a6.47,6.47,0,0,1-5.21,4.21c-2,.06-3.83-.31-5.15-2C287.57,380.78,287.19,380.82,286.74,380.74Zm3.4-4.22-.69,1.29c-.05-.06.13.07.16.23a4.06,4.06,0,0,0,2.35,3.29,1.77,1.77,0,0,0,1.39,0,3.91,3.91,0,0,0,1.89-3.51,10.28,10.28,0,0,0-2-5.44c-.11-.18-.57-.15-.94-.23a4.93,4.93,0,0,1-2.14,4.4c.16-.73.35-1.46.47-2.19,0-.23-.13-.48-.2-.72-.19.16-.51.3-.56.51-.22.92-.36,1.87-.54,2.8l.37.13Z" transform="translate(-105 -338.89)"/><path d="M317.05,440.76l2.42-.73a8.39,8.39,0,0,0,.19,2.61c.34.8,0,1.57.22,2.34.05.2-.43.55-.71.9.78.39.81,1,.48,1.81s-.25,1.57-.54,2.29-.27,1.79-1.08,2.4c-.13.09,0,.51-.06.75a4.14,4.14,0,0,1-.51,1.11.73.73,0,0,1-.61,0,2.76,2.76,0,0,1-.39-1.26c.15-2.07.46-4.13.57-6.2S317.05,442.73,317.05,440.76Z" transform="translate(-105 -338.89)"/><path d="M460.33,445.64a3.83,3.83,0,0,1-3.66,1.3.81.81,0,0,1-.38-1.29C457,445,459.59,445,460.33,445.64Z" transform="translate(-105 -338.89)"/><path class="cls-1" d="M408,464.53c-.09,1.73-.08,3.47-.3,5.17-.39,3-.89,5.92-1.42,8.86a28.07,28.07,0,0,1-2.07,7c-.52,1.1-.63,2.39-1.07,3.53a22.44,22.44,0,0,1-1.38,2.42,20,20,0,0,1-6.37,7.48,3.17,3.17,0,0,1-4.58-1.08,9.41,9.41,0,0,1-1.31-2.56,12.46,12.46,0,0,1-.05-3.66,15.46,15.46,0,0,1,.75-3.51,28.73,28.73,0,0,1,1.64-3.46c.7-1.38,1.43-2.74,2.16-4.11.48-.9.92-1.84,1.47-2.7.19-.3.72-.37,1-.66,1.12-1.32,2.17-2.7,3.28-4,.59-.7,1.25-1.34,1.86-2,.32-.36.59-.76.9-1.14s.72-.91,1.13-1.32c1-1,2-1.84,2.94-2.82a10.45,10.45,0,0,0,1.07-1.53Z" transform="translate(-105 -338.89)"/><path class="cls-1" d="M425.53,443.2a4.17,4.17,0,0,1-.86,5.05c-.15.13-.31.25-.45.39-.4.4-.74,1.14-1.38.71-.29-.19-.27-.92-.29-1.41a2.29,2.29,0,0,1,1.25-2.29C424.56,445.19,424.93,444.1,425.53,443.2Z" transform="translate(-105 -338.89)"/><path class="cls-1" d="M259.86,456.37c.32-.22.88-.42.89-.64.05-1.28.72-1.1,1.37-.81,0,.87,0,1.68,0,2.5-.08,1.42-.8,1.83-1.94,1.08-.21-.14-.26-.58-.3-.89A10.26,10.26,0,0,1,259.86,456.37Z" transform="translate(-105 -338.89)"/><path class="cls-1" d="M389.91,377.68l1.32.32c1.24,2.54-.6,4-1.87,5.65-.16.21-.69.15-1.06.22,0-.32-.06-.65,0-1a8.49,8.49,0,0,1,.26-2.09C388.9,379.73,389.45,378.7,389.91,377.68Z" transform="translate(-105 -338.89)"/><path class="cls-1" d="M409.84,371.08l1-7.29.38,0c0,.26.05.53.1.78a13.36,13.36,0,0,1,.46,2.45,16.3,16.3,0,0,1-.48,3.48c-.08.32-.69.5-1.05.75Z" transform="translate(-105 -338.89)"/><path class="cls-1" d="M187.48,373.89c-.1-1,.19-2.16-1.53-2.44l1.1-.79-.69-.33-1.28-5.1c.83.3,1.47.57,2.12.76a21.65,21.65,0,0,0,2.73.65c.69.1.81.5.83,1.05.05,1.24.29,2.5-.46,3.65a3.29,3.29,0,0,0-.15.67c-.23.72,1,1.3.12,2.16a7,7,0,0,0-1,2.16l-1.47-2,.33-.38-.7-.09Z" transform="translate(-105 -338.89)"/><path class="cls-1" d="M213.63,367c1.63,0,1.71,1.72,0,4.28Z" transform="translate(-105 -338.89)"/><path class="cls-1" d="M281.59,360.51c.26-1.19.52-2.38.78-3.6l1.25.31-1.5,3.45Z" transform="translate(-105 -338.89)"/><path class="cls-1" d="M150.21,347.22a40.67,40.67,0,0,1,1,5.07,13.9,13.9,0,0,1-.3,5c-.45,1.48-.51,3.48-2.65,4-.93.22-1.23,0-1.13-.91.26-2.46.31-5,.76-7.39.35-1.94.59-4,1.74-5.72Z" transform="translate(-105 -338.89)"/><path class="cls-1" d="M134.77,366.1c-.68-2.53.59-4.31,2-5.92.4-.45,1.26-.5,1.94-.64.1,0,.47.42.44.61a4.61,4.61,0,0,1-.55,2,46.24,46.24,0,0,1-3.11,3.61A2.42,2.42,0,0,1,134.77,366.1Z" transform="translate(-105 -338.89)"/><path class="cls-1" d="M290.16,376.56a4.93,4.93,0,0,0,2.14-4.4c.37.08.83,0,.94.23a10.28,10.28,0,0,1,2,5.44,3.91,3.91,0,0,1-1.89,3.51,1.77,1.77,0,0,1-1.39,0,4.06,4.06,0,0,1-2.35-3.29c0-.16-.21-.29-.16-.23l.69-1.29Z" transform="translate(-105 -338.89)"/><path class="cls-1" d="M290.14,376.52l-.44.57-.37-.13c.18-.93.32-1.88.54-2.8.05-.21.37-.35.56-.51.07.24.24.49.2.72-.12.73-.31,1.46-.47,2.19Z" transform="translate(-105 -338.89)"/></svg>