<svg id="Layer_1" data-name="Layer 1" xmlns="http://www.w3.org/2000/svg" viewBox="0 0 299.76 96.96"><defs><style>.cls-1{fill:#fff;}</style></defs><path class="cls-1" d="M276.3,469.85H148v-97H447.76v97H278a6.25,6.25,0,0,0,3.57-3.06c.54-1.26,1.72-2.12,2-3.61.22-1.27,1.05-2.42,1.47-3.67.35-1,.46-2.06.74-3.08.53-1.93,1.73-3.7,1.34-5.85a3.13,3.13,0,0,1-.1-1.05c.16-1,.49-1.92.59-2.9.16-1.65.2-3.31.26-5a10.83,10.83,0,0,0-.12-1.13c-.06-1.79-.1-3.58-.18-5.37,0-.34-.35-.72-.26-1,.59-1.63-.21-3.26,0-4.88a5.8,5.8,0,0,0,0-1.44c-.14-1.48-.22-3-.49-4.42-.08-.44-.71-.81-1.13-1.14-.07-.06-.46.11-.57.27-1.18,1.68-2.33,3.37-3.49,5.06L279.93,430a7,7,0,0,1-.11-2.06c0-.49-.09-1,0-1.47a10.33,10.33,0,0,0-.15-4.85c-.11-.3-.52-.71-.75-.69a1.35,1.35,0,0,0-1,.67,6.16,6.16,0,0,0-.13,1.78c-.05,1.93,0,3.88-.17,5.79-.11,1,0,1.8.77,2.1s2.15.8,3,.07a12.48,12.48,0,0,0,2.08-3c.35-.59.51-1.3.81-1.92.08-.17.37-.23.56-.34a2,2,0,0,1,.21.56c.18,3,.42,6,.51,8.95a97.9,97.9,0,0,1,.06,12.23,47.16,47.16,0,0,1-3.13,13.41c-.91,2.21-1.54,4.47-3.24,6.27-.64.67-2,1-2.37.36a9,9,0,0,1-.82-1.91c-.87-2.7-.64-5.5-.71-8.27,0-.15,0-.39.11-.43.95-.43.31-.92.09-1.4,0-.09-.07-.19-.11-.31l.68-.09a6.31,6.31,0,0,1,.88-3.16c.71-1.22,1.29-2.53,2-3.9l-.27-.53c1.48-.37,1.17-1.86,1.71-2.83l-1.95,2.22.28.65a6,6,0,0,0-1,.42c.19.93-.72,1.31-.93,2-.6,2.08-1.55,4-2.05,6.16a30.51,30.51,0,0,0-.75,8.75C274.1,467,274.52,468.81,276.3,469.85Zm119-56.88.31.16a4.76,4.76,0,0,0,0,.92c.19,1.87.42,3.74.62,5.61,0,.37,0,.76.08,1.13.15.88.29,1.77.51,2.64a4.44,4.44,0,0,0,.66,1.07c.15-1.61.36-2.91.38-4.21a29.65,29.65,0,0,0-.35-3.4,4.33,4.33,0,0,0,.13-3.22c-.12-.35,0-1.12.16-1.18.95-.34,2.3.25,2.7-1.28l.19,0,.24.74,2.33-1.49c1,.4.71,1.45.73,2.39a15.36,15.36,0,0,0,.09,3.4,8.46,8.46,0,0,0,1.59,2.91c.69.89,1.25,2,2.49,2.32.66.18,1.5.18,1.93.59,1.05,1,2.23.4,3.16.23a6,6,0,0,0,2.68-1.91,40.21,40.21,0,0,0,2.59-3.34c1.72,1.45,2.14,1.1,3.27,0a6.07,6.07,0,0,0,1.4-2.55A18.45,18.45,0,0,1,426,409c.69-.94,1.69-1.66,2.28-2.64s.95-.6,1.33-.05c.87,1.27,1.72,2.55,2.46,3.88a15,15,0,0,1,1.57,3.59,5.79,5.79,0,0,1-1.25,4.53,9.4,9.4,0,0,1-1.62,1.52c-.45-.65-.92-1.28-1.33-1.94-.09-.15,0-.41,0-.68-1.56,1-1.84,1.65-1.53,3.24.27,1.32,1.15,2.42,1.94,2.15a8.5,8.5,0,0,0,3.05-1.65,9.36,9.36,0,0,0,1.86-2.95c.65-1.43,1.13-2.94,1.68-4.41a.33.33,0,0,0,0-.24c-.47-1-.88-2-1.43-3a28.07,28.07,0,0,0-3.07-4.82c-1.07-1.22-1.09-2.41.07-3.21.84-.57.58-1,.55-1.69-1.81,0-3.19.47-3.77,2.33a3.84,3.84,0,0,1-.82,1.11,55,55,0,0,0-4,4.9,63.8,63.8,0,0,0-3,5.82,5.09,5.09,0,0,1-.88.95,7.76,7.76,0,0,1-.35-1.36c-.05-1.28,0-2.57-.08-3.85a.94.94,0,0,0-1.23-.92c-.85.2-1.38.61-1.29,1.64a14.57,14.57,0,0,1-1.72,7.69,3.47,3.47,0,0,1-2.5,1.89c-1.58.36-2.69-.47-4.18-1.24a6.7,6.7,0,0,0,1.57-1.13,10.85,10.85,0,0,0,1.72-4.81c.08-.51,0-1.05,0-1.57a12.87,12.87,0,0,0,.18-2.22,2.13,2.13,0,0,0-1.53-1.81,2,2,0,0,0-2.19.29c-.75.65-1.51,1.27-2.28,1.92-.52-1.65-.86-1.88-2.46-1.46-1.87.49-3.72,1.07-5.55,1.6-.84-.58-.8-1.55-.88-2.34-.16-1.65-.45-3.45.05-4.94.45-1.34-.32-2.58.37-3.91.52-1,.27-2.37.36-3.59l1.11-.05.19-.25c-.65-.52-1.29-1.05-2-1.53-.11-.07-.42.12-.62.22-1.08.51-1.12,1.64-1.23,2.53a52.82,52.82,0,0,0-.2,5.49c0,1.46,0,2.93,0,4.49l.71.19c-.28.25-.72.45-.74.69a8.51,8.51,0,0,0,.08,2.31c.15.79.25,1.32-.76,1.62-.52.16-.9.8-1.25,1.13l1,2.27Zm-98.93,16.55-4.49,7.74c-.38.65-.54,1.52.05,1.89a3,3,0,0,0,2.21.25,4.73,4.73,0,0,0,2.37-1.46,27.21,27.21,0,0,0,2.95-4.91,2.15,2.15,0,0,0-.27-2.64c-.33-.31-.25-1.35,0-1.91.81-1.83,2.86-2.13,4.31-3.19.35-.26.72-.37.68.5-.09,1.65.78,3.27.28,5,0,.09.14.26.23.38a13,13,0,0,1,1.08,1.51c.23.44.15.49,1,.28-.28-1.44-.57-2.9-.88-4.48,1.14-.43.16-1.38,0-2.16-.22-1.46-.37-1.84,1.13-2.6s2.89-1.64,4.36-2.4c1-.5,2-.89,3-1.33l-.1-.4a2,2,0,0,0-.73-.06c-2.37.76-4.74,1.57-7.13,2.31-.19.06-.75-.29-.74-.43.1-2.63.25-5.27.4-7.9a3.56,3.56,0,0,1,.05-.47l1.14-5a4.14,4.14,0,0,1-1-.17c-.4-.22-.79-.76-1.14-.72-.83.1-.85.83-.89,1.55a45.42,45.42,0,0,1-.46,5.35,23.89,23.89,0,0,1-2.37,6.68c-1.18,2.36-2.38,4.7-3.58,7-4-2.24-2.6-6-.43-8.66l-1.94-2a16.82,16.82,0,0,0-2.39,1.95,3.83,3.83,0,0,0-1.07,3.72,6.75,6.75,0,0,0,2.09,3.67A14.69,14.69,0,0,1,296.33,429.52Zm39.82-26.63a8,8,0,0,0-2.39-.92,3.06,3.06,0,0,0-2.36.77,7.05,7.05,0,0,0-1.07,3.36q-.3,4.53-.25,9.08a52,52,0,0,0,.52,6.71,2.29,2.29,0,0,1-.36,1.95c-1,1.21-1.84,2.49-2.85,3.65s-2,.92-2.7-.32c-.17-.3-.3-.64-.47-.95-.52-1-1.4-1.45-2.37-.44-.45.47-.74,1.1-1.16,1.61-1.14,1.38-2.31,2.75-3.49,4.11a3.32,3.32,0,0,1-.78.48c-.76-2.37.91-8.75,2.81-10.36l-.25,1.94.43.1a4.73,4.73,0,0,1,.45-1.71,1.11,1.11,0,0,0-.32-1.73c-.51-.39-1.19-.86-1.94-.1-.49.5-1.09.82-1,1.65,0,.13-.22.31-.37.43s-.5.16-.54.3c-.28,1-.5,2.06-.75,3.13l.56.32a17.06,17.06,0,0,0-1.08,2.49c-.19.7.13,1.58-.17,2.19-.49,1,.16,1.4.67,2a1.85,1.85,0,0,0,2.15.67,7.77,7.77,0,0,0,4.51-4.09c.4-.86,1.06-1.24,1.53-.73a3.69,3.69,0,0,0,4.25,1.1c.19-.07.32-.32.45-.5.39-.53,1.26-.79,1-1.71l.15-.06.47.43c.25-.43.49-.86.76-1.28s.41-.58.61-.87a4.44,4.44,0,0,1,1,.73,17.68,17.68,0,0,1,1.21,1.88c.47.77,1,.9,1.76.23-.48-.28-.32-1.16-1.16-1.05-.11-1.51-.67-3-.34-4.54.06-.31.35-.57.49-.87a14.17,14.17,0,0,1,.53-1.33,5.88,5.88,0,0,1,.91-.91,3.73,3.73,0,0,1,1.08-3l-.47-.28c.52-.77-.11-2.2,1.33-2.32.08-1.5.14-2.9.23-4.3.06-1,.22-1.91.23-2.86a7.65,7.65,0,0,0-.25-2.14c-.17-.59-.29-1.5-1.42-.94ZM318,373.94c-.64-.32-1.27-.81-1.45-.69a3.83,3.83,0,0,0-1.39,1.63,8.7,8.7,0,0,0-.21,2.42c-.07,1.34-.18,2.68-.22,4a21.75,21.75,0,0,0,0,3.7,7.23,7.23,0,0,1-.15,2.86c0,.17-.41.24-.6.39s-.63.38-.69.62a3.27,3.27,0,0,0,.06,1.39,1.34,1.34,0,0,0,.88,0c.69-.36.84,0,.92.56a12.78,12.78,0,0,0,.45,2.64c.27.72,1,1.28.29,2.13-.07.08.06.34.06.34l1.2-.4c-.17-.44-.4-1-.58-1.53a.62.62,0,0,1,.08-.55c.77-.81-.07-1-.49-1.33l.77-.41a1.64,1.64,0,0,1-.11-2.63c1.55,1,3.09.11,4.5-.07a24.72,24.72,0,0,0,4.75-1.65,17.4,17.4,0,0,0-.33,2c0,.66.08,1.33.07,2a4,4,0,0,0,2.62,3,6.21,6.21,0,0,0,6.32-3,3.16,3.16,0,0,0,.68-1.34,2.87,2.87,0,0,0-1.15-2.87c-1-.63-1.95-1.39-3-2a2.84,2.84,0,0,0-1.51-.43c-1.31.07-2.71,0-3.74,1.09a1.44,1.44,0,0,1-.75.3c-2,.42-3.93.83-5.89,1.23l-2.67.55c-.18-.35-.62-.93-.5-1.08.81-1.08.76-1.81-.64-2.3h.78c0-.71.13-1.37.12-2,0-1.15-.18-2.29-.14-3.43a23.94,23.94,0,0,1,.4-2.47c.22-1.74.24-1.74,1.95-1.82a6.43,6.43,0,0,0,1.74-.73l-2-.84Zm51.74,48.64c.83.63,1.75,1.36,2.71,2,.3.21.86.48,1.06.35.81-.55,1.73.07,2.68-.52,1.21-.77,2.7-1.81,2.68-3.29a40.89,40.89,0,0,0-.5-5.63,6.07,6.07,0,0,0-1-2.07c-.43-.71-.95-1.36-1.53-2.17l-1.23.12c.08.34.12.72.24,1.08.45,1.32.88,2.65,1.37,3.95a5.89,5.89,0,0,1-.1,4.66c-.39.86-.77,2-2.07,1.91a2.39,2.39,0,0,1-2.32-2c-.22-1-.38-2-.57-3-.28-1.49-.47-1.64-2.14-1.67a8.13,8.13,0,0,0-.38,1c-.1.37-.13.76-.22,1.14a10.46,10.46,0,0,1-.53,2.19,24,24,0,0,1-1.69,2.89c-.5.76-.83,1.74-2,1.8-.43,0-.86.14-1.39.23-.14-1.39-.34-2.94-.44-4.49-.06-.89.08-1.8.08-2.69,0-1.46-.3-3,1-4.14a.75.75,0,0,0,.09-.54,5.74,5.74,0,0,0-1.67-.51,1.11,1.11,0,0,0-.83.67c-.22,1-.29,2.05-.41,3.08-.06.49-.15,1-.18,1.48s0,.9,0,1.5l.31,0a5.24,5.24,0,0,0-.25,1.24,17.13,17.13,0,0,0,.39,3.36c.16.59.79,1.42,1.28,1.48,1.14.13,2.36,1.84,3.51,0,0,0,.15,0,.23,0,1,.11,1.52-.52,2-1.28a8,8,0,0,1,.74-1.14A12.9,12.9,0,0,1,369.73,422.58ZM248.31,399.93c-1.26,1.55-1.75,1.68-4.14,1.12l.71-.39c-.56-.4-1.38-.58-.57-1.44.2-.2.09-.71.1-1.07,0-.91-.57-1.87.23-2.72,0,0,0-.11.05-.18l-.66.16c.29-.74.53-1.46.84-2.15.54-1.18-.48-2.23-.12-3.52s.52-2.64.92-3.94c.29-1,.46-1.95.64-2.71.22-.38.5-.64.48-.88a5.42,5.42,0,0,0-.4-1.26l.29-.09-.73-.28c1.61-1,.17-2.21.58-3.23-1.53-.45-2-.16-2.19,1.31-.19,1.32-.42,2.64-.57,4a24.47,24.47,0,0,0-.25,3.81,8.41,8.41,0,0,1-.73,4.75l.44.15c-.15.28-.23.65-.46.81-.65.42-1.26.79-.52,1.64.06.06-.05.27-.14.62-.55-.43-1-.78-1.44-1.11-.79-.56-1.59-1.16-2.61-.46-.62.43-1.23.88-1.86,1.3-.24.16-.63.22-.76.44-.47.81-.86,1.66-1.31,2.55l.24.21c-.26.33-.63.59-.71.93-.45,1.76-.89,3.52-1.17,5.31-.09.63.19,1.81.51,1.89a4,4,0,0,0,2.46-.28c1.87-.86,2.93-2.62,4.13-4.19a20,20,0,0,1,1.71-2.59,3.17,3.17,0,0,0,1-2.34,3.18,3.18,0,0,1,.52-1l.42.18a35.2,35.2,0,0,0,0,4c.23,2.07-.05,2.73,2.18,3.42l2.86-1.69Zm-63.2-4.2a6,6,0,0,0,.35,1.43,3.74,3.74,0,0,1,.51,3c-.42,1.3-.63,2.67-1,4s-2.17,2.53-3,2a5.66,5.66,0,0,1-2-2.18,23.27,23.27,0,0,1-1.19-4.48c-.18-.89,0-1.87-.19-2.74-.18-.71.08-1.83-1.3-2,.06.34.22.74.13.81-1.24,1-1.41,2.46-1.92,3.76-.66,1.72-1.29,3.46-1.81,5.22-.57,2-1.15,3.9-3,5.43a12.19,12.19,0,0,1-.6-3.11c.26-3-.72-6.08,1.05-8.88,0-.07-.46-.66-.55-.62a1.78,1.78,0,0,0-.95.7,6.47,6.47,0,0,0-.47,1.95,46.31,46.31,0,0,0-.23,4.85c.05,1.93.24,3.87.48,5.79.11.88,1,1,1.79.55,1.67-1,2-2.81,2.66-4.43.55-1.42.82-3,1.38-4.38A32.11,32.11,0,0,1,177,399c.49,1.87,1.09,3.69,1.44,5.55.41,2.13,1.19,2.84,4.24,3.33.7.11,2.22-1.15,2.7-2.22l1.08-2.39c.85-1.86,1.5-3.79.71-5.81C186.9,396.7,186.69,395.53,185.11,395.73Zm79.44,25.38,0-.37a4.67,4.67,0,0,0-1.3-.2,2.49,2.49,0,0,0-2,3.13c.16,1,.23,1.94.31,2.91.11,1.33.11,2.69.33,4a3.48,3.48,0,0,0,1,1.89c1.26,1.18,3.06.73,4.27-1,.67.4,1,.22,1.54-.49,1.16-1.57,1.36-3.63,3-5A28.58,28.58,0,0,0,275,422c.27-.33.59-.63.88-.94l-.3-.4c-3.09-.11-4.48,2.53-6.47,4.46a3.66,3.66,0,0,0,0-1.22,6.43,6.43,0,0,0-.88-1.1,4.32,4.32,0,0,0-.9,1.09,4.72,4.72,0,0,0-.26,1.86c.12,1.56-.72,2.75-1.38,4-.36.67-.78,1.31-1.18,2l-.55-.14c-.23-3.21-.46-6.42-.68-9.51ZM162.91,386.49c.9-1.6.78-2.18-.39-2a5.21,5.21,0,0,0-2.46.94c-2.43,1.9-4.76,3.94-7.14,5.91-.78.65-1.55,2.39-1.23,3.2a28.46,28.46,0,0,0,1.31,2.73c1.78,3.27,4.46,6,5.05,10a6.61,6.61,0,0,1-.89,4.62,9.59,9.59,0,0,1-3.91,3.24c-2,.9-3.55.56-4-2a10.76,10.76,0,0,1,.26-2.89,2.13,2.13,0,0,0-1.2,2.08,5.24,5.24,0,0,0,.62,3.14c1,1.55,1.81,2.11,3.44,1.44a1.08,1.08,0,0,1,.55-.16,3.24,3.24,0,0,0,2.69-1.23,8.87,8.87,0,0,0,2.79-4.06,23.15,23.15,0,0,0,1.11-3.75,7.3,7.3,0,0,0-.75-3.37c-1.09-2.42-2.35-4.75-3.56-7.12-.61-1.2-1.3-2.37-1.84-3.61-.19-.43-.24-1.27,0-1.49,2.34-2,4.72-3.91,7.16-5.76A1.7,1.7,0,0,1,162.91,386.49Zm105.91,8.21.34.09a3.74,3.74,0,0,1,0,.58,4.68,4.68,0,0,0,1.65,4c1.66,1.66,5.45.86,6.31-1.29a11.73,11.73,0,0,0,.63-4.57c0-1.73-1.46-2.76-2.56-3.91-.11.09-.2.13-.21.19a.46.46,0,0,0,0,.33,7.38,7.38,0,0,1,.11,7.6c-.71,1.26-1.75,1.41-3,.57-1.6-1.11-1.31-2.82-1.63-4.35-.16-.77-.38-1.54-.57-2.31l-.49-.16a10.88,10.88,0,0,0-1.51,1.69c-.94,1.63-1.72,3.35-2.65,5a1.78,1.78,0,0,1-1.11.83c-.31.06-1-.35-1-.59a10.62,10.62,0,0,1,0-3.77,10,10,0,0,0,0-3.49c-.06-.57-.47-.91-1.12-.46a1.39,1.39,0,0,0-.32,2.13,1,1,0,0,1,.14.7c-.48,1.83-.92,3.58,0,5.5.74,1.51,2.38,2.36,3.59,1.14C266.93,398.59,269.13,397.42,268.82,394.7Zm123.75,24.24.29-.44a29.52,29.52,0,0,1-1.95-2.54,16.08,16.08,0,0,1-.56-1.78,5,5,0,0,0-1-1.38c-.07-.08-.52.24-.81.33-1.42.42-1.68,1.84-2.4,2.84-1.09,1.52-2,3.13-3,4.7l-.56-.27c.31-.9.6-1.81.94-2.7.12-.31.43-.56.5-.87a12.33,12.33,0,0,1,3.09-5.43,2.16,2.16,0,0,0,.8-2c-1.79-.17-3.09.81-4.42,1.79-.79-.57-.79-.57-1.07.4l1.63.12c-.95,1.62-1.76,3.16-2.71,4.61s-.94,3.14-.9,4.8a1.39,1.39,0,0,0,.6.9,3.33,3.33,0,0,0,4.67-1.21c.69-1.27,1.35-2.56,2.07-3.81a5.16,5.16,0,0,1,.85-.95C390.17,416.88,390.64,419,392.57,418.94Zm-138.15-1c-.39-.62-.53-1.08-.73-1.1a7.54,7.54,0,0,0-2.46-.06c-.63.13-1.15.7-1.75,1s-1.36.48-2,.81c-.43.23-.56,1.05-.72,1.14-2.58,1.57-3.66,4.12-4.26,6.82-.26,1.2-1.28,2.37-.59,3.75,0,.09-.15.27-.18.43a6.23,6.23,0,0,0-.16,1.28c0,.73.45,1.36,0,2.2a3.21,3.21,0,0,0,.15,2.28c.16.46.88.7,1.2,1.14,1.61,2.2,3,2.66,5.46,1.7a8.73,8.73,0,0,1,2-.62,1.37,1.37,0,0,0,1.27-1.51c-.41.22-.82.49-1.26.68a7.07,7.07,0,0,1-2.6.94c-2.82-.12-4.58-1-4.37-4.42.13-2.17.43-4.32.7-6.48a4.82,4.82,0,0,1,.53-1.79c.61-1.06,1.38-2,2-3.08.34-.54.4-1.32.84-1.72a34.38,34.38,0,0,1,3.41-2.55,6.88,6.88,0,0,1,1.77-.95A5.1,5.1,0,0,1,254.42,418Zm-47.53-20.18c-.09-.5-.15-.92-.25-1.32a12.85,12.85,0,0,0-.4-1.34c-.51-1.43-1.66-1.84-2.87-1a7.85,7.85,0,0,0-1.45,1.43c-.81,1-1.92,1.86-2.25,3a21,21,0,0,0-.44,5.1c0,.17.6.56.83.5s.88-.56.84-.76c-.49-2.52,1.15-4.35,2-6.39.25-.57.71-1.66,1.51-1.24,1.76,3.15.36,6.11.19,9.08,1.26-.13,1.56-.84,1.86-1.65a51.67,51.67,0,0,1,2.09-5c.54-1.05,1.35-1,2.13-.19.22.24.47.44.69.66a6.74,6.74,0,0,1,1.76,3.12,7,7,0,0,0,1.11,1.74l.45-.19a36.1,36.1,0,0,0-.88-3.73,14.54,14.54,0,0,0-1.42-2.51c-1.06-1.75-2.16-2.24-3.79-1.37C208,396.08,207.54,397,206.89,397.79Zm75.9-4.48a17.65,17.65,0,0,0-.49-2.4c-.09-.28-.66-.54-1-.55s-1.06.14-.77.94a2.77,2.77,0,0,1,.2,1.32c-.22,1.55-.58,3.07-.74,4.62,0,.41.42,1.25.66,1.26.66,0,1.51.41,2-.52.7-1.34,1.48-2.63,2.23-3.94.37-.63,1.25-.84,1.52-.33a8.31,8.31,0,0,0,1.49,2.47c.66.64,1,1.41,2.09,1.61a3.36,3.36,0,0,0,2.47-.73,4.41,4.41,0,0,0,2-3.16c-.83.57-1.5,1-2.12,1.47-1.54,1.2-2.6,1-3.63-.7-.5-.83-1-1.7-1.5-2.5a1.56,1.56,0,0,0-2.25-.45A23.61,23.61,0,0,0,282.79,393.31Zm-25.86,7.17c1.3,0,3.59-1.87,3.71-3.14a5.44,5.44,0,0,0-.5-3.42c-1.08-1.95-2.66-2.84-4.61-2.07-.74.29-1.78.39-2.15.94a6.17,6.17,0,0,0-.78,6.12,3.32,3.32,0,0,0,3.35,2.17c.19,0,.37-.26.53-.41s0-.19,0-.19ZM193,407l.43,0c0-2.07.08-4.13.11-6.2,0-1.28.05-2.56,0-3.83a5.51,5.51,0,0,0-1.15-3.82c-.2.54-.49.93-.46,1.29.19,2,.5,4,.67,6,.11,1.25,0,2.53.08,3.79C192.75,405.11,192.91,406,193,407Zm.07-16.56c1.14.28,1.84.12,2-.69.05-.25-.69-.65-1.07-1Zm89.4,50.65-.41-.16-1.2,3.16.23.07Zm23.17-7.36.59,1.52h.32l.09-1.56Z" transform="translate(-148 -372.89)"/><path d="M276.3,469.85c-1.78-1-2.2-2.88-2.3-4.62a30.51,30.51,0,0,1,.75-8.75c.5-2.16,1.45-4.08,2.05-6.16.21-.72,1.12-1.1.93-2a6,6,0,0,1,1-.42l0,0,.27.53c-.69,1.37-1.27,2.68-2,3.9a6.31,6.31,0,0,0-.88,3.16l-.68.09c0,.12.07.22.11.31.22.48.86,1-.09,1.4-.08,0-.11.28-.11.43.07,2.77-.16,5.57.71,8.27a9,9,0,0,0,.82,1.91c.39.64,1.73.31,2.37-.36,1.7-1.8,2.33-4.06,3.24-6.27a47.16,47.16,0,0,0,3.13-13.41,97.9,97.9,0,0,0-.06-12.23c-.09-3-.33-6-.51-8.95a2,2,0,0,0-.21-.56c-.19.11-.48.17-.56.34-.3.62-.46,1.33-.81,1.92a12.48,12.48,0,0,1-2.08,3c-.81.73-2,.27-3-.07s-.88-1.14-.77-2.1c.22-1.91.12-3.86.17-5.79a6.16,6.16,0,0,1,.13-1.78,1.35,1.35,0,0,1,1-.67c.23,0,.64.39.75.69a10.33,10.33,0,0,1,.15,4.85c0,.48.06,1,0,1.47a7,7,0,0,0,.11,2.06l1.63-2.34c1.16-1.69,2.31-3.38,3.49-5.06.11-.16.5-.33.57-.27.42.33,1.05.7,1.13,1.14.27,1.45.35,2.94.49,4.42a5.8,5.8,0,0,1,0,1.44c-.22,1.62.58,3.25,0,4.88-.09.27.24.65.26,1,.08,1.79.12,3.58.18,5.37a10.83,10.83,0,0,1,.12,1.13c-.06,1.66-.1,3.32-.26,5-.1,1-.43,1.93-.59,2.9a3.13,3.13,0,0,0,.1,1.05c.39,2.15-.81,3.92-1.34,5.85-.28,1-.39,2.09-.74,3.08-.42,1.25-1.25,2.4-1.47,3.67-.26,1.49-1.44,2.35-2,3.61a6.25,6.25,0,0,1-3.57,3.06Z" transform="translate(-148 -372.89)"/><path d="M395.26,413l-.87,1.77-1-2.27c.35-.33.73-1,1.25-1.13,1-.3.91-.83.76-1.62a8.51,8.51,0,0,1-.08-2.31c0-.24.46-.44.74-.69l-.71-.19c0-1.56,0-3,0-4.49a52.82,52.82,0,0,1,.2-5.49c.11-.89.15-2,1.23-2.53.2-.1.51-.29.62-.22.68.48,1.32,1,2,1.53l-.19.25-1.11.05c-.09,1.22.16,2.61-.36,3.59-.69,1.33.08,2.57-.37,3.91-.5,1.49-.21,3.29-.05,4.94.08.79,0,1.76.88,2.34,1.83-.53,3.68-1.11,5.55-1.6,1.6-.42,1.94-.19,2.46,1.46.77-.65,1.53-1.27,2.28-1.92a2,2,0,0,1,2.19-.29,2.13,2.13,0,0,1,1.53,1.81,12.87,12.87,0,0,1-.18,2.22c0,.52,0,1.06,0,1.57a10.85,10.85,0,0,1-1.72,4.81,6.7,6.7,0,0,1-1.57,1.13c1.49.77,2.6,1.6,4.18,1.24a3.47,3.47,0,0,0,2.5-1.89,14.57,14.57,0,0,0,1.72-7.69c-.09-1,.44-1.44,1.29-1.64a.94.94,0,0,1,1.23.92c.09,1.28,0,2.57.08,3.85a7.76,7.76,0,0,0,.35,1.36,5.09,5.09,0,0,0,.88-.95,63.8,63.8,0,0,1,3-5.82,55,55,0,0,1,4-4.9,3.84,3.84,0,0,0,.82-1.11c.58-1.86,2-2.35,3.77-2.33,0,.66.29,1.12-.55,1.69-1.16.8-1.14,2-.07,3.21a28.07,28.07,0,0,1,3.07,4.82c.55,1,1,2,1.43,3a.33.33,0,0,1,0,.24c-.55,1.47-1,3-1.68,4.41a9.36,9.36,0,0,1-1.86,2.95,8.5,8.5,0,0,1-3.05,1.65c-.79.27-1.67-.83-1.94-2.15-.31-1.59,0-2.22,1.53-3.24,0,.27-.12.53,0,.68.41.66.88,1.29,1.33,1.94a9.4,9.4,0,0,0,1.62-1.52,5.79,5.79,0,0,0,1.25-4.53,15,15,0,0,0-1.57-3.59c-.74-1.33-1.59-2.61-2.46-3.88-.38-.55-.77-.9-1.33.05s-1.59,1.7-2.28,2.64a18.45,18.45,0,0,0-2.85,5.5,6.07,6.07,0,0,1-1.4,2.55c-1.13,1.07-1.55,1.42-3.27,0a40.21,40.21,0,0,1-2.59,3.34,6,6,0,0,1-2.68,1.91c-.93.17-2.11.77-3.16-.23-.43-.41-1.27-.41-1.93-.59-1.24-.33-1.8-1.43-2.49-2.32a8.46,8.46,0,0,1-1.59-2.91,15.36,15.36,0,0,1-.09-3.4c0-.94.23-2-.73-2.39l-2.33,1.49-.24-.74-.19,0c-.4,1.53-1.75.94-2.7,1.28-.18.06-.28.83-.16,1.18a4.33,4.33,0,0,1-.13,3.22,29.65,29.65,0,0,1,.35,3.4c0,1.3-.23,2.6-.38,4.21a4.44,4.44,0,0,1-.66-1.07c-.22-.87-.36-1.76-.51-2.64-.06-.37,0-.76-.08-1.13-.2-1.87-.43-3.74-.62-5.61a4.76,4.76,0,0,1,0-.92Zm14.31-2.05-.34-.09a15.51,15.51,0,0,0-.91,1.51,8.49,8.49,0,0,0-1,2.61c-.07.7.47,1.46.74,2.19.22-.12.59-.19.64-.35.44-1.56.87-3.12,1.22-4.71C410,411.74,409.68,411.31,409.57,410.92Z" transform="translate(-148 -372.89)"/><path d="M296.33,429.52a14.69,14.69,0,0,0-2.35-3.08,6.75,6.75,0,0,1-2.09-3.67,3.83,3.83,0,0,1,1.07-3.72,16.82,16.82,0,0,1,2.39-1.95l1.94,2c-2.17,2.65-3.58,6.42.43,8.66,1.2-2.35,2.4-4.69,3.58-7a23.89,23.89,0,0,0,2.37-6.68,45.42,45.42,0,0,0,.46-5.35c0-.72.06-1.45.89-1.55.35,0,.74.5,1.14.72a4.14,4.14,0,0,0,1,.17l-1.14,5a3.56,3.56,0,0,0-.05.47c-.15,2.63-.3,5.27-.4,7.9,0,.14.55.49.74.43,2.39-.74,4.76-1.55,7.13-2.31a2,2,0,0,1,.73.06l.1.4c-1,.44-2,.83-3,1.33-1.47.76-2.88,1.66-4.36,2.4s-1.35,1.14-1.13,2.6c.12.78,1.1,1.73,0,2.16.31,1.58.6,3,.88,4.48-.81.21-.73.16-1-.28a13,13,0,0,0-1.08-1.51c-.09-.12-.26-.29-.23-.38.5-1.71-.37-3.33-.28-5,0-.87-.33-.76-.68-.5-1.45,1.06-3.5,1.36-4.31,3.19-.25.56-.33,1.6,0,1.91a2.15,2.15,0,0,1,.27,2.64,27.21,27.21,0,0,1-2.95,4.91,4.73,4.73,0,0,1-2.37,1.46,3,3,0,0,1-2.21-.25c-.59-.37-.43-1.24-.05-1.89Zm.49,2.78c-.71,1.51-1.35,2.85-2.12,4.46,1.82-.95,2.06-2.53,2.51-4C297.25,432.66,296.89,432.39,296.82,432.3Zm6.8-11.91c-.39,1-.77,1.93-1.17,2.91C303.76,423.48,304.16,423,303.62,420.39Zm-10,2.31.54.18,1.12-2.19-.52-.26Z" transform="translate(-148 -372.89)"/><path d="M336.15,402.89l-.19,1c1.13-.56,1.25.35,1.42.94a7.65,7.65,0,0,1,.25,2.14c0,.95-.17,1.9-.23,2.86-.09,1.4-.15,2.8-.23,4.3-1.44.12-.81,1.55-1.33,2.32l.47.28a3.73,3.73,0,0,0-1.08,3,5.88,5.88,0,0,0-.91.91,14.17,14.17,0,0,0-.53,1.33c-.14.3-.43.56-.49.87-.33,1.54.23,3,.34,4.54.84-.11.68.77,1.16,1.05-.74.67-1.29.54-1.76-.23a17.68,17.68,0,0,0-1.21-1.88,4.44,4.44,0,0,0-1-.73c-.2.29-.42.57-.61.87s-.51.85-.76,1.28l-.47-.43-.15.06c.23.92-.64,1.18-1,1.71-.13.18-.26.43-.45.5a3.69,3.69,0,0,1-4.25-1.1c-.47-.51-1.13-.13-1.53.73a7.77,7.77,0,0,1-4.51,4.09,1.85,1.85,0,0,1-2.15-.67c-.51-.58-1.16-1-.67-2,.3-.61,0-1.49.17-2.19A17.06,17.06,0,0,1,315.5,426l-.56-.32c.25-1.07.47-2.11.75-3.13,0-.14.37-.18.54-.3s.38-.3.37-.43c-.09-.83.51-1.15,1-1.65.75-.76,1.43-.29,1.94.1a1.11,1.11,0,0,1,.32,1.73,4.73,4.73,0,0,0-.45,1.71l-.43-.1.25-1.94c-1.9,1.61-3.57,8-2.81,10.36a3.32,3.32,0,0,0,.78-.48c1.18-1.36,2.35-2.73,3.49-4.11.42-.51.71-1.14,1.16-1.61,1-1,1.85-.56,2.37.44.17.31.3.65.47.95.68,1.24,1.76,1.41,2.7.32s1.89-2.44,2.85-3.65a2.29,2.29,0,0,0,.36-1.95,52,52,0,0,1-.52-6.71q0-4.55.25-9.08a7.05,7.05,0,0,1,1.07-3.36,3.06,3.06,0,0,1,2.36-.77A8,8,0,0,1,336.15,402.89Zm-1.37.91-.53-.07c-.35.62-1,1.21-1,1.85-.33,3.76-.54,7.54-.77,11.3,0,.66,0,1.31,0,2.19l.64.57a10.42,10.42,0,0,0,1-1.92q.7-2.58,1.2-5.21c.21-1.15.23-2.34.38-3.51a.77.77,0,0,1,.29-.4C335.57,407,335.18,405.38,334.78,403.8Z" transform="translate(-148 -372.89)"/><path d="M318,373.94l.47-.77,2,.84a6.43,6.43,0,0,1-1.74.73c-1.71.08-1.73.08-1.95,1.82a23.94,23.94,0,0,0-.4,2.47c0,1.14.12,2.28.14,3.43,0,.65-.07,1.31-.12,2h-.78c1.4.49,1.45,1.22.64,2.3-.12.15.32.73.5,1.08l2.67-.55c2-.4,3.93-.81,5.89-1.23a1.44,1.44,0,0,0,.75-.3c1-1.12,2.43-1,3.74-1.09a2.84,2.84,0,0,1,1.51.43c1,.63,2,1.39,3,2a2.87,2.87,0,0,1,1.15,2.87,3.16,3.16,0,0,1-.68,1.34,6.21,6.21,0,0,1-6.32,3,4,4,0,0,1-2.62-3c0-.66-.11-1.33-.07-2a17.4,17.4,0,0,1,.33-2,24.72,24.72,0,0,1-4.75,1.65c-1.41.18-3,1-4.5.07a1.64,1.64,0,0,0,.11,2.63l-.77.41c.42.34,1.26.52.49,1.33a.62.62,0,0,0-.08.55c.18.55.41,1.09.58,1.53l-1.2.4s-.13-.26-.06-.34c.73-.85,0-1.41-.29-2.13a12.78,12.78,0,0,1-.45-2.64c-.08-.58-.23-.92-.92-.56a1.34,1.34,0,0,1-.88,0,3.27,3.27,0,0,1-.06-1.39c.06-.24.43-.43.69-.62s.56-.22.6-.39a7.23,7.23,0,0,0,.15-2.86,21.75,21.75,0,0,1,0-3.7c0-1.35.15-2.69.22-4a8.7,8.7,0,0,1,.21-2.42,3.83,3.83,0,0,1,1.39-1.63C316.72,373.13,317.35,373.62,318,373.94Zm9.8,15.1a2.6,2.6,0,0,1-.21.57c-.64,1.08.05,2,.52,2.81.6,1.07,1.71.87,2.59.5a4.06,4.06,0,0,0,2.45-2.57c.36-1.28-1.39-3.59-2.76-3.85C328.53,386.15,327.61,387,327.79,389Z" transform="translate(-148 -372.89)"/><path d="M369.73,422.58a12.9,12.9,0,0,0-1.13,1.06,8,8,0,0,0-.74,1.14c-.44.76-1,1.39-2,1.28-.08,0-.21,0-.23,0-1.15,1.82-2.37.11-3.51,0-.49-.06-1.12-.89-1.28-1.48a17.13,17.13,0,0,1-.39-3.36,5.24,5.24,0,0,1,.25-1.24l-.31,0c0-.6,0-1.05,0-1.5s.12-1,.18-1.48c.12-1,.19-2.07.41-3.08a1.11,1.11,0,0,1,.83-.67,5.74,5.74,0,0,1,1.67.51.75.75,0,0,1-.09.54c-1.29,1.16-1,2.68-1,4.14,0,.89-.14,1.8-.08,2.69.1,1.55.3,3.1.44,4.49.53-.09,1-.2,1.39-.23,1.17-.06,1.5-1,2-1.8a24,24,0,0,0,1.69-2.89,10.46,10.46,0,0,0,.53-2.19c.09-.38.12-.77.22-1.14a8.13,8.13,0,0,1,.38-1c1.67,0,1.86.18,2.14,1.67.19,1,.35,2,.57,3a2.39,2.39,0,0,0,2.32,2c1.3.07,1.68-1.05,2.07-1.91a5.89,5.89,0,0,0,.1-4.66c-.49-1.3-.92-2.63-1.37-3.95-.12-.36-.16-.74-.24-1.08l1.23-.12c.58.81,1.1,1.46,1.53,2.17a6.07,6.07,0,0,1,1,2.07,40.89,40.89,0,0,1,.5,5.63c0,1.48-1.47,2.52-2.68,3.29-.95.59-1.87,0-2.68.52-.2.13-.76-.14-1.06-.35C371.48,423.94,370.56,423.21,369.73,422.58Z" transform="translate(-148 -372.89)"/><path d="M248.31,399.93v1l-2.86,1.69c-2.23-.69-1.95-1.35-2.18-3.42a35.2,35.2,0,0,1,0-4l-.42-.18a3.18,3.18,0,0,0-.52,1,3.17,3.17,0,0,1-1,2.34,20,20,0,0,0-1.71,2.59c-1.2,1.57-2.26,3.33-4.13,4.19a4,4,0,0,1-2.46.28c-.32-.08-.6-1.26-.51-1.89.28-1.79.72-3.55,1.17-5.31.08-.34.45-.6.71-.93l-.24-.21c.45-.89.84-1.74,1.31-2.55.13-.22.52-.28.76-.44.63-.42,1.24-.87,1.86-1.3,1-.7,1.82-.1,2.61.46.46.33.89.68,1.44,1.11.09-.35.2-.56.14-.62-.74-.85-.13-1.22.52-1.64.23-.16.31-.53.46-.81l-.44-.15a8.41,8.41,0,0,0,.73-4.75,24.47,24.47,0,0,1,.25-3.81c.15-1.33.38-2.65.57-4,.21-1.47.66-1.76,2.19-1.31-.41,1,1,2.25-.58,3.23l.73.28-.29.09a5.42,5.42,0,0,1,.4,1.26c0,.24-.26.5-.48.88-.18.76-.35,1.75-.64,2.71-.4,1.3-.57,2.66-.92,3.94s.66,2.34.12,3.52c-.31.69-.55,1.41-.84,2.15l.66-.16c0,.07,0,.14-.05.18-.8.85-.19,1.81-.23,2.72,0,.36.1.87-.1,1.07-.81.86,0,1,.57,1.44l-.71.39C246.56,401.61,247.05,401.48,248.31,399.93Zm-14.53,4.25c1.71-1.25,3.22-2.29,4.65-3.43a4.28,4.28,0,0,0,1.3-1.66,15.92,15.92,0,0,0,.61-2.69c.24-1.15-.38-1.73-1.59-1.84a1.66,1.66,0,0,0-1.57.69,17,17,0,0,0-1.59,2,19.3,19.3,0,0,0-1.87,3.75C233.45,401.83,233.73,402.82,233.78,404.18Z" transform="translate(-148 -372.89)"/><path d="M185.11,395.73c1.58-.2,1.79,1,2.08,1.72.79,2,.14,3.95-.71,5.81l-1.08,2.39c-.48,1.07-2,2.33-2.7,2.22-3-.49-3.83-1.2-4.24-3.33-.35-1.86-1-3.68-1.44-5.55a32.11,32.11,0,0,0-1.79,3.33c-.56,1.42-.83,3-1.38,4.38-.62,1.62-1,3.4-2.66,4.43-.79.48-1.68.33-1.79-.55-.24-1.92-.43-3.86-.48-5.79a46.31,46.31,0,0,1,.23-4.85,6.47,6.47,0,0,1,.47-1.95,1.78,1.78,0,0,1,.95-.7c.09,0,.59.55.55.62-1.77,2.8-.79,5.92-1.05,8.88a12.19,12.19,0,0,0,.6,3.11c1.89-1.53,2.47-3.46,3-5.43.52-1.76,1.15-3.5,1.81-5.22.51-1.3.68-2.8,1.92-3.76.09-.07-.07-.47-.13-.81,1.38.21,1.12,1.33,1.3,2,.22.87,0,1.85.19,2.74a23.27,23.27,0,0,0,1.19,4.48,5.66,5.66,0,0,0,2,2.18c.81.56,2.6-.66,3-2s.6-2.68,1-4a3.74,3.74,0,0,0-.51-3A6,6,0,0,1,185.11,395.73Z" transform="translate(-148 -372.89)"/><path d="M264.55,421.11l-1.34.92c.22,3.09.45,6.3.68,9.51l.55.14c.4-.65.82-1.29,1.18-2,.66-1.27,1.5-2.46,1.38-4a4.72,4.72,0,0,1,.26-1.86,4.32,4.32,0,0,1,.9-1.09,6.43,6.43,0,0,1,.88,1.1,3.66,3.66,0,0,1,0,1.22c2-1.93,3.38-4.57,6.47-4.46l.3.4c-.29.31-.61.61-.88.94a28.58,28.58,0,0,1-3.31,4.06c-1.62,1.37-1.82,3.43-3,5-.52.71-.87.89-1.54.49-1.21,1.71-3,2.16-4.27,1a3.48,3.48,0,0,1-1-1.89c-.22-1.32-.22-2.68-.33-4-.08-1-.15-1.95-.31-2.91a2.49,2.49,0,0,1,2-3.13,4.67,4.67,0,0,1,1.3.2Z" transform="translate(-148 -372.89)"/><path d="M162.91,386.49a1.7,1.7,0,0,0-2.39-.12c-2.44,1.85-4.82,3.78-7.16,5.76-.26.22-.21,1.06,0,1.49.54,1.24,1.23,2.41,1.84,3.61,1.21,2.37,2.47,4.7,3.56,7.12a7.3,7.3,0,0,1,.75,3.37,23.15,23.15,0,0,1-1.11,3.75,8.87,8.87,0,0,1-2.79,4.06,3.24,3.24,0,0,1-2.69,1.23,1.08,1.08,0,0,0-.55.16c-1.63.67-2.44.11-3.44-1.44a5.24,5.24,0,0,1-.62-3.14,2.13,2.13,0,0,1,1.2-2.08,10.76,10.76,0,0,0-.26,2.89c.47,2.51,2,2.85,4,2a9.59,9.59,0,0,0,3.91-3.24,6.61,6.61,0,0,0,.89-4.62c-.59-4-3.27-6.73-5.05-10a28.46,28.46,0,0,1-1.31-2.73c-.32-.81.45-2.55,1.23-3.2,2.38-2,4.71-4,7.14-5.91a5.21,5.21,0,0,1,2.46-.94C163.69,384.31,163.81,384.89,162.91,386.49Z" transform="translate(-148 -372.89)"/><path d="M268.82,394.7c.31,2.72-1.89,3.89-3.37,5.39-1.21,1.22-2.85.37-3.59-1.14-.94-1.92-.5-3.67,0-5.5a1,1,0,0,0-.14-.7,1.39,1.39,0,0,1,.32-2.13c.65-.45,1.06-.11,1.12.46a10,10,0,0,1,0,3.49,10.62,10.62,0,0,0,0,3.77c0,.24.7.65,1,.59a1.78,1.78,0,0,0,1.11-.83c.93-1.63,1.71-3.35,2.65-5a10.88,10.88,0,0,1,1.51-1.69l.49.16c.19.77.41,1.54.57,2.31.32,1.53,0,3.24,1.63,4.35,1.23.84,2.27.69,3-.57a7.38,7.38,0,0,0-.11-7.6.46.46,0,0,1,0-.33c0-.06.1-.1.21-.19,1.1,1.15,2.52,2.18,2.56,3.91a11.73,11.73,0,0,1-.63,4.57c-.86,2.15-4.65,2.95-6.31,1.29a4.68,4.68,0,0,1-1.65-4,3.74,3.74,0,0,0,0-.58Z" transform="translate(-148 -372.89)"/><path d="M392.57,418.94c-1.93,0-2.4-2.06-3.94-2.93a5.16,5.16,0,0,0-.85.95c-.72,1.25-1.38,2.54-2.07,3.81A3.33,3.33,0,0,1,381,422a1.39,1.39,0,0,1-.6-.9c0-1.66-.09-3.3.9-4.8s1.76-3,2.71-4.61l-1.63-.12c.28-1,.28-1,1.07-.4,1.33-1,2.63-2,4.42-1.79a2.16,2.16,0,0,1-.8,2,12.33,12.33,0,0,0-3.09,5.43c-.07.31-.38.56-.5.87-.34.89-.63,1.8-.94,2.7l.56.27c1-1.57,1.95-3.18,3-4.7.72-1,1-2.42,2.4-2.84.29-.09.74-.41.81-.33a5,5,0,0,1,1,1.38,16.08,16.08,0,0,0,.56,1.78,29.52,29.52,0,0,0,1.95,2.54Z" transform="translate(-148 -372.89)"/><path d="M254.42,418a5.1,5.1,0,0,0-1.7-.11,6.88,6.88,0,0,0-1.77.95,34.38,34.38,0,0,0-3.41,2.55c-.44.4-.5,1.18-.84,1.72-.65,1-1.42,2-2,3.08a4.82,4.82,0,0,0-.53,1.79c-.27,2.16-.57,4.31-.7,6.48-.21,3.43,1.55,4.3,4.37,4.42a7.07,7.07,0,0,0,2.6-.94c.44-.19.85-.46,1.26-.68a1.37,1.37,0,0,1-1.27,1.51,8.73,8.73,0,0,0-2,.62c-2.41,1-3.85.5-5.46-1.7-.32-.44-1-.68-1.2-1.14a3.21,3.21,0,0,1-.15-2.28c.48-.84.08-1.47,0-2.2a6.23,6.23,0,0,1,.16-1.28c0-.16.22-.34.18-.43-.69-1.38.33-2.55.59-3.75.6-2.7,1.68-5.25,4.26-6.82.16-.09.29-.91.72-1.14.63-.33,1.35-.5,2-.81s1.12-.87,1.75-1a7.54,7.54,0,0,1,2.46.06C253.89,416.89,254,417.35,254.42,418Z" transform="translate(-148 -372.89)"/><path d="M206.89,397.79c.65-.8,1.06-1.71,1.76-2.08,1.63-.87,2.73-.38,3.79,1.37a14.54,14.54,0,0,1,1.42,2.51,36.1,36.1,0,0,1,.88,3.73l-.45.19a7,7,0,0,1-1.11-1.74,6.74,6.74,0,0,0-1.76-3.12c-.22-.22-.47-.42-.69-.66-.78-.83-1.59-.86-2.13.19a51.67,51.67,0,0,0-2.09,5c-.3.81-.6,1.52-1.86,1.65.17-3,1.57-5.93-.19-9.08-.8-.42-1.26.67-1.51,1.24-.9,2-2.54,3.87-2,6.39,0,.2-.5.66-.84.76s-.84-.33-.83-.5a21,21,0,0,1,.44-5.1c.33-1.11,1.44-2,2.25-3a7.85,7.85,0,0,1,1.45-1.43c1.21-.88,2.36-.47,2.87,1a12.85,12.85,0,0,1,.4,1.34C206.74,396.87,206.8,397.29,206.89,397.79Z" transform="translate(-148 -372.89)"/><path d="M282.79,393.31a23.61,23.61,0,0,1,2.18-1.59,1.56,1.56,0,0,1,2.25.45c.55.8,1,1.67,1.5,2.5,1,1.71,2.09,1.9,3.63.7.62-.48,1.29-.9,2.12-1.47a4.41,4.41,0,0,1-2,3.16,3.36,3.36,0,0,1-2.47.73c-1.1-.2-1.43-1-2.09-1.61a8.31,8.31,0,0,1-1.49-2.47c-.27-.51-1.15-.3-1.52.33-.75,1.31-1.53,2.6-2.23,3.94-.49.93-1.34.52-2,.52-.24,0-.7-.85-.66-1.26.16-1.55.52-3.07.74-4.62a2.77,2.77,0,0,0-.2-1.32c-.29-.8.28-.94.77-.94s.93.27,1,.55A17.65,17.65,0,0,1,282.79,393.31Z" transform="translate(-148 -372.89)"/><path d="M256.93,400.48h-.43s0,.15,0,.19-.34.41-.53.41a3.32,3.32,0,0,1-3.35-2.17,6.17,6.17,0,0,1,.78-6.12c.37-.55,1.41-.65,2.15-.94,2-.77,3.53.12,4.61,2.07a5.44,5.44,0,0,1,.5,3.42C260.52,398.61,258.23,400.53,256.93,400.48Zm-2.3-6.72h-.3c-.05.56.11,1.32-.2,1.63a2.36,2.36,0,0,0-.39,2.47c.38,1.68,1.47,2,3,1.5,1.93-.64,2-2.28,2.23-3.73s-1.11-1.95-2-2.62c-.19-.14-.72.19-1.09.3,1.06,1.79-1.1.49-1.06,1.27Z" transform="translate(-148 -372.89)"/><path d="M193,407c-.12-.94-.28-1.86-.33-2.8-.07-1.26,0-2.54-.08-3.79-.17-2-.48-4-.67-6,0-.36.26-.75.46-1.29a5.51,5.51,0,0,1,1.15,3.82c.06,1.27,0,2.55,0,3.83,0,2.07-.07,4.13-.11,6.2Z" transform="translate(-148 -372.89)"/><path d="M193.1,390.41l.93-1.68c.38.34,1.12.74,1.07,1C194.94,390.53,194.24,390.69,193.1,390.41Z" transform="translate(-148 -372.89)"/><path d="M278.71,447.87l-.28-.65,1.95-2.22c-.54,1-.23,2.46-1.71,2.83Z" transform="translate(-148 -372.89)"/><path d="M282.5,441.06l-1.38,3.07-.23-.07,1.2-3.16Z" transform="translate(-148 -372.89)"/><path d="M305.67,433.7l1-.05-.09,1.56h-.32Z" transform="translate(-148 -372.89)"/><path class="cls-1" d="M409.57,410.92c.11.39.38.82.31,1.16-.35,1.59-.78,3.15-1.22,4.71-.05.16-.42.23-.64.35-.27-.73-.81-1.49-.74-2.19a8.49,8.49,0,0,1,1-2.61,15.51,15.51,0,0,1,.91-1.51Z" transform="translate(-148 -372.89)"/><path class="cls-1" d="M296.82,432.3c.07.09.43.36.39.5-.45,1.43-.69,3-2.51,4C295.47,435.15,296.11,433.81,296.82,432.3Z" transform="translate(-148 -372.89)"/><path class="cls-1" d="M303.62,420.39c.54,2.59.14,3.09-1.17,2.91C302.85,422.32,303.23,421.36,303.62,420.39Z" transform="translate(-148 -372.89)"/><path class="cls-1" d="M293.61,422.7l1.14-2.27.52.26-1.12,2.19Z" transform="translate(-148 -372.89)"/><path class="cls-1" d="M334.78,403.8c.4,1.58.79,3.15,1.2,4.8a.77.77,0,0,0-.29.4c-.15,1.17-.17,2.36-.38,3.51q-.49,2.63-1.2,5.21a10.42,10.42,0,0,1-1,1.92l-.64-.57c0-.88,0-1.53,0-2.19.23-3.76.44-7.54.77-11.3.05-.64.66-1.23,1-1.85Z" transform="translate(-148 -372.89)"/><path class="cls-1" d="M327.79,389c-.18-2.06.74-2.89,2.59-2.54,1.37.26,3.12,2.57,2.76,3.85a4.06,4.06,0,0,1-2.45,2.57c-.88.37-2,.57-2.59-.5-.47-.84-1.16-1.73-.52-2.81A2.6,2.6,0,0,0,327.79,389Z" transform="translate(-148 -372.89)"/><path class="cls-1" d="M233.78,404.18c-.05-1.36-.33-2.35-.06-3.16a19.3,19.3,0,0,1,1.87-3.75,17,17,0,0,1,1.59-2,1.66,1.66,0,0,1,1.57-.69c1.21.11,1.83.69,1.59,1.84a15.92,15.92,0,0,1-.61,2.69,4.28,4.28,0,0,1-1.3,1.66C237,401.89,235.49,402.93,233.78,404.18Z" transform="translate(-148 -372.89)"/><path class="cls-1" d="M254.63,393.76l.19.82c0-.78,2.12.52,1.06-1.27.37-.11.9-.44,1.09-.3.93.67,2.27,1.24,2,2.62s-.3,3.09-2.23,3.73c-1.57.52-2.66.18-3-1.5a2.36,2.36,0,0,1,.39-2.47c.31-.31.15-1.07.2-1.63Z" transform="translate(-148 -372.89)"/></svg>