<svg id="Layer_1" data-name="Layer 1" xmlns="http://www.w3.org/2000/svg" viewBox="0 0 334.8 119.76"><defs><style>.cls-1{fill:#fff;}</style></defs><path class="cls-1" d="M393.81,480.65H130V360.89H464.8V480.65H397.17a2.69,2.69,0,0,1,.69-.5,12.8,12.8,0,0,0,2.57-.76,21.62,21.62,0,0,0,3.57-2.68,31.83,31.83,0,0,0,2.57-3l-.23-.19c-.91.75-1.84,1.49-2.72,2.28a12,12,0,0,1-7.31,2.94,10.84,10.84,0,0,1-6.52-2c-1.71-1.05-1.7-1.83-.09-3.15a.5.5,0,0,0,.1-.14c.66-1.41,1.95-2.43,1.9-4.28a4.14,4.14,0,0,0-1.74-3.43,1.62,1.62,0,0,0-1.5.1,4.84,4.84,0,0,0-1.52,1.91,18,18,0,0,0-1.22,7,1.55,1.55,0,0,1-.27,1c-1.25,1.38-5.12,1.52-6.72.34-.84-.61-1.75-1.1-2.66-1.67a1.81,1.81,0,0,0,0-.62c-.38-1-.19-2.76.72-3,1.47-.33.7-1.77,1.56-2.31a1.36,1.36,0,0,0,.37-1.15c-.25-1.44-1.16-2.08-3-2.25s-2.45.46-2.46,2.22c0,1.5,0,3,0,4.5,0,.85-.06,1.61-1,2.05-.34.16-.53.64-.87.81a4.22,4.22,0,0,1-1.95.63c-.32,0-.74-.92-.8-1.45-.13-1.12,0-2.25-.07-3.38a1.86,1.86,0,0,0-.5-1.22c-.23-.17-1.07,0-1.13.14-.31.84-.85,2.32-.56,2.52,1,.74.46,1.43.3,2.15-.23,1.06,1,3.08,1.89,3.18,2,.22,3.38-.8,4.68-2.09a1.59,1.59,0,0,1,.79-.49c.12,0,.28.45.48.65.8.8,1.51,2,2.47,2.24.78.2,1.36.86,2.05.85,1.23,0,2.42.61,3.56.42a23.73,23.73,0,0,0,4.15-1.47,10.13,10.13,0,0,0,5,2.78C392.43,480.26,393.12,480.48,393.81,480.65ZM364.3,368.37l.34-.48c-.17-.27-.31-.46-.41-.66-.38-.77-.7-1.56-1.12-2.29a7.47,7.47,0,0,0-1-1c-.35-.42-.88-1.29-1-1.24-.83.42-1-.39-1.1-.69-.41-.82-1.05-.67-1.7-.62-.22,0-.59.22-.63.17-.63-1-1.11-.07-1.51.18-.58.36-1,1-1.55,1.4-2.54,1.69-3.45,4.16-3.54,7.06a7.32,7.32,0,0,0-.11.8.48.48,0,0,0,.2.31c-.29.59-.84,1.39-.71,1.51.66.66.09,1-.17,1.48a1.92,1.92,0,0,0-.36,1.1c.28,1.38-.55,1.75-1.62,2.09-.28.09-.52.65-.57,1a3.27,3.27,0,0,0,.28,1.16,7.8,7.8,0,0,1,1.37-.71c.17,0,.47.29.71.44-.62.56-.5,1.28-.54,2a28,28,0,0,1-.48,3,.47.47,0,0,0,.1.32c.38.43.38.74,0,1.28-.24.37,0,1.14.17,1.66.3.83.75,1.61,1.21,2.56.32-.62.8-1.14.82-1.68.06-1.51-.12-3-.13-4.53a9.78,9.78,0,0,1,.25-2c.28-1.39.6-2.78.91-4.16l1.62.74-2,5.65.27.12.57-.66.3,0a13.33,13.33,0,0,1-.08,1.41c-.11.76-.3,1.58.64,1.91a18.67,18.67,0,0,0,2.41.56l.2-1,.7,1.67.53-1.3c.26.13.62.45.76.38,1.23-.7,2.6-1,3.83-1.91a12.71,12.71,0,0,0,2.86-3.37,3.33,3.33,0,0,0-.63-4.2,4.82,4.82,0,0,0-2-1.3c-.78-.3-1.3-1.29-2-2l-8.44,1.82a36.59,36.59,0,0,0,.84-4.32,17.5,17.5,0,0,1,1.23-5.41,5.53,5.53,0,0,1,3.18-3.34c.79-.33.78-.34,1.17-1.3,0-.09.22-.13.06,0a16.69,16.69,0,0,0,1,1.52c.85,1,1.75,2,2.64,3l.5-.47c-.15,1.49.53,2.7,1.56,2.93l.46,3.39,1.56.1-1.12-1.39-.23.15v-2.86Zm42.22,60.5c.17.41.33.83.52,1.23.3.63.46,1.55,1,1.82a31.26,31.26,0,0,0,4.37,1.84c1.63.61,2.81-.64,4.12-1.16a42.69,42.69,0,0,1,0,5.19c-.33,2.71.63,5.21,1,7.8a1.92,1.92,0,0,0,1,1.21c1.6.77,2.84,0,2.9-1.76,0-1.38,1.13-2.61.52-4.06,0-.08.07-.22.13-.32a7.63,7.63,0,0,0,.44-6.35c.65.06,1.56-.14,2,.23,1.07.82,1.94-.54,2.88,0,.65-1,2.15-.68,2.8-1.93.8-1.52,2.77-2.15,3.07-4.21.22-1.47,1-2.78.76-4.42a4.59,4.59,0,0,0-3.42-4.05,9.91,9.91,0,0,0-6.68,1.51c-.69.38-1.08.45-1.64-.1a5.23,5.23,0,0,0-1.21-.67c-.23.58-.69,1.18-.64,1.74a3.75,3.75,0,0,1-.65,2.91c-.51.67-.74,1.56-1.19,2.29a22.36,22.36,0,0,1-2.2,3.14c-.43.49-1.23.64-1.84,1-1.69.95-5.7.19-5.93-2.75-.05-.68-.23-1.56.91-1.83a3.15,3.15,0,0,0,1.69-1c.88-1.14,1.53-2.47,2.39-3.63s-.05-2.55-1.37-2.89c-1.67-.43-2.65.67-3.67,1.56a5.83,5.83,0,0,0-1.95,4.59v3.17c-.73.45-1.43.94-2.18,1.33a5.25,5.25,0,0,1-5.52,0l4-6-.61-.2c.26-.17.52-.25.63-.42a3,3,0,0,0-.92-3.52,4.3,4.3,0,0,0-3.45-.3c-2,.49-4.45,3.42-3.72,6,.47,1.64.86,3.31,1.31,5.05-1.33,1.27-2.83,2.54-5.05,1.5-1-.47-2-.91-2.21-2.2-.12-.77-.44-1.51-.52-2.28-.14-1.32-.88-2.61-.15-4s1.22-2.73,1.82-4.1a60,60,0,0,0,2.48-5.79,13.93,13.93,0,0,0,.24-3.73c0-.7.05-1.4.05-2.11s.21-1.45-.11-1.86a9.22,9.22,0,0,0-2.15-1.67c-.06,0-.26.14-.41.19-1.35.44-1.78,1.72-2.21,2.78a20.79,20.79,0,0,0-1.39,5.18c-.39,3.18-.52,6.4-.72,9.6-.05.75.31,1.62,0,2.25a25.21,25.21,0,0,1-2.13,3.46,10.42,10.42,0,0,0-.84-1.5,7.06,7.06,0,0,0-1.72-1.84A3.67,3.67,0,0,0,376,426.8c-.37,1.56-1.51,2.89-1.29,4.59.06.43-.08,1.05.17,1.28.68.65,1.5,1.58,2.3,1.62,2.26.1,4.08-1.21,5.61-2.74a39.49,39.49,0,0,0,3.1-3.87,9.33,9.33,0,0,1,.29.9,8.11,8.11,0,0,0,2.16,3.7,4.87,4.87,0,0,0,2.37,1.54,7.69,7.69,0,0,0,6.38-1.64c.63-.51,1.07-.22,1.67-.19a19.77,19.77,0,0,0,4.14-.16c.57-.08,1-.86,1.6-1A2.56,2.56,0,0,0,406.52,428.87Zm1.73-51.41c.52-.69,1-1.06,1.1-1.52.38-1.43.64-2.9.92-4.36a2.5,2.5,0,0,0,.05-1.05c-.36-1.34-.82-2.65-1.18-4-.17-.61-.09-1.3-.3-1.89a4.76,4.76,0,0,0-.9-1.32c-.12-.16-.34-.24-.49-.38-.34-.32-.64-.88-1-.93-1.57-.2-3.06-.1-4.21,1.28-1.69,2-1.76,4.45-1.9,6.88,0,.8,0,1.6-.11,2.39s-.33,1.38-.33,2.07a35.49,35.49,0,0,0,.21,4.38,1.41,1.41,0,0,1-1,1.72,13,13,0,0,0-3.25,1.79,6.91,6.91,0,0,0-2.12,2.92c-.31,1-.56,1.26-1.28,1.07-.4-2.37-.78-4.63-1.17-7l.45-.1c-.2-.33-.37-.64-.57-.92-.85-1.2-1.31-1.33-2.27-.79-.73.42-1.61.54-2,1.55-.12.37-1.09.37-1.39.76-.82,1.06-1.4,2.3-2.25,3.33-.42.5-.2,1.9-1.86,1.17l.82.9-1,.33-.29-1.57a3.21,3.21,0,0,0-1.05-4.44l.27,1.21a6.16,6.16,0,0,0-.65,2.81,8.44,8.44,0,0,1-.9,4.26,1.17,1.17,0,0,0,.34,1.09,2.3,2.3,0,0,0,2.19.18,3.77,3.77,0,0,0,2.13-3.1c1.14.06.38-1,.75-1.25l.58.2a5.23,5.23,0,0,0,0-.56c0-.29-.22-.69-.1-.86.61-.8,1.3-1.55,2-2.36.91.49,1.07.21,1.85-1.82a8.8,8.8,0,0,1,.91,1.91c.28,1.4-.52,3,1,4.2l-.61.26c.2.35.53.66.53,1,0,2,1.68,2.48,2.94,3.23a1.27,1.27,0,0,0,2-.76c.86,1,1,0,1.2-.36l.69,1,.23-.18-.28-.34c.45-.36.88-.75,1.36-1.07s.89-.26,1.15-.55c.52-.57.81-1.36,1.36-1.87a6.83,6.83,0,0,1,1.65-.9c.25.35.44,1,.81,1.1a4.7,4.7,0,0,0,2.8.47c.9-.23,2.45.32,2.48-1.54-1.32,1-2.57,0-3.85-.08-.07,0-.12-.29-.18-.44a1.73,1.73,0,0,1,1-2.36l-.5-.57C406.66,381,408.29,378.67,408.25,377.46ZM176.47,390.51a5.09,5.09,0,0,0,.36,1.47c.35.55.83,1.36,1.3,1.39a2.27,2.27,0,0,0,1.87-.92c.61-1.24.82-2.68,1.31-4s1.14-2.64,1.71-3.92c1.77,1.51,2,3.24,2.06,5.14a4.33,4.33,0,0,0,1.54,2.58A4.5,4.5,0,0,0,189,393c.51.08,1.09-.32,1.6-.24,1.93.27,3.15-1.19,4.74-1.74-1,0-1.92.05-2.86.08a18.15,18.15,0,0,1-3.38,0A2.8,2.8,0,0,1,187,388c.76-.08,1.66.1,2.14-.27,1.44-1.1,2.94-2.24,3.41-4.17a2.12,2.12,0,0,0,.19-.88c-.28-1.25-2.15-2.27-3.24-1.66a9,9,0,0,0-2.21,1.88,11.8,11.8,0,0,0-1.2,2.13,12.8,12.8,0,0,0-1.17-1.36,2.37,2.37,0,0,0-1.21-.63c-1.5-.09-2.21.51-2.83,2.15-.75,2-1.51,3.93-2.34,6.09a8.26,8.26,0,0,1-.39-1.1c-.25-1.35-.43-2.72-.74-4.07-.08-.35-.58-.92-.78-.88a1.9,1.9,0,0,0-1.23.81c-.26.48-.12,1.16-.3,1.71a22.66,22.66,0,0,1-1.73,4.76c-.69,1.15-2.42,1.89-3.48.88a12.91,12.91,0,0,1,.93-1.94,6.05,6.05,0,0,0-.76-7.33q-1.9-1.67-2.9.64a8.71,8.71,0,0,0-.67,1.8c-.28,1.54-.46,3.1-.69,4.68-.25-.12-.79-.22-1-.53a14.2,14.2,0,0,1-1.36-2.44,7.09,7.09,0,0,0-2.4-3.43c-1.56-1-3-.81-3.92.84-.27.5-.61,1-1,1.54-.54-2,.1-3.94-.73-5.71,0-.11.09-.3.08-.45-.06-.63-.13-1.26-.22-1.88,0-.2-.21-.39-.18-.57a16.37,16.37,0,0,0-.66-6.6,6.43,6.43,0,0,0-.7-1.23c-.3.69-.67,1.12-.63,1.52.17,2,.43,4,.7,6,.07.58.37,1.13.41,1.71.08,1.32,0,2.65.08,4,.13,3.06.29,6.12.44,9.18,0,.74.11,1.48.16,2.22l.53.15c.31-.53.9-1.1.85-1.6s0-1.18,0-1.76c-.07-2.37,1-4.33,1.93-6.31,2.23-.07,2.26-.05,3.09,1.85a18.36,18.36,0,0,0,1,2.36c1.16,1.9,2.45,3.66,4.81,4.24a2.86,2.86,0,0,1,1,.66c1,.89,4,.88,4.9-.13.76-.84,1.38-1.8,2.08-2.69C175.53,391.58,176,391.11,176.47,390.51Zm151.62,26.3c0,1.78-.06,3.17,0,4.55.12,2.57.21,5.15.52,7.7.16,1.23.15,2.69,1.54,3.45s2.56.52,4.14-.74a30.24,30.24,0,0,1,2.83-1.95c.41-.26,1.06-.2,1.38-.51,1-1,1.67-.59,2.58.13s1.71,1.57,3,1.59a8.62,8.62,0,0,0,7.47-5c-.47.35-.73.5-.93.69-.57.54-1,1.31-1.7,1.6-2,.86-4,1.81-6.23.18-.84-.61-.81-1.17-.54-1.74a10.7,10.7,0,0,1,2.16-3.5c1.09-.94.78-1.95.78-2.95a2.25,2.25,0,0,0-2.73-1.84,3.93,3.93,0,0,0-2.43,3.16c-.15,1.48-.16,3-.25,4.46,0,.3,0,.72-.23.85a30.44,30.44,0,0,1-2.69,1.62c-.93.51-1.9.94-2.84,1.42l-3.25,1.64c-.13-2.16-.27-3.92-.35-5.69-.12-2.91-.26-5.83-.27-8.75,0-1.47-.29-3,.94-4.3a2.89,2.89,0,0,0,.67-1.87c0-1.62.9-3.29-.2-4.86a.48.48,0,0,1,0-.12c0-1-.35-1.54-1.79-1.17-.28,1.42-.61,3-.91,4.56a29.8,29.8,0,0,1-.92,4.77c-.93,2.47-3.14,3.74-5.45,4.77-.63.28-1.7-.25-1.71-.87,0-2.11-.07-4.22.05-6.33s.39-4.06.67-6.08c.16-1.12.13-2.37,1.82-3.12l-2.22-.83c-1.85,5.72-1.45,11.45-1.84,17.11l-3-.27c-.53,1-.49,1.41.71,1.45a4.21,4.21,0,0,1,2.12.82c.26.19.14.92.18,1.41.07.94.1,1.88.19,2.82.15,1.57.27,3.15.51,4.71a12.93,12.93,0,0,0,.74,2.17,1.94,1.94,0,0,0,.32-1.2q-.11-4.31-.24-8.59c0-.73.07-1.2,1-1.27a7.31,7.31,0,0,0,4-1.52A25.15,25.15,0,0,0,328.09,416.81Zm-74.68-31.75a4.1,4.1,0,0,0-.89.44,11.57,11.57,0,0,1-1.32,1.22c-1.9,1.08-1.94,2.82-1.71,4.63.25,2,1.44,3.21,2.88,2.74a9.56,9.56,0,0,0,2.57-1.74c.5-.38,1.23-.8,1.33-1.31.32-1.66,1.18-3.34.28-5.07-.49-.94,0-1.43.77-1.75,1.37-.55,2.76-1.05,4.15-1.55a1.39,1.39,0,0,1,.54,0c-.27,1.29-1.2,2.44-.42,3.86.36.64.44,1.42.76,2.08a7.75,7.75,0,0,0,1.4,2.26,3,3,0,0,0,2,.68,5.61,5.61,0,0,0,3.83-1.52c.84-.83,2-1.37,1.68-2.95a7.61,7.61,0,0,0-2.78-4.2c-.51-.42-1.81-1.37-2.82-.38-.7.69-1.08.42-1.54-.28.54-.42,1.08-1.18,1.62-1.18,1.46,0,1-.88,1.15-1.63-2.33-.44-3.39,1.71-5.19,2.17a25.16,25.16,0,0,0-2.37.91c-.74.27-1.51.47-2.23.78a1.49,1.49,0,0,1-2.23-.73,2.82,2.82,0,0,0-.69-.92,7.28,7.28,0,0,1-2.53-3.1c-.31-.6-.41-1.19.28-1.63a6.11,6.11,0,0,1,1.86-1.14,5.71,5.71,0,0,1,2.1.46c-.3-.64-.45-1.25-1.49-1.3a4.85,4.85,0,0,0-2,.31c-.75.28-2.75,1.78-2.94,2.6-.48,2,.85,3.35,2,4.51C252.35,383.21,253.58,383.64,253.41,385.06Zm93.31,81.24c-.05-1.18-.05-2.34-.17-3.48q-.45-4.36-1-8.73c0-.3-.4-.55-.61-.83-.4.37-1.16.75-1.14,1.09.1,1.83.43,3.64.63,5.46.25,2.22.48,4.45.66,6.68a24.76,24.76,0,0,1-.14,4.55,38,38,0,0,0,0,3.85,21.33,21.33,0,0,0,0,2.53c.08.69.28,1.43,1.34,1.09a.84.84,0,0,1,.75.39c.56,1.5,1.74,1.63,3.08,1.47a13.25,13.25,0,0,0,2.1-.26,2.07,2.07,0,0,0,1.18-.83,10.32,10.32,0,0,1,1-1.66,5.25,5.25,0,0,0,1.37-1.92c.32-1.43.81-2.88.35-4.41-.24-.81-.25-1.7-.53-2.49-.15-.42-.76-.66-1-1.07a4.5,4.5,0,0,0-3.23-2.18c-1.27-.26-2.37-.43-3.43.49C347.72,466.24,347.28,466.19,346.72,466.3Zm-27.64-78.17c-3.62.85-3.1,1.43-5.66,0l2.2-3.33-.66-.56c.87-.93.51-3.41-.56-4.14a2.5,2.5,0,0,0-2.81-.16c-1.47.74-1.83,2.07-2,3.47-.12.95,0,1.93,0,2.89a3.06,3.06,0,0,0,1.22,2.79c-1.36.73-2.62,1.45-3.92,2.1a3.7,3.7,0,0,1-5.36-2.07,11.38,11.38,0,0,1-.31-4.49,9,9,0,0,1,1.75-3.38c.28-.41,1-.49,1.61-.74-.62-.58-2.71-.41-3.18.39-1,1.65-3,3-1.81,5.4a.49.49,0,0,1-.07.45c-.87.83-.56,1.89-.31,2.75a6.27,6.27,0,0,0,1.5,2.61,2.91,2.91,0,0,0,2.19,1,13.12,13.12,0,0,1,2.36,0,3.44,3.44,0,0,0,1.46-.47,20.44,20.44,0,0,0,1.72-1.26c.71-.51,1.41-1.05,2.16-1.51a1.16,1.16,0,0,1,.93-.05,4.61,4.61,0,0,0,2.66.75c.74-.07,1.6-.65,1.93-.59C317.83,390.31,317.94,388.48,319.08,388.13ZM142,367.72c-.46.63-.76,1.49-1.33,1.76-2.81,1.36-5.64,2.7-8.56,3.77-1.23.45-1.57,1.06-1.58,2.44,3.85-.39,6.9-2.59,10.13-3.92,0,2.36,0,4.69,0,7,0,.55.19,1.09.18,1.63-.05,2.7-.19,5.39-.2,8.09,0,1.08.35,2.17.34,3.25a8.61,8.61,0,0,0,1.17,4.75c.16.27.55.39,1.09.76a12.48,12.48,0,0,1-.75-2,58.36,58.36,0,0,1-.71-6.57c-.11-5.12-.08-10.23,0-15.35,0-1.48.26-3,2-3.61a12.9,12.9,0,0,0,2.6-1.48c2.23-1.46,4.43-3,6.65-4.44l-.14-.38a4.91,4.91,0,0,0-1,.25c-2.89,1.43-5.78,2.86-8.66,4.34C142.63,368.31,142.21,368.46,142,367.72Zm233.62,16.36c1.13.13,1.49-.07.73-1.09-.15-.21,0-.6-.13-.87-.31-.76-.68-1.5-1-2.24-.65.47-1.53.81-1.92,1.44-1.15,1.87-2,3.89-3.17,5.76-.3.5-1.09.7-1.65,1-.15-.52-.32-1-.45-1.56-.05-.17,0-.38,0-.53-.51-1.16.1-2.16.43-3.21a5.38,5.38,0,0,0,.22-1.13c.08-.95.16-1.9.19-2.85,0-.34,0-.83-.21-1s-.94-.22-1-.08a7.06,7.06,0,0,0-1,2.25,10.51,10.51,0,0,0,.08,2.37c0,.24.1.57,0,.71-.56.64-.58.62-.34,1.39a.66.66,0,0,1,0,.35c-1,.16-.23.71-.23,1.07a3.3,3.3,0,0,0,.22.81l-1-.44c.9,1.18,0,3,1.94,3.4l.64-.52c.72.67,1.41,1.26,2.1,0,.08-.14.36-.16.48-.3a12.48,12.48,0,0,0,2-2.34,7,7,0,0,1,2.1-2.36l.25.2-.56.85,2.88,2.65a2,2,0,0,0-.7-2.7l.55-.28Zm-164.95-.92c.29.66.54,1.25.81,1.84,0,0,.07,0,.11,0,1.77.2,2,2,2.85,3s-.08,2-.42,3a4.5,4.5,0,0,1-3.28,3.21,5.46,5.46,0,0,1-.24-3.86,23,23,0,0,0,1-2.18l-.36-.15a8.34,8.34,0,0,0-3.15,6.48c-.06,1,1.56,2.39,2.46,2a9.22,9.22,0,0,0,3.92-2.65c.12-.17.12-.51.26-.58a1.54,1.54,0,0,0,.77-2.24c.8-.46,1.44-2.52.9-3.36-.29-.45-.2-1.28-1.29-1.21-.48,0-1-1.1-1.54-1.67-.38-.4-.83-.73-1.23-1.1l-1.63-1.51-.24.23.18-1-.63-.09c.09-.31.07-.72.26-.92.93-.95,1.91-1.83,2.91-2.78-.28-.68-.84-.63-1.46-.22a4.34,4.34,0,0,0-1.11.86c-.76,1-1.94,1.77-1.83,3.27A2,2,0,0,0,210.63,383.16Zm70.31,10.65a8.74,8.74,0,0,1-.71-2.19c-.12-2.55-.13-5.11-.12-7.67,0-1.06.18-2.13.21-3.2a21.44,21.44,0,0,0-.05-3c-.13-1.26-.39-2.5-.6-3.75,0-.22-.23-.52-.14-.65,1.08-1.71-.39-3.37-.09-5.14.25-1.55-.91-3.35,1.12-4.51.2-.11.17-.64.24-1a9.9,9.9,0,0,0-1.15-.35,1.56,1.56,0,0,0-1.62,1.43c0,1.72-.09,3.46,0,5.18.09,1.28-.51,2.75.85,3.74-1.3,1.33-1.3,1.4-.2,2.74l-.47,0a10,10,0,0,1,.23,1.09c.14,1.64.26,3.27.39,4.91a2.74,2.74,0,0,1,.07.69c-.29,1.57-1,3-.56,4.76a28.67,28.67,0,0,1,.39,4.76A2.24,2.24,0,0,0,280.94,393.81Zm8.22-8.87c.19-1.61-.92-2.11-1.65-2.79a1.49,1.49,0,0,0-1.25-.09c-1.16.43-2.19.83-2.26,2.51-.07,1.28-1,2.49-1.35,3.78a16.43,16.43,0,0,0-.39,2.63,11.62,11.62,0,0,1,1.56.8,1.61,1.61,0,0,0,2,.26,3.91,3.91,0,0,1,1.44-.49,2.47,2.47,0,0,0,2-1.45,14.78,14.78,0,0,1,1.42-1.76l-.4.73,1,1,.43-.56c0,.38-.12.82,0,1.11s.62.53.95.79a2.89,2.89,0,0,0,.36-.93q.08-1.5,0-3a6.15,6.15,0,0,0-.32-2c-.1-.26-.84-.57-1-.45a8.1,8.1,0,0,0-2.66,2.22,10.83,10.83,0,0,1-2.75,3.07,1.15,1.15,0,0,1-1.9-.27,4.67,4.67,0,0,0-.55-.7l.77-2c.58,0,.64-.56.68-1.35a5,5,0,0,1,.58-2c.06-.11.87.15,1.32.27C287.8,384.52,288.42,384.72,289.16,384.94Zm71.92,91-.8.06c.41-.45,1-.77,1.07-1.21a13,13,0,0,0,.15-2.5c.06-1.55.11-3.1.16-4.65l.21-6.62a.36.36,0,0,0,0-.23c-.5-.82,0-1.54.24-2.27,0-.09,0-.21-.06-.35l-.47.62-.34-.23a3.52,3.52,0,0,0,.54-.8c.16-.44.44-1,.29-1.36s-.74-.76-1.14-1.13a5.46,5.46,0,0,0-.6,1.21c-.23,1.21-.84,2.43-.06,3.67,0,0,0,.15-.05.22a10,10,0,0,0-.26,2.1c0,1.25.35,2.67-.13,3.72-.67,1.47-.19,2.83-.31,4.23-.06.65-.09,1.31-.11,2,0,1,0,2.08-.06,3.11s.13,3.05,1.14,3.64c.48.28.91.64,1.52,1.07l1.88-1.38C361.69,478.89,361.59,478.78,361.08,476ZM274.14,429.9l-.16-.27c-.33.13-.68.23-1,.39-1.89,1-2.4.77-3.72-.92s-2.83-3.33-4.29-5a1.9,1.9,0,0,0-2.12-.45c-3.21,1-4.91,3.54-6.38,6.25a3.57,3.57,0,0,0,0,2.33c.12.45.75.77,1.19,1.11a1.23,1.23,0,0,0,.52-.5c.46-1.12.77-2.3,1.3-3.38.92-1.85,2.12-3.47,4.4-3.71a1.72,1.72,0,0,1,1.24.45c1.54,1.62,3,3.32,4.54,4.95,1,1,1.58,1.08,2.68.27C273,431,273.54,430.43,274.14,429.9Zm-69.25-53.68a7.3,7.3,0,0,1-.09-1.41c.21-1.54.46-3.08.71-4.61a36.36,36.36,0,0,1,.84-4.68c.32-1.08-.11-1.56-.95-1.63-.29,0-.87.8-1,1.31a55.42,55.42,0,0,0-.73,5.75c-.12,1.79,0,3.6,0,5.44a9.14,9.14,0,0,0,.93,0C204.72,376.37,204.82,376.27,204.89,376.22Zm46.66,58.11.32-.11a6.17,6.17,0,0,1-.07-.74c0-2.32,0-4.64,0-7,.09-2.95.32-5.9.39-8.85,0-.48-.5-1-.91-1.7-.16,1.48-.36,2.53-.38,3.59-.1,4.25-.19,8.51-.18,12.76A6,6,0,0,0,251.55,434.33Zm1.65-21.6c-.18,1.14.57,2.83,1.81,4.15a8.4,8.4,0,0,1-.41-2.35C254.72,413.21,254.65,413,253.2,412.73Z" transform="translate(-130 -360.89)"/><path d="M393.81,480.65c-.69-.17-1.38-.39-2.09-.5a10.13,10.13,0,0,1-5-2.78,23.73,23.73,0,0,1-4.15,1.47c-1.14.19-2.33-.43-3.56-.42-.69,0-1.27-.65-2.05-.85-1-.25-1.67-1.44-2.47-2.24-.2-.2-.36-.67-.48-.65a1.59,1.59,0,0,0-.79.49c-1.3,1.29-2.71,2.31-4.68,2.09-.93-.1-2.12-2.12-1.89-3.18.16-.72.74-1.41-.3-2.15-.29-.2.25-1.68.56-2.52.06-.18.9-.31,1.13-.14a1.86,1.86,0,0,1,.5,1.22c.07,1.13-.06,2.26.07,3.38.06.53.48,1.42.8,1.45a4.22,4.22,0,0,0,1.95-.63c.34-.17.53-.65.87-.81.91-.44,1-1.2,1-2.05,0-1.5,0-3,0-4.5,0-1.76.69-2.38,2.46-2.22s2.75.81,3,2.25a1.36,1.36,0,0,1-.37,1.15c-.86.54-.09,2-1.56,2.31-.91.2-1.1,1.93-.72,3a1.81,1.81,0,0,1,0,.62c.91.57,1.82,1.06,2.66,1.67,1.6,1.18,5.47,1,6.72-.34a1.55,1.55,0,0,0,.27-1,18,18,0,0,1,1.22-7,4.84,4.84,0,0,1,1.52-1.91,1.62,1.62,0,0,1,1.5-.1,4.14,4.14,0,0,1,1.74,3.43c.05,1.85-1.24,2.87-1.9,4.28a.5.5,0,0,1-.1.14c-1.61,1.32-1.62,2.1.09,3.15a10.84,10.84,0,0,0,6.52,2,12,12,0,0,0,7.31-2.94c.88-.79,1.81-1.53,2.72-2.28l.23.19a31.83,31.83,0,0,1-2.57,3,21.62,21.62,0,0,1-3.57,2.68,12.8,12.8,0,0,1-2.57.76,2.69,2.69,0,0,0-.69.5Zm-5.57-8.52.48.11.93-3.44-.59-.16Zm-13.48-2.67.22.07c.15-.15.28-.41.46-.45.66-.17.69-.14.64-.86a2.35,2.35,0,0,0-.31-.76,4.08,4.08,0,0,0-.63.82A7.4,7.4,0,0,0,374.76,469.46Z" transform="translate(-130 -360.89)"/><path d="M408.25,377.46c0,1.21-1.59,3.53-3.24,4.21l.5.57a1.73,1.73,0,0,0-1,2.36c.06.15.11.43.18.44,1.28.09,2.53,1.08,3.85.08,0,1.86-1.58,1.31-2.48,1.54a4.7,4.7,0,0,1-2.8-.47c-.37-.15-.56-.75-.81-1.1a6.83,6.83,0,0,0-1.65.9c-.55.51-.84,1.3-1.36,1.87-.26.29-.79.32-1.15.55s-.91.71-1.36,1.07l.28.34L397,390l-.69-1c-.24.38-.34,1.37-1.2.36a1.27,1.27,0,0,1-2,.76c-1.26-.75-2.93-1.25-2.94-3.23,0-.32-.33-.63-.53-1l.61-.26c-1.48-1.17-.68-2.8-1-4.2a8.8,8.8,0,0,0-.91-1.91c-.78,2-.94,2.31-1.85,1.82-.7.81-1.39,1.56-2,2.36-.12.17.07.57.1.86a5.23,5.23,0,0,1,0,.56L384,385c-.37.26.39,1.31-.75,1.25a3.77,3.77,0,0,1-2.13,3.1,2.3,2.3,0,0,1-2.19-.18,1.17,1.17,0,0,1-.34-1.09,8.44,8.44,0,0,0,.9-4.26,6.16,6.16,0,0,1,.65-2.81l-.27-1.21a3.21,3.21,0,0,1,1.05,4.44l.29,1.57,1-.33-.82-.9c1.66.73,1.44-.67,1.86-1.17.85-1,1.43-2.27,2.25-3.33.3-.39,1.27-.39,1.39-.76.35-1,1.23-1.13,2-1.55,1-.54,1.42-.41,2.27.79.2.28.37.59.57.92l-.45.1c.39,2.33.77,4.59,1.17,7,.72.19,1-.11,1.28-1.07a6.91,6.91,0,0,1,2.12-2.92,13,13,0,0,1,3.25-1.79,1.41,1.41,0,0,0,1-1.72,35.49,35.49,0,0,1-.21-4.38c0-.69.26-1.38.33-2.07s.06-1.59.11-2.39c.14-2.43.21-4.86,1.9-6.88,1.15-1.38,2.64-1.48,4.21-1.28.36.05.66.61,1,.93.15.14.37.22.49.38a4.76,4.76,0,0,1,.9,1.32c.21.59.13,1.28.3,1.89.36,1.34.82,2.65,1.18,4a2.5,2.5,0,0,1-.05,1.05c-.28,1.46-.54,2.93-.92,4.36C409.23,376.4,408.77,376.77,408.25,377.46Zm-4.7,3.9a9.26,9.26,0,0,0,1.73-1.68,17.67,17.67,0,0,0,2.45-7.5,8.14,8.14,0,0,0,0-2.95,19,19,0,0,0-2-4.06c-.27-.45-1-.6-1.59-.88-.17.6-.36,1.19-.51,1.8,0,.12.11.29.09.42-.28,1.44-.67,2.86-.85,4.31a11.33,11.33,0,0,0-.14,4.25,8.45,8.45,0,0,1-.15,3.55C403,379.55,403.22,380.38,403.55,381.36Zm-5.91,5.7c.56-.87,1.06-1.62,1.52-2.38s-.08-2.1-.6-1.89a6.24,6.24,0,0,0-2.1,1.42c-.38.39-.43,1.09-.74,2Z" transform="translate(-130 -360.89)"/><path d="M406.56,428.91v-3.17a5.83,5.83,0,0,1,1.95-4.59c1-.89,2-2,3.67-1.56,1.32.34,2.34,1.59,1.37,2.89s-1.51,2.49-2.39,3.63a3.15,3.15,0,0,1-1.69,1c-1.14.27-1,1.15-.91,1.83.23,2.94,4.24,3.7,5.93,2.75.61-.34,1.41-.49,1.84-1a22.36,22.36,0,0,0,2.2-3.14c.45-.73.68-1.62,1.19-2.29a3.75,3.75,0,0,0,.65-2.91c-.05-.56.41-1.16.64-1.74a5.23,5.23,0,0,1,1.21.67c.56.55.95.48,1.64.1a9.91,9.91,0,0,1,6.68-1.51A4.59,4.59,0,0,1,434,424c.28,1.64-.54,2.95-.76,4.42-.3,2.06-2.27,2.69-3.07,4.21-.65,1.25-2.15.91-2.8,1.93-.94-.51-1.81.85-2.88,0-.47-.37-1.38-.17-2-.23a7.63,7.63,0,0,1-.44,6.35c-.06.1-.16.24-.13.32.61,1.45-.48,2.68-.52,4.06-.06,1.8-1.3,2.53-2.9,1.76a1.92,1.92,0,0,1-1-1.21c-.38-2.59-1.34-5.09-1-7.8a42.69,42.69,0,0,0,0-5.19c-1.31.52-2.49,1.77-4.12,1.16a31.26,31.26,0,0,1-4.37-1.84c-.51-.27-.67-1.19-1-1.82-.19-.4-.35-.82-.52-1.23Zm18.6,4.1a16.24,16.24,0,0,0,2.67-1c2.78-1.67,3.64-4.49,4-7.45.2-1.53-1.61-2.87-3.22-2.58-.45.08-.86.42-1.29.43a6.62,6.62,0,0,0-4,1.91,2.07,2.07,0,0,0-.86,2.75c.48,1,.1,2.41.18,3.63C422.83,432.68,423,432.78,425.16,433Zm-6.06-1.1c-.15,2.15-.4,4.11-.39,6.06s.27,3.72.42,5.58h.56c.18-1.24.43-2.47.52-3.71.16-2,.24-4,.31-6C420.55,433,420.46,432.16,419.1,431.91Zm-10.2-7.4.52.39c.68-1,1.37-1.93,2-2.91,0,0-.27-.21-.45-.36C410.27,422.64,409.59,423.58,408.9,424.51Z" transform="translate(-130 -360.89)"/><path d="M176.47,390.51c-.51.6-.94,1.07-1.33,1.57-.7.89-1.32,1.85-2.08,2.69-.92,1-3.91,1-4.9.13a2.86,2.86,0,0,0-1-.66c-2.36-.58-3.65-2.34-4.81-4.24a18.36,18.36,0,0,1-1-2.36c-.83-1.9-.86-1.92-3.09-1.85-1,2-2,3.94-1.93,6.31,0,.58-.07,1.15,0,1.76s-.54,1.07-.85,1.6l-.53-.15c0-.74-.12-1.48-.16-2.22-.15-3.06-.31-6.12-.44-9.18,0-1.33,0-2.66-.08-4,0-.58-.34-1.13-.41-1.71-.27-2-.53-4-.7-6,0-.4.33-.83.63-1.52a6.43,6.43,0,0,1,.7,1.23,16.37,16.37,0,0,1,.66,6.6c0,.18.15.37.18.57.09.62.16,1.25.22,1.88,0,.15-.13.34-.08.45.83,1.77.19,3.7.73,5.71.36-.57.7-1,1-1.54.9-1.65,2.36-1.87,3.92-.84a7.09,7.09,0,0,1,2.4,3.43,14.2,14.2,0,0,0,1.36,2.44c.23.31.77.41,1,.53.23-1.58.41-3.14.69-4.68a8.71,8.71,0,0,1,.67-1.8q1-2.31,2.9-.64a6.05,6.05,0,0,1,.76,7.33,12.91,12.91,0,0,0-.93,1.94c1.06,1,2.79.27,3.48-.88a22.66,22.66,0,0,0,1.73-4.76c.18-.55,0-1.23.3-1.71a1.9,1.9,0,0,1,1.23-.81c.2,0,.7.53.78.88.31,1.35.49,2.72.74,4.07a8.26,8.26,0,0,0,.39,1.1c.83-2.16,1.59-4.12,2.34-6.09.62-1.64,1.33-2.24,2.83-2.15a2.37,2.37,0,0,1,1.21.63A12.8,12.8,0,0,1,186.1,385a11.8,11.8,0,0,1,1.2-2.13,9,9,0,0,1,2.21-1.88c1.09-.61,3,.41,3.24,1.66a2.12,2.12,0,0,1-.19.88c-.47,1.93-2,3.07-3.41,4.17-.48.37-1.38.19-2.14.27a2.8,2.8,0,0,0,2.05,3.11,18.15,18.15,0,0,0,3.38,0c.94,0,1.88-.12,2.86-.08-1.59.55-2.81,2-4.74,1.74-.51-.08-1.09.32-1.6.24a4.5,4.5,0,0,1-2.34-.73,4.33,4.33,0,0,1-1.54-2.58c-.09-1.9-.29-3.63-2.06-5.14-.57,1.28-1.21,2.58-1.71,3.92s-.7,2.75-1.31,4a2.27,2.27,0,0,1-1.87.92c-.47,0-.95-.84-1.3-1.39A5.09,5.09,0,0,1,176.47,390.51Zm-8,1.76a3.93,3.93,0,0,0,1.66-3.82c-.14-1-.16-2.66-1.9-2.81C167.32,387.86,167,390.05,168.46,392.27Zm19.94-8.75a3.08,3.08,0,0,0-.32.89c0,.47,0,1.26.18,1.35,1,.4,1.49-.51,2-1.1a4.5,4.5,0,0,0,.49-1.43Z" transform="translate(-130 -360.89)"/><path d="M406.52,428.87a2.56,2.56,0,0,1-2,2c-.58.13-1,.91-1.6,1a19.77,19.77,0,0,1-4.14.16c-.6,0-1-.32-1.67.19a7.69,7.69,0,0,1-6.38,1.64,4.87,4.87,0,0,1-2.37-1.54,8.11,8.11,0,0,1-2.16-3.7,9.33,9.33,0,0,0-.29-.9,39.49,39.49,0,0,1-3.1,3.87c-1.53,1.53-3.35,2.84-5.61,2.74-.8,0-1.62-1-2.3-1.62-.25-.23-.11-.85-.17-1.28-.22-1.7.92-3,1.29-4.59a3.67,3.67,0,0,1,5.09-2.13,7.06,7.06,0,0,1,1.72,1.84,10.42,10.42,0,0,1,.84,1.5,25.21,25.21,0,0,0,2.13-3.46c.27-.63-.09-1.5,0-2.25.2-3.2.33-6.42.72-9.6a20.79,20.79,0,0,1,1.39-5.18c.43-1.06.86-2.34,2.21-2.78.15-.05.35-.23.41-.19a9.22,9.22,0,0,1,2.15,1.67c.32.41.11,1.23.11,1.86s0,1.41-.05,2.11a13.93,13.93,0,0,1-.24,3.73,60,60,0,0,1-2.48,5.79c-.6,1.37-1.14,2.77-1.82,4.1s0,2.69.15,4c.08.77.4,1.51.52,2.28.21,1.29,1.21,1.73,2.21,2.2,2.22,1,3.72-.23,5.05-1.5-.45-1.74-.84-3.41-1.31-5.05-.73-2.54,1.75-5.47,3.72-6a4.3,4.3,0,0,1,3.45.3,3,3,0,0,1,.92,3.52c-.11.17-.37.25-.63.42l.61.2-4,6a5.25,5.25,0,0,0,5.52,0c.75-.39,1.45-.88,2.18-1.33Zm-24.21-.12c-.33-.83-.43-1.9-1-2.43-1-.94-3-.21-3.58,1.15a25.07,25.07,0,0,0-1.14,3.36,2,2,0,0,0,.33,1.68c.38.33,1.17.26,1.78.23a1.64,1.64,0,0,0,1-.47C380.65,431.24,382.32,430.69,382.31,428.75Zm5.25-8.52c2.48-2.47,4.42-11.63,3-13.55C388.26,410.87,387.9,415.44,387.56,420.23Zm9.62,4c-1,1.55.35,2.79.35,4.49.55-.45,1-.65,1.16-1,.79-1.61,1.56-3.24,2.22-4.9a1.36,1.36,0,0,0-.41-1.25,1.79,1.79,0,0,0-1.56-.05,27.44,27.44,0,0,0-2.6,2.65Z" transform="translate(-130 -360.89)"/><path d="M328.09,416.81a25.15,25.15,0,0,1-2.46,2.6,7.31,7.31,0,0,1-4,1.52c-.91.07-1,.54-1,1.27q.13,4.29.24,8.59a1.94,1.94,0,0,1-.32,1.2,12.93,12.93,0,0,1-.74-2.17c-.24-1.56-.36-3.14-.51-4.71-.09-.94-.12-1.88-.19-2.82,0-.49.08-1.22-.18-1.41a4.21,4.21,0,0,0-2.12-.82c-1.2,0-1.24-.48-.71-1.45l3,.27c.39-5.66,0-11.39,1.84-17.11l2.22.83c-1.69.75-1.66,2-1.82,3.12-.28,2-.55,4-.67,6.08s-.07,4.22-.05,6.33c0,.62,1.08,1.15,1.71.87,2.31-1,4.52-2.3,5.45-4.77a29.8,29.8,0,0,0,.92-4.77c.3-1.57.63-3.14.91-4.56,1.44-.37,1.83.15,1.79,1.17a.48.48,0,0,0,0,.12c1.1,1.57.16,3.24.2,4.86a2.89,2.89,0,0,1-.67,1.87c-1.23,1.28-.95,2.83-.94,4.3,0,2.92.15,5.84.27,8.75.08,1.77.22,3.53.35,5.69l3.25-1.64c.94-.48,1.91-.91,2.84-1.42a30.44,30.44,0,0,0,2.69-1.62c.19-.13.21-.55.23-.85.09-1.48.1-3,.25-4.46a3.93,3.93,0,0,1,2.43-3.16,2.25,2.25,0,0,1,2.73,1.84c0,1,.31,2-.78,2.95a10.7,10.7,0,0,0-2.16,3.5c-.27.57-.3,1.13.54,1.74,2.22,1.63,4.22.68,6.23-.18.67-.29,1.13-1.06,1.7-1.6.2-.19.46-.34.93-.69a8.62,8.62,0,0,1-7.47,5c-1.24,0-2.09-.9-3-1.59s-1.61-1.09-2.58-.13c-.32.31-1,.25-1.38.51a30.24,30.24,0,0,0-2.83,1.95c-1.58,1.26-2.76,1.5-4.14.74s-1.38-2.22-1.54-3.45c-.31-2.55-.4-5.13-.52-7.7C328,420,328.09,418.59,328.09,416.81Zm13.45,7.26c1-.16,1.88-2.22,1.49-3.51C341.46,421.28,342.22,422.94,341.54,424.07Z" transform="translate(-130 -360.89)"/><path d="M364.32,369c-1-.23-1.71-1.44-1.56-2.93l-.5.47c-.89-1-1.79-2-2.64-3a16.69,16.69,0,0,1-1-1.52c.16-.09,0-.05-.06,0-.39,1-.38,1-1.17,1.3a5.53,5.53,0,0,0-3.18,3.34,17.5,17.5,0,0,0-1.23,5.41,36.59,36.59,0,0,1-.84,4.32l8.44-1.82c.66.72,1.18,1.71,2,2a4.82,4.82,0,0,1,2,1.3,3.33,3.33,0,0,1,.63,4.2,12.71,12.71,0,0,1-2.86,3.37c-1.23.94-2.6,1.21-3.83,1.91-.14.07-.5-.25-.76-.38l-.53,1.3-.7-1.67-.2,1a18.67,18.67,0,0,1-2.41-.56c-.94-.33-.75-1.15-.64-1.91a13.33,13.33,0,0,0,.08-1.41l-.3,0-.57.66-.27-.12,2-5.65-1.62-.74c-.31,1.38-.63,2.77-.91,4.16a9.78,9.78,0,0,0-.25,2c0,1.51.19,3,.13,4.53,0,.54-.5,1.06-.82,1.68-.46-.95-.91-1.73-1.21-2.56-.19-.52-.41-1.29-.17-1.66.36-.54.36-.85,0-1.28a.47.47,0,0,1-.1-.32,28,28,0,0,0,.48-3c0-.73-.08-1.45.54-2-.24-.15-.54-.49-.71-.44a7.8,7.8,0,0,0-1.37.71,3.27,3.27,0,0,1-.28-1.16c.05-.36.29-.92.57-1,1.07-.34,1.9-.71,1.62-2.09a1.92,1.92,0,0,1,.36-1.1c.26-.47.83-.82.17-1.48-.13-.12.42-.92.71-1.51a.48.48,0,0,1-.2-.31,7.32,7.32,0,0,1,.11-.8c.09-2.9,1-5.37,3.54-7.06.57-.39,1-1,1.55-1.4.4-.25.88-1.22,1.51-.18,0,.05.41-.15.63-.17.65,0,1.29-.2,1.7.62.14.3.27,1.11,1.1.69.09,0,.62.82,1,1.24a7.47,7.47,0,0,1,1,1c.42.73.74,1.52,1.12,2.29.1.2.24.39.41.66l-.34.48Zm-4.41,10.51-1.66-2.05L354.79,381c-.69,2.24-.08,4,1.69,5l1.77-.25a5.86,5.86,0,0,0,4.07-2.82,3.17,3.17,0,0,0-.65-4.46,1.53,1.53,0,0,0-1.28-.27C360.1,378.38,360.07,379,359.91,379.49Z" transform="translate(-130 -360.89)"/><path d="M253.41,385.06c.17-1.42-1.06-1.85-1.91-2.7-1.17-1.16-2.5-2.51-2-4.51.19-.82,2.19-2.32,2.94-2.6a4.85,4.85,0,0,1,2-.31c1,.05,1.19.66,1.49,1.3a5.71,5.71,0,0,0-2.1-.46,6.11,6.11,0,0,0-1.86,1.14c-.69.44-.59,1-.28,1.63a7.28,7.28,0,0,0,2.53,3.1,2.82,2.82,0,0,1,.69.92,1.49,1.49,0,0,0,2.23.73c.72-.31,1.49-.51,2.23-.78a25.16,25.16,0,0,1,2.37-.91c1.8-.46,2.86-2.61,5.19-2.17-.1.75.31,1.62-1.15,1.63-.54,0-1.08.76-1.62,1.18.46.7.84,1,1.54.28,1-1,2.31,0,2.82.38a7.61,7.61,0,0,1,2.78,4.2c.36,1.58-.84,2.12-1.68,2.95a5.61,5.61,0,0,1-3.83,1.52,3,3,0,0,1-2-.68,7.75,7.75,0,0,1-1.4-2.26c-.32-.66-.4-1.44-.76-2.08-.78-1.42.15-2.57.42-3.86a1.39,1.39,0,0,0-.54,0c-1.39.5-2.78,1-4.15,1.55-.79.32-1.26.81-.77,1.75.9,1.73,0,3.41-.28,5.07-.1.51-.83.93-1.33,1.31a9.56,9.56,0,0,1-2.57,1.74c-1.44.47-2.63-.72-2.88-2.74-.23-1.81-.19-3.55,1.71-4.63a11.57,11.57,0,0,0,1.32-1.22A4.1,4.1,0,0,1,253.41,385.06Zm10.56-2.3c0,.52.12.9,0,1.1-.94,1.33-.49,2.69-.07,4,.29.89.67,1.92,1.85,2,1,.1,2,.15,2.75-.9a3.52,3.52,0,0,0,0-3.61c-.28-.38-.49-.8-.74-1.22Zm-9.08,2.55-3.12,2.25a10.36,10.36,0,0,1-.53,1.05,2.29,2.29,0,0,0,.35,2.85,1.42,1.42,0,0,0,2.24,0,5.14,5.14,0,0,0,1.34-4.1C255.13,386.68,255,386,254.89,385.31Z" transform="translate(-130 -360.89)"/><path d="M346.72,466.3c.56-.11,1-.06,1.23-.26,1.06-.92,2.16-.75,3.43-.49a4.5,4.5,0,0,1,3.23,2.18c.23.41.84.65,1,1.07.28.79.29,1.68.53,2.49.46,1.53,0,3-.35,4.41a5.25,5.25,0,0,1-1.37,1.92,10.32,10.32,0,0,0-1,1.66,2.07,2.07,0,0,1-1.18.83,13.25,13.25,0,0,1-2.1.26c-1.34.16-2.52,0-3.08-1.47a.84.84,0,0,0-.75-.39c-1.06.34-1.26-.4-1.34-1.09a21.33,21.33,0,0,1,0-2.53,38,38,0,0,1,0-3.85,24.76,24.76,0,0,0,.14-4.55c-.18-2.23-.41-4.46-.66-6.68-.2-1.82-.53-3.63-.63-5.46,0-.34.74-.72,1.14-1.09.21.28.58.53.61.83q.56,4.37,1,8.73C346.67,464,346.67,465.12,346.72,466.3Zm7.47,2.78a7.43,7.43,0,0,1-1.25-1,2.87,2.87,0,0,0-3.53-.77,3.22,3.22,0,0,0-2,3.29l.83-.48c0,.24.09.37,0,.44a8.58,8.58,0,0,0-.77,5.84c.11.64.26,1.51.71,1.82a3,3,0,0,0,3.53-.37c2.35-1.87,2.53-4.72,2.65-7.49A7,7,0,0,0,354.19,469.08Z" transform="translate(-130 -360.89)"/><path d="M319.08,388.13c-1.14.35-1.25,2.18-3,1.86-.33-.06-1.19.52-1.93.59a4.61,4.61,0,0,1-2.66-.75,1.16,1.16,0,0,0-.93.05c-.75.46-1.45,1-2.16,1.51a20.44,20.44,0,0,1-1.72,1.26,3.44,3.44,0,0,1-1.46.47,13.12,13.12,0,0,0-2.36,0,2.91,2.91,0,0,1-2.19-1,6.27,6.27,0,0,1-1.5-2.61c-.25-.86-.56-1.92.31-2.75a.49.49,0,0,0,.07-.45c-1.23-2.4.83-3.75,1.81-5.4.47-.8,2.56-1,3.18-.39-.58.25-1.33.33-1.61.74a9,9,0,0,0-1.75,3.38,11.38,11.38,0,0,0,.31,4.49,3.7,3.7,0,0,0,5.36,2.07c1.3-.65,2.56-1.37,3.92-2.1a3.06,3.06,0,0,1-1.22-2.79c0-1-.1-1.94,0-2.89.18-1.4.54-2.73,2-3.47a2.5,2.5,0,0,1,2.81.16c1.07.73,1.43,3.21.56,4.14l.66.56-2.2,3.33C316,389.56,315.46,389,319.08,388.13Zm-6.56-1.87c1.23-2,1.32-3.7.23-4.77-.94.71-1,1.3-.31,2.19l-.78.52Z" transform="translate(-130 -360.89)"/><path d="M142,367.72c.25.74.67.59,1.24.3,2.88-1.48,5.77-2.91,8.66-4.34a4.91,4.91,0,0,1,1-.25l.14.38c-2.22,1.48-4.42,3-6.65,4.44a12.9,12.9,0,0,1-2.6,1.48c-1.77.65-2,2.13-2,3.61-.07,5.12-.1,10.23,0,15.35a58.36,58.36,0,0,0,.71,6.57,12.48,12.48,0,0,0,.75,2c-.54-.37-.93-.49-1.09-.76a8.61,8.61,0,0,1-1.17-4.75c0-1.08-.34-2.17-.34-3.25,0-2.7.15-5.39.2-8.09,0-.54-.17-1.08-.18-1.63,0-2.33,0-4.66,0-7-3.23,1.33-6.28,3.53-10.13,3.92,0-1.38.35-2,1.58-2.44,2.92-1.07,5.75-2.41,8.56-3.77C141.2,369.21,141.5,368.35,142,367.72Z" transform="translate(-130 -360.89)"/><path d="M375.58,384.08l1.32.81-.55.28a2,2,0,0,1,.7,2.7l-2.88-2.65.56-.85-.25-.2a7,7,0,0,0-2.1,2.36,12.48,12.48,0,0,1-2,2.34c-.12.14-.4.16-.48.3-.69,1.25-1.38.66-2.1,0l-.64.52c-1.91-.37-1-2.22-1.94-3.4l1,.44a3.3,3.3,0,0,1-.22-.81c0-.36-.75-.91.23-1.07a.66.66,0,0,0,0-.35c-.24-.77-.22-.75.34-1.39.12-.14,0-.47,0-.71a10.51,10.51,0,0,1-.08-2.37,7.06,7.06,0,0,1,1-2.25c.09-.14.78-.11,1,.08s.22.64.21,1c0,.95-.11,1.9-.19,2.85a5.38,5.38,0,0,1-.22,1.13c-.33,1.05-.94,2.05-.43,3.21.07.15,0,.36,0,.53.13.52.3,1,.45,1.56.56-.33,1.35-.53,1.65-1,1.13-1.87,2-3.89,3.17-5.76.39-.63,1.27-1,1.92-1.44.34.74.71,1.48,1,2.24.11.27,0,.66.13.87C377.07,384,376.71,384.21,375.58,384.08Z" transform="translate(-130 -360.89)"/><path d="M210.63,383.16a2,2,0,0,1-1.94-1.73c-.11-1.5,1.07-2.27,1.83-3.27a4.34,4.34,0,0,1,1.11-.86c.62-.41,1.18-.46,1.46.22-1,1-2,1.83-2.91,2.78-.19.2-.17.61-.26.92l.63.09-.18,1,.24-.23,1.63,1.51c.4.37.85.7,1.23,1.1.54.57,1.06,1.7,1.54,1.67,1.09-.07,1,.76,1.29,1.21.54.84-.1,2.9-.9,3.36a1.54,1.54,0,0,1-.77,2.24c-.14.07-.14.41-.26.58a9.22,9.22,0,0,1-3.92,2.65c-.9.43-2.52-1-2.46-2a8.34,8.34,0,0,1,3.15-6.48l.36.15a23,23,0,0,1-1,2.18,5.46,5.46,0,0,0,.24,3.86A4.5,4.5,0,0,0,214,391c.34-1,1.23-2,.42-3s-1.08-2.79-2.85-3c0,0-.1,0-.11,0C211.17,384.41,210.92,383.82,210.63,383.16Z" transform="translate(-130 -360.89)"/><path d="M280.94,393.81a2.24,2.24,0,0,1-2.17-2.09,28.67,28.67,0,0,0-.39-4.76c-.42-1.73.27-3.19.56-4.76a2.74,2.74,0,0,0-.07-.69c-.13-1.64-.25-3.27-.39-4.91a10,10,0,0,0-.23-1.09l.47,0c-1.1-1.34-1.1-1.41.2-2.74-1.36-1-.76-2.46-.85-3.74-.13-1.72,0-3.46,0-5.18a1.56,1.56,0,0,1,1.62-1.43,9.9,9.9,0,0,1,1.15.35c-.07.32,0,.85-.24,1-2,1.16-.87,3-1.12,4.51-.3,1.77,1.17,3.43.09,5.14-.09.13.1.43.14.65.21,1.25.47,2.49.6,3.75a21.44,21.44,0,0,1,.05,3c0,1.07-.21,2.14-.21,3.2,0,2.56,0,5.12.12,7.67A8.74,8.74,0,0,0,280.94,393.81Z" transform="translate(-130 -360.89)"/><path d="M289.16,384.94c-.74-.22-1.36-.42-2-.59-.45-.12-1.26-.38-1.32-.27a5,5,0,0,0-.58,2c0,.79-.1,1.39-.68,1.35l-.77,2a4.67,4.67,0,0,1,.55.7,1.15,1.15,0,0,0,1.9.27,10.83,10.83,0,0,0,2.75-3.07,8.1,8.1,0,0,1,2.66-2.22c.18-.12.92.19,1,.45a6.15,6.15,0,0,1,.32,2q.08,1.5,0,3a2.89,2.89,0,0,1-.36.93c-.33-.26-.76-.46-.95-.79s0-.73,0-1.11l-.43.56-1-1,.4-.73a14.78,14.78,0,0,0-1.42,1.76,2.47,2.47,0,0,1-2,1.45,3.91,3.91,0,0,0-1.44.49,1.61,1.61,0,0,1-2-.26,11.62,11.62,0,0,0-1.56-.8,16.43,16.43,0,0,1,.39-2.63c.38-1.29,1.28-2.5,1.35-3.78.07-1.68,1.1-2.08,2.26-2.51a1.49,1.49,0,0,1,1.25.09C288.24,382.83,289.35,383.33,289.16,384.94Z" transform="translate(-130 -360.89)"/><path d="M361.08,476c.51,2.8.61,2.91,2.8,2.88L362,480.24c-.61-.43-1-.79-1.52-1.07-1-.59-1.24-2.56-1.14-3.64s0-2.07.06-3.11c0-.65.05-1.31.11-2,.12-1.4-.36-2.76.31-4.23.48-1.05.14-2.47.13-3.72a10,10,0,0,1,.26-2.1c0-.07.08-.18.05-.22-.78-1.24-.17-2.46.06-3.67a5.46,5.46,0,0,1,.6-1.21c.4.37.95.68,1.14,1.13s-.13.92-.29,1.36a3.52,3.52,0,0,1-.54.8l.34.23.47-.62c0,.14.09.26.06.35-.28.73-.74,1.45-.24,2.27a.36.36,0,0,1,0,.23l-.21,6.62c-.05,1.55-.1,3.1-.16,4.65a13,13,0,0,1-.15,2.5c-.1.44-.66.76-1.07,1.21Z" transform="translate(-130 -360.89)"/><path d="M274.14,429.9c-.6.53-1.16,1.11-1.8,1.57-1.1.81-1.71.76-2.68-.27-1.54-1.63-3-3.33-4.54-4.95a1.72,1.72,0,0,0-1.24-.45c-2.28.24-3.48,1.86-4.4,3.71-.53,1.08-.84,2.26-1.3,3.38a1.23,1.23,0,0,1-.52.5c-.44-.34-1.07-.66-1.19-1.11a3.57,3.57,0,0,1,0-2.33c1.47-2.71,3.17-5.28,6.38-6.25a1.9,1.9,0,0,1,2.12.45c1.46,1.62,2.94,3.23,4.29,5s1.83,1.88,3.72.92c.32-.16.67-.26,1-.39Z" transform="translate(-130 -360.89)"/><path d="M204.89,376.22c-.07,0-.17.15-.27.16a9.14,9.14,0,0,1-.93,0c0-1.84-.1-3.65,0-5.44a55.42,55.42,0,0,1,.73-5.75c.09-.51.67-1.34,1-1.31.84.07,1.27.55.95,1.63a36.36,36.36,0,0,0-.84,4.68c-.25,1.53-.5,3.07-.71,4.61A7.3,7.3,0,0,0,204.89,376.22Z" transform="translate(-130 -360.89)"/><path d="M251.55,434.33a6,6,0,0,1-.8-2c0-4.25.08-8.51.18-12.76,0-1.06.22-2.11.38-3.59.41.74.92,1.22.91,1.7-.07,2.95-.3,5.9-.39,8.85-.07,2.32,0,4.64,0,7a6.17,6.17,0,0,0,.07.74Z" transform="translate(-130 -360.89)"/><path d="M253.2,412.73c1.45.24,1.52.48,1.4,1.8a8.4,8.4,0,0,0,.41,2.35C253.77,415.56,253,413.87,253.2,412.73Z" transform="translate(-130 -360.89)"/><path d="M364.32,369l0-.61H365v2.86l.23-.15,1.12,1.39-1.56-.1Z" transform="translate(-130 -360.89)"/><path class="cls-1" d="M388.24,472.13l.82-3.49.59.16-.93,3.44Z" transform="translate(-130 -360.89)"/><path class="cls-1" d="M374.76,469.46a7.4,7.4,0,0,1,.38-1.18,4.08,4.08,0,0,1,.63-.82,2.35,2.35,0,0,1,.31.76c.05.72,0,.69-.64.86-.18,0-.31.3-.46.45Z" transform="translate(-130 -360.89)"/><path class="cls-1" d="M403.55,381.36c-.33-1-.6-1.81-.92-2.74a8.45,8.45,0,0,0,.15-3.55,11.33,11.33,0,0,1,.14-4.25c.18-1.45.57-2.87.85-4.31,0-.13-.13-.3-.09-.42.15-.61.34-1.2.51-1.8.54.28,1.32.43,1.59.88a19,19,0,0,1,2,4.06,8.14,8.14,0,0,1,0,2.95,17.67,17.67,0,0,1-2.45,7.5A9.26,9.26,0,0,1,403.55,381.36Z" transform="translate(-130 -360.89)"/><path class="cls-1" d="M397.64,387.06l-1.92-.88c.31-.88.36-1.58.74-2a6.24,6.24,0,0,1,2.1-1.42c.52-.21,1,1.23.6,1.89S398.2,386.19,397.64,387.06Z" transform="translate(-130 -360.89)"/><path class="cls-1" d="M425.16,433c-2.19-.23-2.33-.33-2.46-2.35-.08-1.22.3-2.62-.18-3.63a2.07,2.07,0,0,1,.86-2.75,6.62,6.62,0,0,1,4-1.91c.43,0,.84-.35,1.29-.43,1.61-.29,3.42,1.05,3.22,2.58-.38,3-1.24,5.78-4,7.45A16.24,16.24,0,0,1,425.16,433Z" transform="translate(-130 -360.89)"/><path class="cls-1" d="M419.1,431.91c1.36.25,1.45,1.08,1.42,1.89-.07,2-.15,4-.31,6-.09,1.24-.34,2.47-.52,3.71h-.56c-.15-1.86-.42-3.72-.42-5.58S419,434.06,419.1,431.91Z" transform="translate(-130 -360.89)"/><path class="cls-1" d="M408.9,424.51c.69-.93,1.37-1.87,2.11-2.88.18.15.46.35.45.36-.67,1-1.36,1.95-2,2.91Z" transform="translate(-130 -360.89)"/><path class="cls-1" d="M168.46,392.27c-1.43-2.22-1.14-4.41-.24-6.63,1.74.15,1.76,1.79,1.9,2.81A3.93,3.93,0,0,1,168.46,392.27Z" transform="translate(-130 -360.89)"/><path class="cls-1" d="M188.4,383.52l2.36-.29a4.5,4.5,0,0,1-.49,1.43c-.52.59-1,1.5-2,1.1-.21-.09-.2-.88-.18-1.35A3.08,3.08,0,0,1,188.4,383.52Z" transform="translate(-130 -360.89)"/><path class="cls-1" d="M382.31,428.75c0,1.94-1.66,2.49-2.61,3.52a1.64,1.64,0,0,1-1,.47c-.61,0-1.4.1-1.78-.23a2,2,0,0,1-.33-1.68,25.07,25.07,0,0,1,1.14-3.36c.53-1.36,2.54-2.09,3.58-1.15C381.88,426.85,382,427.92,382.31,428.75Z" transform="translate(-130 -360.89)"/><path class="cls-1" d="M387.56,420.23c.34-4.79.7-9.36,3-13.55C392,408.6,390,417.76,387.56,420.23Z" transform="translate(-130 -360.89)"/><path class="cls-1" d="M397.18,424.27l-.84,0a27.44,27.44,0,0,1,2.6-2.65,1.79,1.79,0,0,1,1.56.05,1.36,1.36,0,0,1,.41,1.25c-.66,1.66-1.43,3.29-2.22,4.9-.17.34-.61.54-1.16,1C397.53,427.06,396.14,425.82,397.18,424.27Z" transform="translate(-130 -360.89)"/><path class="cls-1" d="M341.54,424.07c.68-1.13-.08-2.79,1.49-3.51C343.42,421.85,342.59,423.91,341.54,424.07Z" transform="translate(-130 -360.89)"/><path class="cls-1" d="M359.91,379.49c.16-.47.19-1.11.48-1.27a1.53,1.53,0,0,1,1.28.27,3.17,3.17,0,0,1,.65,4.46,5.86,5.86,0,0,1-4.07,2.82l-1.77.25c-1.77-1.09-2.38-2.81-1.69-5l3.46-3.53Z" transform="translate(-130 -360.89)"/><path class="cls-1" d="M264,382.76l3.74,1.4c.25.42.46.84.74,1.22a3.52,3.52,0,0,1,0,3.61c-.7,1.05-1.73,1-2.75.9-1.18-.11-1.56-1.14-1.85-2-.42-1.31-.87-2.67.07-4C264.09,383.66,264,383.28,264,382.76Z" transform="translate(-130 -360.89)"/><path class="cls-1" d="M254.89,385.31c.1.71.24,1.37.28,2a5.14,5.14,0,0,1-1.34,4.1,1.42,1.42,0,0,1-2.24,0,2.29,2.29,0,0,1-.35-2.85,10.36,10.36,0,0,0,.53-1.05Z" transform="translate(-130 -360.89)"/><path class="cls-1" d="M354.19,469.08a7,7,0,0,1,.21,1.31c-.12,2.77-.3,5.62-2.65,7.49a3,3,0,0,1-3.53.37c-.45-.31-.6-1.18-.71-1.82a8.58,8.58,0,0,1,.77-5.84c0-.07,0-.2,0-.44l-.83.48a3.22,3.22,0,0,1,2-3.29,2.87,2.87,0,0,1,3.53.77A7.43,7.43,0,0,0,354.19,469.08Z" transform="translate(-130 -360.89)"/><path class="cls-1" d="M312.52,386.26l-.86-2.06.78-.52c-.72-.89-.63-1.48.31-2.19C313.84,382.56,313.75,384.27,312.52,386.26Z" transform="translate(-130 -360.89)"/></svg>